<svg width="4441" height="1075" viewBox="0 0 4441 1075" fill="none" xmlns="http://www.w3.org/2000/svg">
<g clip-path="url(#clip0)">
<path opacity="0.51" d="M801.498 1231.01C833.643 1233.45 866.964 1234.69 900.534 1234.69C926.862 1234.69 953.169 1233.93 978.721 1232.42C1003.63 1230.95 1028.13 1228.76 1051.55 1225.9C1074.52 1223.1 1096.7 1219.63 1117.45 1215.58C1137.99 1211.58 1157.31 1206.98 1174.86 1201.92C1190.98 1197.36 1206.8 1191.83 1222.24 1185.36C1234.74 1180.18 1246.72 1173.82 1258.01 1166.35C1267.91 1159.6 1275.51 1152.54 1280.61 1145.35C1283.08 1141.94 1285.06 1138.2 1286.49 1134.24C1287.8 1130.57 1288.48 1126.7 1288.49 1122.8C1288.49 1120 1288.13 1117.2 1287.44 1114.49C1307.17 1109.86 1325 1104.85 1340.46 1099.61C1356.08 1094.32 1369.47 1088.72 1380.24 1082.97C1391.2 1077.11 1399.61 1071.02 1405.24 1064.85C1407.88 1062.04 1410.06 1058.83 1411.71 1055.35C1413.13 1052.29 1413.88 1048.96 1413.91 1045.59C1413.8 1040.46 1412.15 1035.49 1409.17 1031.31C1406.09 1026.7 1401.44 1022.09 1395.37 1017.61C1383.45 1008.82 1365.84 1000.35 1343.04 992.451C1343.59 990.482 1343.87 988.449 1343.87 986.405C1343.83 982.584 1342.89 978.825 1341.13 975.436C1339.03 971.473 1336.31 967.876 1333.07 964.785C1326.08 957.897 1315.65 951.121 1302.08 944.646C1288.75 938.29 1272.25 932.159 1253.04 926.424C1234.01 920.748 1212.16 915.403 1188.1 910.548C1164.03 905.693 1137.55 901.286 1109.39 897.448C1080.97 893.575 1050.57 890.246 1019.05 887.557C986.944 884.818 953.356 882.715 919.214 881.306C884.174 879.859 848.112 879.126 812.03 879.126C776.424 879.126 740.831 879.84 706.241 881.248C672.535 882.62 639.341 884.669 607.581 887.338C576.403 889.959 546.303 893.204 518.103 896.982C490.171 900.724 463.843 905.025 439.86 909.765C415.877 914.505 394.024 919.723 374.908 925.275C355.612 930.878 338.922 936.873 325.298 943.095C311.433 949.427 300.594 956.061 293.085 962.813C289.613 965.84 286.601 969.358 284.144 973.255C282.097 976.518 280.791 980.191 280.322 984.015C197.309 992.737 127.267 1005.97 77.7666 1022.29C52.8186 1030.52 33.5179 1039.4 20.3999 1048.69C6.8649 1058.28 0 1068.25 0 1078.33C0.0363337 1082.09 0.941929 1085.8 2.646 1089.15C4.65429 1093.04 7.27685 1096.59 10.4136 1099.65C17.1456 1106.44 27.1948 1113.12 40.2798 1119.5C53.1248 1125.77 69.0246 1131.81 87.5376 1137.47C105.883 1143.07 126.929 1148.34 150.126 1153.12C173.323 1157.91 198.845 1162.26 225.985 1166.04C253.391 1169.86 282.684 1173.14 313.051 1175.79C343.973 1178.49 376.345 1180.57 409.265 1181.96C443.02 1183.38 477.775 1184.11 512.565 1184.11C533.248 1184.11 553.995 1183.85 574.227 1183.35C591.427 1191.04 611.904 1198.13 635.09 1204.4C660.405 1211.13 686.054 1216.54 711.932 1220.6C740.165 1225.14 770.298 1228.64 801.498 1231.01Z" fill="white"/>
<path opacity="0.51" d="M3188.13 1009.15C3154.56 1009.15 3121.24 1007.91 3089.09 1005.47C3057.89 1003.1 3027.76 999.599 2999.53 995.061C2973.65 990.998 2948 985.592 2922.69 978.861C2899.5 972.586 2879.02 965.502 2861.82 957.806C2841.59 958.306 2820.84 958.562 2800.16 958.562C2765.37 958.562 2730.61 957.839 2696.86 956.414C2663.94 955.023 2631.57 952.95 2600.65 950.251C2570.28 947.601 2540.99 944.318 2513.58 940.498C2486.44 936.714 2460.92 932.369 2437.72 927.582C2414.52 922.795 2393.48 917.53 2375.13 911.928C2356.62 906.272 2340.72 900.228 2327.88 893.96C2314.79 887.575 2304.74 880.894 2298.01 874.104C2294.87 871.045 2292.25 867.499 2290.24 863.604C2288.54 860.252 2287.63 856.551 2287.6 852.791C2287.6 842.708 2294.46 832.733 2308 823.145C2321.11 813.856 2340.41 804.976 2365.36 796.75C2414.86 780.431 2484.9 767.194 2567.92 758.472C2568.39 754.648 2569.69 750.975 2571.74 747.712C2574.2 743.815 2577.21 740.297 2580.68 737.27C2588.19 730.518 2599.03 723.884 2612.89 717.552C2626.52 711.33 2643.21 705.335 2662.5 699.732C2681.62 694.18 2703.47 688.962 2727.46 684.222C2751.44 679.482 2777.77 675.181 2805.7 671.439C2833.9 667.661 2864 664.416 2895.18 661.795C2926.94 659.126 2960.13 657.077 2993.84 655.705C3028.43 654.297 3064.02 653.583 3099.62 653.583C3135.71 653.583 3171.77 654.316 3206.81 655.763C3240.95 657.172 3274.54 659.275 3306.64 662.014C3338.17 664.703 3368.56 668.032 3396.98 671.905C3425.15 675.743 3451.63 680.15 3475.69 685.005C3499.76 689.86 3521.61 695.205 3540.64 700.881C3559.84 706.616 3576.34 712.747 3589.67 719.104C3603.25 725.579 3613.67 732.354 3620.66 739.242C3623.91 742.333 3626.63 745.93 3628.72 749.893C3630.49 753.282 3631.43 757.041 3631.47 760.862C3631.46 762.906 3631.18 764.939 3630.63 766.908C3653.43 774.808 3671.04 783.274 3682.97 792.068C3689.04 796.546 3693.68 801.154 3696.77 805.768C3699.74 809.945 3701.39 814.92 3701.5 820.046C3701.48 823.419 3700.73 826.746 3699.3 829.804C3697.66 833.291 3695.47 836.499 3692.83 839.312C3687.21 845.475 3678.8 851.569 3667.83 857.424C3657.06 863.176 3643.68 868.777 3628.05 874.071C3612.6 879.308 3594.76 884.313 3575.04 888.944C3575.73 891.661 3576.08 894.454 3576.09 897.258C3576.07 901.157 3575.4 905.026 3574.09 908.699C3572.65 912.657 3570.67 916.395 3568.21 919.808C3563.11 926.994 3555.51 934.061 3545.6 940.808C3534.32 948.275 3522.34 954.641 3509.83 959.816C3494.39 966.29 3478.57 971.82 3462.46 976.377C3444.91 981.44 3425.59 986.036 3405.04 990.04C3384.29 994.083 3362.12 997.554 3339.14 1000.36C3315.73 1003.21 3291.23 1005.41 3266.32 1006.88C3240.76 1008.38 3214.46 1009.15 3188.13 1009.15ZM1299.41 785.316C1276.53 785.316 1253.66 784.671 1231.45 783.4C1209.81 782.162 1188.51 780.312 1168.16 777.9C1148.18 775.537 1128.91 772.611 1110.88 769.2C1093.03 765.828 1076.24 761.953 1060.98 757.683C1046.99 753.848 1033.25 749.187 1019.81 743.725C1008.97 739.375 998.556 734.011 988.721 727.704C980.116 722.014 973.506 716.058 969.074 710.004C964.529 703.789 962.224 697.395 962.224 690.995C962.227 688.894 962.471 686.799 962.949 684.753C932.113 681.57 901.478 676.669 871.188 670.072C843.518 663.914 819.253 656.62 799.069 648.394C778.622 640.061 762.753 630.929 751.904 621.252C740.69 611.252 735.004 600.793 735.004 590.178C735.004 579.886 740.356 569.735 750.91 560.007C761.126 550.593 776.097 541.67 795.41 533.486C814.457 525.415 837.419 518.186 863.659 512.011C892.413 505.384 921.513 500.365 950.825 496.977C953.269 490.395 958.3 483.849 965.776 477.523C973.089 471.336 982.841 465.275 994.76 459.51C1008.22 453.156 1022.11 447.737 1036.31 443.292C1052.04 438.243 1069.76 433.511 1088.97 429.227C1108.23 424.932 1129.19 421.042 1151.27 417.667C1173.58 414.256 1197.29 411.33 1221.75 408.967C1272.53 404.067 1326.23 401.583 1381.36 401.583C1436.47 401.583 1490.17 404.067 1540.95 408.966C1565.38 411.323 1589.09 414.248 1611.42 417.66C1633.5 421.035 1654.46 424.923 1673.71 429.215C1706.93 429.688 1740.01 430.806 1772.02 432.54C1803.3 434.24 1833.96 436.54 1863.16 439.393C1891.91 442.201 1919.54 445.569 1945.3 449.402C1970.88 453.209 1994.88 457.514 2016.62 462.202C2038.4 466.894 2058.13 472.014 2075.27 477.418C2092.59 482.877 2107.45 488.687 2119.44 494.683C2131.64 500.789 2141.01 507.163 2147.28 513.628C2150.2 516.551 2152.64 519.923 2154.5 523.616C2156.09 526.809 2156.93 530.32 2156.96 533.885C2156.88 538.524 2155.5 543.048 2152.98 546.941C2149.83 551.762 2145.89 556.013 2141.33 559.518C2162.05 564.17 2180.8 569.218 2197.08 574.529C2213.53 579.897 2227.63 585.592 2238.98 591.453C2250.55 597.423 2259.43 603.645 2265.37 609.953C2268.15 612.816 2270.45 616.1 2272.21 619.685C2273.71 622.805 2274.51 626.22 2274.54 629.685C2274.5 633.422 2273.58 637.098 2271.85 640.414C2269.81 644.29 2267.15 647.808 2263.98 650.833C2257.15 657.569 2246.97 664.196 2233.71 670.533C2220.69 676.75 2204.57 682.746 2185.81 688.356C2167.22 693.912 2145.88 699.136 2122.37 703.884C2098.86 708.632 2072.99 712.944 2045.48 716.697C2017.71 720.487 1988.02 723.742 1957.23 726.372C1925.86 729.052 1893.04 731.108 1859.71 732.485C1825.49 733.9 1790.26 734.617 1755.01 734.617C1704.35 734.617 1654.26 733.145 1606.14 730.244C1592.93 738.309 1575.69 745.818 1554.9 752.561C1531.63 759.909 1507.91 765.725 1483.88 769.972C1429.02 780.008 1365.24 785.316 1299.41 785.316Z" fill="white"/>
<path d="M731.632 1068.32C698.464 1078.65 674 1114.39 674 1156.9C674 1207.48 708.637 1248.49 751.363 1248.49C789.622 1248.49 821.399 1215.61 827.622 1172.41C837.562 1169.24 846.708 1163.98 854.441 1156.98C869.957 1168.65 888.368 1175.41 908.111 1175.41C921.547 1175.39 934.796 1172.25 946.811 1166.24C965.04 1188.58 990.604 1202.47 1018.91 1202.47C1049.87 1202.47 1077.55 1185.85 1095.93 1159.74L1099.58 1013.41C1081.33 984.153 1051.99 965.184 1018.91 965.184C1005.47 965.2 992.223 968.34 980.206 974.356C961.981 952.016 936.417 938.126 908.111 938.126C872.23 938.126 840.75 960.448 823.05 994.001C818.081 992.832 812.994 992.243 807.89 992.244C769.632 992.244 737.855 1025.12 731.632 1068.32Z" fill="#22AD76"/>
<path d="M731.632 1068.32C698.464 1078.65 674 1114.39 674 1156.9C674 1207.48 708.637 1248.49 751.363 1248.49C789.622 1248.49 821.399 1215.61 827.622 1172.41C837.562 1169.24 846.708 1163.98 854.441 1156.98C869.957 1168.65 888.368 1175.41 908.111 1175.41C921.547 1175.39 934.796 1172.25 946.811 1166.24C965.04 1188.58 990.604 1202.47 1018.91 1202.47C1049.87 1202.47 1077.55 1185.85 1095.93 1159.74L1099.58 1013.41C1081.33 984.153 1051.99 965.184 1018.91 965.184C1005.47 965.2 992.223 968.34 980.206 974.356C961.981 952.016 936.417 938.126 908.111 938.126C872.23 938.126 840.75 960.448 823.05 994.001C818.081 992.832 812.994 992.243 807.89 992.244C769.632 992.244 737.855 1025.12 731.632 1068.32Z" fill="url(#paint0_linear)"/>
<path d="M3379.16 947.113C3365.45 921.753 3342.94 903.317 3315.14 898.011L3310.39 1129.33C3324.11 1154.7 3346.62 1173.13 3374.42 1178.44C3404.83 1184.24 3435.13 1173.11 3458.09 1150.91C3467.98 1162.85 3481.19 1171.27 3496.59 1174.21C3530.38 1180.65 3563.99 1158.73 3579.12 1123.25C3585.71 1133.77 3594.32 1142.88 3604.44 1150.07C3614.56 1157.26 3626 1162.38 3638.11 1165.13C3650.21 1167.89 3662.74 1168.22 3674.98 1166.12C3687.22 1164.02 3698.92 1159.53 3709.41 1152.9C3722.54 1172.03 3742.7 1185.19 3765.49 1189.5C3813.15 1198.59 3859.12 1167.52 3868.17 1120.1C3877.22 1072.67 3845.93 1026.85 3798.27 1017.76C3775.49 1013.37 3751.9 1018.18 3732.65 1031.13C3718.61 1011.71 3697.64 998.437 3674.08 994.057C3633.57 986.325 3594.42 1005.45 3576.51 1038.58C3566.4 1019.93 3549.83 1006.37 3529.37 1002.46C3515.72 999.929 3501.61 1001.82 3489.1 1007.85C3476.66 975.692 3451.4 951.56 3418.9 945.359C3405.7 942.856 3392.1 943.457 3379.16 947.113Z" fill="url(#paint1_linear)"/>
<path opacity="0.51" d="M3847.31 464.781C3893.76 467.827 3942.3 469.372 3991.6 469.372C4025.93 469.372 4060.18 468.615 4093.4 467.123C4125.71 465.672 4157.34 463.511 4187.41 460.7C4358.66 422.515 4350 369.692 4350 317.645C4350 265.597 4266.77 215.105 4159.5 212.626C3812.27 204.6 3613.11 187.361 3265.79 189.126C2935.53 190.804 2439 206.626 2424 267.626C2424 277.126 2424 279.342 2424 280.977C2424.03 284.326 2424.84 287.623 2426.36 290.609C2428.14 294.078 2430.48 297.236 2433.27 299.963C2439.26 306.012 2448.2 311.96 2459.85 317.645C2471.28 323.225 2485.42 328.609 2501.9 333.645C2518.22 338.633 2536.96 343.325 2557.6 347.586C2578.24 351.847 2600.96 355.717 2625.11 359.086C2649.5 362.49 2675.57 365.411 2702.58 367.77C2730.11 370.174 2758.92 372.022 2788.2 373.26C2818.25 374.529 2849.18 375.173 2880.13 375.173C2885.02 375.173 2889.91 375.157 2894.66 375.126C2929.04 394.55 2981.15 410.937 3045.35 422.515C3077.71 428.351 3112.64 432.866 3149.18 435.934C3186.9 439.101 3226.13 440.706 3265.79 440.706C3293.18 440.706 3320.57 439.929 3347.21 438.406C3373.17 436.922 3398.76 434.703 3423.27 431.812C3447.34 428.973 3470.61 425.459 3492.45 421.364C3514.08 417.31 3534.52 412.645 3553.22 407.499C3569.39 416.438 3592.17 424.814 3620.95 432.399C3649.43 439.906 3683.22 446.493 3721.37 451.974C3760.02 457.527 3802.39 461.836 3847.31 464.781Z" fill="white"/>
<path d="M2461.69 1134.96H2429.34C2425.1 1134.97 2420.89 1134.14 2416.96 1132.51C2413.04 1130.88 2409.47 1128.5 2406.47 1125.49C2405.5 1124.52 2404.59 1123.49 2403.75 1122.4L2415.59 1115.56L2397.07 1104.86C2397.02 1104.12 2397 1103.36 2397 1102.61C2396.99 1098.36 2397.83 1094.15 2399.45 1090.23C2401.08 1086.3 2403.46 1082.73 2406.46 1079.73C2409.47 1076.73 2413.04 1074.34 2416.96 1072.72C2420.89 1071.09 2425.1 1070.26 2429.34 1070.26H2429.35C2433.6 1070.26 2437.81 1071.09 2441.74 1072.72C2445.66 1074.34 2449.23 1076.73 2452.23 1079.73C2455.24 1082.73 2457.62 1086.3 2459.25 1090.23C2460.87 1094.15 2461.7 1098.36 2461.7 1102.61L2461.69 1134.96ZM2438.84 1110.9L2419.95 1112.22L2420.01 1113.1C2420.18 1115.34 2421.17 1117.42 2422.81 1118.95C2424.44 1120.48 2426.6 1121.33 2428.83 1121.34C2429.04 1121.34 2429.25 1121.33 2429.46 1121.31L2429.81 1121.29C2432.38 1121.11 2434.78 1119.91 2436.47 1117.96C2438.16 1116.02 2439.01 1113.48 2438.84 1110.9V1110.9ZM2443.53 1092.05C2442.32 1092.05 2441.14 1092.4 2440.14 1093.07C2439.13 1093.74 2438.35 1094.69 2437.88 1095.81C2437.42 1096.92 2437.3 1098.15 2437.53 1099.33C2437.77 1100.52 2438.35 1101.6 2439.2 1102.46C2440.05 1103.31 2441.14 1103.89 2442.32 1104.13C2443.51 1104.37 2444.73 1104.25 2445.85 1103.79C2446.96 1103.32 2447.92 1102.54 2448.59 1101.54C2449.26 1100.54 2449.62 1099.36 2449.62 1098.15C2449.62 1096.53 2448.97 1094.98 2447.83 1093.84C2446.69 1092.7 2445.14 1092.05 2443.53 1092.05V1092.05ZM2415.93 1092.05C2414.72 1092.05 2413.54 1092.4 2412.53 1093.07C2411.53 1093.74 2410.75 1094.69 2410.28 1095.81C2409.82 1096.92 2409.7 1098.15 2409.93 1099.33C2410.16 1100.52 2410.74 1101.6 2411.6 1102.46C2412.45 1103.31 2413.54 1103.89 2414.72 1104.13C2415.9 1104.37 2417.13 1104.25 2418.25 1103.79C2419.36 1103.32 2420.32 1102.54 2420.99 1101.54C2421.66 1100.54 2422.02 1099.36 2422.02 1098.15C2422.02 1096.53 2421.37 1094.98 2420.23 1093.84C2419.09 1092.69 2417.54 1092.05 2415.92 1092.05H2415.93ZM2390.73 1129.92V1101.2L2397.07 1104.86C2397.51 1111.24 2399.83 1117.34 2403.75 1122.4L2390.73 1129.91V1129.92Z" fill="white"/>
<path d="M1781.62 1151.71C1781.62 1109.2 1806.09 1073.46 1839.25 1063.13C1845.48 1019.93 1877.25 987.05 1915.51 987.05C1920.62 987.049 1925.7 987.638 1930.67 988.807C1948.37 955.254 1979.85 932.932 2015.73 932.932C2044.04 932.932 2069.6 946.822 2087.83 969.162C2099.84 963.146 2113.1 960.006 2126.53 959.99C2159.61 959.99 2188.95 978.959 2207.2 1008.21C2218.36 999.942 2231.86 995.444 2245.75 995.375C2266.58 995.375 2285.39 1005.59 2298.82 1022.01C2310.2 986.118 2345.07 959.99 2386.32 959.99C2410.28 959.876 2433.37 968.986 2450.8 985.432C2467.27 969.1 2489.55 959.953 2512.75 959.992C2561.26 959.992 2600.59 999.132 2600.59 1047.41C2600.59 1095.69 2561.26 1134.83 2512.75 1134.83C2489.55 1134.87 2467.27 1125.72 2450.8 1109.39C2441.73 1117.87 2431.08 1124.48 2419.45 1128.84C2407.83 1133.19 2395.46 1135.21 2383.05 1134.78C2370.64 1134.34 2358.44 1131.46 2347.15 1126.29C2335.86 1121.13 2325.7 1113.79 2317.26 1104.69C2309.05 1142.38 2280.14 1170.22 2245.75 1170.22C2230.06 1170.22 2215.51 1164.42 2203.55 1154.55C2185.17 1180.66 2157.49 1197.28 2126.53 1197.28C2098.23 1197.28 2072.66 1183.38 2054.43 1161.04C2042.42 1167.06 2029.17 1170.2 2015.73 1170.22C1995.99 1170.22 1977.58 1163.46 1962.06 1151.79C1954.33 1158.79 1945.18 1164.05 1935.24 1167.21C1929.02 1210.41 1897.24 1243.29 1858.99 1243.29C1816.26 1243.29 1781.62 1202.29 1781.62 1151.71Z" fill="url(#paint2_linear)"/>
<path d="M1863.5 933.099H1097.45V1145.36H1863.5V933.099Z" fill="#EEB594"/>
<path opacity="0.13" d="M1863.04 1024.11C1855.72 1024.11 1848.65 1021.4 1843.2 1016.51C1837.76 1011.62 1834.31 1004.88 1833.53 997.598C1832.7 1005.14 1829.02 1012.08 1823.24 1016.99C1817.46 1021.9 1810.01 1024.41 1802.44 1024.01C1794.86 1023.6 1787.73 1020.31 1782.5 1014.81C1777.28 1009.31 1774.36 1002.02 1774.34 994.432C1774.34 998.388 1773.56 1002.31 1772.05 1005.96C1770.61 1009.47 1768.5 1012.66 1765.85 1015.37C1763.23 1018.06 1760.12 1020.22 1756.67 1021.71C1753.13 1023.25 1749.3 1024.04 1745.44 1024.04C1741.58 1024.04 1737.75 1023.25 1734.21 1021.71C1730.76 1020.22 1727.65 1018.06 1725.03 1015.37C1722.38 1012.66 1720.27 1009.47 1718.83 1005.96C1717.32 1002.31 1716.54 998.39 1716.54 994.435C1716.54 998.402 1715.72 1002.33 1714.13 1005.96C1712.58 1009.49 1710.37 1012.69 1707.59 1015.37C1704.81 1018.09 1701.52 1020.24 1697.92 1021.71C1690.33 1024.82 1681.83 1024.82 1674.24 1021.71C1670.64 1020.24 1667.36 1018.09 1664.57 1015.37C1661.8 1012.69 1659.58 1009.49 1658.03 1005.96C1656.44 1002.33 1655.62 998.402 1655.62 994.435C1655.62 998.39 1654.84 1002.31 1653.33 1005.96C1651.88 1009.47 1649.78 1012.66 1647.13 1015.37C1644.51 1018.06 1641.39 1020.22 1637.95 1021.71C1634.4 1023.25 1630.58 1024.04 1626.72 1024.04C1622.85 1024.04 1619.03 1023.25 1615.48 1021.71C1612.04 1020.22 1608.92 1018.06 1606.31 1015.37C1603.66 1012.66 1601.55 1009.47 1600.11 1005.96C1598.59 1002.31 1597.82 998.39 1597.81 994.435C1597.77 1002.28 1594.62 1009.78 1589.06 1015.31C1583.5 1020.84 1575.98 1023.94 1568.13 1023.94C1560.29 1023.94 1552.77 1020.84 1547.21 1015.31C1541.65 1009.78 1538.5 1002.28 1538.45 994.435C1538.41 1002.28 1535.26 1009.78 1529.7 1015.31C1524.14 1020.84 1516.62 1023.94 1508.77 1023.94C1500.93 1023.94 1493.41 1020.84 1487.85 1015.31C1482.29 1009.78 1479.14 1002.28 1479.09 994.435C1479.09 998.402 1478.27 1002.33 1476.68 1005.96C1475.14 1009.49 1472.92 1012.69 1470.15 1015.37C1467.36 1018.09 1464.08 1020.24 1460.48 1021.71C1452.89 1024.82 1444.38 1024.82 1436.79 1021.71C1433.19 1020.24 1429.91 1018.09 1427.12 1015.37C1424.35 1012.69 1422.13 1009.49 1420.59 1005.96C1419 1002.33 1418.18 998.402 1418.17 994.435C1418.13 1002.28 1414.98 1009.78 1409.42 1015.31C1403.86 1020.84 1396.34 1023.94 1388.49 1023.94C1380.65 1023.94 1373.13 1020.84 1367.57 1015.31C1362.01 1009.78 1358.86 1002.28 1358.81 994.435C1358.77 1002.28 1355.62 1009.78 1350.06 1015.31C1344.5 1020.84 1336.97 1023.94 1329.13 1023.94C1321.29 1023.94 1313.77 1020.84 1308.21 1015.31C1302.64 1009.78 1299.5 1002.28 1299.45 994.435C1299.45 998.39 1298.67 1002.31 1297.16 1005.96C1295.71 1009.47 1293.61 1012.66 1290.96 1015.37C1288.34 1018.06 1285.23 1020.22 1281.78 1021.71C1278.24 1023.25 1274.41 1024.04 1270.55 1024.04C1266.69 1024.04 1262.86 1023.25 1259.32 1021.71C1255.87 1020.22 1252.75 1018.06 1250.14 1015.37C1247.49 1012.66 1245.38 1009.47 1243.94 1005.96C1242.43 1002.31 1241.65 998.388 1241.65 994.432H1241.5C1241.5 998.388 1240.72 1002.31 1239.21 1005.96C1237.76 1009.47 1235.66 1012.66 1233.01 1015.37C1230.39 1018.06 1227.27 1020.22 1223.83 1021.71C1220.29 1023.25 1216.46 1024.04 1212.6 1024.04C1208.73 1024.04 1204.91 1023.25 1201.37 1021.71C1197.92 1020.22 1194.8 1018.06 1192.19 1015.37C1189.54 1012.66 1187.43 1009.46 1185.99 1005.96C1184.48 1002.3 1183.7 998.387 1183.7 994.432C1183.7 998.388 1182.92 1002.31 1181.41 1005.96C1179.96 1009.47 1177.86 1012.66 1175.21 1015.37C1172.59 1018.06 1169.48 1020.22 1166.03 1021.71C1162.49 1023.25 1158.66 1024.04 1154.8 1024.04C1150.93 1024.04 1147.11 1023.25 1143.57 1021.71C1140.12 1020.22 1137 1018.06 1134.39 1015.37C1131.74 1012.66 1129.63 1009.46 1128.19 1005.96C1126.68 1002.3 1125.9 998.387 1125.9 994.432C1125.91 1002.06 1123.01 1009.4 1117.8 1014.97C1112.7 1020.45 1105.65 1023.7 1098.18 1024.01V919.562H1863.5V1024.11C1863.34 1024.11 1863.19 1024.11 1863.04 1024.11Z" fill="black"/>
<path d="M1069.3 974.266C1065.74 974.271 1062.22 973.6 1058.91 972.289C1055.7 971.016 1052.75 969.173 1050.19 966.85C1044.94 962.073 1041.56 955.583 1040.66 948.543L1076.11 865.012H1890.73L1922.75 940.427C1922.92 941.703 1923.01 942.989 1923.01 944.277L1923.1 944.585H1923.01C1923.01 952.456 1919.89 960.006 1914.32 965.572C1908.76 971.138 1901.21 974.265 1893.33 974.265C1885.46 974.265 1877.91 971.138 1872.35 965.572C1866.78 960.006 1863.65 952.456 1863.65 944.585C1863.61 952.427 1860.46 959.932 1854.9 965.461C1849.34 970.99 1841.82 974.093 1833.97 974.093C1826.13 974.093 1818.61 970.99 1813.05 965.461C1807.49 959.932 1804.34 952.427 1804.29 944.585C1804.28 948.532 1803.5 952.439 1801.98 956.085C1800.53 959.58 1798.43 962.766 1795.78 965.47C1793.17 968.155 1790.05 970.304 1786.61 971.795C1783.07 973.324 1779.25 974.113 1775.4 974.113C1771.54 974.113 1767.72 973.324 1764.18 971.795C1760.74 970.304 1757.63 968.155 1755.01 965.47C1752.36 962.766 1750.26 959.58 1748.81 956.085C1747.29 952.44 1746.51 948.532 1746.5 944.585C1746.48 948.545 1745.65 952.459 1744.06 956.085C1742.51 959.609 1740.29 962.797 1737.52 965.47C1734.74 968.176 1731.46 970.323 1727.86 971.795C1720.28 974.887 1711.79 974.887 1704.21 971.795C1700.62 970.323 1697.34 968.176 1694.55 965.47C1691.78 962.797 1689.56 959.609 1688.01 956.085C1686.42 952.459 1685.59 948.545 1685.58 944.585C1685.56 948.532 1684.78 952.439 1683.26 956.085C1681.81 959.58 1679.71 962.766 1677.06 965.47C1674.45 968.155 1671.33 970.304 1667.89 971.795C1664.35 973.324 1660.53 974.114 1656.68 974.114C1652.82 974.114 1649 973.324 1645.46 971.795C1642.02 970.304 1638.91 968.155 1636.29 965.47C1633.64 962.766 1631.54 959.58 1630.09 956.085C1628.58 952.44 1627.79 948.532 1627.78 944.585C1627.73 952.427 1624.59 959.932 1619.03 965.461C1613.46 970.99 1605.94 974.093 1598.1 974.093C1590.26 974.093 1582.73 970.99 1577.17 965.461C1571.61 959.932 1568.46 952.427 1568.42 944.585C1568.37 952.427 1565.23 959.932 1559.66 965.461C1554.1 970.99 1546.58 974.093 1538.74 974.093C1530.9 974.093 1523.37 970.99 1517.81 965.461C1512.25 959.932 1509.1 952.427 1509.06 944.585C1509.04 948.545 1508.21 952.459 1506.62 956.085C1505.07 959.609 1502.85 962.797 1500.08 965.47C1497.29 968.176 1494.01 970.323 1490.42 971.795C1482.84 974.887 1474.35 974.887 1466.77 971.795C1463.18 970.323 1459.9 968.176 1457.11 965.47C1454.34 962.797 1452.12 959.609 1450.57 956.085C1448.98 952.459 1448.15 948.545 1448.13 944.585C1448.09 952.427 1444.94 959.932 1439.38 965.461C1433.82 970.99 1426.29 974.093 1418.45 974.093C1410.61 974.093 1403.09 970.99 1397.53 965.461C1391.96 959.932 1388.82 952.427 1388.77 944.585C1388.73 952.427 1385.58 959.932 1380.02 965.461C1374.46 970.99 1366.93 974.093 1359.09 974.093C1351.25 974.093 1343.73 970.99 1338.16 965.461C1332.6 959.932 1329.46 952.427 1329.41 944.585C1329.4 948.532 1328.61 952.439 1327.1 956.085C1325.65 959.58 1323.54 962.766 1320.9 965.47C1318.28 968.155 1315.17 970.304 1311.73 971.795C1308.19 973.324 1304.37 974.113 1300.51 974.113C1296.65 974.113 1292.84 973.324 1289.29 971.795C1285.86 970.304 1282.74 968.155 1280.13 965.47C1277.48 962.766 1275.37 959.58 1273.93 956.085C1272.41 952.44 1271.62 948.532 1271.61 944.585C1271.6 948.532 1270.82 952.439 1269.3 956.085C1267.85 959.58 1265.75 962.766 1263.1 965.47C1260.49 968.155 1257.37 970.304 1253.93 971.795C1250.39 973.332 1246.56 974.121 1242.7 974.112C1238.84 974.118 1235.02 973.329 1231.48 971.793C1228.04 970.302 1224.93 968.153 1222.31 965.468C1219.67 962.764 1217.56 959.578 1216.11 956.083C1214.6 952.438 1213.81 948.53 1213.8 944.583C1213.79 948.53 1213 952.437 1211.49 956.083C1210.04 959.578 1207.94 962.764 1205.29 965.468C1202.67 968.153 1199.56 970.302 1196.12 971.793C1192.58 973.329 1188.76 974.118 1184.9 974.112C1181.04 974.118 1177.22 973.329 1173.68 971.793C1170.24 970.302 1167.13 968.153 1164.51 965.468C1161.87 962.764 1159.76 959.578 1158.31 956.083C1156.8 952.438 1156.01 948.53 1156 944.583C1155.99 948.53 1155.2 952.437 1153.69 956.083C1152.24 959.578 1150.14 962.764 1147.49 965.468C1144.87 968.153 1141.76 970.302 1138.32 971.793C1134.78 973.329 1130.96 974.118 1127.1 974.112C1123.25 974.118 1119.43 973.329 1115.89 971.793C1112.45 970.302 1109.33 968.153 1106.72 965.468C1104.07 962.764 1101.97 959.578 1100.52 956.083C1099 952.438 1098.22 948.53 1098.21 944.583C1098.21 948.545 1097.44 952.471 1095.93 956.136C1094.49 959.648 1092.39 962.851 1089.74 965.57C1087.12 968.27 1084 970.431 1080.55 971.931C1077.01 973.477 1073.17 974.272 1069.3 974.266Z" fill="#6A21FF"/>
<path d="M1730.97 763.02C1733 765.199 1734.08 768.094 1733.98 771.07C1733.87 774.046 1732.59 776.858 1730.41 778.888L1721.13 787.542C1718.95 789.572 1716.05 790.654 1713.08 790.549C1710.1 790.444 1707.29 789.162 1705.26 786.984C1701.03 782.448 1702.17 776.391 1705.28 770.836C1708.38 765.281 1718.78 754.253 1718.78 754.253C1718.78 754.253 1729.65 761.605 1730.97 763.02Z" fill="#AA4F62"/>
<path d="M1840.4 803.555C1833.83 805.093 1827.17 806.222 1820.46 806.934C1812.2 807.563 1801.43 804.257 1801.43 804.257C1802.79 802.196 1803.9 799.98 1804.74 797.656C1805.81 794.519 1806.69 791.32 1807.39 788.077C1807.48 787.772 1814.29 784.654 1820.13 780.224C1823.81 777.413 1827.27 774.34 1830.51 771.03C1830.51 771.03 1827.67 783.053 1830.16 789.201C1832.66 795.348 1840.4 803.555 1840.4 803.555Z" fill="#AA4F62"/>
<path d="M1679.38 753.612L1680.31 755.544C1680.31 755.544 1688.33 760.885 1689.8 761.745C1690.14 761.996 1690.53 762.169 1690.95 762.249C1691.36 762.33 1691.79 762.317 1692.2 762.211L1710.39 754.579L1705.68 740.356L1679.38 753.612Z" fill="#AA4F62"/>
<path d="M1785.25 674.18L1794.68 676.708C1810.18 680.866 1823.4 691.013 1831.42 704.916C1839.45 718.819 1841.62 735.34 1837.46 750.845L1835.19 759.331C1831.03 774.837 1820.88 788.056 1806.98 796.08C1793.08 804.105 1776.55 806.277 1761.05 802.12L1751.62 799.592C1736.12 795.435 1722.9 785.289 1714.87 771.386C1706.85 757.482 1704.68 740.961 1708.83 725.455L1711.11 716.968C1715.27 701.462 1725.41 688.244 1739.32 680.219C1753.22 672.195 1769.74 670.022 1785.25 674.18V674.18Z" fill="#F27187"/>
<path d="M1837.48 750.85L1835.2 759.337C1833.15 767.018 1829.6 774.219 1824.77 780.528C1819.93 786.836 1813.89 792.129 1807.01 796.103C1800.12 800.078 1792.52 802.655 1784.63 803.688C1776.75 804.722 1768.74 804.19 1761.06 802.125L1751.63 799.597C1739.34 796.296 1728.4 789.206 1720.36 779.333C1712.33 769.461 1707.6 757.308 1706.86 744.599C1709.85 758.897 1717.56 771.771 1728.76 781.144C1739.96 790.516 1753.99 795.839 1768.59 796.251C1783.19 796.664 1797.5 792.144 1809.22 783.419C1820.93 774.695 1829.36 762.277 1833.14 748.171L1833.4 747.228C1837.81 730.911 1835.65 713.514 1827.38 698.772C1832.81 705.992 1836.56 714.332 1838.36 723.184C1839.27 727.677 1839.66 732.26 1839.53 736.842C1839.4 741.576 1838.71 746.277 1837.48 750.85Z" fill="#C45C6F"/>
<path d="M1703.91 720.534L1705 716.475L1729.22 736.971C1729.48 737.196 1729.68 737.487 1729.8 737.814C1729.91 738.142 1729.94 738.494 1729.87 738.835C1729.8 739.176 1729.65 739.493 1729.42 739.754C1729.19 740.014 1728.9 740.209 1728.57 740.318L1703.14 748.702C1701.17 739.384 1701.43 729.73 1703.91 720.534V720.534Z" fill="#BB586A"/>
<path d="M1680.91 755.779C1680.42 755.679 1679.98 755.393 1679.68 754.978C1679.53 754.764 1679.43 754.521 1679.37 754.265C1679.32 754.008 1679.32 753.743 1679.37 753.486L1688.53 706.34C1688.63 705.831 1688.93 705.381 1689.36 705.09C1689.79 704.8 1690.31 704.692 1690.82 704.79C1691.15 704.854 1691.46 705.002 1691.71 705.22L1705.01 716.477L1703.92 720.535C1701.43 729.73 1701.16 739.387 1703.15 748.704L1681.9 755.713C1681.58 755.82 1681.24 755.843 1680.91 755.779V755.779Z" fill="#F27187"/>
<path d="M1801.02 813.115C1790.91 813.115 1787.91 806.34 1788.11 797.872C1788.3 789.404 1787.02 779.385 1800.09 779.385C1813.16 779.385 1813.94 791.663 1813.78 796.889C1813.63 802.115 1811.14 813.115 1801.02 813.115Z" fill="#F27187"/>
<path d="M1736.82 745.045C1742.94 747.089 1749.17 748.761 1755.49 750.051C1761.87 751.233 1768.31 752.033 1774.78 752.447C1774.78 752.447 1772.46 773.25 1751.25 768.852C1730.04 764.453 1736.82 745.045 1736.82 745.045Z" fill="#4A0920"/>
<path d="M1740.5 698.991L1741.38 699.226C1744.4 700.037 1746.98 702.015 1748.54 704.726C1750.11 707.437 1750.53 710.658 1749.72 713.681L1748.78 717.189C1747.97 720.212 1745.99 722.789 1743.28 724.354C1740.57 725.918 1737.35 726.342 1734.32 725.531L1733.45 725.296C1730.42 724.486 1727.85 722.508 1726.28 719.797C1724.72 717.087 1724.29 713.866 1725.1 710.843L1726.05 707.334C1726.86 704.31 1728.83 701.733 1731.54 700.169C1734.26 698.604 1737.48 698.18 1740.5 698.991V698.991Z" fill="#4A0920"/>
<path d="M1780.9 712.986L1781.84 713.239C1785.09 714.111 1787.86 716.238 1789.55 719.154C1791.23 722.069 1791.68 725.533 1790.81 728.784L1789.8 732.552C1789.37 734.162 1788.63 735.671 1787.61 736.993C1786.6 738.315 1785.33 739.424 1783.89 740.257C1782.44 741.09 1780.85 741.631 1779.2 741.848C1777.55 742.066 1775.87 741.955 1774.26 741.524L1773.31 741.271C1770.06 740.399 1767.29 738.273 1765.61 735.359C1763.93 732.444 1763.47 728.981 1764.34 725.73L1765.35 721.963C1765.78 720.353 1766.53 718.843 1767.54 717.52C1768.56 716.198 1769.82 715.088 1771.26 714.254C1772.71 713.42 1774.3 712.879 1775.95 712.662C1777.61 712.444 1779.29 712.555 1780.9 712.986V712.986Z" fill="#4A0920"/>
<path d="M1797.78 812.841C1795.26 812.483 1792.95 811.254 1791.25 809.369C1789.72 807.487 1788.74 805.218 1788.42 802.813C1789.95 805.382 1792.64 807.023 1796.42 807.69C1800.37 808.389 1803.76 806.971 1806.49 803.478C1808.47 800.771 1809.85 797.67 1810.53 794.384C1811.33 791.032 1811.38 787.548 1810.69 784.174C1813.44 787.941 1813.88 793.166 1813.77 796.887C1813.65 800.399 1812.75 803.841 1811.12 806.956C1810.19 808.692 1808.86 810.184 1807.25 811.308C1805.4 812.524 1803.22 813.151 1801.01 813.108C1799.92 813.112 1798.84 813.023 1797.78 812.841V812.841Z" fill="#C45C6F"/>
<path d="M1680.96 756.064C1680.24 755.871 1679.62 755.42 1679.21 754.797C1678.78 754.145 1678.63 753.351 1678.78 752.587L1687.63 707.098C1687.71 706.694 1687.87 706.311 1688.1 705.972C1688.33 705.633 1688.63 705.347 1688.98 705.13C1689.33 704.911 1689.72 704.765 1690.13 704.703C1690.54 704.641 1690.95 704.663 1691.35 704.768C1691.78 704.882 1692.17 705.09 1692.51 705.375L1710.22 720.281L1708.83 725.455C1706.85 732.805 1706.28 740.464 1707.15 748.026L1682.66 756.013C1682.11 756.195 1681.52 756.213 1680.96 756.064V756.064Z" fill="#F27187"/>
<path d="M1708.83 725.455L1710.22 720.281L1729 736.083C1729.41 736.427 1729.72 736.875 1729.89 737.379C1730.07 737.884 1730.11 738.426 1730.01 738.951C1729.91 739.476 1729.67 739.965 1729.31 740.365C1728.96 740.766 1728.5 741.065 1728 741.231L1707.15 748.026C1706.28 740.463 1706.85 732.805 1708.83 725.455V725.455Z" fill="#AA4F62"/>
<path d="M1232.06 500.248H1571.27V865.011H1232.06V500.248Z" fill="#AD7F65"/>
<path d="M1123.86 500.007H1232.06V864.77H1123.86V500.007Z" fill="#8E654E"/>
<path d="M1542.91 537.491H1274.6V864.768H1542.91V537.491Z" fill="#514741"/>
<path d="M1464.07 572.557H1274.6V864.769H1464.07V572.557Z" fill="#2E2E2E"/>
<path d="M1425.04 623.889L1414.17 611.818C1413.71 611.312 1412.93 611.271 1412.43 611.726C1411.92 612.181 1411.88 612.959 1412.34 613.464L1423.21 625.535C1423.66 626.041 1424.44 626.081 1424.95 625.627C1425.45 625.172 1425.49 624.394 1425.04 623.889Z" fill="#1B684F"/>
<path d="M1548.44 616.022L1558.13 610.654C1558.72 610.324 1558.94 609.575 1558.61 608.98C1558.28 608.386 1557.53 608.171 1556.93 608.501L1547.25 613.869C1546.65 614.198 1546.44 614.948 1546.77 615.542C1547.1 616.137 1547.85 616.352 1548.44 616.022Z" fill="#1B684F"/>
<path d="M1570.48 595.945L1573.9 606.471C1574.11 607.118 1574.81 607.472 1575.45 607.262C1576.1 607.052 1576.45 606.357 1576.24 605.711L1572.82 595.185C1572.61 594.538 1571.92 594.185 1571.27 594.395C1570.63 594.605 1570.27 595.299 1570.48 595.945Z" fill="#1B684F"/>
<path d="M1596.34 640.785L1607.4 641.171C1608.08 641.195 1608.65 640.663 1608.67 639.984C1608.7 639.305 1608.17 638.735 1607.49 638.711L1596.42 638.325C1595.74 638.301 1595.17 638.833 1595.15 639.512C1595.13 640.191 1595.66 640.761 1596.34 640.785Z" fill="#1B684F"/>
<path d="M1591.75 672.032L1600.82 678.385C1601.37 678.776 1602.14 678.641 1602.53 678.084C1602.92 677.528 1602.79 676.76 1602.23 676.37L1593.17 670.017C1592.61 669.627 1591.84 669.761 1591.45 670.318C1591.06 670.875 1591.2 671.642 1591.75 672.032Z" fill="#1B684F"/>
<path d="M1557.73 623.065L1568.79 623.451C1569.47 623.475 1570.04 622.943 1570.06 622.264C1570.08 621.585 1569.55 621.015 1568.87 620.991L1557.81 620.605C1557.13 620.581 1556.56 621.113 1556.54 621.792C1556.51 622.471 1557.05 623.041 1557.73 623.065Z" fill="#1B684F"/>
<path d="M1547.4 636.619L1557.17 631.423C1557.77 631.104 1558 630.359 1557.68 629.759C1557.36 629.158 1556.61 628.931 1556.01 629.25L1546.24 634.446C1545.64 634.765 1545.41 635.51 1545.73 636.11C1546.05 636.71 1546.8 636.938 1547.4 636.619Z" fill="#1B684F"/>
<path d="M1474.98 582.4L1484.36 588.265C1484.94 588.625 1485.7 588.45 1486.06 587.873C1486.42 587.297 1486.24 586.538 1485.67 586.178L1476.28 580.312C1475.7 579.952 1474.95 580.127 1474.58 580.704C1474.22 581.28 1474.4 582.039 1474.98 582.4Z" fill="#1B684F"/>
<path d="M1467.87 606.118L1478.39 609.538C1479.04 609.748 1479.73 609.394 1479.94 608.748C1480.15 608.101 1479.8 607.407 1479.15 607.197L1468.63 603.777C1467.98 603.567 1467.29 603.921 1467.08 604.567C1466.87 605.213 1467.22 605.908 1467.87 606.118Z" fill="#1B684F"/>
<path d="M1499.28 567.261L1495.49 577.661C1495.26 578.3 1495.59 579.006 1496.23 579.239C1496.87 579.471 1497.58 579.142 1497.81 578.503L1501.59 568.102C1501.83 567.463 1501.5 566.757 1500.86 566.525C1500.22 566.292 1499.51 566.622 1499.28 567.261Z" fill="#1B684F"/>
<path d="M1524.95 565.536L1519.25 575.023C1518.9 575.605 1519.09 576.362 1519.67 576.712C1520.25 577.062 1521.01 576.873 1521.36 576.29L1527.06 566.803C1527.41 566.22 1527.22 565.464 1526.64 565.114C1526.06 564.764 1525.3 564.953 1524.95 565.536Z" fill="#1B684F"/>
<path d="M1441.4 703.164L1446.15 687.636C1446.35 686.986 1445.98 686.298 1445.33 686.1C1444.68 685.901 1443.99 686.267 1443.79 686.917L1439.05 702.446C1438.85 703.095 1439.22 703.783 1439.87 703.982C1440.52 704.18 1441.21 703.814 1441.4 703.164Z" fill="#1B684F"/>
<path d="M1449.65 642.668L1460.93 630.989C1461.41 630.5 1461.39 629.721 1460.91 629.249C1460.42 628.776 1459.64 628.79 1459.16 629.279L1447.88 640.957C1447.4 641.446 1447.42 642.225 1447.91 642.698C1448.39 643.17 1449.17 643.157 1449.65 642.668Z" fill="#1B684F"/>
<path d="M1437.71 721.492C1437.71 721.492 1458.05 715.332 1522.43 715.656C1586.81 715.98 1606.3 723.906 1606.3 723.906L1596.94 735.247L1472.31 729.031L1437.71 721.492Z" fill="#8B2B44"/>
<path d="M1434.63 609.691C1456.49 607.571 1459.42 653.082 1459.42 653.082L1476.12 648.582C1474.41 637.458 1473.77 626.196 1474.19 614.95C1475.02 597.583 1480.25 587.383 1480.25 587.383C1480.25 587.383 1487.7 572.496 1512.51 572.496C1537.32 572.496 1544.76 586.004 1544.76 586.004C1544.76 586.004 1551.66 593.447 1551.38 612.192C1551.1 630.937 1550 645.273 1550 645.273L1564.36 648.581C1564.36 648.581 1554.71 601.981 1579.52 601.432C1604.33 600.883 1603.23 645.273 1603.23 645.273C1603.23 645.273 1605.99 668.973 1597.44 674.209C1588.9 679.445 1574.29 681.386 1574.29 681.386H1483.29L1463.45 692.137C1463.45 692.137 1432.01 699.855 1426.5 692.137C1420.99 684.419 1420.92 682.277 1417.5 655.363C1414.08 628.449 1412.77 611.812 1434.63 609.691Z" fill="#0DD24F"/>
<path opacity="0.7" d="M1596.28 659.661C1600.08 650.269 1601.39 636.48 1601.84 628.497C1602.8 634.037 1603.27 639.652 1603.24 645.275C1603.24 645.275 1605.99 668.975 1597.45 674.211C1592.34 677.344 1585.06 679.297 1580.03 680.359C1584.11 677.126 1592.16 669.797 1596.28 659.661Z" fill="#1B684F"/>
<path opacity="0.7" d="M1459.41 665.803C1459.71 661.562 1459.71 657.307 1459.41 653.066V653.066C1459.41 653.08 1459.41 653.086 1459.41 653.086L1462.26 652.316C1464.62 655.776 1467.31 662.151 1465.22 667.866C1465.23 667.857 1465.26 667.866 1465.22 667.981C1461.21 677.262 1457.77 678.036 1457.77 678.036C1458.54 673.991 1459.09 669.907 1459.41 665.803V665.803Z" fill="#1B684F"/>
<path d="M1463.44 724.936C1463.44 724.936 1458.73 706.149 1461.22 692.641C1461.22 692.641 1471.72 688.225 1470.87 672.533C1470.03 656.841 1459.41 653.033 1459.41 653.033L1477.16 648.018C1477.16 648.018 1491.83 658.911 1495.1 664.25C1498.38 669.589 1511.86 673.12 1521.64 672.534C1549.29 670.88 1550.02 645.169 1550.02 645.169L1564.34 648.555L1571.54 678.892C1571.54 678.892 1583.61 703.703 1584.23 715.005C1584.85 726.307 1584.5 724.936 1463.44 724.936Z" fill="#26509D"/>
<path d="M1539.76 830.856C1540.22 818.838 1539.76 809.322 1539.76 809.322C1536.84 810.116 1533.82 810.465 1530.8 810.359C1524.83 810.359 1512.43 809.322 1512.43 809.322V837.002C1514.21 837.777 1515.92 838.697 1517.55 839.752C1520.44 841.565 1522.92 843.963 1524.83 846.793C1526.54 849.344 1527.47 852.342 1527.49 855.415C1527.46 858.79 1526.35 862.065 1524.33 864.767H1467.36L1454.39 864.795C1454.39 864.795 1455.66 828.425 1457.29 801.847C1458.93 775.269 1460.83 758.338 1460.83 758.338L1588.7 760.417L1587.57 835.024C1591.36 836.045 1594.97 837.639 1598.27 839.752C1601.17 841.563 1603.65 843.962 1605.55 846.793C1607.27 849.343 1608.2 852.342 1608.22 855.416C1608.19 858.791 1607.08 862.066 1605.06 864.768H1550.46L1537.46 864.8C1537.46 864.8 1539.29 842.875 1539.76 830.856Z" fill="#A45441"/>
<path d="M1538.32 782.504H1537.81H1537.3C1524.53 782.404 1508.78 780.268 1490.48 776.163C1476 772.914 1464.25 769.382 1459.87 768.014C1460.11 765.362 1460.35 762.891 1460.58 760.668H1460.82C1479.48 762.889 1501.89 764.014 1527.43 764.014C1552.46 764.014 1573.07 763.453 1588.67 762.345L1588.46 776.593C1568.53 780.516 1551.67 782.504 1538.32 782.504Z" fill="#8B2B44"/>
<path d="M1465.03 724.938L1472.44 712.786C1472.44 712.786 1501.96 707.077 1531.49 704.141C1548.09 702.483 1564.81 702.1 1581.47 702.995C1582.87 706.873 1583.79 710.905 1584.23 715.005C1584.73 724.105 1584.59 724.99 1521.47 724.99C1506.48 724.991 1487.96 724.941 1465.03 724.938Z" fill="#1E3982"/>
<path d="M1574.26 712.04C1567.45 713.488 1562.89 719.128 1564.06 724.636C1565.23 730.144 1571.69 733.445 1578.5 731.997C1585.31 730.548 1589.88 724.908 1588.7 719.4C1587.53 713.892 1581.06 710.593 1574.26 712.04Z" fill="#B48451"/>
<path d="M1581.88 719.009C1575.07 720.457 1570.5 726.098 1571.67 731.606C1572.85 737.114 1579.31 740.415 1586.12 738.967C1592.93 737.518 1597.49 731.878 1596.32 726.37C1595.15 720.862 1588.68 717.562 1581.88 719.009Z" fill="#B48451"/>
<path d="M1558.07 716.709C1551.26 718.157 1546.7 723.797 1547.87 729.306C1549.04 734.814 1555.5 738.115 1562.32 736.666C1569.13 735.217 1573.69 729.578 1572.52 724.07C1571.35 718.562 1564.88 715.262 1558.07 716.709Z" fill="#DABA5F"/>
<path d="M1533.93 715.707C1525.5 717.499 1519.79 724.207 1521.17 730.687C1522.55 737.168 1530.49 740.98 1538.93 739.186C1547.36 737.393 1553.06 730.686 1551.69 724.206C1550.31 717.725 1542.36 713.915 1533.93 715.707Z" fill="#DABA5F"/>
<path d="M1504.71 717.327C1492.83 716.914 1483.02 721.949 1482.79 728.57C1482.56 735.191 1492 740.904 1503.88 741.318C1515.75 741.731 1525.57 736.696 1525.8 730.075C1526.03 723.454 1516.59 717.741 1504.71 717.327Z" fill="#DABA5F"/>
<path d="M1473.54 712.997C1464.46 712.681 1456.91 717.795 1456.68 724.416C1456.45 731.037 1463.62 736.672 1472.71 736.988C1481.79 737.304 1489.34 732.19 1489.57 725.569C1489.8 718.948 1482.62 713.314 1473.54 712.997Z" fill="#DABA5F"/>
<path d="M1550.07 713.606C1544.44 713.901 1540.07 717.629 1540.29 721.929C1540.52 726.23 1545.26 729.478 1550.89 729.182C1556.52 728.887 1560.89 725.16 1560.66 720.859C1560.44 716.559 1555.69 713.31 1550.07 713.606Z" fill="#B48451"/>
<path d="M1487.78 711.552C1479.21 711.254 1470.45 720.177 1470.45 720.177C1470.45 720.177 1461.22 735.013 1469.78 735.311C1475.94 735.526 1506.16 739.134 1509 735.669C1509.8 734.711 1508.71 726.693 1503.4 720.667C1498.09 714.64 1496.34 711.85 1487.78 711.552Z" fill="#B48451"/>
<path d="M1437.73 721.456C1437.73 721.456 1435.04 726.574 1435.3 738.426C1435.57 750.278 1437.73 756.743 1437.73 756.743C1437.73 756.743 1463.05 764.016 1527.43 764.016C1591.81 764.016 1607.43 760.245 1607.43 760.245C1607.43 760.245 1609.05 753.781 1609.32 740.851C1609.59 727.921 1606.35 723.881 1606.35 723.881C1606.35 723.881 1593.96 730.881 1527.43 728.46C1460.89 726.039 1437.73 721.456 1437.73 721.456Z" fill="#A45441"/>
<path d="M1524.92 734.254C1455.87 733.308 1439.41 728.386 1436.55 724.939C1436.82 723.754 1437.21 722.599 1437.71 721.491L1437.8 721.467C1439.18 721.732 1462.92 726.108 1527.43 728.459C1591.57 730.797 1605.39 724.371 1606.3 723.906H1606.3L1606.4 723.952C1607.28 725.377 1607.89 726.943 1608.22 728.58C1604.49 731.373 1589.59 734.38 1542.71 734.38C1537.22 734.382 1531.31 734.342 1524.92 734.254Z" fill="#8B2B44"/>
<path d="M1513.44 648.085C1504.93 646.785 1499.26 639.728 1498.97 636.556C1498.68 633.384 1497.72 626.169 1505.24 623.701C1509.39 622.337 1512.26 623.245 1515.42 624.146C1518.36 625.143 1521.48 625.482 1524.56 625.14C1533.06 624.077 1533.54 618.298 1540.85 620C1548.16 621.702 1548.11 627.961 1548.27 630.964C1548.23 634.13 1547.27 637.216 1545.51 639.847C1543.75 642.479 1541.26 644.542 1538.35 645.787C1533.37 647.858 1528.03 648.898 1522.64 648.846C1519.56 648.826 1516.49 648.571 1513.44 648.085V648.085ZM1493.67 617.049C1494.18 614.408 1495.43 611.962 1497.25 609.989C1500.05 606.844 1502.92 605.315 1507.9 605.389C1512.87 605.463 1515.31 610.529 1515.85 611.437C1516.39 612.345 1515.31 614.761 1513.28 613.07C1511.24 611.379 1509.85 608.696 1504.88 609.718C1499.9 610.74 1497.83 616.781 1496.59 618.39C1496.42 618.629 1496.2 618.825 1495.94 618.963C1495.68 619.101 1495.4 619.177 1495.11 619.185C1494.85 619.186 1494.6 619.124 1494.38 619.004C1494.15 618.885 1493.96 618.712 1493.82 618.5C1493.68 618.289 1493.59 618.046 1493.56 617.793C1493.54 617.54 1493.58 617.284 1493.67 617.049V617.049ZM1546.03 611.944C1544.53 610.575 1541.45 604.99 1536.37 604.86C1531.29 604.73 1530.39 607.607 1528.67 609.633C1526.96 611.659 1525.49 609.465 1525.86 608.475C1526.24 607.485 1527.76 602.075 1532.65 601.126C1537.54 600.177 1540.63 601.178 1543.92 603.78C1546.07 605.404 1547.71 607.597 1548.67 610.11C1548.82 610.347 1548.9 610.619 1548.91 610.899C1548.92 611.178 1548.85 611.455 1548.71 611.699C1548.58 611.942 1548.38 612.145 1548.13 612.284C1547.89 612.423 1547.61 612.494 1547.33 612.489C1546.84 612.479 1546.38 612.284 1546.02 611.943L1546.03 611.944Z" fill="#130037"/>
<path d="M1459.42 653.05C1462.69 654.807 1465.47 657.356 1467.5 660.465C1470.36 666.613 1476.75 678.029 1481 688.265C1485.25 698.501 1498.1 692.514 1498.1 692.514C1498.1 692.514 1506.68 689.896 1503.08 677.976C1499.48 666.056 1482.81 646.322 1482.81 646.322C1482.81 646.322 1478.19 644.077 1470.2 645.869C1462.2 647.661 1459.42 653.05 1459.42 653.05Z" fill="#3B61A5"/>
<path d="M1550.23 645.177C1550.23 645.177 1548.1 668.889 1549.22 677.859C1550.33 686.829 1561.36 687.145 1561.36 687.145C1561.36 687.145 1569.68 687.681 1571.68 676.354C1573.67 665.027 1567.69 648.034 1562.14 645.913C1556.6 643.792 1550.23 645.177 1550.23 645.177Z" fill="#3B61A5"/>
<path d="M1481.52 689.359C1482.84 690.028 1487.06 691.385 1494.24 686.675C1498.95 683.587 1500.61 677.824 1501.14 673.113C1501.91 674.681 1502.56 676.306 1503.08 677.973C1506.68 689.892 1498.1 692.511 1498.1 692.511C1495.62 693.588 1492.96 694.178 1490.26 694.248C1487.03 694.248 1483.58 693.179 1481.52 689.359ZM1561.36 687.144C1561.36 687.144 1552.58 686.89 1549.9 680.467C1552.05 680.753 1554.24 680.6 1556.33 680.017C1558.42 679.433 1560.38 678.431 1562.07 677.072C1566.87 673.09 1569.69 664.872 1570.75 661.225C1572.06 666.156 1572.37 671.299 1571.68 676.353C1569.85 686.703 1562.75 687.153 1561.54 687.153C1561.42 687.15 1561.36 687.144 1561.36 687.144Z" fill="#1E3982"/>
<path d="M1483.19 682.15C1483.19 680.495 1483.69 678.877 1484.61 677.5C1485.52 676.124 1486.83 675.051 1488.36 674.418C1489.89 673.784 1491.57 673.619 1493.2 673.942C1494.82 674.265 1496.31 675.062 1497.48 676.232C1498.65 677.402 1499.45 678.894 1499.77 680.517C1500.1 682.141 1499.93 683.823 1499.3 685.353C1498.66 686.882 1497.59 688.189 1496.21 689.108C1494.84 690.028 1493.22 690.519 1491.56 690.519C1490.46 690.519 1489.38 690.303 1488.36 689.882C1487.35 689.462 1486.42 688.845 1485.65 688.068C1484.87 687.291 1484.25 686.368 1483.83 685.353C1483.41 684.337 1483.19 683.249 1483.19 682.15V682.15ZM1553.09 674.276C1553.09 672.816 1553.53 671.388 1554.34 670.174C1555.15 668.96 1556.3 668.014 1557.65 667.455C1559 666.896 1560.49 666.75 1561.92 667.035C1563.35 667.319 1564.67 668.022 1565.7 669.055C1566.73 670.087 1567.43 671.403 1567.72 672.835C1568 674.267 1567.86 675.751 1567.3 677.1C1566.74 678.45 1565.79 679.603 1564.58 680.414C1563.37 681.225 1561.94 681.659 1560.48 681.659C1558.52 681.659 1556.64 680.881 1555.26 679.496C1553.87 678.112 1553.1 676.234 1553.09 674.276V674.276Z" fill="#DABA5F"/>
<path d="M1550.29 839.723C1551.7 837.465 1555.59 831.861 1561.05 828.59C1564.93 826.266 1571.96 824.429 1578.13 824.122C1578.21 824.122 1578.29 824.116 1578.37 824.116C1581.14 824.116 1584.17 826.477 1587.63 831.334L1587.57 835.024C1587.73 835.067 1587.9 835.116 1588.07 835.166C1583.58 833.885 1578.93 833.245 1574.26 833.266C1565.21 833.265 1556.7 835.558 1550.29 839.723ZM1470.61 839.069C1472.92 835.816 1477.61 829.959 1483.01 827.254C1486.92 825.297 1493.39 823.856 1499.48 823.579C1499.55 823.579 1499.62 823.579 1499.68 823.579C1503.77 823.579 1509.43 829.053 1512.43 832.317V837.002C1506.46 834.477 1500.02 833.205 1493.53 833.265C1485.01 833.265 1476.87 835.326 1470.61 839.069Z" fill="#8B2B44"/>
<path d="M1433.24 609.851C1428.88 613.837 1423.02 620.108 1420.03 627.274C1417.87 632.694 1416.58 638.42 1416.2 644.243C1414.24 624.416 1415.88 612.135 1433.24 609.851ZM1474.19 614.951C1475.02 597.582 1480.26 587.384 1480.26 587.384C1480.26 587.384 1487.7 572.498 1512.51 572.498C1517.85 572.432 1523.17 573.171 1528.29 574.691C1525.19 574.527 1508.16 574.237 1493.62 586.391C1478.87 598.717 1474.63 618.161 1474.04 621.261C1474.04 619.192 1474.09 617.08 1474.19 614.952V614.951ZM1579.53 601.434C1580.68 601.405 1581.83 601.482 1582.97 601.663C1581.51 601.925 1576.82 603.09 1571.32 607.763C1565.26 612.914 1563.59 618.106 1563.35 618.97C1564.97 609.64 1569.35 601.661 1579.53 601.434Z" fill="#9EFF87"/>
<path d="M1486.45 688.778C1488.89 688.163 1491.19 687.116 1493.26 685.688C1495.92 683.832 1497.89 681.143 1498.86 678.044C1499.81 679.726 1500.15 681.685 1499.82 683.588C1499.49 685.491 1498.51 687.222 1497.05 688.486C1495.59 689.749 1493.73 690.469 1491.8 690.522C1489.87 690.576 1487.98 689.959 1486.45 688.778V688.778ZM1555.97 680.124C1558.21 679.591 1560.3 678.548 1562.07 677.075C1564.08 675.277 1565.73 673.122 1566.95 670.718C1567.56 671.843 1567.88 673.108 1567.86 674.391C1567.84 675.674 1567.48 676.929 1566.83 678.033C1566.18 679.137 1565.25 680.052 1564.13 680.688C1563.02 681.324 1561.76 681.658 1560.47 681.659C1558.84 681.662 1557.26 681.122 1555.97 680.124V680.124Z" fill="#B28B1A"/>
<path d="M1439.72 687.218C1439.62 687.089 1439.55 686.942 1439.51 686.786C1439.47 686.629 1439.46 686.466 1439.49 686.306C1439.51 686.146 1439.56 685.992 1439.64 685.853C1439.73 685.714 1439.83 685.592 1439.96 685.495L1448.16 679.316C1448.43 679.128 1448.75 679.05 1449.07 679.098C1449.39 679.147 1449.67 679.318 1449.87 679.575C1450.06 679.832 1450.14 680.154 1450.1 680.473C1450.06 680.793 1449.9 681.083 1449.64 681.282L1441.44 687.461C1441.32 687.558 1441.17 687.629 1441.01 687.669C1440.86 687.71 1440.69 687.719 1440.53 687.697C1440.37 687.674 1440.22 687.62 1440.08 687.538C1439.94 687.456 1439.82 687.347 1439.72 687.218H1439.72ZM1412.43 679.56C1412.34 679.248 1412.37 678.911 1412.52 678.622C1412.68 678.334 1412.94 678.119 1413.25 678.023L1425.02 674.423C1425.33 674.334 1425.66 674.37 1425.94 674.524C1426.23 674.678 1426.44 674.937 1426.53 675.246C1426.63 675.555 1426.6 675.888 1426.45 676.175C1426.3 676.461 1426.04 676.677 1425.74 676.777L1413.97 680.377C1413.81 680.424 1413.65 680.441 1413.49 680.426C1413.33 680.41 1413.17 680.363 1413.03 680.287C1412.89 680.212 1412.76 680.108 1412.66 679.984C1412.56 679.859 1412.48 679.716 1412.43 679.561L1412.43 679.56ZM1441.34 666.042L1434.91 659.827C1434.68 659.598 1434.56 659.29 1434.55 658.97C1434.55 658.649 1434.68 658.341 1434.9 658.11C1435.12 657.879 1435.43 657.745 1435.75 657.735C1436.07 657.725 1436.38 657.841 1436.62 658.057L1443.05 664.272C1443.18 664.383 1443.27 664.517 1443.34 664.667C1443.41 664.816 1443.45 664.978 1443.45 665.142C1443.46 665.307 1443.43 665.47 1443.37 665.624C1443.31 665.777 1443.22 665.917 1443.11 666.035C1442.99 666.154 1442.86 666.248 1442.71 666.312C1442.55 666.377 1442.39 666.411 1442.23 666.411C1442.06 666.412 1441.9 666.379 1441.75 666.316C1441.6 666.253 1441.46 666.159 1441.34 666.042V666.042ZM1588.57 665.048L1575.74 658.79C1575.6 658.719 1575.47 658.621 1575.36 658.5C1575.25 658.379 1575.17 658.238 1575.12 658.085C1575.07 657.932 1575.04 657.771 1575.05 657.609C1575.06 657.448 1575.1 657.29 1575.17 657.145C1575.25 657 1575.34 656.87 1575.47 656.763C1575.59 656.656 1575.73 656.573 1575.88 656.521C1576.03 656.468 1576.19 656.446 1576.36 656.456C1576.52 656.466 1576.67 656.507 1576.82 656.578L1589.65 662.836C1589.8 662.904 1589.93 663.002 1590.05 663.123C1590.16 663.243 1590.24 663.385 1590.3 663.54C1590.35 663.695 1590.38 663.859 1590.37 664.023C1590.36 664.188 1590.32 664.348 1590.25 664.496C1590.17 664.644 1590.07 664.776 1589.95 664.884C1589.83 664.992 1589.68 665.074 1589.53 665.125C1589.37 665.177 1589.2 665.197 1589.04 665.183C1588.88 665.17 1588.72 665.124 1588.57 665.048V665.048ZM1606.07 658.629L1593.24 652.371C1593.1 652.3 1592.97 652.201 1592.86 652.08C1592.75 651.959 1592.67 651.818 1592.62 651.666C1592.57 651.513 1592.54 651.351 1592.55 651.19C1592.56 651.029 1592.61 650.871 1592.68 650.726C1592.75 650.581 1592.85 650.451 1592.97 650.344C1593.09 650.237 1593.23 650.155 1593.38 650.102C1593.53 650.05 1593.7 650.028 1593.86 650.038C1594.02 650.048 1594.18 650.089 1594.32 650.16L1607.15 656.417C1607.3 656.485 1607.44 656.583 1607.55 656.704C1607.66 656.824 1607.74 656.966 1607.8 657.121C1607.85 657.276 1607.88 657.44 1607.87 657.604C1607.86 657.769 1607.82 657.929 1607.75 658.077C1607.68 658.225 1607.57 658.357 1607.45 658.465C1607.33 658.573 1607.18 658.655 1607.03 658.706C1606.87 658.758 1606.71 658.778 1606.54 658.764C1606.38 658.751 1606.22 658.705 1606.07 658.629H1606.07ZM1419.83 653.047L1409.48 648.442C1409.19 648.309 1408.95 648.064 1408.84 647.759C1408.72 647.455 1408.73 647.116 1408.86 646.818C1408.99 646.52 1409.24 646.287 1409.54 646.17C1409.85 646.053 1410.19 646.061 1410.48 646.194L1420.83 650.794C1420.97 650.86 1421.11 650.954 1421.22 651.071C1421.33 651.188 1421.42 651.326 1421.48 651.477C1421.53 651.628 1421.56 651.788 1421.56 651.95C1421.55 652.111 1421.52 652.27 1421.45 652.418C1421.39 652.566 1421.29 652.699 1421.17 652.81C1421.06 652.921 1420.92 653.008 1420.77 653.066C1420.62 653.124 1420.46 653.152 1420.3 653.148C1420.13 653.144 1419.97 653.108 1419.83 653.042V653.047ZM1489.61 646.999L1483.74 637.612C1483.59 637.336 1483.55 637.012 1483.63 636.706C1483.7 636.401 1483.9 636.137 1484.17 635.971C1484.43 635.804 1484.76 635.746 1485.06 635.81C1485.37 635.873 1485.65 636.053 1485.83 636.312L1491.69 645.699C1491.79 645.836 1491.85 645.991 1491.89 646.155C1491.92 646.318 1491.92 646.487 1491.89 646.65C1491.85 646.814 1491.79 646.969 1491.69 647.106C1491.6 647.243 1491.48 647.359 1491.33 647.447C1491.19 647.536 1491.03 647.594 1490.87 647.619C1490.7 647.645 1490.54 647.636 1490.37 647.594C1490.21 647.552 1490.06 647.478 1489.93 647.375C1489.8 647.273 1489.69 647.145 1489.61 646.999V646.999ZM1581.48 640.912C1581.36 640.61 1581.37 640.271 1581.49 639.971C1581.62 639.672 1581.86 639.434 1582.16 639.312L1595.4 633.964C1595.55 633.899 1595.71 633.864 1595.88 633.862C1596.04 633.861 1596.2 633.892 1596.36 633.954C1596.51 634.017 1596.65 634.109 1596.76 634.225C1596.88 634.342 1596.97 634.48 1597.03 634.632C1597.09 634.785 1597.12 634.948 1597.12 635.112C1597.12 635.276 1597.08 635.438 1597.02 635.589C1596.95 635.739 1596.86 635.875 1596.74 635.988C1596.62 636.1 1596.48 636.188 1596.32 636.246L1583.09 641.593C1582.94 641.653 1582.78 641.684 1582.62 641.682C1582.45 641.681 1582.29 641.648 1582.15 641.584C1582 641.521 1581.86 641.43 1581.75 641.314C1581.64 641.199 1581.55 641.063 1581.49 640.913L1581.48 640.912ZM1568.95 641.589L1558.62 641.048C1558.3 641.024 1558 640.876 1557.79 640.634C1557.58 640.392 1557.47 640.077 1557.48 639.755C1557.5 639.433 1557.64 639.131 1557.88 638.913C1558.12 638.695 1558.43 638.579 1558.75 638.59L1569.08 639.131C1569.4 639.149 1569.7 639.291 1569.91 639.526C1570.13 639.762 1570.25 640.072 1570.24 640.392C1570.23 640.712 1570.1 641.016 1569.87 641.24C1569.64 641.463 1569.33 641.589 1569.01 641.591L1568.95 641.589ZM1443.28 640.077L1430.94 637.905C1430.63 637.842 1430.35 637.658 1430.17 637.392C1429.99 637.127 1429.92 636.801 1429.97 636.484C1430.03 636.168 1430.21 635.886 1430.47 635.698C1430.73 635.511 1431.05 635.433 1431.37 635.481L1443.71 637.656C1444.03 637.713 1444.31 637.895 1444.5 638.162C1444.69 638.429 1444.76 638.76 1444.71 639.082C1444.65 639.403 1444.47 639.689 1444.2 639.876C1443.93 640.063 1443.6 640.137 1443.28 640.08L1443.28 640.077ZM1478.26 638.639L1468.15 634.139C1468 634.073 1467.87 633.979 1467.76 633.862C1467.64 633.745 1467.56 633.607 1467.5 633.456C1467.44 633.305 1467.41 633.145 1467.42 632.983C1467.42 632.822 1467.46 632.663 1467.52 632.515C1467.59 632.367 1467.68 632.234 1467.8 632.123C1467.92 632.012 1468.06 631.925 1468.21 631.867C1468.36 631.809 1468.52 631.781 1468.68 631.785C1468.84 631.789 1469 631.825 1469.15 631.891L1479.26 636.391C1479.41 636.453 1479.55 636.545 1479.67 636.662C1479.79 636.778 1479.88 636.918 1479.94 637.071C1480 637.224 1480.03 637.388 1480.03 637.554C1480.03 637.719 1479.99 637.882 1479.93 638.033C1479.86 638.185 1479.76 638.321 1479.64 638.433C1479.52 638.546 1479.38 638.633 1479.22 638.69C1479.07 638.747 1478.9 638.771 1478.74 638.762C1478.57 638.754 1478.41 638.712 1478.26 638.639V638.639ZM1578.52 622.791C1578.22 622.663 1577.99 622.422 1577.86 622.119C1577.74 621.816 1577.74 621.477 1577.87 621.177L1581.91 611.662C1582.04 611.366 1582.28 611.134 1582.58 611.015C1582.88 610.896 1583.22 610.9 1583.52 611.026C1583.81 611.153 1584.05 611.391 1584.17 611.69C1584.3 611.989 1584.3 612.325 1584.18 612.624L1580.14 622.139C1580.07 622.288 1579.98 622.423 1579.87 622.536C1579.75 622.65 1579.62 622.739 1579.47 622.8C1579.32 622.86 1579.15 622.891 1578.99 622.889C1578.83 622.888 1578.67 622.854 1578.52 622.791H1578.52ZM1480.33 621.624L1469.3 619.077C1469.14 619.041 1468.99 618.974 1468.86 618.88C1468.73 618.786 1468.62 618.667 1468.53 618.53C1468.45 618.393 1468.39 618.24 1468.36 618.08C1468.33 617.921 1468.34 617.758 1468.38 617.6C1468.41 617.442 1468.48 617.294 1468.57 617.162C1468.67 617.03 1468.79 616.918 1468.92 616.833C1469.06 616.747 1469.21 616.689 1469.37 616.662C1469.53 616.636 1469.7 616.641 1469.85 616.677L1480.88 619.226C1481.2 619.299 1481.48 619.496 1481.65 619.773C1481.82 620.05 1481.88 620.384 1481.81 620.703C1481.73 621.021 1481.54 621.297 1481.26 621.47C1480.98 621.643 1480.65 621.699 1480.33 621.626L1480.33 621.624ZM1438.75 620.332C1438.52 620.097 1438.4 619.782 1438.4 619.455C1438.41 619.129 1438.54 618.818 1438.78 618.591L1447.39 610.271C1447.51 610.159 1447.65 610.071 1447.8 610.011C1447.95 609.952 1448.11 609.923 1448.27 609.926C1448.43 609.929 1448.59 609.963 1448.74 610.028C1448.89 610.092 1449.02 610.185 1449.13 610.302C1449.25 610.418 1449.33 610.555 1449.39 610.705C1449.45 610.856 1449.48 611.016 1449.48 611.178C1449.48 611.339 1449.44 611.498 1449.38 611.647C1449.31 611.795 1449.22 611.929 1449.1 612.041L1440.49 620.362C1440.25 620.589 1439.94 620.713 1439.61 620.707C1439.28 620.701 1438.97 620.566 1438.75 620.331V620.332ZM1592.93 619.698C1592.82 619.574 1592.74 619.431 1592.7 619.277C1592.65 619.123 1592.63 618.961 1592.64 618.8C1592.66 618.639 1592.7 618.483 1592.78 618.339C1592.85 618.196 1592.95 618.069 1593.08 617.965L1601 611.32C1601.25 611.122 1601.57 611.029 1601.88 611.062C1602.2 611.094 1602.5 611.25 1602.7 611.495C1602.91 611.74 1603.01 612.056 1602.99 612.375C1602.96 612.694 1602.82 612.992 1602.58 613.205L1594.65 619.85C1594.53 619.954 1594.39 620.032 1594.23 620.081C1594.08 620.129 1593.92 620.147 1593.76 620.133C1593.6 620.119 1593.44 620.073 1593.3 619.999C1593.15 619.924 1593.02 619.822 1592.92 619.698H1592.93ZM1487.09 603.647L1479.3 596.125C1479.07 595.898 1478.93 595.588 1478.93 595.262C1478.92 594.935 1479.04 594.62 1479.27 594.386C1479.5 594.151 1479.81 594.016 1480.13 594.01C1480.46 594.004 1480.78 594.128 1481.01 594.355L1488.8 601.876C1489.02 602.105 1489.15 602.413 1489.15 602.733C1489.15 603.054 1489.03 603.363 1488.81 603.593C1488.58 603.824 1488.28 603.958 1487.96 603.968C1487.64 603.978 1487.33 603.863 1487.09 603.646V603.647ZM1542.6 594.535C1542.53 594.388 1542.49 594.23 1542.48 594.068C1542.48 593.906 1542.5 593.745 1542.56 593.593C1542.61 593.441 1542.7 593.302 1542.81 593.183C1542.92 593.064 1543.05 592.968 1543.2 592.9L1555.24 587.283C1555.54 587.145 1555.88 587.13 1556.18 587.242C1556.34 587.297 1556.47 587.382 1556.59 587.491C1556.71 587.6 1556.81 587.732 1556.88 587.878C1556.95 588.024 1556.99 588.183 1556.99 588.344C1557 588.506 1556.97 588.667 1556.92 588.819C1556.86 588.971 1556.78 589.11 1556.67 589.229C1556.56 589.348 1556.43 589.445 1556.28 589.513L1544.23 595.13C1544.09 595.198 1543.93 595.237 1543.77 595.244C1543.61 595.251 1543.45 595.226 1543.29 595.171C1543.14 595.116 1543 595.031 1542.88 594.922C1542.76 594.813 1542.67 594.681 1542.6 594.535H1542.6ZM1506.83 588.4C1506.52 588.31 1506.25 588.099 1506.09 587.814C1505.94 587.528 1505.9 587.192 1505.99 586.878L1508.97 576.47C1509.01 576.312 1509.09 576.163 1509.19 576.034C1509.29 575.904 1509.41 575.796 1509.55 575.715C1509.7 575.634 1509.85 575.583 1510.02 575.563C1510.18 575.544 1510.34 575.557 1510.5 575.602C1510.66 575.648 1510.8 575.724 1510.93 575.826C1511.06 575.929 1511.17 576.056 1511.24 576.2C1511.32 576.344 1511.37 576.502 1511.39 576.665C1511.4 576.828 1511.39 576.993 1511.34 577.149L1508.35 587.556C1508.31 587.711 1508.24 587.857 1508.13 587.983C1508.03 588.11 1507.91 588.215 1507.77 588.294C1507.63 588.372 1507.47 588.422 1507.31 588.44C1507.15 588.458 1506.99 588.445 1506.83 588.4H1506.83ZM1529.81 585.128C1529.57 584.91 1529.42 584.604 1529.41 584.278C1529.39 583.952 1529.5 583.633 1529.72 583.39L1537.62 574.613C1537.84 574.37 1538.15 574.224 1538.47 574.206C1538.8 574.189 1539.12 574.302 1539.36 574.52C1539.6 574.738 1539.75 575.044 1539.77 575.37C1539.79 575.696 1539.67 576.016 1539.45 576.259L1531.55 585.037C1531.45 585.157 1531.32 585.255 1531.17 585.324C1531.02 585.394 1530.87 585.434 1530.7 585.443C1530.54 585.451 1530.38 585.428 1530.23 585.374C1530.08 585.32 1529.94 585.236 1529.82 585.128H1529.81Z" fill="#1B684F"/>
<path d="M1586.89 593.08L1617.31 583.28L1617.92 600.722L1586.89 593.08ZM1596.42 557.915L1609.33 569.594L1582.3 586.702L1596.42 557.915Z" fill="#FF0000"/>
<path d="M3328.91 427.477H2754.14V521.978H3328.91V427.477Z" fill="#4200C3"/>
<path d="M3265.5 521.978H2817.55V850.216H3265.5V521.978Z" fill="#AD7F65"/>
<path d="M3155.34 569.662H2861.71V850.215H3155.34V569.662Z" fill="#B8B8B8"/>
<path d="M3117.79 603.971H2899.33V847.442H3117.79V603.971Z" fill="white"/>
<path d="M3117.79 849.943H2905.65L3103.23 603.971H3117.79V849.943H3117.79ZM2899.33 821.916V821.908V793.921L3051.91 603.971H3074.4L2899.33 821.912V821.916ZM2899.33 717.983V717.971V603.971H2990.91L2899.33 717.98V717.983Z" fill="#5F88C5"/>
<path d="M3340.34 943.883H2576.07V1204.31H3340.34V943.883Z" fill="#EEB594"/>
<path d="M3392.5 849.382H2523.92V943.883H3392.5V849.382Z" fill="#6A21FF"/>
<path d="M3340.34 943.883H2576.07V994.192H3340.34V943.883Z" fill="#CF9E81"/>
<path d="M3176.12 1009.08H2645.69V1289.63H3176.12V1009.08Z" fill="#B8B8B8"/>
<path d="M3146.9 1043.39H2683.31V1286.86H3146.9V1043.39Z" fill="white"/>
<path d="M3154.41 1289.36H2944.77L3142.35 1043.39H3154.41V1289.36V1289.36ZM2928.26 1289.36H2689.63L2887.21 1043.39H3030.04L2906.79 1196.81L2937.29 1234.78L3091.04 1043.39H3113.52L2922.1 1281.69L2928.26 1289.35L2928.26 1289.36ZM2683.31 1261.33V1233.33L2835.89 1043.39H2858.38L2683.31 1261.33V1261.33ZM2683.31 1157.39V1043.39H2774.89L2683.31 1157.39Z" fill="#5F88C5"/>
<path d="M2937.69 1009.2H2900.17V1289.36H2937.69V1009.2Z" fill="#B8B8B8"/>
<path d="M2965.09 849.196H2923.8C2925.15 848.212 2926.39 847.084 2927.5 845.831C2929.22 843.906 2931.32 840.869 2931.55 837.331C2931.79 833.793 2929.61 829.795 2927.74 827.06C2926.49 825.239 2925.11 823.52 2923.59 821.919L2954.83 810.443C2954.82 810.571 2953.98 823.578 2955.55 831.305C2956.38 835.357 2958.93 840.005 2960.92 843.19C2962.98 846.48 2964.87 848.924 2965.08 849.19L2965.09 849.196ZM2950.6 838.11C2950.47 838.11 2950.34 838.118 2950.21 838.134C2949.34 838.307 2948.56 838.791 2948.02 839.496C2947.48 840.202 2947.22 841.079 2947.28 841.965C2947.34 842.851 2947.73 843.684 2948.36 844.308C2948.99 844.932 2949.83 845.305 2950.71 845.356C2950.84 845.356 2950.97 845.348 2951.1 845.332C2951.54 845.275 2951.97 845.126 2952.36 844.894C2952.75 844.662 2953.08 844.353 2953.34 843.985C2953.89 843.214 2954.13 842.261 2954.01 841.32C2953.93 840.462 2953.54 839.662 2952.91 839.071C2952.29 838.48 2951.46 838.138 2950.6 838.11V838.11ZM2938.31 825.396C2938.23 825.396 2938.15 825.401 2938.07 825.411C2935.79 825.692 2934.41 829.818 2934.99 834.611C2935.56 839.211 2937.74 842.811 2939.95 842.811C2940.04 842.811 2940.12 842.805 2940.2 842.795C2941.3 842.66 2942.23 841.629 2942.81 839.895C2943.42 837.855 2943.57 835.708 2943.27 833.602C2942.71 828.996 2940.53 825.395 2938.31 825.396ZM2948.11 820.476C2948.02 820.476 2947.93 820.482 2947.85 820.495C2945.91 820.768 2944.75 823.933 2945.26 827.551C2945.74 830.965 2947.57 833.639 2949.42 833.639C2949.51 833.639 2949.6 833.633 2949.69 833.62C2951.62 833.347 2952.79 830.182 2952.28 826.564C2951.8 823.15 2949.97 820.476 2948.12 820.476H2948.11Z" fill="#AE407E"/>
<path d="M2979.74 685.805C2975.93 683.257 2973.19 679.392 2972.04 674.949C2970.45 667.827 2973.35 657.317 2973.35 657.317" stroke="black" stroke-width="6" stroke-linecap="round"/>
<path d="M2923.59 821.988L2898.4 752.757L2853.99 768.916L2879.18 838.147L2847.83 849.553L2808.86 742.44L2840.21 731.034L2840.56 732.014L2884.98 715.855L2884.62 714.875L2915.97 703.469L2916.33 704.449L2929.75 741.351L2954.94 810.582L2923.59 821.988Z" fill="#643F2A"/>
<path d="M2962.33 711.373L2954.04 688.58L2770.12 755.497L2778.41 778.289L2962.33 711.373Z" fill="#402516"/>
<path d="M3064.6 849.381V757.388H3097.95V849.381H3064.6ZM2984 849.381V757.388H3017.35V849.381H2984Z" fill="#643F2A"/>
<path d="M3097.95 785.387V757.388H2984V785.387H3097.95Z" fill="#643F2A"/>
<path d="M3166.94 635.54H3133.58V849.381H3166.94V635.54Z" fill="#643F2A"/>
<path d="M3133.58 635.54H3040.98V757.388H3133.58V635.54Z" fill="#3D1702"/>
<path d="M3150.26 785.387V757.388H3097.95V785.387H3150.26Z" fill="#643F2A"/>
<path d="M2998.97 708.771L2969.79 736.287" stroke="black" stroke-width="5"/>
<path d="M2956.47 731.463C2955.33 727.878 2958.81 722.416 2963.64 726.385C2966.92 729.194 2969.87 732.358 2972.44 735.818C2972.44 735.818 2970.53 742.325 2967.17 741.363C2963.81 740.401 2957.61 735.048 2956.47 731.463Z" fill="black"/>
<path d="M3014.01 758.266C3014.01 758.266 3012.5 751.978 3020.15 751.283C3027.8 750.588 3032.42 750.128 3032.42 750.128L3032.83 758.047L3014.01 758.266Z" fill="black"/>
<path d="M3030.33 710.121C3030.33 710.121 3024.62 722.416 3024.62 734.97C3024.61 747.523 3031.29 751.895 3031.29 751.895" stroke="black" stroke-width="5.001"/>
<path d="M3019.95 732.574C3019.77 732.708 3019.65 732.774 3019.65 732.774L3019.95 732.574ZM3022.55 728.148C3022.57 727.713 3022.51 727.278 3022.38 726.863C3022.15 726.883 3021.93 726.901 3021.7 726.918L3010.29 732.373C3011.09 731.994 3011.8 731.442 3012.36 730.756C3012.93 730.07 3013.33 729.268 3013.55 728.407C3013.59 728.164 3013.62 727.917 3013.62 727.669L3001.74 729.879C3002.61 729.721 3003.44 729.371 3004.16 728.854C3004.88 728.338 3005.48 727.667 3005.91 726.891C3006 726.708 3006.07 726.519 3006.13 726.326L2993.55 726.007C2994.44 726.034 2995.32 725.863 2996.14 725.508C2996.95 725.152 2997.68 724.621 2998.26 723.952C2998.49 723.662 2998.67 723.342 2998.81 723.001L2987.5 719.873C2988.35 720.114 2989.25 720.163 2990.13 720.015C2991 719.868 2991.83 719.528 2992.56 719.02C2992.69 718.917 2992.81 718.807 2992.93 718.691C2992.84 718.624 2992.75 718.558 2992.66 718.491L2982.9 717.214C2983.78 717.334 2984.67 717.257 2985.52 716.988C2986.37 716.72 2987.14 716.267 2987.8 715.662C2988.03 715.421 2988.23 715.152 2988.4 714.862L2988.18 714.653L2979.37 712.54C2980.23 712.751 2981.13 712.768 2982 712.589C2982.87 712.411 2983.69 712.042 2984.4 711.509C2984.57 711.36 2984.73 711.198 2984.88 711.025C2984.66 710.744 2984.43 710.461 2984.21 710.176L2974.77 705.685C2975.57 706.071 2976.44 706.274 2977.33 706.28C2978.22 706.287 2979.1 706.096 2979.9 705.722C2980.06 705.636 2980.21 705.542 2980.35 705.44L2972.08 697.04C2972.7 697.675 2973.45 698.165 2974.29 698.475C2975.12 698.784 2976.01 698.906 2976.89 698.83C2977.17 698.788 2977.45 698.718 2977.72 698.622L2970.93 687.122C2971.38 687.89 2971.99 688.548 2972.72 689.05C2973.46 689.553 2974.29 689.886 2975.17 690.027C2975.28 690.037 2975.39 690.043 2975.49 690.046L2969.42 677.882C2969.81 678.678 2970.38 679.378 2971.07 679.93C2971.77 680.482 2972.58 680.872 2973.44 681.074C2973.73 681.122 2974.02 681.141 2974.31 681.13L2970.33 670.514C2970.63 671.348 2971.12 672.103 2971.76 672.726C2972.39 673.348 2973.16 673.822 2974 674.114C2974.34 674.238 2974.7 674.293 2975.06 674.275C2975.42 674.258 2975.77 674.169 2976.1 674.014L2974.33 662.246C2974.45 663.125 2974.77 663.965 2975.27 664.705C2975.76 665.445 2976.41 666.067 2977.17 666.526C2977.5 666.705 2977.87 666.834 2978.24 666.908L2980.75 654.53C2980.58 655.365 2980.59 656.227 2980.77 657.059C2980.95 657.892 2981.31 658.677 2981.81 659.363L2987.03 648.41C2986.65 649.209 2986.44 650.084 2986.44 650.971C2986.43 651.858 2986.62 652.735 2986.99 653.54L2991.68 642.734C2991.32 643.547 2991.15 644.429 2991.17 645.317C2991.2 646.205 2991.42 647.077 2991.82 647.869C2991.97 648.119 2992.14 648.354 2992.34 648.569L2997.91 638.703C2997.47 639.474 2997.2 640.332 2997.14 641.217C2997.07 642.101 2997.2 642.99 2997.51 643.819C2997.75 644.435 2998.19 644.952 2998.76 645.284C2998.9 645.21 2999.05 645.138 2999.19 645.065L3006.81 636.45C3006.22 637.112 3005.78 637.897 3005.53 638.747C3005.28 639.598 3005.22 640.494 3005.36 641.37C3005.44 641.744 3005.57 642.105 3005.76 642.44L3006.17 642.317L3018.32 635.71C3017.53 636.13 3016.85 636.718 3016.33 637.433C3015.8 638.147 3015.44 638.969 3015.27 639.84C3015.23 640.111 3015.22 640.385 3015.24 640.658L3015.41 640.646L3028.16 637.34C3027.3 637.559 3026.5 637.966 3025.81 638.532C3025.13 639.097 3024.58 639.807 3024.2 640.611C3024.17 640.711 3024.13 640.811 3024.1 640.901L3024.15 640.906L3037.46 638.429C3036.59 638.588 3035.76 638.938 3035.04 639.454C3034.31 639.971 3033.71 640.641 3033.28 641.417C3033.16 641.679 3033.06 641.952 3032.99 642.233L3044.29 641.333C3043.4 641.399 3042.54 641.661 3041.77 642.099C3041 642.538 3040.33 643.142 3039.82 643.868C3039.4 644.452 3039.23 645.179 3039.34 645.891L3039.38 645.912L3051.14 647.452C3050.26 647.332 3049.36 647.409 3048.52 647.677C3047.67 647.945 3046.89 648.398 3046.24 649.002C3045.97 649.278 3045.75 649.591 3045.58 649.932L3056.78 655.753C3055.99 655.342 3055.13 655.11 3054.24 655.073C3053.36 655.036 3052.48 655.196 3051.66 655.54C3051.56 655.592 3051.46 655.64 3051.37 655.698C3051.86 656.269 3052.33 656.853 3052.79 657.449L3062.94 662.501C3062.15 662.102 3061.28 661.883 3060.39 661.861C3059.5 661.839 3058.62 662.015 3057.81 662.374C3057.37 662.591 3056.99 662.897 3056.67 663.274L3065.02 668.582C3064.27 668.103 3063.43 667.795 3062.55 667.681C3061.67 667.566 3060.78 667.648 3059.93 667.921C3059.58 668.057 3059.25 668.245 3058.94 668.479L3058.97 668.546L3067.14 676.568C3066.51 675.943 3065.75 675.465 3064.91 675.17C3064.08 674.875 3063.18 674.769 3062.3 674.86C3062.13 674.89 3061.95 674.93 3061.78 674.979L3066.87 685.619C3066.49 684.816 3065.94 684.107 3065.25 683.543C3064.57 682.979 3063.76 682.575 3062.9 682.358C3062.62 682.306 3062.34 682.282 3062.05 682.286L3064.73 695.365C3064.55 694.494 3064.19 693.672 3063.66 692.958C3063.13 692.245 3062.44 691.658 3061.66 691.24C3061.56 691.194 3061.46 691.153 3061.36 691.117L3063.14 704.596C3063.03 703.715 3062.73 702.87 3062.25 702.121C3061.77 701.373 3061.13 700.741 3060.38 700.269C3060.12 700.131 3059.85 700.019 3059.58 699.935L3059.88 711.264C3059.86 710.376 3059.64 709.504 3059.24 708.71C3058.85 707.915 3058.28 707.22 3057.58 706.672C3057.09 706.298 3056.49 706.083 3055.88 706.055L3055.58 717.898C3055.6 717.012 3055.43 716.13 3055.08 715.317C3054.72 714.505 3054.19 713.781 3053.52 713.198C3053.11 712.864 3052.63 712.632 3052.12 712.521L3050.18 722.1C3050.36 721.231 3050.34 720.334 3050.13 719.471C3049.92 718.609 3049.53 717.804 3048.97 717.113C3048.71 716.824 3048.41 716.577 3048.08 716.378L3045.27 725.299C3045.54 724.454 3045.62 723.559 3045.5 722.68C3045.39 721.8 3045.08 720.957 3044.59 720.212C3044.36 719.895 3044.09 719.615 3043.77 719.382L3038.12 729.41C3038.56 728.639 3038.82 727.781 3038.89 726.895C3038.96 726.01 3038.83 725.121 3038.52 724.291C3038.37 723.98 3038.2 723.688 3037.98 723.421L3029.76 731.791C3030.38 731.161 3030.86 730.4 3031.16 729.563C3031.45 728.726 3031.56 727.833 3031.47 726.95C3031.4 726.329 3031.13 725.746 3030.71 725.282L3030.41 725.368L3019.95 732.574C3020.69 732.074 3021.3 731.418 3021.75 730.653C3022.2 729.887 3022.47 729.032 3022.55 728.148H3022.55ZM3006.28 725.603C3006.29 725.499 3006.29 725.396 3006.28 725.292C3005.93 725.192 3005.58 725.082 3005.23 724.97L3006.28 725.603ZM3061.08 691.315L3061.19 691.054L3061.13 691.035C3061.11 691.13 3061.09 691.223 3061.08 691.315H3061.08ZM3061.71 682.336L3061.72 682.312H3061.71V682.336ZM3010.29 732.373C3010.09 732.473 3009.97 732.526 3009.97 732.526L3010.29 732.373ZM3029.76 731.791C3029.61 731.956 3029.51 732.046 3029.51 732.046L3029.76 731.791ZM3001.74 729.879C3001.52 729.927 3001.39 729.944 3001.39 729.944L3001.74 729.879ZM3038.12 729.41C3038.02 729.61 3037.94 729.72 3037.94 729.72L3038.12 729.41ZM2993.2 725.998L2993.55 726.007H2993.52C2993.32 726.007 2993.2 725.998 2993.2 725.998ZM3045.28 725.298C3045.22 725.515 3045.17 725.64 3045.17 725.64L3045.28 725.298ZM3050.18 722.098C3050.15 722.321 3050.11 722.45 3050.11 722.45L3050.18 722.098ZM2987.16 719.779L2987.5 719.873C2987.28 719.821 2987.16 719.779 2987.16 719.779ZM3055.59 717.899C3055.59 718.123 3055.58 718.255 3055.58 718.255L3055.59 717.899ZM2982.55 717.168L2982.9 717.213C2982.68 717.191 2982.55 717.168 2982.55 717.168ZM2979.02 712.46L2979.37 712.543C2979.15 712.498 2979.02 712.46 2979.02 712.46ZM3059.89 711.26C3059.9 711.483 3059.9 711.614 3059.9 711.614L3059.89 711.26ZM2974.45 705.532L2974.77 705.686C2974.56 705.595 2974.45 705.532 2974.45 705.532ZM3063.15 704.596C3063.18 704.817 3063.19 704.948 3063.19 704.948L3063.15 704.596ZM2971.83 696.783L2972.08 697.039C2971.92 696.882 2971.83 696.783 2971.83 696.783ZM3064.72 695.366C3064.77 695.583 3064.79 695.712 3064.79 695.712L3064.72 695.366ZM2970.75 686.819L2970.93 687.119C2970.81 686.935 2970.75 686.819 2970.75 686.819ZM3066.87 685.619C3066.97 685.819 3067.02 685.94 3067.02 685.94L3066.87 685.619ZM2969.26 677.565L2969.42 677.882C2969.31 677.686 2969.26 677.565 2969.26 677.565ZM3067.14 676.565C3067.3 676.717 3067.39 676.815 3067.39 676.815L3067.14 676.565ZM2970.2 670.186L2970.33 670.515C2970.24 670.31 2970.2 670.186 2970.2 670.186ZM3065.02 668.586C3065.22 668.702 3065.32 668.78 3065.32 668.78L3065.02 668.586ZM3062.94 662.509C3063.14 662.603 3063.26 662.669 3063.26 662.669L3062.94 662.509ZM2974.27 661.897L2974.32 662.246C2974.29 662.027 2974.27 661.897 2974.27 661.897ZM3056.78 655.757C3056.98 655.857 3057.1 655.923 3057.1 655.923L3056.78 655.757ZM2980.82 654.181L2980.75 654.531C2980.79 654.309 2980.82 654.181 2980.82 654.181ZM2987.18 648.088L2987.03 648.41C2987.12 648.204 2987.18 648.088 2987.18 648.088H2987.18ZM3051.14 647.456C3051.36 647.478 3051.49 647.502 3051.49 647.502L3051.14 647.456ZM2991.82 642.41L2991.68 642.734C2991.76 642.527 2991.82 642.41 2991.82 642.41ZM3044.64 641.31L3044.29 641.338C3044.51 641.311 3044.64 641.307 3044.64 641.307V641.31ZM2998.08 638.391L2997.91 638.703C2998.01 638.503 2998.08 638.391 2998.08 638.391ZM3037.81 638.364L3037.46 638.429C3037.68 638.381 3037.81 638.364 3037.81 638.364ZM3028.5 637.251L3028.16 637.34C3028.37 637.277 3028.5 637.251 3028.5 637.251ZM3007.05 636.18L3006.81 636.45C3006.96 636.275 3007.05 636.18 3007.05 636.18ZM3018.63 635.54L3018.32 635.71C3018.51 635.597 3018.63 635.54 3018.63 635.54Z" fill="#CC5FC5"/>
<path d="M3044.66 690.019C3044.66 690.019 3042.21 679.043 3045.26 670.027C3048.31 661.012 3056.86 653.958 3056.86 653.958" stroke="black" stroke-width="6" stroke-linecap="round"/>
<path d="M3009.74 693.241L3008.66 693.204L2987.77 692.489L2986.85 692.458L2986.81 691.537C2986.72 689.751 2987.38 688.073 2988.71 686.684C2990.6 684.694 2993.63 683.553 2997.01 683.553C2997.18 683.553 2997.35 683.556 2997.52 683.562L2998.36 683.59C3001.23 683.689 3003.99 684.6 3006.1 686.156C3008.31 687.777 3009.58 689.908 3009.69 692.158L3009.74 693.241Z" fill="white"/>
<path d="M2997.01 684.553C2991.7 684.553 2987.62 687.591 2987.81 691.49L3008.69 692.205C3008.5 688.189 3003.86 684.779 2998.32 684.59L2997.49 684.561C2997.33 684.556 2997.17 684.553 2997.01 684.553ZM2997.01 682.553C2997.19 682.553 2997.37 682.556 2997.56 682.562L2998.39 682.591C3001.47 682.696 3004.42 683.676 3006.7 685.35C3009.15 687.153 3010.57 689.554 3010.69 692.11L3010.79 694.278L2985.9 693.426L2985.81 691.584C2985.71 689.548 2986.49 687.563 2987.98 685.993C2990.07 683.807 2993.36 682.553 2997.01 682.553Z" fill="black"/>
<path d="M2987.53 688.425L3008.23 688.678" stroke="black" stroke-width="2"/>
<path d="M2985.39 663.507H2985.39C2982.4 663.507 2979.98 665.926 2979.98 668.91C2979.98 671.894 2982.4 674.313 2985.39 674.313H2985.39C2988.37 674.313 2990.79 671.894 2990.79 668.91C2990.79 665.926 2988.37 663.507 2985.39 663.507Z" fill="#162944"/>
<path d="M2992.25 667.105L2981.84 655.359L2984.42 653.073L2993.08 665.675L2992.25 667.105Z" fill="black"/>
<path d="M3004.18 668.236L3018.95 659.899L3017.12 656.66L3003.84 666.485L3004.18 668.236Z" fill="black"/>
<path d="M3011.4 665.537H3011.4C3008.18 665.537 3005.58 668.143 3005.58 671.357C3005.58 674.571 3008.18 677.176 3011.4 677.176H3011.4C3014.61 677.176 3017.22 674.571 3017.22 671.357C3017.22 668.143 3014.61 665.537 3011.4 665.537Z" fill="#162944"/>
<path d="M3019.95 732.575C3019.77 732.707 3019.66 732.775 3019.66 732.775L3019.95 732.575ZM3022.55 728.149C3022.57 727.714 3022.51 727.279 3022.38 726.864C3022.15 726.883 3021.93 726.902 3021.7 726.918L3010.29 732.372C3011.09 731.994 3011.8 731.442 3012.36 730.756C3012.93 730.07 3013.33 729.268 3013.55 728.407C3013.59 728.164 3013.62 727.917 3013.62 727.669L3001.74 729.88C3002.61 729.722 3003.44 729.372 3004.16 728.855C3004.88 728.338 3005.48 727.667 3005.91 726.891C3006 726.707 3006.07 726.518 3006.13 726.325L2993.55 726.006C2994.44 726.034 2995.32 725.864 2996.14 725.509C2996.95 725.154 2997.68 724.623 2998.26 723.954C2998.49 723.664 2998.67 723.344 2998.81 723.002L2987.5 719.873C2988.36 720.114 2989.25 720.162 2990.13 720.015C2991.01 719.867 2991.84 719.527 2992.57 719.02C2992.7 718.917 2992.82 718.807 2992.93 718.69C2992.84 718.623 2992.75 718.559 2992.66 718.49L2982.9 717.21C2983.78 717.331 2984.68 717.254 2985.52 716.986C2986.37 716.718 2987.15 716.265 2987.8 715.66C2988.03 715.419 2988.23 715.15 2988.4 714.86L2988.19 714.654L2979.42 712.554C2980.28 712.758 2981.17 712.77 2982.03 712.59C2982.89 712.41 2983.7 712.042 2984.41 711.512C2984.58 711.364 2984.74 711.203 2984.89 711.029C2984.66 710.747 2984.44 710.466 2984.22 710.181L2978 707.222L2977.75 706.296C2978.51 706.279 2979.24 706.082 2979.9 705.722C2980.06 705.638 2980.21 705.543 2980.35 705.44L2979.03 704.098C2986.82 709.216 2995.8 712.249 3005.09 712.905C3014.39 713.562 3023.7 711.82 3032.13 707.847C3058.4 695.758 3060.32 675.843 3060.27 669.829L3067.14 676.567C3066.51 675.942 3065.75 675.465 3064.91 675.17C3064.07 674.875 3063.18 674.77 3062.3 674.861C3062.12 674.891 3061.95 674.93 3061.78 674.979L3066.86 685.618C3066.48 684.816 3065.93 684.107 3065.25 683.544C3064.56 682.98 3063.76 682.576 3062.9 682.359C3062.62 682.307 3062.33 682.283 3062.05 682.287L3064.72 695.365C3064.55 694.494 3064.18 693.672 3063.65 692.959C3063.12 692.245 3062.44 691.658 3061.66 691.239C3061.56 691.194 3061.46 691.153 3061.36 691.118L3063.15 704.596C3063.03 703.715 3062.73 702.87 3062.25 702.122C3061.77 701.374 3061.13 700.741 3060.38 700.269C3060.12 700.131 3059.86 700.02 3059.58 699.936L3059.88 711.265C3059.86 710.377 3059.65 709.504 3059.25 708.71C3058.85 707.916 3058.28 707.22 3057.58 706.672C3057.09 706.299 3056.5 706.084 3055.88 706.055L3055.58 717.899C3055.61 717.012 3055.44 716.13 3055.08 715.316C3054.73 714.502 3054.2 713.778 3053.53 713.194C3053.12 712.86 3052.64 712.628 3052.12 712.518L3050.18 722.098C3050.36 721.23 3050.35 720.332 3050.14 719.47C3049.93 718.608 3049.54 717.802 3048.98 717.111C3048.72 716.822 3048.42 716.574 3048.08 716.376L3045.28 725.296C3045.55 724.451 3045.63 723.557 3045.51 722.677C3045.39 721.798 3045.08 720.955 3044.6 720.21C3044.37 719.893 3044.09 719.612 3043.78 719.378L3038.11 729.41C3038.55 728.639 3038.82 727.78 3038.89 726.895C3038.95 726.01 3038.83 725.12 3038.51 724.291C3038.37 723.98 3038.19 723.688 3037.98 723.422L3029.76 731.792C3030.39 731.161 3030.86 730.4 3031.16 729.562C3031.45 728.725 3031.56 727.833 3031.47 726.95C3031.4 726.328 3031.13 725.744 3030.71 725.281C3030.61 725.31 3030.51 725.34 3030.41 725.367L3019.95 732.575C3020.69 732.076 3021.3 731.42 3021.75 730.654C3022.2 729.889 3022.47 729.033 3022.55 728.149V728.149ZM3006.28 725.603C3006.29 725.5 3006.29 725.396 3006.28 725.292C3005.93 725.192 3005.58 725.08 3005.23 724.97L3006.28 725.603ZM3061.08 691.316L3061.19 691.053L3061.13 691.037C3061.11 691.129 3061.09 691.222 3061.08 691.316H3061.08ZM3061.71 682.337L3061.72 682.313H3061.71V682.337ZM3010.29 732.372C3010.09 732.472 3009.97 732.528 3009.97 732.528L3010.29 732.372ZM3029.76 731.793C3029.61 731.957 3029.51 732.048 3029.51 732.048L3029.76 731.793ZM3001.74 729.88C3001.52 729.928 3001.39 729.944 3001.39 729.944L3001.74 729.88ZM3038.11 729.411C3038.01 729.611 3037.94 729.722 3037.94 729.722L3038.11 729.411ZM2993.51 726.011C2993.31 726.011 2993.2 726.003 2993.2 726.003L2993.55 726.011H2993.51ZM3045.28 725.3C3045.25 725.416 3045.21 725.529 3045.17 725.641L3045.28 725.3ZM3050.18 722.1C3050.14 722.322 3050.11 722.451 3050.11 722.451L3050.18 722.1ZM2987.15 719.779L2987.5 719.873C2987.28 719.82 2987.15 719.779 2987.15 719.779ZM3055.58 717.899C3055.58 718.124 3055.57 718.256 3055.57 718.256L3055.58 717.899ZM2982.55 717.169L2982.9 717.212C2982.68 717.19 2982.55 717.169 2982.55 717.169ZM3059.89 711.269C3059.9 711.492 3059.9 711.623 3059.9 711.623L3059.89 711.269ZM3063.15 704.6C3063.19 704.82 3063.2 704.952 3063.2 704.952L3063.15 704.6ZM3064.72 695.369C3064.78 695.586 3064.8 695.718 3064.8 695.718L3064.72 695.369ZM3066.87 685.623C3066.97 685.823 3067.02 685.945 3067.02 685.945L3066.87 685.623ZM3067.14 676.572C3067.31 676.725 3067.4 676.822 3067.4 676.822L3067.14 676.572Z" fill="#AB30A3"/>
<path d="M2873.67 658.88L2885.17 658.987C2885.8 658.996 2886.42 659.097 2887.01 659.287C2887.61 659.479 2888.19 659.748 2888.72 660.087C2889.24 660.412 2889.71 660.807 2890.12 661.26C2890.5 661.68 2890.81 662.165 2891.02 662.693L2897.18 678.581C2897.38 679.049 2897.45 679.558 2897.4 680.062C2897.36 680.506 2897.19 680.927 2896.91 681.278C2896.62 681.643 2896.23 681.928 2895.8 682.104C2895.28 682.314 2894.72 682.42 2894.16 682.414L2882.45 682.473C2881.81 682.472 2881.17 682.373 2880.55 682.178C2879.93 681.984 2879.34 681.708 2878.79 681.357C2878.26 681.02 2877.77 680.61 2877.36 680.138C2876.96 679.698 2876.65 679.189 2876.44 678.638L2870.53 662.549C2870.35 662.09 2870.29 661.593 2870.35 661.104C2870.41 660.672 2870.6 660.268 2870.89 659.938C2871.2 659.586 2871.59 659.317 2872.03 659.154C2872.55 658.959 2873.11 658.867 2873.67 658.88V658.88Z" fill="#0033FF"/>
<path d="M2874.56 660.571L2885.56 660.662C2885.93 660.668 2886.3 660.729 2886.66 660.844C2887.02 660.959 2887.37 661.12 2887.69 661.323C2888 661.518 2888.28 661.756 2888.53 662.029C2888.76 662.281 2888.94 662.573 2889.07 662.89L2895.04 678.368C2895.16 678.649 2895.2 678.954 2895.17 679.257C2895.14 679.523 2895.04 679.775 2894.87 679.985C2894.7 680.204 2894.47 680.374 2894.2 680.479C2893.89 680.604 2893.56 680.667 2893.22 680.663L2882.05 680.707C2881.67 680.706 2881.28 680.646 2880.92 680.53C2880.54 680.413 2880.19 680.248 2879.86 680.038C2879.54 679.836 2879.25 679.59 2879 679.307C2878.76 679.043 2878.58 678.738 2878.45 678.407L2872.68 662.777C2872.57 662.501 2872.53 662.203 2872.57 661.91C2872.61 661.651 2872.72 661.408 2872.89 661.21C2873.07 660.999 2873.31 660.838 2873.57 660.74C2873.89 660.622 2874.22 660.564 2874.56 660.571V660.571Z" fill="white"/>
<path d="M2742.61 826.603H2613.37V839.11H2742.61V826.603Z" fill="#5D5D5D"/>
<path d="M2678.41 800.338C2674.43 800.338 2670.61 798.757 2667.8 795.942C2664.98 793.128 2663.4 789.31 2663.4 785.33V774.49C2663.4 771.522 2664.28 768.621 2665.93 766.153C2667.58 763.685 2669.93 761.762 2672.67 760.627C2675.41 759.491 2678.43 759.195 2681.34 759.774C2684.25 760.353 2686.93 761.783 2689.02 763.882C2690.42 765.272 2691.53 766.926 2692.29 768.748C2693.04 770.569 2693.43 772.523 2693.42 774.495V785.335C2693.42 787.306 2693.03 789.257 2692.28 791.078C2691.52 792.898 2690.42 794.552 2689.02 795.946C2687.63 797.339 2685.98 798.444 2684.15 799.197C2682.33 799.951 2680.38 800.338 2678.41 800.338V800.338ZM2678.41 766.152C2675.98 766.154 2673.65 767.122 2671.93 768.841C2670.21 770.561 2669.24 772.892 2669.24 775.324V784.495C2669.24 786.927 2670.21 789.26 2671.93 790.98C2673.65 792.701 2675.98 793.667 2678.41 793.667C2680.84 793.667 2683.18 792.701 2684.9 790.98C2686.62 789.26 2687.58 786.927 2687.58 784.495V775.325C2687.58 772.893 2686.61 770.562 2684.89 768.842C2683.17 767.123 2680.84 766.155 2678.41 766.153V766.152Z" fill="#5D5D5D"/>
<path d="M2715.1 826.603H2619.21L2639.22 779.91H2715.1L2735.11 826.603H2715.1Z" fill="#848484"/>
<path d="M2715.1 826.604H2689.68L2719.47 790.118L2735.11 826.604H2715.1Z" fill="#6A6A6A"/>
<path d="M2639.64 849.116C2647.24 849.116 2653.4 842.956 2653.4 835.358C2653.4 827.76 2647.24 821.6 2639.64 821.6C2632.04 821.6 2625.88 827.76 2625.88 835.358C2625.88 842.956 2632.04 849.116 2639.64 849.116Z" fill="white"/>
<path d="M2639.64 845.616C2645.31 845.616 2649.9 841.023 2649.9 835.358C2649.9 829.693 2645.31 825.1 2639.64 825.1C2633.97 825.1 2629.38 829.693 2629.38 835.358C2629.38 841.023 2633.97 845.616 2639.64 845.616Z" stroke="black" stroke-width="7"/>
<path d="M2714.68 849.116C2722.28 849.116 2728.44 842.956 2728.44 835.358C2728.44 827.76 2722.28 821.6 2714.68 821.6C2707.08 821.6 2700.92 827.76 2700.92 835.358C2700.92 842.956 2707.08 849.116 2714.68 849.116Z" fill="white"/>
<path d="M2714.68 845.616C2720.35 845.616 2724.94 841.023 2724.94 835.358C2724.94 829.693 2720.35 825.1 2714.68 825.1C2709.02 825.1 2704.42 829.693 2704.42 835.358C2704.42 841.023 2709.02 845.616 2714.68 845.616Z" stroke="black" stroke-width="7"/>
<path d="M2691.68 794.299H2682.1V821.744H2674.5V794.299H2664.96V788.135H2691.68V794.299Z" fill="black"/>
<path d="M2691.68 794.299H2682.1V821.744H2674.5V794.299H2664.96V788.135H2691.68V794.299Z" fill="white"/>
<path d="M2677.29 764.751C2676.46 763.392 2675.71 761.986 2675.04 760.539C2673.39 757.031 2672.09 753.368 2671.16 749.604C2669.89 744.597 2669.44 739.42 2669.82 734.27C2670.31 728.149 2672.17 722.217 2675.29 716.924C2678.21 711.757 2682.7 707.653 2688.11 705.203C2692.58 703.277 2697.4 702.323 2702.27 702.403H2702.75C2703.14 702.407 2703.53 702.416 2703.91 702.431C2705.81 697.848 2707.96 693.222 2710.06 688.699C2715.21 677.61 2720.53 666.144 2721.79 655.949C2724.1 637.156 2715.22 630.404 2707.89 626.08C2706.62 625.326 2705.41 624.614 2704.39 623.9L2705.36 622.538C2706.31 623.212 2707.49 623.908 2708.74 624.644C2716.03 628.944 2725.89 636.276 2723.44 656.153C2722.62 661.748 2721.13 667.224 2718.99 672.459C2716.85 678.023 2714.16 683.808 2711.57 689.402C2709.54 693.756 2707.5 698.157 2705.68 702.53C2708.72 702.765 2711.74 703.255 2714.71 703.995C2716.39 704.401 2718.05 704.905 2719.67 705.504C2722.38 706.438 2724.79 708.064 2726.68 710.221C2728.75 712.529 2730.34 715.233 2731.34 718.17C2732.78 722.486 2733.43 727.025 2733.26 731.57C2733.27 735.214 2732.61 738.829 2731.32 742.237C2730.37 744.678 2728.88 746.873 2726.96 748.662C2724.79 750.617 2722.14 751.959 2719.27 752.549C2718 752.832 2716.71 752.952 2715.41 752.906C2712.28 752.579 2709.3 751.418 2706.78 749.543C2704.21 747.649 2702.13 745.162 2700.73 742.294C2698.75 738.076 2697.7 733.482 2697.66 728.823C2697.57 725.581 2697.86 722.34 2698.52 719.165C2699.22 715.773 2700.15 712.434 2701.32 709.174C2701.91 707.492 2702.55 705.793 2703.24 704.087C2703.05 704.087 2702.87 704.08 2702.68 704.078H2702.25C2690.64 704.078 2682.05 708.685 2676.72 717.778C2669.93 729.359 2670.83 741.268 2672.78 749.218C2674.02 754.364 2676.01 759.298 2678.69 763.862L2677.29 764.751ZM2705.01 704.157C2701.56 712.694 2699.06 721.086 2699.33 728.757C2699.64 737.688 2702.56 744.407 2707.77 748.187C2710.03 749.869 2712.7 750.92 2715.5 751.234H2715.52C2716.69 751.268 2717.86 751.154 2719 750.895C2721.55 750.359 2723.92 749.154 2725.86 747.405C2729.54 744.033 2731.46 738.693 2731.6 731.532C2731.8 720.596 2728.37 714.518 2725.45 711.345C2723.77 709.408 2721.62 707.945 2719.2 707.099L2719.15 707.086L2719.1 707.068C2717.52 706.483 2715.9 705.992 2714.26 705.598C2711.23 704.843 2708.13 704.361 2705.01 704.156L2705.01 704.157Z" fill="#AEAEAE"/>
<path d="M2672.92 769.708C2672.59 769.754 2672.33 769.621 2672.18 769.501C2671.89 769.28 2671.7 768.919 2671.66 768.511L2670.89 761.823C2670.8 761.029 2671.26 760.292 2671.91 760.18L2680.18 758.768C2680.19 758.766 2680.2 758.765 2680.21 758.763C2680.54 758.717 2680.8 758.85 2680.95 758.97C2681.24 759.191 2681.43 759.551 2681.47 759.96L2682.24 766.648C2682.33 767.442 2681.87 768.179 2681.22 768.291L2672.95 769.703C2672.94 769.705 2672.93 769.706 2672.92 769.708Z" fill="#AEAEAE"/>
<path d="M2680.28 759.259L2680.27 759.261L2672 760.673C2671.65 760.731 2671.32 761.194 2671.39 761.766L2672.15 768.454C2672.18 768.729 2672.3 768.967 2672.48 769.105C2672.6 769.194 2672.72 769.23 2672.85 769.212L2672.86 769.21L2681.13 767.798C2681.48 767.74 2681.81 767.276 2681.74 766.705L2680.98 760.017C2680.95 759.742 2680.83 759.504 2680.65 759.365C2680.53 759.277 2680.41 759.241 2680.28 759.259ZM2680.14 758.268C2681.04 758.142 2681.85 758.865 2681.97 759.903L2682.74 766.591C2682.86 767.646 2682.22 768.628 2681.3 768.784L2673.03 770.196C2672.12 770.352 2671.28 769.623 2671.16 768.568L2670.39 761.88C2670.27 760.825 2670.91 759.843 2671.83 759.687L2680.1 758.275C2680.11 758.273 2680.13 758.27 2680.14 758.268Z" fill="#AEAEAE"/>
<path d="M2673.32 759.439L2680.1 758.276C2680.33 758.252 2680.56 758.276 2680.79 758.347C2681.01 758.418 2681.21 758.533 2681.39 758.686C2681.56 758.84 2681.71 759.027 2681.81 759.238C2681.91 759.448 2681.96 759.677 2681.97 759.91L2682.74 766.621C2682.82 767.1 2682.71 767.592 2682.45 768C2682.18 768.407 2681.77 768.701 2681.3 768.822L2674.53 769.985C2674.3 770.009 2674.06 769.985 2673.84 769.915C2673.62 769.844 2673.41 769.729 2673.24 769.576C2673.06 769.422 2672.92 769.234 2672.82 769.024C2672.72 768.813 2672.66 768.584 2672.65 768.351L2671.89 761.64C2671.81 761.161 2671.91 760.669 2672.18 760.262C2672.44 759.855 2672.85 759.561 2673.32 759.439V759.439Z" fill="#9A9A9A"/>
<path d="M2676.22 769.241C2675.89 769.287 2675.64 769.154 2675.49 769.035C2675.2 768.812 2675.01 768.447 2674.96 768.031L2674.2 761.29C2674.11 760.486 2674.57 759.74 2675.22 759.627L2680.18 758.77C2680.19 758.769 2680.2 758.767 2680.21 758.766C2680.54 758.719 2680.8 758.852 2680.95 758.971C2681.24 759.194 2681.43 759.559 2681.48 759.975L2682.24 766.716C2682.33 767.52 2681.87 768.266 2681.22 768.379L2676.25 769.236C2676.24 769.237 2676.23 769.239 2676.22 769.241Z" fill="#AEAEAE"/>
<path d="M2680.28 759.261L2680.27 759.263L2675.31 760.12C2674.96 760.179 2674.63 760.651 2674.69 761.233L2675.46 767.975C2675.49 768.257 2675.61 768.499 2675.79 768.64C2675.91 768.727 2676.03 768.763 2676.15 768.745L2676.17 768.743L2681.13 767.886C2681.47 767.827 2681.81 767.355 2681.74 766.773L2680.98 760.031C2680.95 759.749 2680.82 759.507 2680.64 759.366C2680.53 759.279 2680.41 759.243 2680.28 759.261ZM2680.15 758.27C2681.04 758.145 2681.85 758.872 2681.97 759.918L2682.74 766.66C2682.86 767.724 2682.21 768.714 2681.3 768.872L2676.34 769.728C2675.42 769.886 2674.59 769.152 2674.46 768.088L2673.7 761.346C2673.58 760.282 2674.22 759.292 2675.14 759.134L2680.1 758.278C2680.11 758.275 2680.13 758.273 2680.15 758.27Z" fill="#AEAEAE"/>
<path d="M2676.9 758.835L2680.1 758.279C2680.33 758.255 2680.57 758.28 2680.79 758.351C2681.01 758.423 2681.22 758.539 2681.39 758.694C2681.57 758.849 2681.71 759.038 2681.81 759.251C2681.91 759.463 2681.96 759.693 2681.97 759.927L2682.73 766.702C2682.81 767.184 2682.71 767.68 2682.44 768.09C2682.18 768.501 2681.77 768.798 2681.29 768.923L2678.09 769.474C2677.86 769.497 2677.63 769.472 2677.4 769.401C2677.18 769.33 2676.98 769.214 2676.8 769.06C2676.63 768.906 2676.48 768.717 2676.39 768.506C2676.29 768.295 2676.23 768.065 2676.22 767.832L2675.46 761.058C2675.38 760.575 2675.49 760.08 2675.75 759.669C2676.02 759.258 2676.43 758.96 2676.9 758.835V758.835Z" fill="#9A9A9A"/>
<path d="M2680.15 768.685C2679.83 768.731 2679.58 768.599 2679.43 768.481C2679.14 768.256 2678.94 767.883 2678.9 767.459L2678.14 760.643C2678.05 759.841 2678.52 759.067 2679.16 758.954L2680.19 758.775C2680.2 758.773 2680.21 758.771 2680.22 758.77C2680.54 758.724 2680.79 758.855 2680.94 758.974C2681.23 759.199 2681.43 759.571 2681.47 759.995L2682.23 766.811C2682.32 767.614 2681.85 768.387 2681.21 768.501L2680.18 768.68C2680.17 768.682 2680.16 768.684 2680.15 768.685Z" fill="#AEAEAE"/>
<path d="M2680.29 759.265C2680.28 759.265 2680.28 759.266 2680.27 759.267L2679.25 759.447C2678.9 759.507 2678.57 759.991 2678.63 760.588L2679.39 767.404C2679.42 767.695 2679.55 767.943 2679.73 768.086C2679.84 768.172 2679.96 768.207 2680.08 768.19C2680.09 768.189 2680.09 768.188 2680.1 768.187L2681.12 768.008C2681.47 767.948 2681.8 767.464 2681.74 766.867L2680.98 760.051C2680.95 759.76 2680.82 759.512 2680.64 759.369C2680.53 759.283 2680.41 759.248 2680.29 759.265ZM2680.15 758.274C2681.04 758.149 2681.85 758.883 2681.97 759.94L2682.73 766.756C2682.85 767.831 2682.21 768.833 2681.29 768.993L2680.27 769.172C2679.36 769.332 2678.52 768.59 2678.4 767.515L2677.64 760.699C2677.52 759.623 2678.16 758.622 2679.08 758.462L2680.1 758.282C2680.12 758.279 2680.13 758.277 2680.15 758.274Z" fill="#AEAEAE"/>
<path opacity="0.8" d="M2701.3 620.976C2701.3 620.976 2686.53 634.302 2685.82 640.207C2685.11 646.112 2694.42 649.516 2694.42 649.516L2714.01 652.45C2714.01 652.45 2707.54 643.631 2706.42 636.535C2705.3 629.439 2704.74 622.298 2704.74 622.298L2701.3 620.976Z" fill="#CF3030"/>
<path opacity="0.8" d="M2745.34 613.877L2712.24 624.032C2709.98 624.732 2707.54 624.611 2705.35 623.689C2703.17 622.768 2701.37 621.106 2700.29 618.995L2682.27 583.611C2675.02 569.892 2672.35 554.21 2674.66 538.864C2679.98 501.582 2711.36 475.098 2744.75 479.714C2778.14 484.329 2800.89 518.293 2795.56 555.583C2791.83 581.739 2775.26 602.58 2754.19 611.098C2751.32 612.26 2748.36 613.19 2745.34 613.877V613.877Z" fill="#CF3030"/>
<path d="M2748.65 559.78C2758.09 559.78 2765.74 552.127 2765.74 542.687C2765.74 533.247 2758.09 525.594 2748.65 525.594C2739.21 525.594 2731.55 533.247 2731.55 542.687C2731.55 552.127 2739.21 559.78 2748.65 559.78Z" fill="white"/>
<path d="M2752.82 551.442C2755.81 551.442 2758.24 549.015 2758.24 546.022C2758.24 543.028 2755.81 540.602 2752.82 540.602C2749.82 540.602 2747.4 543.028 2747.4 546.022C2747.4 549.015 2749.82 551.442 2752.82 551.442Z" fill="#4D0000"/>
<path d="M2774.08 552.692C2774.08 550.092 2774.74 547.534 2775.99 545.257C2777.24 542.979 2779.05 541.055 2781.25 539.663C2783.45 538.272 2785.96 537.458 2788.55 537.296C2791.15 537.135 2793.74 537.633 2796.09 538.742C2796.54 544.358 2796.37 550.006 2795.56 555.583C2794.98 559.713 2794.05 563.788 2792.8 567.767C2790.55 568.257 2788.21 568.237 2785.97 567.708C2783.73 567.178 2781.63 566.153 2779.83 564.707C2778.04 563.261 2776.59 561.431 2775.59 559.352C2774.6 557.273 2774.08 554.997 2774.08 552.692V552.692Z" fill="white"/>
<path d="M2759.62 591.133C2765.67 592.532 2771.89 588.027 2773.49 581.073C2775.1 574.118 2771.49 567.346 2765.43 565.948C2759.37 564.549 2753.16 569.054 2751.56 576.009C2749.95 582.963 2753.56 589.735 2759.62 591.133Z" fill="#4D0000"/>
<path d="M2789.5 558.946C2792.04 558.946 2794.09 556.893 2794.09 554.36C2794.09 551.827 2792.04 549.774 2789.5 549.774C2786.97 549.774 2784.92 551.827 2784.92 554.36C2784.92 556.893 2786.97 558.946 2789.5 558.946Z" fill="#4D0000"/>
<path d="M2715.35 498.637C2716.21 500.263 2719.38 500.269 2722.43 498.649C2725.48 497.029 2727.26 494.397 2726.39 492.771C2725.53 491.144 2722.36 491.139 2719.31 492.759C2716.26 494.379 2714.48 497.011 2715.35 498.637Z" fill="white"/>
<path d="M2707.74 503.569C2707.74 503.569 2701.94 507.493 2695.72 518.202C2689.5 528.911 2688.66 535.402 2688.66 535.402" stroke="white" stroke-width="7" stroke-linecap="round"/>
<path d="M2707.61 622.593L2701.93 619.821C2701.12 619.425 2700.14 619.762 2699.74 620.574C2699.34 621.386 2699.68 622.366 2700.49 622.762L2706.18 625.534C2706.99 625.93 2707.97 625.593 2708.37 624.781C2708.76 623.969 2708.42 622.989 2707.61 622.593Z" fill="#8A8A8A"/>
<path d="M3021.71 647.409L3022.91 644.749L3024.24 645.35C3026.29 646.282 3028.62 647.197 3030.29 646.348C3031.59 645.688 3032.54 643.945 3033.12 641.159L3033.42 639.73L3036.28 640.325L3035.98 641.754C3035.2 645.498 3033.77 647.852 3031.61 648.95C3028.56 650.505 3024.96 648.884 3023.04 648.009L3021.71 647.409L3021.71 647.409ZM3023.79 665.143L3024.39 663.813C3025.32 661.757 3026.24 659.429 3025.39 657.76C3024.73 656.462 3022.98 655.509 3020.2 654.93L3018.77 654.632L3019.37 651.774L3020.8 652.072C3024.54 652.851 3026.89 654.275 3027.99 656.437C3029.55 659.494 3027.93 663.089 3027.05 665.015L3026.45 666.345L3023.79 665.143ZM3030.82 668.682L3031.11 667.253C3031.89 663.508 3033.32 661.155 3035.48 660.058C3038.53 658.502 3042.13 660.125 3044.06 660.998L3045.39 661.599L3044.18 664.259L3042.85 663.658C3040.8 662.726 3038.47 661.811 3036.8 662.66C3035.5 663.321 3034.55 665.066 3033.97 667.849L3033.67 669.278L3030.82 668.682V668.682ZM3039.73 653.557C3039.49 653.25 3039.28 652.92 3039.1 652.573C3037.54 649.516 3039.16 645.92 3040.04 643.994L3040.64 642.665L3043.3 643.867L3042.7 645.197C3041.77 647.254 3040.85 649.581 3041.7 651.25C3042.36 652.546 3044.11 653.501 3046.89 654.08L3048.32 654.378L3047.73 657.235L3046.29 656.936C3043.15 656.281 3040.99 655.17 3039.72 653.555L3039.73 653.557Z" fill="#9B0037"/>
<path d="M2841.84 688.757L2851.38 688.624C2851.94 688.625 2852.51 688.699 2853.06 688.843C2853.67 689 2854.27 689.213 2854.85 689.479C2855.44 689.748 2856 690.068 2856.54 690.435C2857.04 690.775 2857.5 691.17 2857.91 691.612L2869.49 704.28C2869.8 704.609 2870.06 704.995 2870.23 705.418C2870.36 705.71 2870.37 706.038 2870.28 706.341C2870.22 706.48 2870.13 706.606 2870.03 706.712C2869.92 706.817 2869.8 706.901 2869.66 706.957C2869.26 707.119 2868.84 707.193 2868.41 707.175L2858.92 707.108C2858.37 707.096 2857.82 707.017 2857.29 706.873C2856.7 706.717 2856.12 706.509 2855.56 706.252C2855 705.993 2854.45 705.686 2853.94 705.336C2853.45 705.012 2853.01 704.636 2852.61 704.216L2840.98 691.789C2840.65 691.452 2840.38 691.059 2840.18 690.628C2840.04 690.33 2840.01 689.993 2840.08 689.672C2840.12 689.53 2840.2 689.398 2840.29 689.284C2840.39 689.171 2840.51 689.08 2840.64 689.015C2841.02 688.836 2841.43 688.747 2841.84 688.757V688.757Z" fill="#00C80D"/>
<path d="M2843.33 690.126L2852.44 690.014C2852.78 690.015 2853.11 690.06 2853.44 690.146C2853.81 690.24 2854.17 690.368 2854.51 690.527C2854.86 690.688 2855.2 690.879 2855.52 691.099C2855.82 691.301 2856.1 691.536 2856.35 691.799L2867.61 704.099C2867.8 704.296 2867.96 704.527 2868.06 704.781C2868.14 704.956 2868.15 705.153 2868.09 705.335C2868.06 705.418 2868.01 705.494 2867.94 705.558C2867.88 705.622 2867.8 705.672 2867.72 705.706C2867.49 705.803 2867.23 705.848 2866.98 705.838L2857.9 705.788C2857.57 705.781 2857.24 705.734 2856.93 705.648C2856.57 705.558 2856.22 705.436 2855.89 705.286C2855.55 705.13 2855.22 704.946 2854.91 704.735C2854.62 704.54 2854.35 704.314 2854.11 704.061L2842.81 691.942C2842.61 691.739 2842.45 691.502 2842.33 691.242C2842.25 691.064 2842.23 690.863 2842.27 690.671C2842.3 690.586 2842.34 690.507 2842.4 690.439C2842.46 690.371 2842.53 690.316 2842.61 690.278C2842.83 690.171 2843.08 690.119 2843.33 690.126V690.126Z" fill="white"/>
<path d="M2909.42 681.85L2917.7 682.057C2918.08 682.051 2918.45 682.174 2918.75 682.406C2919.01 682.635 2919.19 682.95 2919.25 683.296C2919.32 683.729 2919.3 684.173 2919.18 684.596C2919.03 685.147 2918.81 685.675 2918.52 686.165L2908.72 703.06C2908.4 703.61 2908.02 704.124 2907.58 704.592C2907.16 705.055 2906.69 705.476 2906.18 705.847C2905.72 706.189 2905.21 706.476 2904.68 706.7C2904.23 706.895 2903.75 707.005 2903.26 707.024L2894.93 707.129C2894.54 707.149 2894.16 707.044 2893.83 706.829C2893.55 706.624 2893.35 706.324 2893.27 705.985C2893.18 705.567 2893.19 705.133 2893.29 704.719C2893.43 704.17 2893.64 703.644 2893.93 703.158L2903.79 685.884C2904.13 685.311 2904.52 684.776 2904.97 684.29C2905.41 683.811 2905.89 683.378 2906.42 682.998C2906.9 682.65 2907.41 682.362 2907.96 682.142C2908.42 681.95 2908.92 681.851 2909.42 681.85V681.85Z" fill="#FF0000"/>
<path d="M2908.53 683.729L2916.44 683.904C2916.67 683.9 2916.89 683.973 2917.07 684.111C2917.23 684.248 2917.34 684.436 2917.37 684.643C2917.42 684.901 2917.41 685.167 2917.34 685.42C2917.25 685.751 2917.11 686.069 2916.94 686.363L2907.4 702.837C2907.21 703.168 2906.98 703.477 2906.72 703.759C2906.46 704.038 2906.18 704.291 2905.87 704.514C2905.59 704.719 2905.29 704.891 2904.97 705.026C2904.7 705.143 2904.41 705.208 2904.12 705.219L2896.16 705.298C2895.93 705.309 2895.7 705.246 2895.51 705.117C2895.34 704.993 2895.22 704.813 2895.17 704.609C2895.12 704.358 2895.12 704.098 2895.19 703.849C2895.27 703.52 2895.4 703.205 2895.57 702.914L2905.17 686.147C2905.37 685.804 2905.6 685.484 2905.87 685.193C2906.13 684.906 2906.42 684.647 2906.74 684.42C2907.02 684.211 2907.33 684.039 2907.66 683.906C2907.93 683.791 2908.23 683.73 2908.53 683.729V683.729Z" fill="white"/>
</g>
<defs>
<linearGradient id="paint0_linear" x1="886.789" y1="938.126" x2="886.789" y2="1248.49" gradientUnits="userSpaceOnUse">
<stop stop-color="#22AE76"/>
<stop offset="1" stop-color="#005432"/>
</linearGradient>
<linearGradient id="paint1_linear" x1="3602.38" y1="952.828" x2="3552.83" y2="1212.49" gradientUnits="userSpaceOnUse">
<stop stop-color="#22AE76"/>
<stop offset="1" stop-color="#005432"/>
</linearGradient>
<linearGradient id="paint2_linear" x1="2191.11" y1="932.932" x2="2191.11" y2="1243.29" gradientUnits="userSpaceOnUse">
<stop stop-color="#22AE76"/>
<stop offset="1" stop-color="#005432"/>
</linearGradient>
<clipPath id="clip0">
<rect width="4441" height="1075" fill="white"/>
</clipPath>
</defs>
</svg>
