<svg width="4439" height="1072" viewBox="0 0 4439 1072" fill="none" xmlns="http://www.w3.org/2000/svg">
<g clip-path="url(#clip0)">
<path d="M2460.69 1131.96H2428.34C2424.1 1131.97 2419.89 1131.14 2415.96 1129.51C2412.04 1127.88 2408.47 1125.5 2405.47 1122.49C2404.5 1121.52 2403.59 1120.49 2402.75 1119.4L2414.59 1112.56L2396.07 1101.86C2396.02 1101.12 2396 1100.36 2396 1099.61C2395.99 1095.36 2396.83 1091.15 2398.45 1087.23C2400.08 1083.3 2402.46 1079.73 2405.46 1076.73C2408.47 1073.73 2412.04 1071.34 2415.96 1069.72C2419.89 1068.09 2424.1 1067.26 2428.34 1067.26H2428.35C2432.6 1067.26 2436.81 1068.09 2440.74 1069.72C2444.66 1071.34 2448.23 1073.73 2451.23 1076.73C2454.24 1079.73 2456.62 1083.3 2458.25 1087.23C2459.87 1091.15 2460.7 1095.36 2460.7 1099.61L2460.69 1131.96ZM2437.84 1107.9L2418.95 1109.22L2419.01 1110.1C2419.18 1112.34 2420.17 1114.42 2421.81 1115.95C2423.44 1117.48 2425.6 1118.33 2427.83 1118.34C2428.04 1118.34 2428.25 1118.33 2428.46 1118.31L2428.81 1118.29C2431.38 1118.11 2433.78 1116.91 2435.47 1114.96C2437.16 1113.02 2438.01 1110.48 2437.84 1107.9ZM2442.53 1089.05C2441.32 1089.05 2440.14 1089.4 2439.14 1090.07C2438.13 1090.74 2437.35 1091.69 2436.88 1092.81C2436.42 1093.92 2436.3 1095.15 2436.53 1096.33C2436.77 1097.52 2437.35 1098.6 2438.2 1099.46C2439.05 1100.31 2440.14 1100.89 2441.32 1101.13C2442.51 1101.37 2443.73 1101.25 2444.85 1100.79C2445.96 1100.32 2446.92 1099.54 2447.59 1098.54C2448.26 1097.54 2448.62 1096.36 2448.62 1095.15C2448.62 1093.53 2447.97 1091.98 2446.83 1090.84C2445.69 1089.7 2444.14 1089.05 2442.53 1089.05ZM2414.93 1089.05C2413.72 1089.05 2412.54 1089.4 2411.53 1090.07C2410.53 1090.74 2409.75 1091.69 2409.28 1092.81C2408.82 1093.92 2408.7 1095.15 2408.93 1096.33C2409.16 1097.52 2409.74 1098.6 2410.6 1099.46C2411.45 1100.31 2412.54 1100.89 2413.72 1101.13C2414.9 1101.37 2416.13 1101.25 2417.25 1100.79C2418.36 1100.32 2419.32 1099.54 2419.99 1098.54C2420.66 1097.54 2421.02 1096.36 2421.02 1095.15C2421.02 1093.53 2420.37 1091.98 2419.23 1090.84C2418.09 1089.69 2416.54 1089.05 2414.92 1089.05H2414.93ZM2389.73 1126.92V1098.2L2396.07 1101.86C2396.51 1108.24 2398.83 1114.34 2402.75 1119.4L2389.73 1126.91V1126.92Z" fill="white"/>
<path opacity="0.51" d="M802.498 1258.89C834.643 1261.33 867.964 1262.57 901.534 1262.57C927.862 1262.57 954.169 1261.8 979.721 1260.29C1004.63 1258.82 1029.13 1256.63 1052.55 1253.77C1075.52 1250.97 1097.7 1247.5 1118.45 1243.46C1138.99 1239.45 1158.31 1234.86 1175.86 1229.79C1191.98 1225.24 1207.8 1219.71 1223.24 1213.23C1235.74 1208.06 1247.72 1201.69 1259.01 1194.22C1268.91 1187.48 1276.51 1180.41 1281.61 1173.22C1284.08 1169.81 1286.06 1166.07 1287.49 1162.12C1288.8 1158.44 1289.48 1154.57 1289.49 1150.67C1289.49 1147.87 1289.13 1145.08 1288.44 1142.36C1308.17 1137.73 1326 1132.73 1341.46 1127.49C1357.08 1122.19 1370.47 1116.59 1381.24 1110.84C1392.2 1104.99 1400.61 1098.89 1406.24 1092.73C1408.88 1089.92 1411.06 1086.71 1412.71 1083.22C1414.13 1080.16 1414.88 1076.84 1414.91 1073.46C1414.8 1068.34 1413.15 1063.36 1410.17 1059.18C1407.09 1054.57 1402.44 1049.96 1396.37 1045.49C1384.45 1036.69 1366.84 1028.23 1344.04 1020.33C1344.59 1018.36 1344.87 1016.32 1344.87 1014.28C1344.83 1010.46 1343.89 1006.7 1342.13 1003.31C1340.03 999.347 1337.31 995.75 1334.07 992.659C1327.08 985.771 1316.65 978.996 1303.08 972.521C1289.75 966.164 1273.25 960.033 1254.04 954.298C1235.01 948.622 1213.16 943.277 1189.1 938.422C1165.03 933.567 1138.55 929.16 1110.39 925.322C1081.97 921.449 1051.57 918.12 1020.05 915.431C987.944 912.692 954.356 910.589 920.214 909.18C885.174 907.733 849.112 907 813.03 907C777.424 907 741.831 907.714 707.241 909.122C673.535 910.494 640.341 912.543 608.581 915.212C577.403 917.833 547.303 921.078 519.103 924.856C491.171 928.598 464.843 932.899 440.86 937.639C416.877 942.379 395.024 947.597 375.908 953.149C356.612 958.752 339.922 964.747 326.298 970.969C312.433 977.301 301.594 983.935 294.085 990.687C290.613 993.714 287.601 997.232 285.144 1001.13C283.097 1004.39 281.791 1008.07 281.322 1011.89C198.309 1020.61 128.267 1033.85 78.7666 1050.17C53.8186 1058.39 34.5179 1067.27 21.3999 1076.56C7.8649 1086.15 1 1096.12 1 1106.21C1.03633 1109.97 1.94193 1113.67 3.646 1117.02C5.65429 1120.92 8.27685 1124.46 11.4136 1127.52C18.1456 1134.31 28.1948 1140.99 41.2798 1147.38C54.1248 1153.64 70.0246 1159.69 88.5376 1165.34C106.883 1170.95 127.929 1176.21 151.126 1181C174.323 1185.79 199.845 1190.13 226.985 1193.91C254.391 1197.73 283.684 1201.02 314.051 1203.67C344.973 1206.37 377.345 1208.44 410.265 1209.83C444.02 1211.26 478.775 1211.98 513.565 1211.98C534.248 1211.98 554.995 1211.72 575.227 1211.22C592.427 1218.92 612.904 1226 636.09 1232.28C661.405 1239.01 687.054 1244.42 712.932 1248.48C741.165 1253.02 771.298 1256.52 802.498 1258.89Z" fill="white"/>
<path d="M1780.62 1148.71C1780.62 1106.2 1805.09 1070.46 1838.25 1060.13C1844.48 1016.93 1876.25 984.05 1914.51 984.05C1919.62 984.049 1924.7 984.638 1929.67 985.807C1947.37 952.254 1978.85 929.932 2014.73 929.932C2043.04 929.932 2068.6 943.822 2086.83 966.162C2098.84 960.146 2112.1 957.006 2125.53 956.99C2158.61 956.99 2187.95 975.959 2206.2 1005.21C2217.36 996.942 2230.86 992.444 2244.75 992.375C2265.58 992.375 2284.39 1002.59 2297.82 1019.01C2309.2 983.118 2344.07 956.99 2385.32 956.99C2409.28 956.876 2432.37 965.986 2449.8 982.432C2466.27 966.1 2488.55 956.953 2511.75 956.992C2560.26 956.992 2599.59 996.132 2599.59 1044.41C2599.59 1092.69 2560.26 1131.83 2511.75 1131.83C2488.55 1131.87 2466.27 1122.72 2449.8 1106.39C2440.73 1114.87 2430.08 1121.48 2418.45 1125.84C2406.83 1130.19 2394.46 1132.21 2382.05 1131.78C2369.64 1131.34 2357.44 1128.46 2346.15 1123.29C2334.86 1118.13 2324.7 1110.79 2316.26 1101.69C2308.05 1139.38 2279.14 1167.22 2244.75 1167.22C2229.06 1167.22 2214.51 1161.42 2202.55 1151.55C2184.17 1177.66 2156.49 1194.28 2125.53 1194.28C2097.23 1194.28 2071.66 1180.38 2053.43 1158.04C2041.42 1164.06 2028.17 1167.2 2014.73 1167.22C1994.99 1167.22 1976.58 1160.46 1961.06 1148.79C1953.33 1155.79 1944.18 1161.05 1934.24 1164.21C1928.02 1207.41 1896.24 1240.29 1857.99 1240.29C1815.26 1240.29 1780.62 1199.29 1780.62 1148.71Z" fill="url(#paint0_linear)"/>
<path d="M732.632 1096.2C699.464 1106.52 675 1142.27 675 1184.78C675 1235.36 709.637 1276.36 752.363 1276.36C790.622 1276.36 822.399 1243.48 828.622 1200.28C838.562 1197.12 847.708 1191.86 855.441 1184.86C870.957 1196.52 889.368 1203.29 909.111 1203.29C922.547 1203.27 935.796 1200.13 947.811 1194.11C966.04 1216.45 991.604 1230.34 1019.91 1230.34C1050.87 1230.34 1078.55 1213.73 1096.93 1187.62L1100.58 1041.28C1082.33 1012.03 1052.99 993.058 1019.91 993.058C1006.47 993.074 993.223 996.214 981.206 1002.23C962.981 979.89 937.417 966 909.111 966C873.23 966 841.75 988.322 824.05 1021.88C819.081 1020.71 813.994 1020.12 808.89 1020.12C770.632 1020.12 738.855 1053 732.632 1096.2Z" fill="#22AD76"/>
<path d="M732.632 1096.2C699.464 1106.52 675 1142.27 675 1184.78C675 1235.36 709.637 1276.36 752.363 1276.36C790.622 1276.36 822.399 1243.48 828.622 1200.28C838.562 1197.12 847.708 1191.86 855.441 1184.86C870.957 1196.52 889.368 1203.29 909.111 1203.29C922.547 1203.27 935.796 1200.13 947.811 1194.11C966.04 1216.45 991.604 1230.34 1019.91 1230.34C1050.87 1230.34 1078.55 1213.73 1096.93 1187.62L1100.58 1041.28C1082.33 1012.03 1052.99 993.058 1019.91 993.058C1006.47 993.074 993.223 996.214 981.206 1002.23C962.981 979.89 937.417 966 909.111 966C873.23 966 841.75 988.322 824.05 1021.88C819.081 1020.71 813.994 1020.12 808.89 1020.12C770.632 1020.12 738.855 1053 732.632 1096.2Z" fill="url(#paint1_linear)"/>
<path d="M3380.16 974.987C3366.45 949.627 3343.94 931.191 3316.14 925.885L3311.39 1157.21C3325.11 1182.57 3347.62 1201.01 3375.42 1206.31C3405.83 1212.12 3436.13 1200.98 3459.09 1178.78C3468.98 1190.72 3482.19 1199.14 3497.59 1202.08C3531.38 1208.53 3564.99 1186.6 3580.12 1151.12C3586.71 1161.64 3595.32 1170.76 3605.44 1177.95C3615.56 1185.13 3627 1190.25 3639.11 1193.01C3651.21 1195.76 3663.74 1196.1 3675.98 1194C3688.22 1191.9 3699.92 1187.4 3710.41 1180.77C3723.54 1199.9 3743.7 1213.06 3766.49 1217.37C3814.15 1226.47 3860.12 1195.4 3869.17 1147.97C3878.22 1100.55 3846.93 1054.73 3799.27 1045.63C3776.49 1041.25 3752.9 1046.05 3733.65 1059.01C3719.61 1039.59 3698.64 1026.31 3675.08 1021.93C3634.57 1014.2 3595.42 1033.33 3577.51 1066.45C3567.4 1047.8 3550.83 1034.24 3530.37 1030.34C3516.72 1027.8 3502.61 1029.69 3490.1 1035.72C3477.66 1003.57 3452.4 979.434 3419.9 973.233C3406.7 970.73 3393.1 971.331 3380.16 974.987Z" fill="url(#paint2_linear)"/>
<path opacity="0.51" d="M3187.13 1006.15C3153.56 1006.15 3120.24 1004.91 3088.09 1002.47C3056.89 1000.1 3026.76 996.598 2998.53 992.06C2972.65 987.998 2947 982.592 2921.69 975.861C2898.5 969.586 2878.02 962.502 2860.82 954.806C2840.59 955.306 2819.84 955.562 2799.16 955.562C2764.37 955.562 2729.61 954.839 2695.86 953.414C2662.94 952.023 2630.57 949.95 2599.65 947.251C2569.28 944.601 2539.99 941.318 2512.58 937.498C2485.44 933.714 2459.92 929.369 2436.72 924.582C2413.52 919.795 2392.48 914.53 2374.13 908.928C2355.62 903.272 2339.72 897.228 2326.88 890.96C2313.79 884.575 2303.74 877.894 2297.01 871.104C2293.87 868.045 2291.25 864.499 2289.24 860.604C2287.54 857.252 2286.63 853.551 2286.6 849.791C2286.6 839.708 2293.46 829.732 2307 820.144C2320.11 810.855 2339.41 801.976 2364.36 793.75C2413.86 777.431 2483.9 764.194 2566.92 755.472C2567.39 751.648 2568.69 747.975 2570.74 744.712C2573.2 740.815 2576.21 737.297 2579.68 734.269C2587.19 727.517 2598.03 720.884 2611.89 714.552C2625.52 708.33 2642.21 702.335 2661.5 696.732C2680.62 691.18 2702.47 685.962 2726.46 681.222C2750.44 676.482 2776.77 672.181 2804.7 668.439C2832.9 664.661 2863 661.416 2894.18 658.795C2925.94 656.126 2959.13 654.077 2992.84 652.705C3027.43 651.297 3063.02 650.583 3098.62 650.583C3134.71 650.583 3170.77 651.316 3205.81 652.763C3239.95 654.172 3273.54 656.275 3305.64 659.014C3337.17 661.703 3367.56 665.032 3395.98 668.905C3424.15 672.743 3450.63 677.15 3474.69 682.005C3498.76 686.86 3520.61 692.205 3539.64 697.881C3558.84 703.616 3575.34 709.746 3588.67 716.103C3602.25 722.578 3612.67 729.354 3619.66 736.242C3622.91 739.333 3625.63 742.93 3627.72 746.893C3629.49 750.282 3630.43 754.041 3630.47 757.862C3630.46 759.906 3630.18 761.939 3629.63 763.908C3652.43 771.808 3670.04 780.274 3681.97 789.068C3688.04 793.546 3692.68 798.154 3695.77 802.768C3698.74 806.945 3700.39 811.92 3700.5 817.046C3700.48 820.418 3699.73 823.746 3698.3 826.804C3696.66 830.291 3694.47 833.499 3691.83 836.311C3686.21 842.474 3677.8 848.569 3666.83 854.424C3656.06 860.176 3642.68 865.777 3627.05 871.071C3611.6 876.308 3593.76 881.313 3574.04 885.944C3574.73 888.661 3575.08 891.453 3575.09 894.258C3575.07 898.157 3574.4 902.026 3573.09 905.699C3571.65 909.657 3569.67 913.395 3567.21 916.807C3562.11 923.993 3554.51 931.06 3544.6 937.807C3533.32 945.275 3521.34 951.641 3508.83 956.816C3493.39 963.29 3477.57 968.82 3461.46 973.377C3443.91 978.44 3424.59 983.036 3404.04 987.04C3383.29 991.083 3361.12 994.554 3338.14 997.357C3314.73 1000.21 3290.23 1002.41 3265.32 1003.88C3239.76 1005.38 3213.46 1006.15 3187.13 1006.15ZM1298.41 782.316C1275.53 782.316 1252.66 781.671 1230.45 780.4C1208.81 779.162 1187.51 777.312 1167.16 774.9C1147.18 772.537 1127.91 769.611 1109.88 766.2C1092.03 762.828 1075.24 758.953 1059.98 754.683C1045.99 750.848 1032.25 746.187 1018.81 740.725C1007.97 736.375 997.556 731.011 987.721 724.704C979.116 719.014 972.506 713.058 968.074 707.004C963.529 700.789 961.224 694.395 961.224 687.995C961.227 685.894 961.471 683.799 961.949 681.753C931.113 678.57 900.478 673.669 870.188 667.072C842.518 660.914 818.253 653.619 798.069 645.393C777.622 637.06 761.753 627.929 750.904 618.252C739.69 608.252 734.004 597.793 734.004 587.178C734.004 576.886 739.356 566.735 749.91 557.007C760.126 547.593 775.097 538.67 794.41 530.486C813.457 522.415 836.419 515.186 862.659 509.011C891.413 502.384 920.513 497.365 949.825 493.977C952.269 487.395 957.3 480.849 964.776 474.523C972.089 468.336 981.841 462.275 993.76 456.51C1007.22 450.156 1021.11 444.737 1035.31 440.292C1051.04 435.243 1068.76 430.511 1087.97 426.227C1107.23 421.932 1128.19 418.042 1150.27 414.667C1172.58 411.256 1196.29 408.33 1220.75 405.967C1271.53 401.067 1325.23 398.583 1380.36 398.583C1435.47 398.583 1489.17 401.067 1539.95 405.966C1564.38 408.323 1588.09 411.248 1610.42 414.66C1632.5 418.035 1653.46 421.923 1672.71 426.215C1705.93 426.688 1739.01 427.806 1771.02 429.54C1802.3 431.24 1832.96 433.54 1862.16 436.393C1890.91 439.201 1918.54 442.569 1944.3 446.402C1969.88 450.209 1993.88 454.514 2015.62 459.202C2037.4 463.894 2057.13 469.014 2074.27 474.418C2091.59 479.877 2106.45 485.687 2118.44 491.683C2130.64 497.789 2140.01 504.163 2146.28 510.628C2149.2 513.551 2151.64 516.923 2153.5 520.616C2155.09 523.809 2155.93 527.32 2155.96 530.885C2155.88 535.524 2154.5 540.048 2151.98 543.941C2148.83 548.761 2144.89 553.013 2140.33 556.517C2161.05 561.169 2179.8 566.218 2196.08 571.529C2212.53 576.897 2226.63 582.592 2237.98 588.453C2249.55 594.423 2258.43 600.645 2264.37 606.953C2267.15 609.816 2269.45 613.1 2271.21 616.684C2272.71 619.805 2273.51 623.22 2273.54 626.684C2273.5 630.422 2272.58 634.098 2270.85 637.414C2268.81 641.29 2266.15 644.808 2262.98 647.833C2256.15 654.569 2245.97 661.196 2232.71 667.533C2219.69 673.75 2203.57 679.746 2184.81 685.356C2166.22 690.912 2144.88 696.136 2121.37 700.884C2097.86 705.632 2071.99 709.944 2044.48 713.697C2016.71 717.487 1987.02 720.742 1956.23 723.372C1924.86 726.052 1892.04 728.108 1858.71 729.485C1824.49 730.9 1789.26 731.617 1754.01 731.617C1703.35 731.617 1653.26 730.145 1605.14 727.244C1591.93 735.309 1574.69 742.817 1553.9 749.56C1530.63 756.909 1506.91 762.725 1482.88 766.972C1428.02 777.008 1364.24 782.316 1298.41 782.316Z" fill="white"/>
<path opacity="0.51" d="M3848.31 492.655C3894.76 495.701 3943.3 497.246 3992.6 497.246C4026.93 497.246 4061.18 496.489 4094.4 494.997C4126.71 493.546 4158.34 491.385 4188.41 488.574C4359.66 450.389 4351 397.566 4351 345.519C4351 293.471 4267.77 242.979 4160.5 240.5C3813.27 232.474 3614.11 215.235 3266.79 217C2936.53 218.678 2440 234.5 2425 295.5C2425 305 2425 307.216 2425 308.852C2425.03 312.2 2425.84 315.497 2427.36 318.483C2429.14 321.952 2431.48 325.11 2434.27 327.837C2440.26 333.886 2449.2 339.834 2460.85 345.519C2472.28 351.099 2486.42 356.483 2502.9 361.519C2519.22 366.507 2537.96 371.199 2558.6 375.46C2579.24 379.721 2601.96 383.591 2626.11 386.96C2650.5 390.364 2676.57 393.286 2703.58 395.645C2731.11 398.049 2759.92 399.896 2789.2 401.134C2819.25 402.403 2850.18 403.047 2881.13 403.047C2886.02 403.047 2890.91 403.031 2895.66 403C2930.04 422.424 2982.15 438.811 3046.35 450.389C3078.71 456.225 3113.64 460.74 3150.18 463.808C3187.9 466.975 3227.13 468.58 3266.79 468.58C3294.18 468.58 3321.57 467.803 3348.21 466.28C3374.17 464.796 3399.76 462.578 3424.27 459.687C3448.34 456.848 3471.61 453.333 3493.45 449.238C3515.08 445.184 3535.52 440.519 3554.22 435.373C3570.39 444.312 3593.17 452.688 3621.95 460.273C3650.43 467.78 3684.22 474.367 3722.37 479.848C3761.02 485.401 3803.39 489.71 3848.31 492.655Z" fill="white"/>
<path d="M1862.5 930.099H1096.45V1142.36H1862.5V930.099Z" fill="#EEB594"/>
<path opacity="0.13" d="M1862.04 1021.11C1854.72 1021.11 1847.65 1018.4 1842.2 1013.51C1836.76 1008.62 1833.31 1001.88 1832.53 994.598C1831.7 1002.14 1828.02 1009.08 1822.24 1013.99C1816.46 1018.9 1809.01 1021.41 1801.44 1021.01C1793.86 1020.6 1786.73 1017.31 1781.5 1011.81C1776.28 1006.31 1773.36 999.019 1773.34 991.432C1773.34 995.388 1772.56 999.306 1771.05 1002.96C1769.61 1006.47 1767.5 1009.66 1764.85 1012.37C1762.23 1015.06 1759.12 1017.22 1755.67 1018.72C1752.13 1020.25 1748.3 1021.04 1744.44 1021.04C1740.58 1021.04 1736.75 1020.25 1733.21 1018.72C1729.76 1017.22 1726.65 1015.06 1724.03 1012.37C1721.38 1009.66 1719.27 1006.47 1717.83 1002.96C1716.32 999.307 1715.54 995.39 1715.54 991.435C1715.54 995.402 1714.72 999.326 1713.13 1002.96C1711.58 1006.49 1709.37 1009.69 1706.59 1012.37C1703.81 1015.09 1700.52 1017.24 1696.92 1018.72C1689.33 1021.82 1680.83 1021.82 1673.24 1018.72C1669.64 1017.24 1666.36 1015.09 1663.57 1012.37C1660.8 1009.69 1658.58 1006.49 1657.03 1002.96C1655.44 999.327 1654.62 995.403 1654.62 991.435C1654.62 995.39 1653.84 999.307 1652.33 1002.96C1650.88 1006.47 1648.78 1009.66 1646.13 1012.37C1643.51 1015.06 1640.39 1017.22 1636.95 1018.72C1633.4 1020.25 1629.58 1021.04 1625.72 1021.04C1621.85 1021.04 1618.03 1020.25 1614.48 1018.72C1611.04 1017.22 1607.92 1015.06 1605.31 1012.37C1602.66 1009.66 1600.55 1006.47 1599.11 1002.96C1597.59 999.307 1596.82 995.39 1596.81 991.435C1596.77 999.277 1593.62 1006.78 1588.06 1012.31C1582.5 1017.84 1574.98 1020.94 1567.13 1020.94C1559.29 1020.94 1551.77 1017.84 1546.21 1012.31C1540.65 1006.78 1537.5 999.277 1537.45 991.435C1537.41 999.277 1534.26 1006.78 1528.7 1012.31C1523.14 1017.84 1515.62 1020.94 1507.77 1020.94C1499.93 1020.94 1492.41 1017.84 1486.85 1012.31C1481.29 1006.78 1478.14 999.277 1478.09 991.435C1478.09 995.402 1477.27 999.326 1475.68 1002.96C1474.14 1006.49 1471.92 1009.69 1469.15 1012.37C1466.36 1015.09 1463.08 1017.24 1459.48 1018.72C1451.89 1021.82 1443.38 1021.82 1435.79 1018.72C1432.19 1017.24 1428.91 1015.09 1426.12 1012.37C1423.35 1009.69 1421.13 1006.49 1419.59 1002.96C1418 999.327 1417.18 995.403 1417.17 991.435C1417.13 999.277 1413.98 1006.78 1408.42 1012.31C1402.86 1017.84 1395.34 1020.94 1387.49 1020.94C1379.65 1020.94 1372.13 1017.84 1366.57 1012.31C1361.01 1006.78 1357.86 999.277 1357.81 991.435C1357.77 999.277 1354.62 1006.78 1349.06 1012.31C1343.5 1017.84 1335.97 1020.94 1328.13 1020.94C1320.29 1020.94 1312.77 1017.84 1307.21 1012.31C1301.64 1006.78 1298.5 999.277 1298.45 991.435C1298.45 995.39 1297.67 999.307 1296.16 1002.96C1294.71 1006.47 1292.61 1009.66 1289.96 1012.37C1287.34 1015.06 1284.23 1017.22 1280.78 1018.72C1277.24 1020.25 1273.41 1021.04 1269.55 1021.04C1265.69 1021.04 1261.86 1020.25 1258.32 1018.72C1254.87 1017.22 1251.75 1015.06 1249.14 1012.37C1246.49 1009.66 1244.38 1006.47 1242.94 1002.96C1241.43 999.306 1240.65 995.388 1240.65 991.432H1240.5C1240.5 995.388 1239.72 999.306 1238.21 1002.96C1236.76 1006.47 1234.66 1009.66 1232.01 1012.37C1229.39 1015.06 1226.27 1017.22 1222.83 1018.72C1219.29 1020.25 1215.46 1021.04 1211.6 1021.04C1207.73 1021.04 1203.91 1020.25 1200.37 1018.71C1196.92 1017.22 1193.8 1015.06 1191.19 1012.37C1188.54 1009.66 1186.43 1006.46 1184.99 1002.96C1183.48 999.304 1182.7 995.387 1182.7 991.432C1182.7 995.388 1181.92 999.306 1180.41 1002.96C1178.96 1006.47 1176.86 1009.66 1174.21 1012.37C1171.59 1015.06 1168.48 1017.22 1165.03 1018.72C1161.49 1020.25 1157.66 1021.04 1153.8 1021.04C1149.93 1021.04 1146.11 1020.25 1142.57 1018.71C1139.12 1017.22 1136 1015.06 1133.39 1012.37C1130.74 1009.66 1128.63 1006.46 1127.19 1002.96C1125.68 999.304 1124.9 995.387 1124.9 991.432C1124.91 999.059 1122.01 1006.4 1116.8 1011.97C1111.7 1017.45 1104.65 1020.7 1097.18 1021.01V916.562H1862.5V1021.11C1862.34 1021.11 1862.19 1021.11 1862.04 1021.11Z" fill="black"/>
<path d="M1068.3 971.266C1064.74 971.271 1061.22 970.6 1057.91 969.289C1054.7 968.016 1051.75 966.173 1049.19 963.85C1043.94 959.073 1040.56 952.584 1039.66 945.543L1075.11 862.012H1889.73L1921.75 937.427C1921.92 938.703 1922.01 939.989 1922.01 941.277L1922.1 941.585H1922.01C1922.01 949.457 1918.89 957.006 1913.32 962.572C1907.76 968.138 1900.21 971.265 1892.33 971.265C1884.46 971.265 1876.91 968.138 1871.35 962.572C1865.78 957.006 1862.65 949.457 1862.65 941.585C1862.61 949.427 1859.46 956.932 1853.9 962.461C1848.34 967.99 1840.82 971.094 1832.97 971.094C1825.13 971.094 1817.61 967.99 1812.05 962.461C1806.49 956.932 1803.34 949.427 1803.29 941.585C1803.28 945.533 1802.5 949.44 1800.98 953.085C1799.53 956.58 1797.43 959.766 1794.78 962.47C1792.17 965.156 1789.05 967.304 1785.61 968.795C1782.07 970.325 1778.25 971.114 1774.4 971.114C1770.54 971.114 1766.72 970.325 1763.18 968.795C1759.74 967.304 1756.62 965.156 1754.01 962.47C1751.36 959.766 1749.26 956.58 1747.81 953.085C1746.29 949.44 1745.51 945.533 1745.5 941.585C1745.48 945.545 1744.65 949.459 1743.06 953.085C1741.51 956.609 1739.29 959.797 1736.52 962.47C1733.74 965.176 1730.46 967.323 1726.86 968.795C1719.28 971.887 1710.79 971.887 1703.21 968.795C1699.62 967.323 1696.34 965.176 1693.55 962.47C1690.78 959.797 1688.56 956.609 1687.01 953.085C1685.42 949.46 1684.59 945.545 1684.58 941.585C1684.56 945.533 1683.78 949.44 1682.26 953.085C1680.81 956.58 1678.71 959.766 1676.06 962.47C1673.45 965.155 1670.33 967.304 1666.89 968.795C1663.35 970.325 1659.53 971.114 1655.68 971.114C1651.82 971.114 1648 970.325 1644.46 968.795C1641.02 967.304 1637.91 965.155 1635.29 962.47C1632.64 959.766 1630.54 956.58 1629.09 953.085C1627.58 949.44 1626.79 945.533 1626.78 941.585C1626.73 949.427 1623.59 956.932 1618.03 962.461C1612.46 967.99 1604.94 971.094 1597.1 971.094C1589.26 971.094 1581.73 967.99 1576.17 962.461C1570.61 956.932 1567.46 949.427 1567.42 941.585C1567.37 949.427 1564.23 956.932 1558.66 962.461C1553.1 967.99 1545.58 971.094 1537.74 971.094C1529.9 971.094 1522.37 967.99 1516.81 962.461C1511.25 956.932 1508.1 949.427 1508.06 941.585C1508.04 945.545 1507.21 949.46 1505.62 953.085C1504.07 956.609 1501.85 959.797 1499.08 962.47C1496.29 965.176 1493.01 967.323 1489.42 968.795C1481.84 971.887 1473.35 971.887 1465.77 968.795C1462.18 967.323 1458.9 965.176 1456.11 962.47C1453.34 959.797 1451.12 956.609 1449.57 953.085C1447.98 949.46 1447.15 945.545 1447.13 941.585C1447.09 949.427 1443.94 956.932 1438.38 962.461C1432.82 967.99 1425.29 971.094 1417.45 971.094C1409.61 971.094 1402.09 967.99 1396.53 962.461C1390.96 956.932 1387.82 949.427 1387.77 941.585C1387.73 949.427 1384.58 956.932 1379.02 962.461C1373.46 967.99 1365.93 971.094 1358.09 971.094C1350.25 971.094 1342.73 967.99 1337.16 962.461C1331.6 956.932 1328.46 949.427 1328.41 941.585C1328.4 945.533 1327.61 949.44 1326.1 953.085C1324.65 956.58 1322.54 959.766 1319.9 962.47C1317.28 965.156 1314.17 967.304 1310.73 968.795C1307.19 970.325 1303.37 971.114 1299.51 971.114C1295.65 971.114 1291.84 970.325 1288.29 968.795C1284.86 967.304 1281.74 965.155 1279.13 962.47C1276.48 959.766 1274.37 956.58 1272.93 953.085C1271.41 949.44 1270.62 945.533 1270.61 941.585C1270.6 945.533 1269.82 949.44 1268.3 953.085C1266.85 956.58 1264.75 959.766 1262.1 962.47C1259.49 965.155 1256.37 967.304 1252.93 968.795C1249.39 970.332 1245.56 971.121 1241.7 971.112C1237.84 971.118 1234.02 970.329 1230.48 968.793C1227.04 967.302 1223.93 965.154 1221.31 962.468C1218.67 959.764 1216.56 956.578 1215.11 953.083C1213.6 949.438 1212.81 945.531 1212.8 941.583C1212.79 945.531 1212 949.438 1210.49 953.083C1209.04 956.578 1206.94 959.764 1204.29 962.468C1201.67 965.154 1198.56 967.302 1195.12 968.793C1191.58 970.329 1187.76 971.118 1183.9 971.112C1180.04 971.118 1176.22 970.329 1172.68 968.793C1169.24 967.302 1166.13 965.153 1163.51 962.468C1160.87 959.764 1158.76 956.578 1157.31 953.083C1155.8 949.438 1155.01 945.531 1155 941.583C1154.99 945.531 1154.2 949.438 1152.69 953.083C1151.24 956.578 1149.14 959.764 1146.49 962.468C1143.87 965.154 1140.76 967.302 1137.32 968.793C1133.78 970.329 1129.96 971.118 1126.1 971.112C1122.25 971.118 1118.43 970.329 1114.89 968.793C1111.45 967.302 1108.33 965.153 1105.72 962.468C1103.07 959.764 1100.97 956.578 1099.52 953.083C1098 949.438 1097.22 945.531 1097.21 941.583C1097.21 945.546 1096.44 949.471 1094.93 953.136C1093.49 956.648 1091.39 959.851 1088.74 962.57C1086.12 965.27 1083 967.431 1079.55 968.931C1076.01 970.477 1072.17 971.272 1068.3 971.266Z" fill="#6A21FF"/>
<path d="M1729.97 760.02C1732 762.199 1733.08 765.094 1732.98 768.07C1732.87 771.046 1731.59 773.858 1729.41 775.888L1720.13 784.542C1717.95 786.572 1715.05 787.654 1712.08 787.549C1709.1 787.444 1706.29 786.162 1704.26 783.984C1700.03 779.448 1701.17 773.391 1704.28 767.836C1707.38 762.281 1717.78 751.253 1717.78 751.253C1717.78 751.253 1728.65 758.605 1729.97 760.02Z" fill="#AA4F62"/>
<path d="M1839.4 800.555C1832.83 802.094 1826.17 803.222 1819.46 803.934C1811.2 804.563 1800.43 801.257 1800.43 801.257C1801.79 799.196 1802.9 796.981 1803.74 794.657C1804.81 791.519 1805.69 788.32 1806.39 785.077C1806.48 784.772 1813.29 781.654 1819.13 777.224C1822.81 774.413 1826.27 771.34 1829.51 768.03C1829.51 768.03 1826.67 780.053 1829.16 786.201C1831.66 792.348 1839.4 800.555 1839.4 800.555Z" fill="#AA4F62"/>
<path d="M1678.38 750.613L1679.31 752.544C1679.31 752.544 1687.33 757.885 1688.8 758.745C1689.14 758.997 1689.53 759.169 1689.95 759.249C1690.36 759.33 1690.79 759.317 1691.2 759.211L1709.39 751.579L1704.68 737.356L1678.38 750.613Z" fill="#AA4F62"/>
<path d="M1784.25 671.18L1793.68 673.708C1809.18 677.866 1822.4 688.013 1830.42 701.916C1838.45 715.819 1840.62 732.34 1836.46 747.845L1834.19 756.332C1830.03 771.837 1819.88 785.056 1805.98 793.08C1792.08 801.105 1775.55 803.277 1760.05 799.12L1750.62 796.593C1735.12 792.435 1721.9 782.289 1713.87 768.386C1705.85 754.482 1703.68 737.961 1707.83 722.455L1710.11 713.968C1714.27 698.463 1724.41 685.244 1738.32 677.219C1752.22 669.195 1768.74 667.022 1784.25 671.18V671.18Z" fill="#F27187"/>
<path d="M1836.48 747.851L1834.2 756.337C1832.15 764.018 1828.6 771.219 1823.77 777.528C1818.93 783.836 1812.89 789.129 1806.01 793.104C1799.12 797.078 1791.52 799.655 1783.63 800.688C1775.75 801.722 1767.74 801.191 1760.06 799.125L1750.63 796.597C1738.34 793.296 1727.4 786.206 1719.36 776.333C1711.33 766.461 1706.6 754.308 1705.86 741.6C1708.85 755.897 1716.56 768.772 1727.76 778.144C1738.96 787.516 1752.99 792.839 1767.59 793.252C1782.19 793.665 1796.5 789.144 1808.22 780.419C1819.93 771.695 1828.36 759.277 1832.14 745.171L1832.4 744.228C1836.81 727.911 1834.65 710.514 1826.38 695.772C1831.81 702.992 1835.56 711.332 1837.36 720.184C1838.27 724.677 1838.66 729.26 1838.53 733.842C1838.4 738.576 1837.71 743.277 1836.48 747.851Z" fill="#C45C6F"/>
<path d="M1702.91 717.534L1704 713.475L1728.22 733.972C1728.48 734.196 1728.68 734.487 1728.8 734.815C1728.91 735.142 1728.94 735.494 1728.87 735.835C1728.8 736.176 1728.65 736.493 1728.42 736.754C1728.19 737.014 1727.9 737.209 1727.57 737.318L1702.14 745.703C1700.17 736.384 1700.43 726.731 1702.91 717.534Z" fill="#BB586A"/>
<path d="M1679.91 752.779C1679.42 752.679 1678.98 752.393 1678.68 751.978C1678.53 751.764 1678.43 751.521 1678.37 751.265C1678.32 751.008 1678.32 750.743 1678.37 750.486L1687.53 703.341C1687.63 702.831 1687.93 702.381 1688.36 702.091C1688.79 701.8 1689.31 701.692 1689.82 701.791C1690.15 701.854 1690.46 702.002 1690.71 702.22L1704.01 713.477L1702.92 717.536C1700.43 726.73 1700.16 736.387 1702.15 745.704L1680.9 752.713C1680.58 752.82 1680.24 752.843 1679.91 752.779Z" fill="#F27187"/>
<path d="M1800.02 810.115C1789.91 810.115 1786.91 803.341 1787.11 794.873C1787.3 786.405 1786.02 776.385 1799.09 776.385C1812.16 776.385 1812.94 788.663 1812.78 793.889C1812.63 799.116 1810.14 810.115 1800.02 810.115Z" fill="#F27187"/>
<path d="M1735.82 742.045C1741.94 744.089 1748.17 745.761 1754.49 747.051C1760.87 748.233 1767.31 749.033 1773.78 749.447C1773.78 749.447 1771.46 770.25 1750.25 765.852C1729.04 761.453 1735.82 742.045 1735.82 742.045Z" fill="#4A0920"/>
<path d="M1739.5 695.991L1740.38 696.226C1743.4 697.037 1745.98 699.015 1747.54 701.726C1749.11 704.437 1749.53 707.658 1748.72 710.681L1747.78 714.189C1746.97 717.212 1744.99 719.789 1742.28 721.354C1739.57 722.918 1736.35 723.342 1733.32 722.531L1732.45 722.296C1729.42 721.486 1726.85 719.508 1725.28 716.797C1723.72 714.087 1723.29 710.866 1724.1 707.843L1725.05 704.334C1725.86 701.311 1727.83 698.733 1730.54 697.169C1733.26 695.604 1736.48 695.181 1739.5 695.991V695.991Z" fill="#4A0920"/>
<path d="M1779.9 709.986L1780.84 710.239C1784.09 711.111 1786.86 713.238 1788.55 716.154C1790.23 719.069 1790.68 722.533 1789.81 725.784L1788.8 729.552C1788.37 731.162 1787.63 732.671 1786.61 733.993C1785.6 735.315 1784.33 736.424 1782.89 737.257C1781.44 738.09 1779.85 738.631 1778.2 738.848C1776.55 739.066 1774.87 738.955 1773.26 738.524L1772.31 738.271C1769.06 737.399 1766.29 735.273 1764.61 732.359C1762.93 729.444 1762.47 725.981 1763.34 722.73L1764.35 718.963C1764.78 717.353 1765.53 715.843 1766.54 714.52C1767.56 713.198 1768.82 712.088 1770.26 711.254C1771.71 710.42 1773.3 709.879 1774.95 709.662C1776.61 709.444 1778.29 709.555 1779.9 709.986V709.986Z" fill="#4A0920"/>
<path d="M1796.78 809.841C1794.26 809.483 1791.95 808.254 1790.25 806.369C1788.72 804.487 1787.74 802.218 1787.42 799.813C1788.95 802.382 1791.64 804.023 1795.42 804.69C1799.37 805.389 1802.76 803.971 1805.49 800.479C1807.47 797.771 1808.85 794.67 1809.53 791.384C1810.33 788.032 1810.38 784.548 1809.69 781.174C1812.44 784.942 1812.88 790.166 1812.77 793.887C1812.65 797.399 1811.75 800.841 1810.12 803.956C1809.19 805.692 1807.86 807.184 1806.25 808.309C1804.4 809.524 1802.22 810.151 1800.01 810.108C1798.92 810.113 1797.84 810.023 1796.78 809.841Z" fill="#C45C6F"/>
<path d="M1679.96 753.065C1679.24 752.871 1678.62 752.42 1678.21 751.797C1677.78 751.145 1677.63 750.352 1677.78 749.588L1686.63 704.098C1686.71 703.694 1686.87 703.311 1687.1 702.972C1687.33 702.634 1687.63 702.347 1687.98 702.13C1688.33 701.911 1688.72 701.765 1689.13 701.703C1689.54 701.641 1689.95 701.663 1690.35 701.768C1690.78 701.882 1691.17 702.09 1691.51 702.375L1709.22 717.281L1707.83 722.456C1705.85 729.805 1705.28 737.464 1706.15 745.026L1681.66 753.013C1681.11 753.195 1680.52 753.213 1679.96 753.065Z" fill="#F27187"/>
<path d="M1707.83 722.456L1709.22 717.281L1728 733.083C1728.41 733.427 1728.72 733.875 1728.89 734.379C1729.07 734.884 1729.11 735.426 1729.01 735.951C1728.91 736.477 1728.67 736.965 1728.31 737.365C1727.96 737.766 1727.5 738.065 1727 738.231L1706.15 745.026C1705.28 737.464 1705.85 729.805 1707.83 722.456Z" fill="#AA4F62"/>
<path d="M1231.06 497.248H1570.27V862.011H1231.06V497.248Z" fill="#AD7F65"/>
<path d="M1122.86 497.007H1231.06V861.77H1122.86V497.007Z" fill="#8E654E"/>
<path d="M1541.91 534.491H1273.6V861.768H1541.91V534.491Z" fill="#514741"/>
<path d="M1463.07 569.557H1273.6V861.769H1463.07V569.557Z" fill="#2E2E2E"/>
<path d="M1424.04 620.889L1413.17 608.818C1412.71 608.313 1411.93 608.272 1411.43 608.726C1410.92 609.181 1410.88 609.959 1411.34 610.464L1422.21 622.535C1422.66 623.041 1423.44 623.082 1423.95 622.627C1424.45 622.172 1424.49 621.394 1424.04 620.889Z" fill="#1B684F"/>
<path d="M1547.44 613.022L1557.13 607.654C1557.72 607.324 1557.94 606.575 1557.61 605.98C1557.28 605.386 1556.53 605.171 1555.93 605.501L1546.25 610.869C1545.65 611.198 1545.44 611.948 1545.77 612.542C1546.1 613.137 1546.85 613.352 1547.44 613.022Z" fill="#1B684F"/>
<path d="M1569.48 592.946L1572.9 603.471C1573.11 604.118 1573.81 604.472 1574.45 604.262C1575.1 604.052 1575.45 603.357 1575.24 602.711L1571.82 592.185C1571.61 591.539 1570.92 591.185 1570.27 591.395C1569.63 591.605 1569.27 592.299 1569.48 592.946Z" fill="#1B684F"/>
<path d="M1595.34 637.785L1606.4 638.171C1607.08 638.195 1607.65 637.663 1607.67 636.984C1607.7 636.305 1607.17 635.735 1606.49 635.712L1595.42 635.325C1594.74 635.302 1594.17 635.833 1594.15 636.512C1594.13 637.191 1594.66 637.761 1595.34 637.785Z" fill="#1B684F"/>
<path d="M1590.75 669.032L1599.82 675.385C1600.37 675.776 1601.14 675.641 1601.53 675.084C1601.92 674.528 1601.79 673.76 1601.23 673.37L1592.17 667.017C1591.61 666.626 1590.84 666.761 1590.45 667.318C1590.06 667.875 1590.2 668.642 1590.75 669.032Z" fill="#1B684F"/>
<path d="M1556.73 620.065L1567.79 620.451C1568.47 620.475 1569.04 619.943 1569.06 619.264C1569.08 618.585 1568.55 618.015 1567.87 617.991L1556.81 617.605C1556.13 617.581 1555.56 618.113 1555.54 618.792C1555.51 619.471 1556.05 620.041 1556.73 620.065Z" fill="#1B684F"/>
<path d="M1546.4 633.619L1556.17 628.423C1556.77 628.104 1557 627.359 1556.68 626.759C1556.36 626.158 1555.61 625.931 1555.01 626.25L1545.24 631.446C1544.64 631.765 1544.41 632.51 1544.73 633.11C1545.05 633.71 1545.8 633.938 1546.4 633.619Z" fill="#1B684F"/>
<path d="M1473.98 579.4L1483.36 585.265C1483.94 585.625 1484.7 585.45 1485.06 584.873C1485.42 584.297 1485.24 583.538 1484.67 583.178L1475.28 577.312C1474.7 576.952 1473.95 577.127 1473.58 577.704C1473.22 578.28 1473.4 579.039 1473.98 579.4Z" fill="#1B684F"/>
<path d="M1466.87 603.118L1477.39 606.538C1478.04 606.748 1478.73 606.394 1478.94 605.748C1479.15 605.101 1478.8 604.407 1478.15 604.197L1467.63 600.777C1466.98 600.567 1466.29 600.921 1466.08 601.567C1465.87 602.213 1466.22 602.908 1466.87 603.118Z" fill="#1B684F"/>
<path d="M1498.28 564.261L1494.49 574.661C1494.26 575.3 1494.59 576.006 1495.23 576.239C1495.87 576.471 1496.58 576.142 1496.81 575.503L1500.59 565.102C1500.83 564.464 1500.5 563.757 1499.86 563.525C1499.22 563.292 1498.51 563.622 1498.28 564.261Z" fill="#1B684F"/>
<path d="M1523.95 562.536L1518.25 572.023C1517.9 572.605 1518.09 573.362 1518.67 573.712C1519.25 574.062 1520.01 573.873 1520.36 573.29L1526.06 563.803C1526.41 563.22 1526.22 562.464 1525.64 562.114C1525.06 561.764 1524.3 561.953 1523.95 562.536Z" fill="#1B684F"/>
<path d="M1440.4 700.164L1445.15 684.636C1445.35 683.986 1444.98 683.298 1444.33 683.1C1443.68 682.901 1442.99 683.267 1442.79 683.917L1438.05 699.446C1437.85 700.095 1438.22 700.783 1438.87 700.982C1439.52 701.18 1440.21 700.814 1440.4 700.164Z" fill="#1B684F"/>
<path d="M1448.65 639.668L1459.93 627.989C1460.41 627.5 1460.39 626.721 1459.91 626.249C1459.42 625.776 1458.64 625.79 1458.16 626.279L1446.88 637.957C1446.4 638.446 1446.42 639.225 1446.91 639.698C1447.39 640.17 1448.17 640.157 1448.65 639.668Z" fill="#1B684F"/>
<path d="M1436.71 718.492C1436.71 718.492 1457.05 712.332 1521.43 712.656C1585.81 712.98 1605.3 720.906 1605.3 720.906L1595.94 732.247L1471.31 726.031L1436.71 718.492Z" fill="#8B2B44"/>
<path d="M1433.63 606.691C1455.49 604.571 1458.42 650.082 1458.42 650.082L1475.12 645.582C1473.41 634.458 1472.77 623.196 1473.19 611.95C1474.02 594.583 1479.25 584.383 1479.25 584.383C1479.25 584.383 1486.7 569.496 1511.51 569.496C1536.32 569.496 1543.76 583.004 1543.76 583.004C1543.76 583.004 1550.66 590.447 1550.38 609.192C1550.1 627.937 1549 642.273 1549 642.273L1563.36 645.581C1563.36 645.581 1553.71 598.981 1578.52 598.432C1603.33 597.883 1602.23 642.273 1602.23 642.273C1602.23 642.273 1604.99 665.973 1596.44 671.209C1587.9 676.445 1573.29 678.386 1573.29 678.386H1482.29L1462.45 689.137C1462.45 689.137 1431.01 696.855 1425.5 689.137C1419.99 681.419 1419.92 679.277 1416.5 652.363C1413.08 625.449 1411.77 608.812 1433.63 606.691Z" fill="#0DD24F"/>
<path opacity="0.7" d="M1595.28 656.661C1599.08 647.269 1600.39 633.48 1600.84 625.497C1601.8 631.037 1602.27 636.652 1602.24 642.275C1602.24 642.275 1604.99 665.975 1596.45 671.211C1591.34 674.344 1584.06 676.297 1579.03 677.359C1583.11 674.126 1591.16 666.797 1595.28 656.661Z" fill="#1B684F"/>
<path opacity="0.7" d="M1458.41 662.803C1458.71 658.562 1458.71 654.307 1458.41 650.066C1458.41 650.08 1458.41 650.086 1458.41 650.086L1461.26 649.316C1463.62 652.776 1466.31 659.151 1464.22 664.866C1464.23 664.857 1464.26 664.866 1464.22 664.981C1460.21 674.262 1456.77 675.036 1456.77 675.036C1457.54 670.991 1458.09 666.907 1458.41 662.803Z" fill="#1B684F"/>
<path d="M1462.44 721.936C1462.44 721.936 1457.73 703.149 1460.22 689.641C1460.22 689.641 1470.72 685.225 1469.87 669.533C1469.03 653.841 1458.41 650.033 1458.41 650.033L1476.16 645.018C1476.16 645.018 1490.83 655.911 1494.1 661.25C1497.38 666.589 1510.86 670.12 1520.64 669.534C1548.29 667.88 1549.02 642.169 1549.02 642.169L1563.34 645.555L1570.54 675.892C1570.54 675.892 1582.61 700.703 1583.23 712.005C1583.85 723.307 1583.5 721.936 1462.44 721.936Z" fill="#26509D"/>
<path d="M1538.76 827.856C1539.22 815.838 1538.76 806.322 1538.76 806.322C1535.84 807.116 1532.82 807.465 1529.8 807.359C1523.83 807.359 1511.43 806.322 1511.43 806.322V834.002C1513.21 834.777 1514.92 835.697 1516.55 836.752C1519.44 838.565 1521.92 840.963 1523.83 843.793C1525.54 846.344 1526.47 849.342 1526.49 852.415C1526.46 855.79 1525.35 859.065 1523.33 861.767H1466.36L1453.39 861.795C1453.39 861.795 1454.66 825.425 1456.29 798.847C1457.93 772.269 1459.83 755.338 1459.83 755.338L1587.7 757.417L1586.57 832.024C1590.36 833.045 1593.97 834.639 1597.27 836.752C1600.17 838.563 1602.65 840.962 1604.55 843.793C1606.27 846.343 1607.2 849.342 1607.22 852.416C1607.19 855.791 1606.08 859.066 1604.06 861.768H1549.46L1536.46 861.8C1536.46 861.8 1538.29 839.875 1538.76 827.856Z" fill="#A45441"/>
<path d="M1537.32 779.504H1536.81H1536.3C1523.53 779.404 1507.78 777.268 1489.48 773.163C1475 769.914 1463.25 766.382 1458.87 765.014C1459.11 762.362 1459.35 759.891 1459.58 757.668H1459.82C1478.48 759.889 1500.89 761.014 1526.43 761.014C1551.46 761.014 1572.07 760.453 1587.67 759.345L1587.46 773.593C1567.53 777.516 1550.67 779.504 1537.32 779.504Z" fill="#8B2B44"/>
<path d="M1464.03 721.938L1471.44 709.786C1471.44 709.786 1500.96 704.077 1530.49 701.141C1547.09 699.483 1563.81 699.1 1580.47 699.995C1581.87 703.873 1582.79 707.905 1583.23 712.005C1583.73 721.105 1583.59 721.99 1520.47 721.99C1505.48 721.991 1486.96 721.941 1464.03 721.938Z" fill="#1E3982"/>
<path d="M1573.26 709.04C1566.45 710.488 1561.89 716.128 1563.06 721.636C1564.23 727.144 1570.69 730.446 1577.5 728.997C1584.31 727.548 1588.88 721.909 1587.7 716.401C1586.53 710.893 1580.06 707.593 1573.26 709.04Z" fill="#B48451"/>
<path d="M1580.88 716.01C1574.07 717.457 1569.5 723.098 1570.67 728.606C1571.85 734.114 1578.31 737.415 1585.12 735.967C1591.93 734.518 1596.49 728.878 1595.32 723.37C1594.15 717.862 1587.68 714.563 1580.88 716.01Z" fill="#B48451"/>
<path d="M1557.07 713.709C1550.26 715.157 1545.7 720.797 1546.87 726.306C1548.04 731.814 1554.5 735.115 1561.32 733.666C1568.13 732.217 1572.69 726.578 1571.52 721.07C1570.35 715.562 1563.88 712.262 1557.07 713.709Z" fill="#DABA5F"/>
<path d="M1532.93 712.707C1524.5 714.499 1518.79 721.207 1520.17 727.687C1521.55 734.168 1529.49 737.98 1537.93 736.186C1546.36 734.393 1552.06 727.686 1550.69 721.206C1549.31 714.725 1541.36 710.915 1532.93 712.707Z" fill="#DABA5F"/>
<path d="M1503.71 714.327C1491.83 713.914 1482.02 718.949 1481.79 725.57C1481.56 732.191 1491 737.904 1502.88 738.318C1514.75 738.731 1524.57 733.696 1524.8 727.075C1525.03 720.454 1515.59 714.741 1503.71 714.327Z" fill="#DABA5F"/>
<path d="M1472.54 709.998C1463.46 709.682 1455.91 714.795 1455.68 721.416C1455.45 728.038 1462.62 733.672 1471.71 733.988C1480.79 734.304 1488.34 729.19 1488.57 722.569C1488.8 715.948 1481.62 710.314 1472.54 709.998Z" fill="#DABA5F"/>
<path d="M1549.07 710.606C1543.44 710.902 1539.07 714.629 1539.29 718.929C1539.52 723.23 1544.26 726.478 1549.89 726.183C1555.52 725.887 1559.89 722.16 1559.66 717.859C1559.44 713.559 1554.69 710.311 1549.07 710.606Z" fill="#B48451"/>
<path d="M1486.78 708.552C1478.21 708.254 1469.45 717.177 1469.45 717.177C1469.45 717.177 1460.22 732.013 1468.78 732.312C1474.94 732.526 1505.16 736.134 1508 732.669C1508.8 731.711 1507.71 723.694 1502.4 717.667C1497.09 711.64 1495.34 708.85 1486.78 708.552Z" fill="#B48451"/>
<path d="M1436.73 718.456C1436.73 718.456 1434.04 723.574 1434.3 735.426C1434.57 747.278 1436.73 753.743 1436.73 753.743C1436.73 753.743 1462.05 761.016 1526.43 761.016C1590.81 761.016 1606.43 757.245 1606.43 757.245C1606.43 757.245 1608.05 750.781 1608.32 737.851C1608.59 724.921 1605.35 720.881 1605.35 720.881C1605.35 720.881 1592.96 727.881 1526.43 725.46C1459.89 723.039 1436.73 718.456 1436.73 718.456Z" fill="#A45441"/>
<path d="M1523.92 731.254C1454.87 730.308 1438.41 725.386 1435.55 721.939C1435.82 720.754 1436.21 719.599 1436.71 718.491L1436.8 718.467C1438.18 718.732 1461.92 723.108 1526.43 725.459C1590.57 727.797 1604.39 721.371 1605.3 720.906H1605.3L1605.4 720.952C1606.28 722.377 1606.89 723.943 1607.22 725.58C1603.49 728.373 1588.59 731.38 1541.71 731.38C1536.22 731.382 1530.31 731.342 1523.92 731.254Z" fill="#8B2B44"/>
<path d="M1512.44 645.085C1503.93 643.785 1498.26 636.728 1497.97 633.556C1497.68 630.384 1496.72 623.169 1504.24 620.701C1508.39 619.337 1511.26 620.245 1514.42 621.146C1517.36 622.143 1520.48 622.482 1523.56 622.14C1532.06 621.077 1532.54 615.298 1539.85 617C1547.16 618.702 1547.11 624.961 1547.27 627.964C1547.23 631.13 1546.27 634.216 1544.51 636.847C1542.75 639.479 1540.26 641.542 1537.35 642.787C1532.37 644.858 1527.03 645.898 1521.64 645.846C1518.56 645.826 1515.49 645.571 1512.44 645.085ZM1492.67 614.049C1493.18 611.408 1494.43 608.962 1496.25 606.989C1499.05 603.844 1501.92 602.315 1506.9 602.389C1511.87 602.463 1514.31 607.529 1514.85 608.437C1515.39 609.345 1514.31 611.761 1512.28 610.07C1510.24 608.379 1508.85 605.696 1503.88 606.718C1498.9 607.74 1496.83 613.781 1495.59 615.39C1495.42 615.629 1495.2 615.825 1494.94 615.963C1494.68 616.101 1494.4 616.177 1494.11 616.185C1493.85 616.186 1493.6 616.124 1493.38 616.004C1493.15 615.885 1492.96 615.712 1492.82 615.5C1492.68 615.289 1492.59 615.046 1492.56 614.793C1492.54 614.54 1492.58 614.284 1492.67 614.049ZM1545.03 608.944C1543.53 607.575 1540.45 601.99 1535.37 601.86C1530.29 601.73 1529.39 604.607 1527.67 606.633C1525.96 608.659 1524.49 606.465 1524.86 605.475C1525.24 604.485 1526.76 599.075 1531.65 598.126C1536.54 597.177 1539.63 598.178 1542.92 600.78C1545.07 602.404 1546.71 604.597 1547.67 607.11C1547.82 607.347 1547.9 607.619 1547.91 607.899C1547.92 608.178 1547.85 608.455 1547.71 608.699C1547.58 608.942 1547.38 609.145 1547.13 609.284C1546.89 609.423 1546.61 609.494 1546.33 609.489C1545.84 609.479 1545.38 609.284 1545.02 608.943L1545.03 608.944Z" fill="#130037"/>
<path d="M1458.42 650.05C1461.69 651.807 1464.47 654.356 1466.5 657.465C1469.36 663.613 1475.75 675.029 1480 685.265C1484.25 695.501 1497.1 689.514 1497.1 689.514C1497.1 689.514 1505.68 686.896 1502.08 674.976C1498.48 663.056 1481.81 643.322 1481.81 643.322C1481.81 643.322 1477.19 641.077 1469.2 642.869C1461.2 644.661 1458.42 650.05 1458.42 650.05Z" fill="#3B61A5"/>
<path d="M1549.23 642.177C1549.23 642.177 1547.1 665.889 1548.22 674.859C1549.33 683.829 1560.36 684.145 1560.36 684.145C1560.36 684.145 1568.68 684.681 1570.68 673.354C1572.67 662.027 1566.69 645.034 1561.14 642.913C1555.6 640.792 1549.23 642.177 1549.23 642.177Z" fill="#3B61A5"/>
<path d="M1480.52 686.359C1481.84 687.028 1486.06 688.385 1493.24 683.675C1497.95 680.587 1499.61 674.824 1500.14 670.113C1500.91 671.682 1501.56 673.306 1502.08 674.973C1505.68 686.892 1497.1 689.511 1497.1 689.511C1494.62 690.589 1491.96 691.178 1489.26 691.248C1486.03 691.248 1482.58 690.179 1480.52 686.359ZM1560.36 684.144C1560.36 684.144 1551.58 683.89 1548.9 677.467C1551.05 677.753 1553.24 677.6 1555.33 677.017C1557.42 676.433 1559.38 675.431 1561.07 674.072C1565.87 670.09 1568.69 661.872 1569.75 658.225C1571.06 663.156 1571.37 668.299 1570.68 673.353C1568.85 683.703 1561.75 684.153 1560.54 684.153C1560.42 684.15 1560.36 684.144 1560.36 684.144Z" fill="#1E3982"/>
<path d="M1482.19 679.15C1482.19 677.495 1482.69 675.877 1483.61 674.5C1484.52 673.124 1485.83 672.051 1487.36 671.418C1488.89 670.785 1490.57 670.619 1492.2 670.942C1493.82 671.265 1495.31 672.062 1496.48 673.232C1497.65 674.403 1498.45 675.894 1498.77 677.517C1499.1 679.141 1498.93 680.823 1498.3 682.353C1497.66 683.882 1496.59 685.189 1495.21 686.109C1493.84 687.028 1492.22 687.519 1490.56 687.519C1489.46 687.519 1488.38 687.303 1487.36 686.882C1486.35 686.462 1485.42 685.845 1484.65 685.068C1483.87 684.291 1483.25 683.368 1482.83 682.353C1482.41 681.337 1482.19 680.249 1482.19 679.15V679.15ZM1552.09 671.276C1552.09 669.816 1552.53 668.388 1553.34 667.174C1554.15 665.96 1555.3 665.014 1556.65 664.455C1558 663.896 1559.49 663.75 1560.92 664.035C1562.35 664.32 1563.67 665.023 1564.7 666.055C1565.73 667.087 1566.43 668.403 1566.72 669.835C1567 671.267 1566.86 672.752 1566.3 674.101C1565.74 675.45 1564.79 676.603 1563.58 677.414C1562.37 678.226 1560.94 678.659 1559.48 678.659C1557.52 678.659 1555.64 677.881 1554.26 676.497C1552.87 675.112 1552.1 673.234 1552.09 671.276Z" fill="#DABA5F"/>
<path d="M1549.29 836.723C1550.7 834.465 1554.59 828.861 1560.05 825.59C1563.93 823.266 1570.96 821.429 1577.13 821.122C1577.21 821.122 1577.29 821.116 1577.37 821.116C1580.14 821.116 1583.17 823.477 1586.63 828.334L1586.57 832.024C1586.73 832.067 1586.9 832.116 1587.07 832.166C1582.58 830.885 1577.93 830.245 1573.26 830.266C1564.21 830.265 1555.7 832.558 1549.29 836.723ZM1469.61 836.069C1471.92 832.816 1476.61 826.959 1482.01 824.254C1485.92 822.297 1492.39 820.856 1498.48 820.579C1498.55 820.579 1498.62 820.579 1498.68 820.579C1502.77 820.579 1508.43 826.053 1511.43 829.317V834.002C1505.46 831.477 1499.02 830.205 1492.53 830.265C1484.01 830.265 1475.87 832.326 1469.61 836.069Z" fill="#8B2B44"/>
<path d="M1432.24 606.851C1427.88 610.837 1422.02 617.108 1419.03 624.274C1416.87 629.694 1415.58 635.42 1415.2 641.243C1413.24 621.416 1414.88 609.135 1432.24 606.851ZM1473.19 611.951C1474.02 594.582 1479.26 584.384 1479.26 584.384C1479.26 584.384 1486.7 569.498 1511.51 569.498C1516.85 569.432 1522.17 570.171 1527.29 571.691C1524.19 571.527 1507.16 571.237 1492.62 583.391C1477.87 595.717 1473.63 615.161 1473.04 618.261C1473.04 616.192 1473.09 614.08 1473.19 611.952V611.951ZM1578.53 598.434C1579.68 598.405 1580.83 598.482 1581.97 598.663C1580.51 598.925 1575.82 600.09 1570.32 604.763C1564.26 609.914 1562.59 615.106 1562.35 615.97C1563.97 606.64 1568.35 598.661 1578.53 598.434Z" fill="#9EFF87"/>
<path d="M1485.45 685.778C1487.89 685.163 1490.19 684.116 1492.26 682.688C1494.92 680.831 1496.89 678.142 1497.86 675.044C1498.81 676.726 1499.15 678.685 1498.82 680.588C1498.49 682.491 1497.51 684.222 1496.05 685.485C1494.59 686.749 1492.73 687.469 1490.8 687.522C1488.87 687.575 1486.98 686.959 1485.45 685.778V685.778ZM1554.97 677.124C1557.21 676.591 1559.3 675.547 1561.07 674.075C1563.08 672.277 1564.73 670.122 1565.95 667.718C1566.56 668.842 1566.88 670.108 1566.86 671.391C1566.84 672.674 1566.48 673.929 1565.83 675.033C1565.18 676.137 1564.25 677.052 1563.13 677.688C1562.02 678.324 1560.76 678.658 1559.47 678.659C1557.84 678.661 1556.26 678.121 1554.97 677.124Z" fill="#B28B1A"/>
<path d="M1438.72 684.218C1438.62 684.089 1438.55 683.942 1438.51 683.785C1438.47 683.629 1438.46 683.466 1438.49 683.306C1438.51 683.146 1438.56 682.992 1438.64 682.853C1438.73 682.714 1438.83 682.592 1438.96 682.495L1447.16 676.316C1447.43 676.128 1447.75 676.05 1448.07 676.098C1448.39 676.146 1448.67 676.317 1448.87 676.574C1449.06 676.832 1449.14 677.154 1449.1 677.473C1449.06 677.792 1448.9 678.083 1448.64 678.282L1440.44 684.461C1440.32 684.558 1440.17 684.629 1440.01 684.669C1439.86 684.71 1439.69 684.719 1439.53 684.696C1439.37 684.674 1439.22 684.62 1439.08 684.538C1438.94 684.456 1438.82 684.347 1438.72 684.218H1438.72ZM1411.43 676.56C1411.34 676.248 1411.37 675.91 1411.52 675.622C1411.68 675.334 1411.94 675.118 1412.25 675.023L1424.02 671.423C1424.33 671.334 1424.66 671.37 1424.94 671.524C1425.23 671.678 1425.44 671.937 1425.53 672.246C1425.63 672.555 1425.6 672.888 1425.45 673.175C1425.3 673.461 1425.04 673.677 1424.74 673.777L1412.97 677.377C1412.81 677.424 1412.65 677.441 1412.49 677.425C1412.33 677.41 1412.17 677.363 1412.03 677.287C1411.89 677.212 1411.76 677.108 1411.66 676.984C1411.56 676.859 1411.48 676.715 1411.43 676.561L1411.43 676.56ZM1440.34 663.042L1433.91 656.827C1433.68 656.598 1433.56 656.29 1433.55 655.97C1433.55 655.649 1433.68 655.34 1433.9 655.11C1434.12 654.879 1434.43 654.744 1434.75 654.735C1435.07 654.725 1435.38 654.84 1435.62 655.057L1442.05 661.272C1442.18 661.383 1442.27 661.517 1442.34 661.667C1442.41 661.816 1442.45 661.978 1442.45 662.142C1442.46 662.307 1442.43 662.47 1442.37 662.624C1442.31 662.777 1442.22 662.917 1442.11 663.035C1441.99 663.154 1441.86 663.248 1441.71 663.312C1441.55 663.377 1441.39 663.41 1441.23 663.411C1441.06 663.412 1440.9 663.379 1440.75 663.316C1440.6 663.252 1440.46 663.159 1440.34 663.042ZM1587.57 662.048L1574.74 655.79C1574.6 655.719 1574.47 655.62 1574.36 655.499C1574.25 655.378 1574.17 655.238 1574.12 655.085C1574.07 654.932 1574.04 654.77 1574.05 654.609C1574.06 654.448 1574.1 654.29 1574.17 654.145C1574.25 654 1574.34 653.87 1574.47 653.763C1574.59 653.656 1574.73 653.573 1574.88 653.521C1575.03 653.468 1575.19 653.446 1575.36 653.456C1575.52 653.466 1575.67 653.507 1575.82 653.578L1588.65 659.836C1588.8 659.904 1588.93 660.001 1589.05 660.122C1589.16 660.243 1589.24 660.385 1589.3 660.54C1589.35 660.695 1589.38 660.859 1589.37 661.023C1589.36 661.187 1589.32 661.348 1589.25 661.496C1589.17 661.644 1589.07 661.775 1588.95 661.884C1588.83 661.992 1588.68 662.074 1588.53 662.125C1588.37 662.177 1588.2 662.196 1588.04 662.183C1587.88 662.17 1587.72 662.124 1587.57 662.048ZM1605.07 655.629L1592.24 649.371C1592.1 649.3 1591.97 649.201 1591.86 649.08C1591.75 648.959 1591.67 648.818 1591.62 648.666C1591.57 648.513 1591.54 648.351 1591.55 648.19C1591.56 648.029 1591.61 647.871 1591.68 647.726C1591.75 647.581 1591.85 647.451 1591.97 647.344C1592.09 647.237 1592.23 647.155 1592.38 647.102C1592.53 647.05 1592.7 647.028 1592.86 647.038C1593.02 647.047 1593.18 647.089 1593.32 647.16L1606.15 653.417C1606.3 653.485 1606.44 653.582 1606.55 653.703C1606.66 653.824 1606.74 653.966 1606.8 654.121C1606.85 654.276 1606.88 654.44 1606.87 654.604C1606.86 654.768 1606.82 654.929 1606.75 655.077C1606.68 655.225 1606.57 655.356 1606.45 655.465C1606.33 655.573 1606.18 655.655 1606.03 655.706C1605.87 655.758 1605.71 655.777 1605.54 655.764C1605.38 655.751 1605.22 655.705 1605.07 655.629H1605.07ZM1418.83 650.047L1408.48 645.442C1408.19 645.309 1407.95 645.064 1407.84 644.759C1407.72 644.455 1407.73 644.116 1407.86 643.818C1407.99 643.52 1408.24 643.287 1408.54 643.17C1408.85 643.053 1409.19 643.061 1409.48 643.194L1419.83 647.794C1419.97 647.86 1420.11 647.954 1420.22 648.071C1420.33 648.188 1420.42 648.326 1420.48 648.477C1420.53 648.627 1420.56 648.788 1420.56 648.95C1420.55 649.111 1420.52 649.27 1420.45 649.418C1420.39 649.565 1420.29 649.699 1420.17 649.81C1420.06 649.921 1419.92 650.008 1419.77 650.066C1419.62 650.124 1419.46 650.152 1419.3 650.148C1419.13 650.143 1418.97 650.108 1418.83 650.042V650.047ZM1488.61 643.999L1482.74 634.612C1482.59 634.336 1482.55 634.012 1482.63 633.706C1482.7 633.401 1482.9 633.137 1483.17 632.97C1483.43 632.804 1483.76 632.746 1484.06 632.81C1484.37 632.873 1484.65 633.053 1484.83 633.312L1490.69 642.699C1490.79 642.836 1490.85 642.991 1490.89 643.154C1490.92 643.318 1490.92 643.487 1490.89 643.65C1490.85 643.814 1490.79 643.969 1490.69 644.106C1490.6 644.243 1490.48 644.359 1490.33 644.447C1490.19 644.536 1490.03 644.594 1489.87 644.619C1489.7 644.644 1489.54 644.636 1489.37 644.594C1489.21 644.552 1489.06 644.478 1488.93 644.375C1488.8 644.273 1488.69 644.145 1488.61 643.999ZM1580.48 637.912C1580.36 637.61 1580.37 637.271 1580.49 636.971C1580.62 636.671 1580.86 636.434 1581.16 636.312L1594.4 630.964C1594.55 630.899 1594.71 630.864 1594.88 630.862C1595.04 630.861 1595.2 630.892 1595.36 630.954C1595.51 631.016 1595.65 631.109 1595.76 631.225C1595.88 631.341 1595.97 631.48 1596.03 631.632C1596.09 631.784 1596.12 631.948 1596.12 632.112C1596.12 632.276 1596.08 632.438 1596.02 632.588C1595.95 632.739 1595.86 632.875 1595.74 632.987C1595.62 633.1 1595.48 633.188 1595.32 633.246L1582.09 638.593C1581.94 638.653 1581.78 638.684 1581.62 638.682C1581.45 638.681 1581.29 638.648 1581.15 638.584C1581 638.521 1580.86 638.429 1580.75 638.314C1580.64 638.199 1580.55 638.063 1580.49 637.913L1580.48 637.912ZM1567.95 638.589L1557.62 638.048C1557.3 638.024 1557 637.876 1556.79 637.634C1556.58 637.392 1556.47 637.076 1556.48 636.755C1556.5 636.433 1556.64 636.131 1556.88 635.913C1557.12 635.695 1557.43 635.579 1557.75 635.59L1568.08 636.131C1568.4 636.149 1568.7 636.291 1568.91 636.526C1569.13 636.762 1569.25 637.072 1569.24 637.392C1569.23 637.712 1569.1 638.016 1568.87 638.24C1568.64 638.463 1568.33 638.589 1568.01 638.591L1567.95 638.589ZM1442.28 637.077L1429.94 634.905C1429.63 634.842 1429.35 634.658 1429.17 634.392C1428.99 634.127 1428.92 633.801 1428.97 633.484C1429.03 633.168 1429.21 632.886 1429.47 632.698C1429.73 632.51 1430.05 632.433 1430.37 632.481L1442.71 634.656C1443.03 634.713 1443.31 634.895 1443.5 635.162C1443.69 635.429 1443.76 635.76 1443.71 636.081C1443.65 636.403 1443.47 636.689 1443.2 636.876C1442.93 637.063 1442.6 637.137 1442.28 637.08L1442.28 637.077ZM1477.26 635.639L1467.15 631.139C1467 631.073 1466.87 630.979 1466.76 630.862C1466.64 630.745 1466.56 630.607 1466.5 630.456C1466.44 630.305 1466.41 630.145 1466.42 629.983C1466.42 629.822 1466.46 629.662 1466.52 629.515C1466.59 629.367 1466.68 629.234 1466.8 629.123C1466.92 629.012 1467.06 628.924 1467.21 628.867C1467.36 628.809 1467.52 628.781 1467.68 628.785C1467.84 628.789 1468 628.825 1468.15 628.891L1478.26 633.391C1478.41 633.453 1478.55 633.545 1478.67 633.661C1478.79 633.778 1478.88 633.917 1478.94 634.071C1479 634.224 1479.03 634.388 1479.03 634.554C1479.03 634.719 1478.99 634.882 1478.93 635.033C1478.86 635.184 1478.76 635.32 1478.64 635.433C1478.52 635.546 1478.38 635.633 1478.22 635.69C1478.07 635.746 1477.9 635.771 1477.74 635.762C1477.57 635.754 1477.41 635.712 1477.26 635.639ZM1577.52 619.791C1577.22 619.663 1576.99 619.422 1576.86 619.119C1576.74 618.816 1576.74 618.477 1576.87 618.177L1580.91 608.662C1581.04 608.366 1581.28 608.133 1581.58 608.014C1581.88 607.895 1582.22 607.9 1582.52 608.026C1582.81 608.152 1583.05 608.391 1583.17 608.69C1583.3 608.989 1583.3 609.324 1583.18 609.624L1579.14 619.139C1579.07 619.288 1578.98 619.423 1578.87 619.536C1578.75 619.649 1578.62 619.739 1578.47 619.799C1578.32 619.86 1578.15 619.89 1577.99 619.889C1577.83 619.888 1577.67 619.854 1577.52 619.791H1577.52ZM1479.33 618.624L1468.3 616.077C1468.14 616.041 1467.99 615.973 1467.86 615.88C1467.73 615.786 1467.62 615.667 1467.53 615.53C1467.45 615.392 1467.39 615.24 1467.36 615.08C1467.33 614.921 1467.34 614.757 1467.38 614.6C1467.41 614.442 1467.48 614.293 1467.57 614.162C1467.67 614.03 1467.79 613.918 1467.92 613.832C1468.06 613.747 1468.21 613.689 1468.37 613.662C1468.53 613.636 1468.7 613.641 1468.85 613.677L1479.88 616.226C1480.2 616.299 1480.48 616.496 1480.65 616.773C1480.82 617.05 1480.88 617.384 1480.81 617.702C1480.73 618.021 1480.54 618.297 1480.26 618.47C1479.98 618.643 1479.65 618.699 1479.33 618.626L1479.33 618.624ZM1437.75 617.332C1437.52 617.097 1437.4 616.781 1437.4 616.455C1437.41 616.129 1437.54 615.818 1437.78 615.591L1446.39 607.271C1446.51 607.159 1446.65 607.07 1446.8 607.011C1446.95 606.952 1447.11 606.923 1447.27 606.926C1447.43 606.929 1447.59 606.963 1447.74 607.028C1447.89 607.092 1448.02 607.185 1448.13 607.301C1448.25 607.418 1448.33 607.555 1448.39 607.705C1448.45 607.855 1448.48 608.016 1448.48 608.177C1448.48 608.339 1448.44 608.498 1448.38 608.647C1448.31 608.795 1448.22 608.929 1448.1 609.041L1439.49 617.362C1439.25 617.588 1438.94 617.712 1438.61 617.707C1438.28 617.701 1437.97 617.566 1437.75 617.331V617.332ZM1591.93 616.698C1591.82 616.574 1591.74 616.431 1591.7 616.277C1591.65 616.123 1591.63 615.961 1591.64 615.8C1591.66 615.639 1591.7 615.482 1591.78 615.339C1591.85 615.196 1591.95 615.069 1592.08 614.965L1600 608.32C1600.25 608.122 1600.57 608.029 1600.88 608.062C1601.2 608.094 1601.5 608.25 1601.7 608.495C1601.91 608.74 1602.01 609.056 1601.99 609.375C1601.96 609.694 1601.82 609.992 1601.58 610.205L1593.65 616.85C1593.53 616.954 1593.39 617.032 1593.23 617.081C1593.08 617.129 1592.92 617.147 1592.76 617.133C1592.6 617.119 1592.44 617.073 1592.3 616.998C1592.15 616.924 1592.02 616.822 1591.92 616.698H1591.93ZM1486.09 600.647L1478.3 593.125C1478.07 592.898 1477.93 592.588 1477.93 592.261C1477.92 591.935 1478.04 591.62 1478.27 591.385C1478.5 591.151 1478.81 591.016 1479.13 591.01C1479.46 591.004 1479.78 591.128 1480.01 591.355L1487.8 598.876C1488.02 599.105 1488.15 599.412 1488.15 599.733C1488.15 600.054 1488.03 600.362 1487.81 600.593C1487.58 600.824 1487.28 600.958 1486.96 600.968C1486.64 600.978 1486.33 600.862 1486.09 600.646V600.647ZM1541.6 591.535C1541.53 591.388 1541.49 591.229 1541.48 591.068C1541.48 590.906 1541.5 590.745 1541.56 590.593C1541.61 590.441 1541.7 590.302 1541.81 590.183C1541.92 590.064 1542.05 589.968 1542.2 589.9L1554.24 584.283C1554.54 584.145 1554.88 584.13 1555.18 584.242C1555.34 584.297 1555.47 584.382 1555.59 584.491C1555.71 584.6 1555.81 584.731 1555.88 584.878C1555.95 585.024 1555.99 585.183 1555.99 585.344C1556 585.506 1555.97 585.667 1555.92 585.819C1555.86 585.97 1555.78 586.11 1555.67 586.229C1555.56 586.348 1555.43 586.445 1555.28 586.513L1543.23 592.13C1543.09 592.198 1542.93 592.237 1542.77 592.244C1542.61 592.251 1542.45 592.226 1542.29 592.171C1542.14 592.116 1542 592.031 1541.88 591.922C1541.76 591.813 1541.67 591.681 1541.6 591.535H1541.6ZM1505.83 585.4C1505.52 585.31 1505.25 585.099 1505.09 584.814C1504.94 584.528 1504.9 584.192 1504.99 583.878L1507.97 573.47C1508.01 573.312 1508.09 573.163 1508.19 573.034C1508.29 572.904 1508.41 572.796 1508.55 572.715C1508.7 572.634 1508.85 572.583 1509.02 572.563C1509.18 572.544 1509.34 572.557 1509.5 572.602C1509.66 572.648 1509.8 572.724 1509.93 572.826C1510.06 572.929 1510.17 573.056 1510.24 573.2C1510.32 573.344 1510.37 573.502 1510.39 573.665C1510.4 573.828 1510.39 573.992 1510.34 574.149L1507.35 584.556C1507.31 584.711 1507.24 584.857 1507.13 584.983C1507.03 585.11 1506.91 585.215 1506.77 585.294C1506.63 585.372 1506.47 585.422 1506.31 585.44C1506.15 585.458 1505.99 585.445 1505.83 585.4H1505.83ZM1528.81 582.128C1528.57 581.909 1528.42 581.604 1528.41 581.278C1528.39 580.952 1528.5 580.632 1528.72 580.39L1536.62 571.613C1536.84 571.37 1537.15 571.224 1537.47 571.206C1537.8 571.189 1538.12 571.302 1538.36 571.52C1538.6 571.738 1538.75 572.044 1538.77 572.37C1538.79 572.696 1538.67 573.016 1538.45 573.259L1530.55 582.037C1530.45 582.157 1530.32 582.255 1530.17 582.324C1530.02 582.394 1529.87 582.434 1529.7 582.443C1529.54 582.451 1529.38 582.428 1529.23 582.374C1529.08 582.32 1528.94 582.236 1528.82 582.128H1528.81Z" fill="#1B684F"/>
<path d="M1585.89 590.08L1616.31 580.28L1616.92 597.722L1585.89 590.08ZM1595.42 554.915L1608.33 566.594L1581.3 583.702L1595.42 554.915Z" fill="#FF0000"/>
<path d="M3327.91 424.477H2753.14V518.978H3327.91V424.477Z" fill="#4200C3"/>
<path d="M3264.5 518.978H2816.55V847.216H3264.5V518.978Z" fill="#AD7F65"/>
<path d="M3154.34 566.662H2860.71V847.215H3154.34V566.662Z" fill="#B8B8B8"/>
<path d="M3116.79 600.971H2898.33V844.442H3116.79V600.971Z" fill="white"/>
<path d="M3116.79 846.943H2904.65L3102.23 600.971H3116.79V846.943H3116.79ZM2898.33 818.916V818.908V790.921L3050.91 600.971H3073.4L2898.33 818.912V818.916ZM2898.33 714.983V714.971V600.971H2989.91L2898.33 714.98V714.983Z" fill="#5F88C5"/>
<path d="M3339.34 940.883H2575.07V1201.31H3339.34V940.883Z" fill="#EEB594"/>
<path d="M3391.5 846.382H2522.92V940.883H3391.5V846.382Z" fill="#6A21FF"/>
<path d="M3339.34 940.883H2575.07V991.192H3339.34V940.883Z" fill="#CF9E81"/>
<path d="M3175.12 1006.08H2644.69V1286.63H3175.12V1006.08Z" fill="#B8B8B8"/>
<path d="M3145.9 1040.39H2682.31V1283.86H3145.9V1040.39Z" fill="white"/>
<path d="M3153.41 1286.36H2943.77L3141.35 1040.39H3153.41V1286.36V1286.36ZM2927.26 1286.36H2688.63L2886.21 1040.39H3029.04L2905.79 1193.81L2936.29 1231.78L3090.04 1040.39H3112.52L2921.1 1278.69L2927.26 1286.35L2927.26 1286.36ZM2682.31 1258.33V1230.33L2834.89 1040.39H2857.38L2682.31 1258.33V1258.33ZM2682.31 1154.39V1040.39H2773.89L2682.31 1154.39Z" fill="#5F88C5"/>
<path d="M2936.69 1006.2H2899.17V1286.36H2936.69V1006.2Z" fill="#B8B8B8"/>
<path d="M2964.09 846.196H2922.8C2924.15 845.212 2925.39 844.084 2926.5 842.831C2928.22 840.906 2930.32 837.869 2930.55 834.331C2930.79 830.793 2928.61 826.795 2926.74 824.06C2925.49 822.239 2924.11 820.52 2922.59 818.919L2953.83 807.443C2953.82 807.571 2952.98 820.578 2954.55 828.305C2955.38 832.357 2957.93 837.005 2959.92 840.19C2961.98 843.48 2963.87 845.924 2964.08 846.19L2964.09 846.196ZM2949.6 835.11C2949.47 835.11 2949.34 835.118 2949.21 835.134C2948.34 835.307 2947.56 835.791 2947.02 836.496C2946.48 837.202 2946.22 838.079 2946.28 838.965C2946.34 839.851 2946.73 840.684 2947.36 841.308C2947.99 841.932 2948.83 842.305 2949.71 842.356C2949.84 842.356 2949.97 842.348 2950.1 842.332C2950.54 842.275 2950.97 842.126 2951.36 841.894C2951.75 841.662 2952.08 841.353 2952.34 840.985C2952.89 840.214 2953.13 839.261 2953.01 838.32C2952.93 837.462 2952.54 836.662 2951.91 836.071C2951.29 835.48 2950.46 835.138 2949.6 835.11ZM2937.31 822.396C2937.23 822.396 2937.15 822.401 2937.07 822.411C2934.79 822.692 2933.41 826.818 2933.99 831.611C2934.56 836.211 2936.74 839.811 2938.95 839.811C2939.04 839.811 2939.12 839.805 2939.2 839.795C2940.3 839.66 2941.23 838.629 2941.81 836.895C2942.42 834.855 2942.57 832.708 2942.27 830.602C2941.71 825.996 2939.53 822.395 2937.31 822.396ZM2947.11 817.476C2947.02 817.476 2946.93 817.482 2946.85 817.495C2944.91 817.768 2943.75 820.933 2944.26 824.551C2944.74 827.965 2946.57 830.639 2948.42 830.639C2948.51 830.639 2948.6 830.633 2948.69 830.62C2950.62 830.347 2951.79 827.182 2951.28 823.564C2950.8 820.15 2948.97 817.476 2947.12 817.476H2947.11Z" fill="#AE407E"/>
<path d="M2978.74 682.805C2974.93 680.257 2972.19 676.392 2971.04 671.949C2969.45 664.827 2972.35 654.317 2972.35 654.317" stroke="black" stroke-width="6" stroke-linecap="round"/>
<path d="M2922.59 818.987L2897.4 749.756L2852.99 765.915L2878.18 835.146L2846.83 846.553L2807.86 739.44L2839.21 728.033L2839.56 729.014L2883.98 712.855L2883.62 711.874L2914.97 700.469L2915.33 701.449L2928.75 738.351L2953.94 807.582L2922.59 818.987Z" fill="#643F2A"/>
<path d="M2961.33 708.372L2953.04 685.58L2769.12 752.497L2777.41 775.289L2961.33 708.372Z" fill="#402516"/>
<path d="M3063.6 846.381V754.388H3096.95V846.381H3063.6ZM2983 846.381V754.388H3016.35V846.381H2983Z" fill="#643F2A"/>
<path d="M3096.95 782.387V754.388H2983V782.387H3096.95Z" fill="#643F2A"/>
<path d="M3165.94 632.54H3132.58V846.381H3165.94V632.54Z" fill="#643F2A"/>
<path d="M3132.58 632.54H3039.98V754.388H3132.58V632.54Z" fill="#3D1702"/>
<path d="M3149.26 782.387V754.388H3096.95V782.387H3149.26Z" fill="#643F2A"/>
<path d="M2997.97 705.771L2968.79 733.287" stroke="black" stroke-width="5"/>
<path d="M2955.47 728.463C2954.33 724.878 2957.81 719.416 2962.64 723.385C2965.92 726.194 2968.87 729.358 2971.44 732.818C2971.44 732.818 2969.53 739.325 2966.17 738.363C2962.81 737.401 2956.61 732.048 2955.47 728.463Z" fill="black"/>
<path d="M3013.01 755.266C3013.01 755.266 3011.5 748.978 3019.15 748.283C3026.8 747.588 3031.42 747.128 3031.42 747.128L3031.83 755.047L3013.01 755.266Z" fill="black"/>
<path d="M3029.33 707.121C3029.33 707.121 3023.62 719.416 3023.62 731.969C3023.61 744.523 3030.29 748.895 3030.29 748.895" stroke="black" stroke-width="5.001"/>
<path d="M3018.95 729.574C3018.77 729.708 3018.65 729.774 3018.65 729.774L3018.95 729.574ZM3021.55 725.148C3021.57 724.713 3021.51 724.277 3021.38 723.863C3021.15 723.883 3020.93 723.901 3020.7 723.918L3009.29 729.373C3010.09 728.994 3010.8 728.441 3011.36 727.756C3011.93 727.07 3012.33 726.268 3012.55 725.407C3012.59 725.163 3012.62 724.917 3012.62 724.669L3000.74 726.879C3001.61 726.721 3002.44 726.371 3003.16 725.854C3003.88 725.338 3004.48 724.667 3004.91 723.891C3005 723.708 3005.07 723.519 3005.13 723.326L2992.55 723.007C2993.44 723.033 2994.32 722.863 2995.14 722.508C2995.95 722.152 2996.68 721.621 2997.26 720.952C2997.49 720.662 2997.67 720.342 2997.81 720.001L2986.5 716.873C2987.35 717.114 2988.25 717.163 2989.13 717.015C2990 716.868 2990.83 716.528 2991.56 716.02C2991.69 715.917 2991.81 715.807 2991.93 715.691C2991.84 715.624 2991.75 715.558 2991.66 715.491L2981.9 714.214C2982.78 714.334 2983.67 714.257 2984.52 713.988C2985.37 713.72 2986.14 713.267 2986.8 712.662C2987.03 712.421 2987.23 712.152 2987.4 711.862L2987.18 711.653L2978.37 709.54C2979.23 709.751 2980.13 709.767 2981 709.589C2981.87 709.411 2982.69 709.042 2983.4 708.509C2983.57 708.36 2983.73 708.198 2983.88 708.025C2983.66 707.744 2983.43 707.461 2983.21 707.176L2973.77 702.685C2974.57 703.07 2975.44 703.274 2976.33 703.28C2977.22 703.286 2978.1 703.096 2978.9 702.722C2979.06 702.636 2979.21 702.542 2979.35 702.44L2971.08 694.04C2971.7 694.675 2972.45 695.165 2973.29 695.475C2974.12 695.784 2975.01 695.906 2975.89 695.83C2976.17 695.788 2976.45 695.718 2976.72 695.622L2969.93 684.122C2970.38 684.889 2970.99 685.548 2971.72 686.05C2972.46 686.553 2973.29 686.886 2974.17 687.027C2974.28 687.037 2974.39 687.043 2974.49 687.046L2968.42 674.882C2968.81 675.678 2969.38 676.378 2970.07 676.93C2970.77 677.482 2971.58 677.872 2972.44 678.074C2972.73 678.122 2973.02 678.141 2973.31 678.13L2969.33 667.514C2969.63 668.348 2970.12 669.103 2970.76 669.726C2971.39 670.348 2972.16 670.822 2973 671.114C2973.34 671.238 2973.7 671.292 2974.06 671.275C2974.42 671.258 2974.77 671.169 2975.1 671.014L2973.33 659.246C2973.45 660.125 2973.77 660.965 2974.27 661.705C2974.76 662.445 2975.41 663.067 2976.17 663.526C2976.5 663.705 2976.87 663.834 2977.24 663.908L2979.75 651.53C2979.58 652.365 2979.59 653.227 2979.77 654.059C2979.95 654.892 2980.31 655.676 2980.81 656.363L2986.03 645.41C2985.65 646.209 2985.44 647.084 2985.44 647.971C2985.43 648.858 2985.62 649.735 2985.99 650.54L2990.68 639.734C2990.32 640.547 2990.15 641.429 2990.17 642.317C2990.2 643.205 2990.42 644.077 2990.82 644.869C2990.97 645.119 2991.14 645.354 2991.34 645.569L2996.91 635.703C2996.47 636.473 2996.2 637.332 2996.14 638.217C2996.07 639.101 2996.2 639.99 2996.51 640.819C2996.75 641.435 2997.19 641.952 2997.76 642.284C2997.9 642.21 2998.05 642.138 2998.19 642.065L3005.81 633.45C3005.22 634.112 3004.78 634.896 3004.53 635.747C3004.28 636.598 3004.22 637.494 3004.36 638.37C3004.44 638.744 3004.57 639.105 3004.76 639.44L3005.17 639.317L3017.32 632.71C3016.53 633.13 3015.85 633.718 3015.33 634.433C3014.8 635.147 3014.44 635.969 3014.27 636.84C3014.23 637.111 3014.22 637.385 3014.24 637.658L3014.41 637.646L3027.16 634.34C3026.3 634.559 3025.5 634.966 3024.81 635.531C3024.13 636.097 3023.58 636.807 3023.2 637.611C3023.17 637.711 3023.13 637.811 3023.1 637.901L3023.15 637.906L3036.46 635.429C3035.59 635.587 3034.76 635.938 3034.04 636.454C3033.31 636.971 3032.71 637.641 3032.28 638.417C3032.16 638.678 3032.06 638.952 3031.99 639.233L3043.29 638.333C3042.4 638.399 3041.54 638.661 3040.77 639.099C3040 639.538 3039.33 640.142 3038.82 640.868C3038.4 641.452 3038.23 642.179 3038.34 642.891L3038.38 642.912L3050.14 644.452C3049.26 644.332 3048.36 644.409 3047.52 644.677C3046.67 644.945 3045.89 645.397 3045.24 646.002C3044.97 646.278 3044.75 646.591 3044.58 646.932L3055.78 652.753C3054.99 652.342 3054.13 652.11 3053.24 652.073C3052.36 652.036 3051.48 652.196 3050.66 652.54C3050.56 652.592 3050.46 652.64 3050.37 652.698C3050.86 653.269 3051.33 653.853 3051.79 654.449L3061.94 659.501C3061.15 659.102 3060.28 658.883 3059.39 658.861C3058.5 658.839 3057.62 659.014 3056.81 659.374C3056.37 659.59 3055.99 659.897 3055.67 660.274L3064.02 665.582C3063.27 665.103 3062.43 664.795 3061.55 664.68C3060.67 664.566 3059.78 664.648 3058.93 664.921C3058.58 665.057 3058.25 665.245 3057.94 665.479L3057.97 665.546L3066.14 673.568C3065.51 672.943 3064.75 672.465 3063.91 672.17C3063.08 671.874 3062.18 671.769 3061.3 671.86C3061.13 671.89 3060.95 671.93 3060.78 671.979L3065.87 682.619C3065.49 681.816 3064.94 681.107 3064.25 680.543C3063.57 679.979 3062.76 679.574 3061.9 679.358C3061.62 679.306 3061.34 679.282 3061.05 679.286L3063.73 692.365C3063.55 691.493 3063.19 690.671 3062.66 689.958C3062.13 689.245 3061.44 688.658 3060.66 688.24C3060.56 688.194 3060.46 688.153 3060.36 688.117L3062.14 701.596C3062.03 700.715 3061.73 699.87 3061.25 699.121C3060.77 698.373 3060.13 697.74 3059.38 697.269C3059.12 697.131 3058.85 697.019 3058.58 696.935L3058.88 708.264C3058.86 707.376 3058.64 706.503 3058.24 705.709C3057.85 704.915 3057.28 704.219 3056.58 703.672C3056.09 703.298 3055.49 703.083 3054.88 703.055L3054.58 714.898C3054.6 714.011 3054.43 713.13 3054.08 712.317C3053.72 711.505 3053.19 710.781 3052.52 710.198C3052.11 709.864 3051.63 709.632 3051.12 709.521L3049.18 719.1C3049.36 718.231 3049.34 717.333 3049.13 716.471C3048.92 715.609 3048.53 714.803 3047.97 714.113C3047.71 713.824 3047.41 713.576 3047.08 713.378L3044.27 722.299C3044.54 721.454 3044.62 720.559 3044.5 719.679C3044.39 718.8 3044.08 717.957 3043.59 717.212C3043.36 716.895 3043.09 716.615 3042.77 716.382L3037.12 726.41C3037.56 725.639 3037.82 724.78 3037.89 723.895C3037.96 723.01 3037.83 722.121 3037.52 721.291C3037.37 720.98 3037.2 720.687 3036.98 720.421L3028.76 728.791C3029.38 728.161 3029.86 727.4 3030.16 726.563C3030.45 725.725 3030.56 724.833 3030.47 723.95C3030.4 723.329 3030.13 722.746 3029.71 722.282L3029.41 722.368L3018.95 729.574C3019.69 729.074 3020.3 728.418 3020.75 727.652C3021.2 726.887 3021.47 726.032 3021.55 725.148H3021.55ZM3005.28 722.603C3005.29 722.499 3005.29 722.395 3005.28 722.292C3004.93 722.192 3004.58 722.082 3004.23 721.97L3005.28 722.603ZM3060.08 688.315L3060.19 688.054L3060.13 688.035C3060.11 688.13 3060.09 688.223 3060.08 688.315H3060.08ZM3060.71 679.336L3060.72 679.312H3060.71V679.336ZM3009.29 729.373C3009.09 729.473 3008.97 729.526 3008.97 729.526L3009.29 729.373ZM3028.76 728.791C3028.61 728.956 3028.51 729.046 3028.51 729.046L3028.76 728.791ZM3000.74 726.879C3000.52 726.927 3000.39 726.944 3000.39 726.944L3000.74 726.879ZM3037.12 726.41C3037.02 726.61 3036.94 726.72 3036.94 726.72L3037.12 726.41ZM2992.2 722.998L2992.55 723.007H2992.52C2992.32 723.007 2992.2 722.998 2992.2 722.998ZM3044.28 722.298C3044.22 722.515 3044.17 722.64 3044.17 722.64L3044.28 722.298ZM3049.18 719.098C3049.15 719.321 3049.11 719.45 3049.11 719.45L3049.18 719.098ZM2986.16 716.779L2986.5 716.873C2986.28 716.821 2986.16 716.779 2986.16 716.779ZM3054.59 714.899C3054.59 715.123 3054.58 715.255 3054.58 715.255L3054.59 714.899ZM2981.55 714.168L2981.9 714.213C2981.68 714.191 2981.55 714.168 2981.55 714.168ZM2978.02 709.46L2978.37 709.543C2978.15 709.498 2978.02 709.46 2978.02 709.46ZM3058.89 708.26C3058.9 708.483 3058.9 708.614 3058.9 708.614L3058.89 708.26ZM2973.45 702.532L2973.77 702.686C2973.56 702.595 2973.45 702.532 2973.45 702.532ZM3062.15 701.596C3062.18 701.817 3062.19 701.948 3062.19 701.948L3062.15 701.596ZM2970.83 693.783L2971.08 694.039C2970.92 693.882 2970.83 693.783 2970.83 693.783ZM3063.72 692.366C3063.77 692.583 3063.79 692.712 3063.79 692.712L3063.72 692.366ZM2969.75 683.819L2969.93 684.119C2969.81 683.935 2969.75 683.819 2969.75 683.819ZM3065.87 682.619C3065.97 682.819 3066.02 682.94 3066.02 682.94L3065.87 682.619ZM2968.26 674.565L2968.42 674.882C2968.31 674.686 2968.26 674.565 2968.26 674.565ZM3066.14 673.565C3066.3 673.717 3066.39 673.815 3066.39 673.815L3066.14 673.565ZM2969.2 667.186L2969.33 667.515C2969.24 667.31 2969.2 667.186 2969.2 667.186ZM3064.02 665.586C3064.22 665.702 3064.32 665.78 3064.32 665.78L3064.02 665.586ZM3061.94 659.509C3062.14 659.603 3062.26 659.669 3062.26 659.669L3061.94 659.509ZM2973.27 658.897L2973.32 659.246C2973.29 659.027 2973.27 658.897 2973.27 658.897ZM3055.78 652.757C3055.98 652.857 3056.1 652.923 3056.1 652.923L3055.78 652.757ZM2979.82 651.181L2979.75 651.531C2979.79 651.309 2979.82 651.181 2979.82 651.181ZM2986.18 645.088L2986.03 645.41C2986.12 645.204 2986.18 645.088 2986.18 645.088H2986.18ZM3050.14 644.456C3050.36 644.478 3050.49 644.502 3050.49 644.502L3050.14 644.456ZM2990.82 639.41L2990.68 639.734C2990.76 639.527 2990.82 639.41 2990.82 639.41ZM3043.64 638.31L3043.29 638.338C3043.51 638.311 3043.64 638.307 3043.64 638.307V638.31ZM2997.08 635.391L2996.91 635.703C2997.01 635.503 2997.08 635.391 2997.08 635.391ZM3036.81 635.364L3036.46 635.429C3036.68 635.381 3036.81 635.364 3036.81 635.364ZM3027.5 634.251L3027.16 634.34C3027.37 634.277 3027.5 634.251 3027.5 634.251ZM3006.05 633.18L3005.81 633.45C3005.96 633.275 3006.05 633.18 3006.05 633.18ZM3017.63 632.54L3017.32 632.71C3017.51 632.597 3017.63 632.54 3017.63 632.54Z" fill="#CC5FC5"/>
<path d="M3043.66 687.019C3043.66 687.019 3041.21 676.042 3044.26 667.027C3047.31 658.012 3055.86 650.958 3055.86 650.958" stroke="black" stroke-width="6" stroke-linecap="round"/>
<path d="M3008.74 690.241L3007.66 690.204L2986.77 689.489L2985.85 689.458L2985.81 688.537C2985.72 686.751 2986.38 685.073 2987.71 683.684C2989.6 681.694 2992.63 680.553 2996.01 680.553C2996.18 680.553 2996.35 680.556 2996.52 680.562L2997.36 680.59C3000.23 680.689 3002.99 681.6 3005.1 683.156C3007.31 684.777 3008.58 686.908 3008.69 689.158L3008.74 690.241Z" fill="white"/>
<path d="M2996.01 681.553C2990.7 681.553 2986.62 684.591 2986.81 688.49L3007.69 689.205C3007.5 685.189 3002.86 681.779 2997.32 681.59L2996.49 681.561C2996.33 681.556 2996.17 681.553 2996.01 681.553ZM2996.01 679.553C2996.19 679.553 2996.37 679.556 2996.56 679.562L2997.39 679.591C3000.47 679.696 3003.42 680.676 3005.7 682.35C3008.15 684.153 3009.57 686.554 3009.69 689.11L3009.79 691.278L2984.9 690.426L2984.81 688.584C2984.71 686.548 2985.49 684.563 2986.98 682.993C2989.07 680.807 2992.36 679.553 2996.01 679.553Z" fill="black"/>
<path d="M2986.53 685.425L3007.23 685.678" stroke="black" stroke-width="2"/>
<path d="M2984.39 660.507H2984.39C2981.4 660.507 2978.98 662.926 2978.98 665.91C2978.98 668.894 2981.4 671.313 2984.39 671.313H2984.39C2987.37 671.313 2989.79 668.894 2989.79 665.91C2989.79 662.926 2987.37 660.507 2984.39 660.507Z" fill="#162944"/>
<path d="M2991.25 664.105L2980.84 652.359L2983.42 650.073L2992.08 662.675L2991.25 664.105Z" fill="black"/>
<path d="M3003.18 665.236L3017.95 656.899L3016.12 653.66L3002.84 663.485L3003.18 665.236Z" fill="black"/>
<path d="M3010.4 662.537H3010.4C3007.18 662.537 3004.58 665.142 3004.58 668.356C3004.58 671.57 3007.18 674.176 3010.4 674.176H3010.4C3013.61 674.176 3016.22 671.57 3016.22 668.356C3016.22 665.142 3013.61 662.537 3010.4 662.537Z" fill="#162944"/>
<path d="M3018.95 729.575C3018.77 729.707 3018.66 729.775 3018.66 729.775L3018.95 729.575ZM3021.55 725.149C3021.57 724.714 3021.51 724.278 3021.38 723.864C3021.15 723.883 3020.93 723.902 3020.7 723.918L3009.29 729.372C3010.09 728.994 3010.8 728.442 3011.36 727.756C3011.93 727.07 3012.33 726.268 3012.55 725.407C3012.59 725.163 3012.62 724.916 3012.62 724.669L3000.74 726.88C3001.61 726.722 3002.44 726.372 3003.16 725.855C3003.88 725.338 3004.48 724.667 3004.91 723.891C3005 723.707 3005.07 723.518 3005.13 723.325L2992.55 723.006C2993.44 723.034 2994.32 722.864 2995.14 722.509C2995.95 722.154 2996.68 721.623 2997.26 720.954C2997.49 720.664 2997.67 720.343 2997.81 720.002L2986.5 716.873C2987.36 717.113 2988.25 717.162 2989.13 717.014C2990.01 716.867 2990.84 716.527 2991.57 716.02C2991.7 715.917 2991.82 715.807 2991.93 715.69C2991.84 715.623 2991.75 715.559 2991.66 715.49L2981.9 714.21C2982.78 714.331 2983.68 714.254 2984.52 713.986C2985.37 713.718 2986.15 713.265 2986.8 712.66C2987.03 712.419 2987.23 712.15 2987.4 711.86L2987.19 711.654L2978.42 709.554C2979.28 709.758 2980.17 709.77 2981.03 709.59C2981.89 709.409 2982.7 709.041 2983.41 708.512C2983.58 708.364 2983.74 708.203 2983.89 708.029C2983.66 707.747 2983.44 707.466 2983.22 707.181L2977 704.222L2976.75 703.296C2977.51 703.279 2978.24 703.082 2978.9 702.722C2979.06 702.637 2979.21 702.543 2979.35 702.44L2978.03 701.098C2985.82 706.216 2994.8 709.248 3004.09 709.905C3013.39 710.561 3022.7 708.82 3031.13 704.847C3057.4 692.758 3059.32 672.843 3059.27 666.829L3066.14 673.567C3065.51 672.942 3064.75 672.465 3063.91 672.17C3063.07 671.875 3062.18 671.769 3061.3 671.861C3061.12 671.891 3060.95 671.93 3060.78 671.979L3065.86 682.618C3065.48 681.815 3064.93 681.107 3064.25 680.544C3063.56 679.98 3062.76 679.576 3061.9 679.359C3061.62 679.307 3061.33 679.283 3061.05 679.287L3063.72 692.365C3063.55 691.494 3063.18 690.672 3062.65 689.958C3062.12 689.245 3061.44 688.658 3060.66 688.239C3060.56 688.194 3060.46 688.153 3060.36 688.118L3062.15 701.596C3062.03 700.715 3061.73 699.87 3061.25 699.122C3060.77 698.373 3060.13 697.741 3059.38 697.269C3059.12 697.131 3058.86 697.019 3058.58 696.936L3058.88 708.265C3058.86 707.377 3058.65 706.504 3058.25 705.71C3057.85 704.915 3057.28 704.219 3056.58 703.672C3056.09 703.299 3055.5 703.084 3054.88 703.055L3054.58 714.899C3054.61 714.011 3054.44 713.129 3054.08 712.316C3053.73 711.502 3053.2 710.778 3052.53 710.194C3052.12 709.859 3051.64 709.628 3051.12 709.518L3049.18 719.098C3049.36 718.23 3049.35 717.332 3049.14 716.47C3048.93 715.608 3048.54 714.802 3047.98 714.111C3047.72 713.821 3047.42 713.574 3047.08 713.376L3044.28 722.296C3044.55 721.451 3044.63 720.556 3044.51 719.677C3044.39 718.797 3044.08 717.955 3043.6 717.21C3043.37 716.893 3043.09 716.612 3042.78 716.378L3037.11 726.41C3037.55 725.639 3037.82 724.78 3037.89 723.895C3037.95 723.009 3037.83 722.12 3037.51 721.291C3037.37 720.98 3037.19 720.688 3036.98 720.422L3028.76 728.792C3029.39 728.161 3029.86 727.399 3030.16 726.562C3030.45 725.725 3030.56 724.833 3030.47 723.95C3030.4 723.328 3030.13 722.744 3029.71 722.281C3029.61 722.31 3029.51 722.34 3029.41 722.367L3018.95 729.575C3019.69 729.075 3020.3 728.419 3020.75 727.654C3021.2 726.889 3021.47 726.033 3021.55 725.149ZM3005.28 722.603C3005.29 722.499 3005.29 722.395 3005.28 722.292C3004.93 722.192 3004.58 722.08 3004.23 721.97L3005.28 722.603ZM3060.08 688.316L3060.19 688.053L3060.13 688.037C3060.11 688.129 3060.09 688.222 3060.08 688.316H3060.08ZM3060.71 679.337L3060.72 679.313H3060.71V679.337ZM3009.29 729.372C3009.09 729.472 3008.97 729.528 3008.97 729.528L3009.29 729.372ZM3028.76 728.793C3028.61 728.957 3028.51 729.048 3028.51 729.048L3028.76 728.793ZM3000.74 726.88C3000.52 726.928 3000.39 726.944 3000.39 726.944L3000.74 726.88ZM3037.11 726.411C3037.01 726.611 3036.94 726.722 3036.94 726.722L3037.11 726.411ZM2992.51 723.011C2992.31 723.011 2992.2 723.003 2992.2 723.003L2992.55 723.011H2992.51ZM3044.28 722.3C3044.25 722.415 3044.21 722.529 3044.17 722.641L3044.28 722.3ZM3049.18 719.1C3049.14 719.322 3049.11 719.451 3049.11 719.451L3049.18 719.1ZM2986.15 716.779L2986.5 716.873C2986.28 716.82 2986.15 716.779 2986.15 716.779ZM3054.58 714.899C3054.58 715.124 3054.57 715.256 3054.57 715.256L3054.58 714.899ZM2981.55 714.169L2981.9 714.212C2981.68 714.19 2981.55 714.169 2981.55 714.169ZM3058.89 708.269C3058.9 708.492 3058.9 708.623 3058.9 708.623L3058.89 708.269ZM3062.15 701.6C3062.19 701.82 3062.2 701.952 3062.2 701.952L3062.15 701.6ZM3063.72 692.369C3063.78 692.586 3063.8 692.718 3063.8 692.718L3063.72 692.369ZM3065.87 682.623C3065.97 682.823 3066.02 682.945 3066.02 682.945L3065.87 682.623ZM3066.14 673.572C3066.31 673.725 3066.4 673.822 3066.4 673.822L3066.14 673.572Z" fill="#AB30A3"/>
<path d="M2872.67 655.88L2884.17 655.987C2884.8 655.996 2885.42 656.097 2886.01 656.287C2886.61 656.479 2887.19 656.748 2887.72 657.087C2888.24 657.412 2888.71 657.807 2889.12 658.26C2889.5 658.68 2889.81 659.165 2890.02 659.693L2896.18 675.581C2896.38 676.049 2896.45 676.558 2896.4 677.062C2896.36 677.506 2896.19 677.927 2895.91 678.278C2895.62 678.643 2895.23 678.928 2894.8 679.104C2894.28 679.314 2893.72 679.42 2893.16 679.414L2881.45 679.473C2880.81 679.472 2880.17 679.373 2879.55 679.178C2878.93 678.984 2878.34 678.708 2877.79 678.357C2877.26 678.02 2876.77 677.61 2876.36 677.138C2875.96 676.698 2875.65 676.189 2875.44 675.638L2869.53 659.549C2869.35 659.09 2869.29 658.593 2869.35 658.104C2869.41 657.672 2869.6 657.268 2869.89 656.938C2870.2 656.586 2870.59 656.317 2871.03 656.154C2871.55 655.959 2872.11 655.867 2872.67 655.88Z" fill="#0033FF"/>
<path d="M2873.56 657.571L2884.56 657.662C2884.93 657.668 2885.3 657.729 2885.66 657.844C2886.02 657.959 2886.37 658.12 2886.69 658.323C2887 658.519 2887.28 658.756 2887.53 659.029C2887.76 659.281 2887.94 659.573 2888.07 659.89L2894.04 675.368C2894.16 675.649 2894.2 675.954 2894.17 676.257C2894.14 676.523 2894.04 676.775 2893.87 676.985C2893.7 677.204 2893.47 677.374 2893.2 677.479C2892.89 677.604 2892.56 677.667 2892.22 677.663L2881.05 677.707C2880.67 677.706 2880.28 677.646 2879.92 677.53C2879.54 677.413 2879.19 677.248 2878.86 677.038C2878.54 676.836 2878.25 676.59 2878 676.307C2877.76 676.043 2877.58 675.738 2877.45 675.407L2871.68 659.777C2871.57 659.502 2871.53 659.203 2871.57 658.91C2871.61 658.651 2871.72 658.408 2871.89 658.21C2872.07 657.999 2872.31 657.838 2872.57 657.74C2872.89 657.622 2873.22 657.564 2873.56 657.571Z" fill="white"/>
<path d="M2741.61 823.603H2612.37V836.11H2741.61V823.603Z" fill="#5D5D5D"/>
<path d="M2677.41 797.338C2673.43 797.338 2669.61 795.757 2666.8 792.942C2663.98 790.128 2662.4 786.31 2662.4 782.33V771.49C2662.4 768.522 2663.28 765.621 2664.93 763.153C2666.58 760.686 2668.93 758.762 2671.67 757.627C2674.41 756.492 2677.43 756.195 2680.34 756.774C2683.25 757.354 2685.93 758.783 2688.02 760.882C2689.42 762.272 2690.53 763.926 2691.29 765.748C2692.04 767.569 2692.43 769.523 2692.42 771.495V782.335C2692.42 784.306 2692.03 786.257 2691.28 788.078C2690.52 789.898 2689.42 791.553 2688.02 792.946C2686.63 794.339 2684.98 795.444 2683.15 796.197C2681.33 796.951 2679.38 797.339 2677.41 797.338ZM2677.41 763.152C2674.98 763.155 2672.65 764.122 2670.93 765.841C2669.21 767.561 2668.24 769.892 2668.24 772.324V781.495C2668.24 783.928 2669.21 786.26 2670.93 787.981C2672.65 789.701 2674.98 790.667 2677.41 790.667C2679.84 790.667 2682.18 789.701 2683.9 787.981C2685.62 786.26 2686.58 783.928 2686.58 781.495V772.325C2686.58 769.893 2685.61 767.562 2683.89 765.842C2682.17 764.123 2679.84 763.156 2677.41 763.153V763.152Z" fill="#5D5D5D"/>
<path d="M2714.1 823.603H2618.21L2638.22 776.91H2714.1L2734.11 823.603H2714.1Z" fill="#848484"/>
<path d="M2714.1 823.604H2688.68L2718.47 787.118L2734.11 823.604H2714.1Z" fill="#6A6A6A"/>
<path d="M2638.64 846.116C2646.24 846.116 2652.4 839.956 2652.4 832.358C2652.4 824.76 2646.24 818.6 2638.64 818.6C2631.04 818.6 2624.88 824.76 2624.88 832.358C2624.88 839.956 2631.04 846.116 2638.64 846.116Z" fill="white"/>
<path d="M2638.64 842.616C2644.31 842.616 2648.9 838.023 2648.9 832.358C2648.9 826.693 2644.31 822.1 2638.64 822.1C2632.97 822.1 2628.38 826.693 2628.38 832.358C2628.38 838.023 2632.97 842.616 2638.64 842.616Z" stroke="black" stroke-width="7"/>
<path d="M2713.68 846.116C2721.28 846.116 2727.44 839.956 2727.44 832.358C2727.44 824.76 2721.28 818.6 2713.68 818.6C2706.08 818.6 2699.92 824.76 2699.92 832.358C2699.92 839.956 2706.08 846.116 2713.68 846.116Z" fill="white"/>
<path d="M2713.68 842.616C2719.35 842.616 2723.94 838.023 2723.94 832.358C2723.94 826.693 2719.35 822.1 2713.68 822.1C2708.02 822.1 2703.42 826.693 2703.42 832.358C2703.42 838.023 2708.02 842.616 2713.68 842.616Z" stroke="black" stroke-width="7"/>
<path d="M2690.68 791.299H2681.1V818.744H2673.5V791.299H2663.96V785.135H2690.68V791.299Z" fill="black"/>
<path d="M2690.68 791.299H2681.1V818.744H2673.5V791.299H2663.96V785.135H2690.68V791.299Z" fill="white"/>
<path d="M2676.29 761.751C2675.46 760.392 2674.71 758.986 2674.04 757.539C2672.39 754.031 2671.09 750.368 2670.16 746.604C2668.89 741.597 2668.44 736.42 2668.82 731.27C2669.31 725.149 2671.17 719.217 2674.29 713.924C2677.21 708.757 2681.7 704.653 2687.11 702.203C2691.58 700.278 2696.4 699.323 2701.27 699.403H2701.75C2702.14 699.407 2702.53 699.416 2702.91 699.431C2704.81 694.848 2706.96 690.222 2709.06 685.699C2714.21 674.61 2719.53 663.144 2720.79 652.949C2723.1 634.156 2714.22 627.404 2706.89 623.08C2705.62 622.326 2704.41 621.614 2703.39 620.9L2704.36 619.538C2705.31 620.212 2706.49 620.908 2707.74 621.644C2715.03 625.944 2724.89 633.276 2722.44 653.153C2721.62 658.748 2720.13 664.224 2717.99 669.459C2715.85 675.023 2713.16 680.808 2710.57 686.402C2708.54 690.756 2706.5 695.157 2704.68 699.53C2707.72 699.765 2710.74 700.255 2713.71 700.995C2715.39 701.401 2717.05 701.905 2718.67 702.504C2721.38 703.438 2723.79 705.064 2725.68 707.221C2727.75 709.529 2729.34 712.233 2730.34 715.17C2731.78 719.486 2732.43 724.025 2732.26 728.57C2732.27 732.214 2731.61 735.829 2730.32 739.237C2729.37 741.678 2727.88 743.873 2725.96 745.662C2723.79 747.617 2721.14 748.959 2718.27 749.549C2717 749.832 2715.71 749.952 2714.41 749.906C2711.28 749.579 2708.3 748.418 2705.78 746.543C2703.21 744.649 2701.13 742.162 2699.73 739.294C2697.75 735.076 2696.7 730.482 2696.66 725.823C2696.57 722.581 2696.86 719.34 2697.52 716.165C2698.22 712.773 2699.15 709.434 2700.32 706.174C2700.91 704.492 2701.55 702.793 2702.24 701.087C2702.05 701.087 2701.87 701.08 2701.68 701.078H2701.25C2689.64 701.078 2681.05 705.685 2675.72 714.778C2668.93 726.359 2669.83 738.268 2671.78 746.218C2673.02 751.364 2675.01 756.299 2677.69 760.862L2676.29 761.751ZM2704.01 701.157C2700.56 709.694 2698.06 718.086 2698.33 725.757C2698.64 734.688 2701.56 741.407 2706.77 745.187C2709.03 746.869 2711.7 747.92 2714.5 748.234H2714.52C2715.69 748.268 2716.86 748.154 2718 747.895C2720.55 747.359 2722.92 746.154 2724.86 744.405C2728.54 741.033 2730.46 735.693 2730.6 728.532C2730.8 717.596 2727.37 711.518 2724.45 708.345C2722.77 706.408 2720.62 704.945 2718.2 704.099L2718.15 704.086L2718.1 704.068C2716.52 703.483 2714.9 702.992 2713.26 702.598C2710.23 701.843 2707.13 701.361 2704.01 701.156L2704.01 701.157Z" fill="#AEAEAE"/>
<path d="M2671.92 766.708C2671.59 766.754 2671.33 766.621 2671.18 766.501C2670.89 766.281 2670.7 765.92 2670.66 765.511L2669.89 758.823C2669.8 758.029 2670.26 757.292 2670.91 757.18L2679.18 755.768C2679.19 755.767 2679.2 755.765 2679.21 755.764C2679.54 755.717 2679.8 755.85 2679.95 755.97C2680.24 756.191 2680.43 756.552 2680.47 756.961L2681.24 763.648C2681.33 764.442 2680.87 765.179 2680.22 765.291L2671.95 766.703C2671.94 766.705 2671.93 766.706 2671.92 766.708Z" fill="#AEAEAE"/>
<path d="M2679.28 756.259L2679.27 756.261L2671 757.673C2670.65 757.731 2670.32 758.195 2670.39 758.767L2671.15 765.454C2671.18 765.73 2671.3 765.967 2671.48 766.106C2671.6 766.195 2671.72 766.231 2671.85 766.213L2671.86 766.21L2680.13 764.798C2680.48 764.74 2680.81 764.277 2680.74 763.705L2679.98 757.017C2679.95 756.742 2679.83 756.504 2679.65 756.366C2679.53 756.277 2679.41 756.241 2679.28 756.259ZM2679.14 755.269C2680.04 755.143 2680.85 755.865 2680.97 756.904L2681.74 763.591C2681.86 764.646 2681.22 765.628 2680.3 765.784L2672.03 767.196C2671.12 767.352 2670.28 766.623 2670.16 765.568L2669.39 758.88C2669.27 757.825 2669.91 756.843 2670.83 756.687L2679.1 755.275C2679.11 755.273 2679.13 755.271 2679.14 755.269Z" fill="#AEAEAE"/>
<path d="M2672.32 756.439L2679.1 755.276C2679.33 755.252 2679.56 755.276 2679.79 755.347C2680.01 755.418 2680.21 755.533 2680.39 755.687C2680.56 755.84 2680.71 756.028 2680.81 756.238C2680.91 756.449 2680.96 756.677 2680.97 756.91L2681.74 763.621C2681.82 764.101 2681.71 764.592 2681.45 765C2681.18 765.407 2680.77 765.701 2680.3 765.823L2673.53 766.985C2673.3 767.009 2673.06 766.985 2672.84 766.915C2672.62 766.845 2672.41 766.729 2672.24 766.576C2672.06 766.423 2671.92 766.235 2671.82 766.024C2671.72 765.813 2671.66 765.584 2671.65 765.351L2670.89 758.64C2670.81 758.161 2670.91 757.669 2671.18 757.262C2671.44 756.855 2671.85 756.561 2672.32 756.439Z" fill="#9A9A9A"/>
<path d="M2675.22 766.241C2674.89 766.287 2674.64 766.155 2674.49 766.035C2674.2 765.813 2674.01 765.447 2673.96 765.032L2673.2 758.29C2673.11 757.486 2673.57 756.74 2674.22 756.627L2679.18 755.771C2679.19 755.769 2679.2 755.767 2679.21 755.766C2679.54 755.72 2679.8 755.852 2679.95 755.972C2680.24 756.194 2680.43 756.56 2680.48 756.975L2681.24 763.717C2681.33 764.52 2680.87 765.266 2680.22 765.38L2675.25 766.236C2675.24 766.238 2675.23 766.239 2675.22 766.241Z" fill="#AEAEAE"/>
<path d="M2679.28 756.261L2679.27 756.263L2674.31 757.12C2673.96 757.179 2673.63 757.651 2673.69 758.234L2674.46 764.976C2674.49 765.258 2674.61 765.5 2674.79 765.64C2674.91 765.728 2675.03 765.763 2675.15 765.746L2675.17 765.743L2680.13 764.887C2680.47 764.828 2680.81 764.356 2680.74 763.773L2679.98 757.031C2679.95 756.749 2679.82 756.507 2679.64 756.367C2679.53 756.279 2679.41 756.244 2679.28 756.261ZM2679.15 755.271C2680.04 755.145 2680.85 755.873 2680.97 756.919L2681.74 763.661C2681.86 764.724 2681.21 765.715 2680.3 765.872L2675.34 766.729C2674.42 766.887 2673.59 766.152 2673.46 765.088L2672.7 758.346C2672.58 757.282 2673.22 756.292 2674.14 756.135L2679.1 755.278C2679.11 755.275 2679.13 755.273 2679.15 755.271Z" fill="#AEAEAE"/>
<path d="M2675.9 755.836L2679.1 755.279C2679.33 755.255 2679.57 755.28 2679.79 755.351C2680.01 755.423 2680.22 755.54 2680.39 755.694C2680.57 755.849 2680.71 756.039 2680.81 756.251C2680.91 756.463 2680.96 756.693 2680.97 756.928L2681.73 763.702C2681.81 764.185 2681.71 764.68 2681.44 765.091C2681.18 765.501 2680.77 765.798 2680.29 765.923L2677.09 766.474C2676.86 766.497 2676.63 766.473 2676.4 766.402C2676.18 766.33 2675.98 766.214 2675.8 766.06C2675.63 765.906 2675.48 765.717 2675.39 765.506C2675.29 765.295 2675.23 765.066 2675.22 764.832L2674.46 758.058C2674.38 757.575 2674.49 757.08 2674.75 756.669C2675.02 756.258 2675.43 755.961 2675.9 755.836Z" fill="#9A9A9A"/>
<path d="M2679.15 765.685C2678.83 765.731 2678.58 765.599 2678.43 765.481C2678.14 765.256 2677.94 764.884 2677.9 764.46L2677.14 757.644C2677.05 756.841 2677.52 756.067 2678.16 755.954L2679.19 755.775C2679.2 755.773 2679.21 755.771 2679.22 755.77C2679.54 755.724 2679.79 755.856 2679.94 755.974C2680.23 756.199 2680.43 756.571 2680.47 756.995L2681.23 763.812C2681.32 764.614 2680.85 765.388 2680.21 765.501L2679.18 765.68C2679.17 765.682 2679.16 765.684 2679.15 765.685Z" fill="#AEAEAE"/>
<path d="M2679.29 756.265C2679.28 756.266 2679.28 756.267 2679.27 756.267L2678.25 756.447C2677.9 756.507 2677.57 756.991 2677.63 757.588L2678.39 764.404C2678.42 764.695 2678.55 764.943 2678.73 765.086C2678.84 765.172 2678.96 765.207 2679.08 765.19C2679.09 765.189 2679.09 765.189 2679.1 765.188L2680.12 765.008C2680.47 764.948 2680.8 764.464 2680.74 763.867L2679.98 757.051C2679.95 756.76 2679.82 756.512 2679.64 756.369C2679.53 756.283 2679.41 756.248 2679.29 756.265ZM2679.15 755.275C2680.04 755.149 2680.85 755.884 2680.97 756.94L2681.73 763.756C2681.85 764.832 2681.21 765.833 2680.29 765.993L2679.27 766.173C2678.36 766.333 2677.52 765.591 2677.4 764.515L2676.64 757.699C2676.52 756.623 2677.16 755.622 2678.08 755.462L2679.1 755.282C2679.12 755.28 2679.13 755.277 2679.15 755.275Z" fill="#AEAEAE"/>
<path opacity="0.8" d="M2700.3 617.976C2700.3 617.976 2685.53 631.302 2684.82 637.207C2684.11 643.112 2693.42 646.516 2693.42 646.516L2713.01 649.45C2713.01 649.45 2706.54 640.631 2705.42 633.535C2704.3 626.439 2703.74 619.298 2703.74 619.298L2700.3 617.976Z" fill="#CF3030"/>
<path opacity="0.8" d="M2744.34 610.877L2711.24 621.032C2708.98 621.732 2706.54 621.611 2704.35 620.689C2702.17 619.768 2700.37 618.106 2699.29 615.995L2681.27 580.612C2674.02 566.892 2671.35 551.21 2673.66 535.864C2678.98 498.582 2710.36 472.098 2743.75 476.714C2777.14 481.329 2799.89 515.293 2794.56 552.583C2790.83 578.74 2774.26 599.58 2753.19 608.098C2750.32 609.261 2747.36 610.19 2744.34 610.877Z" fill="#CF3030"/>
<path d="M2747.65 556.78C2757.09 556.78 2764.74 549.127 2764.74 539.687C2764.74 530.247 2757.09 522.594 2747.65 522.594C2738.21 522.594 2730.55 530.247 2730.55 539.687C2730.55 549.127 2738.21 556.78 2747.65 556.78Z" fill="white"/>
<path d="M2751.82 548.442C2754.81 548.442 2757.24 546.015 2757.24 543.022C2757.24 540.029 2754.81 537.602 2751.82 537.602C2748.82 537.602 2746.4 540.029 2746.4 543.022C2746.4 546.015 2748.82 548.442 2751.82 548.442Z" fill="#4D0000"/>
<path d="M2773.08 549.692C2773.08 547.092 2773.74 544.534 2774.99 542.257C2776.24 539.979 2778.05 538.055 2780.25 536.663C2782.45 535.272 2784.96 534.458 2787.55 534.296C2790.15 534.135 2792.74 534.633 2795.09 535.742C2795.54 541.358 2795.37 547.006 2794.56 552.583C2793.98 556.713 2793.05 560.788 2791.8 564.767C2789.55 565.257 2787.21 565.237 2784.97 564.708C2782.73 564.178 2780.63 563.153 2778.83 561.707C2777.04 560.261 2775.59 558.431 2774.59 556.352C2773.6 554.273 2773.08 551.997 2773.08 549.692V549.692Z" fill="white"/>
<path d="M2758.62 588.134C2764.67 589.532 2770.89 585.028 2772.49 578.073C2774.1 571.118 2770.49 564.346 2764.43 562.948C2758.37 561.55 2752.16 566.054 2750.56 573.009C2748.95 579.964 2752.56 586.735 2758.62 588.134Z" fill="#4D0000"/>
<path d="M2788.5 555.946C2791.04 555.946 2793.09 553.893 2793.09 551.36C2793.09 548.827 2791.04 546.774 2788.5 546.774C2785.97 546.774 2783.92 548.827 2783.92 551.36C2783.92 553.893 2785.97 555.946 2788.5 555.946Z" fill="#4D0000"/>
<path d="M2714.35 495.637C2715.21 497.263 2718.38 497.269 2721.43 495.649C2724.48 494.029 2726.26 491.397 2725.39 489.771C2724.53 488.144 2721.36 488.139 2718.31 489.759C2715.26 491.379 2713.48 494.011 2714.35 495.637Z" fill="white"/>
<path d="M2706.74 500.569C2706.74 500.569 2700.94 504.493 2694.72 515.202C2688.5 525.911 2687.66 532.402 2687.66 532.402" stroke="white" stroke-width="7" stroke-linecap="round"/>
<path d="M2706.61 619.593L2700.93 616.821C2700.12 616.425 2699.14 616.762 2698.74 617.574C2698.34 618.387 2698.68 619.366 2699.49 619.762L2705.18 622.534C2705.99 622.93 2706.97 622.593 2707.37 621.781C2707.76 620.969 2707.42 619.99 2706.61 619.593Z" fill="#8A8A8A"/>
<path d="M3020.71 644.409L3021.91 641.749L3023.24 642.35C3025.29 643.282 3027.62 644.197 3029.29 643.348C3030.59 642.688 3031.54 640.945 3032.12 638.159L3032.42 636.73L3035.28 637.325L3034.98 638.754C3034.2 642.498 3032.77 644.852 3030.61 645.949C3027.56 647.505 3023.96 645.884 3022.04 645.009L3020.71 644.409L3020.71 644.409ZM3022.79 662.143L3023.39 660.813C3024.32 658.757 3025.24 656.429 3024.39 654.76C3023.73 653.462 3021.98 652.509 3019.2 651.929L3017.77 651.632L3018.37 648.774L3019.8 649.072C3023.54 649.85 3025.89 651.275 3026.99 653.437C3028.55 656.494 3026.93 660.089 3026.05 662.015L3025.45 663.345L3022.79 662.143ZM3029.82 665.681L3030.11 664.253C3030.89 660.508 3032.32 658.155 3034.48 657.057C3037.53 655.502 3041.13 657.125 3043.06 657.998L3044.39 658.599L3043.18 661.259L3041.85 660.658C3039.8 659.726 3037.47 658.811 3035.8 659.66C3034.5 660.321 3033.55 662.066 3032.97 664.849L3032.67 666.277L3029.82 665.681ZM3038.73 650.556C3038.49 650.249 3038.28 649.92 3038.1 649.573C3036.54 646.516 3038.16 642.92 3039.04 640.994L3039.64 639.665L3042.3 640.867L3041.7 642.197C3040.77 644.254 3039.85 646.581 3040.7 648.25C3041.36 649.546 3043.11 650.5 3045.89 651.08L3047.32 651.378L3046.73 654.235L3045.29 653.936C3042.15 653.281 3039.99 652.17 3038.72 650.555L3038.73 650.556Z" fill="#9B0037"/>
<path d="M2840.84 685.757L2850.38 685.624C2850.94 685.625 2851.51 685.699 2852.06 685.843C2852.67 686 2853.27 686.213 2853.85 686.479C2854.44 686.748 2855 687.068 2855.54 687.435C2856.04 687.775 2856.5 688.169 2856.91 688.612L2868.49 701.28C2868.8 701.609 2869.06 701.995 2869.23 702.418C2869.36 702.71 2869.37 703.038 2869.28 703.341C2869.22 703.48 2869.13 703.606 2869.03 703.711C2868.92 703.817 2868.8 703.901 2868.66 703.957C2868.26 704.118 2867.84 704.193 2867.41 704.175L2857.92 704.108C2857.37 704.096 2856.82 704.017 2856.29 703.873C2855.7 703.716 2855.12 703.509 2854.56 703.252C2854 702.993 2853.45 702.686 2852.94 702.336C2852.45 702.012 2852.01 701.636 2851.61 701.216L2839.98 688.789C2839.65 688.452 2839.38 688.059 2839.18 687.628C2839.04 687.33 2839.01 686.993 2839.08 686.672C2839.12 686.529 2839.2 686.397 2839.29 686.284C2839.39 686.171 2839.51 686.079 2839.64 686.015C2840.02 685.835 2840.43 685.747 2840.84 685.757Z" fill="#00C80D"/>
<path d="M2842.33 687.126L2851.44 687.014C2851.78 687.015 2852.11 687.06 2852.44 687.146C2852.81 687.24 2853.17 687.368 2853.51 687.527C2853.86 687.688 2854.2 687.879 2854.52 688.099C2854.82 688.301 2855.1 688.536 2855.35 688.799L2866.61 701.099C2866.8 701.296 2866.96 701.527 2867.06 701.781C2867.14 701.956 2867.15 702.153 2867.09 702.335C2867.06 702.418 2867.01 702.494 2866.94 702.558C2866.88 702.622 2866.8 702.672 2866.72 702.706C2866.49 702.803 2866.23 702.848 2865.98 702.838L2856.9 702.788C2856.57 702.781 2856.24 702.734 2855.93 702.648C2855.57 702.558 2855.22 702.436 2854.89 702.286C2854.55 702.13 2854.22 701.946 2853.91 701.735C2853.62 701.54 2853.35 701.314 2853.11 701.061L2841.81 688.942C2841.61 688.739 2841.45 688.502 2841.33 688.242C2841.25 688.064 2841.23 687.863 2841.27 687.671C2841.3 687.586 2841.34 687.507 2841.4 687.439C2841.46 687.371 2841.53 687.316 2841.61 687.278C2841.83 687.171 2842.08 687.119 2842.33 687.126Z" fill="white"/>
<path d="M2908.42 678.85L2916.7 679.057C2917.08 679.051 2917.45 679.174 2917.75 679.406C2918.01 679.635 2918.19 679.95 2918.25 680.296C2918.32 680.729 2918.3 681.173 2918.18 681.596C2918.03 682.147 2917.81 682.675 2917.52 683.165L2907.72 700.06C2907.4 700.61 2907.02 701.124 2906.58 701.592C2906.16 702.055 2905.69 702.476 2905.18 702.847C2904.72 703.19 2904.21 703.476 2903.68 703.7C2903.23 703.895 2902.75 704.005 2902.26 704.024L2893.93 704.129C2893.54 704.149 2893.16 704.044 2892.83 703.829C2892.55 703.624 2892.35 703.324 2892.27 702.985C2892.18 702.567 2892.19 702.134 2892.29 701.719C2892.43 701.17 2892.64 700.644 2892.93 700.158L2902.79 682.884C2903.13 682.311 2903.52 681.776 2903.97 681.29C2904.41 680.811 2904.89 680.378 2905.42 679.998C2905.9 679.65 2906.41 679.362 2906.96 679.142C2907.42 678.95 2907.92 678.851 2908.42 678.85Z" fill="#FF0000"/>
<path d="M2907.53 680.729L2915.44 680.904C2915.67 680.9 2915.89 680.973 2916.07 681.111C2916.23 681.248 2916.34 681.436 2916.37 681.643C2916.42 681.902 2916.41 682.167 2916.34 682.42C2916.25 682.752 2916.11 683.069 2915.94 683.363L2906.4 699.837C2906.21 700.168 2905.98 700.477 2905.72 700.759C2905.46 701.038 2905.18 701.291 2904.87 701.514C2904.59 701.72 2904.29 701.892 2903.97 702.026C2903.7 702.143 2903.41 702.208 2903.12 702.219L2895.16 702.298C2894.93 702.31 2894.7 702.246 2894.51 702.117C2894.34 701.993 2894.22 701.813 2894.17 701.609C2894.12 701.358 2894.12 701.098 2894.19 700.849C2894.27 700.52 2894.4 700.205 2894.57 699.914L2904.17 683.147C2904.37 682.804 2904.6 682.484 2904.87 682.193C2905.13 681.906 2905.42 681.647 2905.74 681.42C2906.02 681.211 2906.33 681.039 2906.66 680.906C2906.93 680.791 2907.23 680.731 2907.53 680.729Z" fill="white"/>
</g>
<defs>
<linearGradient id="paint0_linear" x1="2190.11" y1="929.932" x2="2190.11" y2="1240.29" gradientUnits="userSpaceOnUse">
<stop stop-color="#22AE76"/>
<stop offset="1" stop-color="#005432"/>
</linearGradient>
<linearGradient id="paint1_linear" x1="887.789" y1="966" x2="887.789" y2="1276.36" gradientUnits="userSpaceOnUse">
<stop stop-color="#22AE76"/>
<stop offset="1" stop-color="#005432"/>
</linearGradient>
<linearGradient id="paint2_linear" x1="3603.38" y1="980.702" x2="3553.83" y2="1240.36" gradientUnits="userSpaceOnUse">
<stop stop-color="#22AE76"/>
<stop offset="1" stop-color="#005432"/>
</linearGradient>
<clipPath id="clip0">
<rect width="4439" height="1072" fill="white"/>
</clipPath>
</defs>
</svg>
