<svg width="2267" height="634" viewBox="0 0 2267 634" fill="none" xmlns="http://www.w3.org/2000/svg">
<g clip-path="url(#clip0)">
<path opacity="0.1" d="M794.565 464.159L781.703 458.378L794.565 452.597L800.343 439.731L806.122 452.597L818.983 458.378L806.122 464.159L800.343 477.025L794.565 464.159ZM1418.82 449.801L1410.24 445.947L1418.82 442.093L1422.67 433.515L1426.52 442.093L1435.1 445.947L1426.52 449.801L1422.67 458.378L1418.82 449.801ZM1328.89 438.441L1321.39 435.07L1328.89 431.698L1332.27 424.192L1335.64 431.698L1343.14 435.07L1335.64 438.441L1332.27 445.947L1328.89 438.441ZM1124.86 378.693L1112 372.912L1124.86 367.131L1130.64 354.265L1136.42 367.131L1149.28 372.912L1136.42 378.693L1130.64 391.559L1124.86 378.693ZM1611.65 322.16L1596.65 315.416L1611.65 308.672L1618.39 293.661L1625.13 308.672L1640.14 315.416L1625.13 322.16L1618.39 337.171L1611.65 322.16ZM291.261 327.63L284.829 324.741L291.26 321.85L294.149 315.417L297.038 321.85L303.468 324.741L297.038 327.631L294.149 334.064L291.261 327.63ZM684.689 296.117L665.397 287.446L684.689 278.775L693.357 259.475L702.025 278.775L721.317 287.446L702.029 296.117L693.361 315.417L684.689 296.117ZM1757.93 216.23L1750.43 212.858L1757.93 209.486L1761.3 201.981L1764.67 209.486L1772.17 212.858L1764.67 216.23L1761.3 223.735L1757.93 216.23ZM1400.4 208.724L1385.4 201.98L1400.4 195.236L1407.14 180.225L1413.88 195.236L1428.89 201.98L1413.88 208.724L1407.14 223.735L1400.4 208.724ZM434.571 204.652L421.71 198.872L434.571 193.092L440.35 180.225L446.129 193.092L458.991 198.872L446.129 204.652L440.351 217.519L434.571 204.652ZM669.901 116.669L659.183 111.852L669.901 107.034L674.717 96.312L679.529 107.035L690.247 111.853L679.529 116.669L674.717 127.392L669.901 116.669Z" fill="white"/>
<path opacity="0.51" d="M1937.27 120.949C1931.65 120.959 1926.09 119.815 1920.93 117.588C1915.93 115.431 1911.4 112.317 1907.6 108.421C1903.75 104.509 1900.7 99.8925 1898.6 94.825C1895.67 87.7721 1894.65 80.0689 1895.65 72.4956C1896.65 64.9224 1899.64 57.7483 1904.3 51.7C1907.12 48.0598 1910.5 44.9018 1914.33 42.35C1918.19 39.7724 1922.46 37.864 1926.95 36.705C1924.74 42.006 1923.61 47.6949 1923.62 53.439C1923.62 77.024 1942.44 96.212 1965.58 96.212C1969.07 96.2122 1972.53 95.773 1975.9 94.905C1972.75 102.495 1967.47 109.012 1960.7 113.669C1953.81 118.418 1945.64 120.957 1937.27 120.949V120.949Z" fill="white"/>
<path opacity="0.24" d="M329.361 175.348L433.819 583.157H147.755L254.601 175.369L329.361 175.348Z" fill="#FFF892"/>
<path d="M291.384 192.961C302.632 192.961 311.75 184.147 311.75 173.274C311.75 162.401 302.632 153.587 291.384 153.587C280.136 153.587 271.018 162.401 271.018 173.274C271.018 184.147 280.136 192.961 291.384 192.961Z" fill="#FFF565"/>
<path d="M188.998 511.352V131.314H189.008C189.238 120.272 193.789 109.76 201.683 102.036C209.577 94.3118 220.185 89.9905 231.229 90H255.098C263.246 89.9932 271.222 92.3446 278.063 96.7705C284.905 101.196 290.319 107.508 293.653 114.942C296.987 122.377 298.098 130.618 296.852 138.671C295.606 146.723 292.056 154.242 286.631 160.322C286.636 160.122 286.639 159.9 286.639 159.655V133.4C286.629 124.651 283.149 116.263 276.963 110.076C270.776 103.89 262.388 100.41 253.639 100.4H232.69C223.941 100.41 215.553 103.89 209.366 110.076C203.18 116.263 199.7 124.651 199.69 133.4V159.655C199.69 159.875 199.69 160.099 199.697 160.321L199.69 160.313V511.353L188.998 511.352Z" fill="#6B6B6B"/>
<path d="M329.401 175.378H254.567C254.772 165.593 258.805 156.278 265.8 149.432C272.796 142.586 282.196 138.756 291.983 138.762C301.771 138.755 311.171 142.585 318.166 149.431C325.162 156.276 329.195 165.591 329.401 175.376V175.376V175.378Z" fill="url(#paint0_linear)"/>
<path d="M2235.22 488.892H1595.87V712.564H2235.22V488.892Z" fill="#8A6550"/>
<path d="M2266.75 469.741L2210.8 411.665H1620.29L1564.35 469.741H2266.75Z" fill="#3F00C1"/>
<path d="M2184.16 536.494C2184.16 536.266 2184.17 536.038 2184.18 535.813H2184.16C2184.16 536.038 2184.16 536.266 2184.16 536.494C2184.16 547.894 2175.16 557.139 2164.06 557.139C2152.96 557.139 2143.96 547.898 2143.96 536.494C2143.96 536.279 2143.96 536.067 2143.97 535.855H2143.95C2143.96 536.067 2143.96 536.279 2143.96 536.494C2143.96 547.894 2134.48 557.139 2122.77 557.139C2111.07 557.139 2101.58 547.898 2101.58 536.494C2101.58 536.294 2101.58 536.099 2101.59 535.903H2101.57C2101.57 536.103 2101.58 536.295 2101.58 536.494C2101.58 547.894 2092.58 557.139 2081.48 557.139C2070.38 557.139 2061.38 547.898 2061.38 536.494C2061.38 536.311 2061.38 536.128 2061.38 535.945H2061.37C2061.37 536.128 2061.38 536.311 2061.38 536.494C2061.38 541.97 2059.2 547.221 2055.33 551.093C2051.46 554.965 2046.21 557.14 2040.73 557.14C2035.25 557.14 2030 554.965 2026.13 551.093C2022.26 547.221 2020.08 541.97 2020.08 536.494C2020.08 536.327 2020.08 536.157 2020.09 535.994H2020.07C2020.07 536.158 2020.08 536.328 2020.08 536.494C2020.08 541.97 2017.9 547.222 2014.03 551.094C2010.16 554.966 2004.91 557.141 1999.43 557.141C1993.95 557.141 1988.7 554.966 1984.83 551.094C1980.96 547.222 1978.78 541.97 1978.78 536.494C1978.78 536.341 1978.78 536.194 1978.78 536.038H1978.77C1978.78 536.189 1978.78 536.338 1978.78 536.494C1978.78 547.894 1969.29 557.139 1957.59 557.139C1945.88 557.139 1936.4 547.898 1936.4 536.494C1936.4 536.356 1936.4 536.222 1936.4 536.084H1936.39C1936.39 536.222 1936.39 536.356 1936.39 536.494C1936.39 541.97 1934.21 547.221 1930.34 551.093C1926.47 554.965 1921.22 557.14 1915.74 557.14C1910.27 557.14 1905.01 554.965 1901.14 551.093C1897.27 547.221 1895.09 541.97 1895.09 536.494C1895.09 536.372 1895.09 536.251 1895.09 536.132H1895.09C1895.09 536.251 1895.09 536.372 1895.09 536.494C1895.09 541.97 1892.91 547.222 1889.04 551.094C1885.17 554.966 1879.92 557.141 1874.44 557.141C1868.97 557.141 1863.71 554.966 1859.84 551.094C1855.97 547.222 1853.79 541.97 1853.79 536.494C1853.79 547.894 1844.79 557.139 1833.69 557.139C1822.59 557.139 1813.59 547.898 1813.59 536.494C1813.59 536.4 1813.59 536.311 1813.59 536.219C1813.59 536.312 1813.59 536.401 1813.59 536.494C1813.59 547.894 1804.11 557.139 1792.4 557.139C1780.7 557.139 1771.21 547.898 1771.21 536.494C1771.21 547.894 1762.21 557.139 1751.11 557.139C1740.01 557.139 1731.01 547.898 1731.01 536.494C1731.01 547.894 1721.53 557.139 1709.82 557.139C1698.12 557.139 1688.63 547.898 1688.63 536.494C1688.63 541.97 1686.46 547.221 1682.59 551.093C1678.71 554.965 1673.46 557.14 1667.99 557.14C1662.51 557.14 1657.26 554.965 1653.39 551.093C1649.52 547.221 1647.34 541.97 1647.34 536.494C1647.34 541.97 1645.16 547.222 1641.29 551.094C1637.42 554.966 1632.17 557.141 1626.69 557.141C1621.22 557.141 1615.96 554.966 1612.09 551.094C1608.22 547.222 1606.04 541.97 1606.04 536.494C1606.05 540.09 1605.11 543.624 1603.32 546.746C1601.54 549.868 1598.97 552.469 1595.87 554.292V470.382H2235.22V535.758L2225.45 535.769C2225.45 536.009 2225.46 536.251 2225.46 536.495C2225.46 541.972 2223.28 547.224 2219.41 551.097C2215.54 554.969 2210.29 557.145 2204.81 557.145C2199.33 557.145 2194.08 554.969 2190.21 551.097C2186.34 547.224 2184.16 541.972 2184.16 536.495L2184.16 536.494ZM1853.81 536.494C1853.81 536.385 1853.81 536.282 1853.81 536.176V536.494ZM1771.22 536.494C1771.22 536.417 1771.22 536.343 1771.22 536.266V536.494ZM1731.02 536.494C1731.02 536.432 1731.02 536.372 1731.02 536.311V536.494ZM1688.63 536.494C1688.63 536.448 1688.63 536.4 1688.63 536.356V536.494Z" fill="#8A6550"/>
<path d="M2044 534H1994C1989.03 534 1985 538.029 1985 543V561C1985 565.971 1989.03 570 1994 570H2044C2048.97 570 2053 565.971 2053 561V543C2053 538.029 2048.97 534 2044 534Z" fill="#8A6550"/>
<path d="M2044 536H1994C1990.13 536 1987 539.134 1987 543V561C1987 564.866 1990.13 568 1994 568H2044C2047.87 568 2051 564.866 2051 561V543C2051 539.134 2047.87 536 2044 536Z" stroke="#8A5050" stroke-width="4"/>
<path d="M2075 498H2025C2020.03 498 2016 502.029 2016 507V525C2016 529.971 2020.03 534 2025 534H2075C2079.97 534 2084 529.971 2084 525V507C2084 502.029 2079.97 498 2075 498Z" fill="#8A6550"/>
<path d="M2075 500H2025C2021.13 500 2018 503.134 2018 507V525C2018 528.866 2021.13 532 2025 532H2075C2078.87 532 2082 528.866 2082 525V507C2082 503.134 2078.87 500 2075 500Z" stroke="#8A5050" stroke-width="4"/>
<path d="M1996 566H1946C1941.03 566 1937 570.029 1937 575V593C1937 597.971 1941.03 602 1946 602H1996C2000.97 602 2005 597.971 2005 593V575C2005 570.029 2000.97 566 1996 566Z" fill="#8A6550"/>
<path d="M1996 568H1946C1942.13 568 1939 571.134 1939 575V593C1939 596.866 1942.13 600 1946 600H1996C1999.87 600 2003 596.866 2003 593V575C2003 571.134 1999.87 568 1996 568Z" stroke="#8A5050" stroke-width="4"/>
<path d="M2029 598H1979C1974.03 598 1970 602.029 1970 607V625C1970 629.971 1974.03 634 1979 634H2029C2033.97 634 2038 629.971 2038 625V607C2038 602.029 2033.97 598 2029 598Z" fill="#8A6550"/>
<path d="M2029 600H1979C1975.13 600 1972 603.134 1972 607V625C1972 628.866 1975.13 632 1979 632H2029C2032.87 632 2036 628.866 2036 625V607C2036 603.134 2032.87 600 2029 600Z" stroke="#8A5050" stroke-width="4"/>
<path d="M1965 598H1915C1910.03 598 1906 602.029 1906 607V625C1906 629.971 1910.03 634 1915 634H1965C1969.97 634 1974 629.971 1974 625V607C1974 602.029 1969.97 598 1965 598Z" fill="#8A5050" fill-opacity="0.48"/>
<path d="M1965 600H1915C1911.13 600 1908 603.134 1908 607V625C1908 628.866 1911.13 632 1915 632H1965C1968.87 632 1972 628.866 1972 625V607C1972 603.134 1968.87 600 1965 600Z" stroke="#8A5050" stroke-width="4"/>
<path d="M2225.46 496.776C2225.46 496.533 2225.46 496.291 2225.47 496.05H2225.45C2225.45 496.291 2225.46 496.533 2225.46 496.776C2225.46 502.252 2223.28 507.504 2219.41 511.376C2215.54 515.248 2210.29 517.423 2204.81 517.423C2199.34 517.423 2194.08 515.248 2190.21 511.376C2186.34 507.504 2184.16 502.252 2184.16 496.776C2184.16 496.549 2184.17 496.322 2184.18 496.095H2184.15C2184.16 496.321 2184.16 496.548 2184.16 496.776C2184.16 508.176 2175.16 517.423 2164.06 517.423C2152.96 517.423 2143.96 508.179 2143.96 496.776C2143.96 496.563 2143.97 496.351 2143.97 496.14H2143.95C2143.95 496.351 2143.96 496.563 2143.96 496.776C2143.96 508.176 2134.47 517.423 2122.77 517.423C2111.06 517.423 2101.58 508.179 2101.58 496.776C2101.58 496.576 2101.58 496.382 2101.58 496.186H2101.57C2101.57 496.386 2101.57 496.579 2101.57 496.776C2101.57 508.176 2092.57 517.423 2081.47 517.423C2070.37 517.423 2061.37 508.179 2061.37 496.776C2061.37 496.593 2061.38 496.411 2061.38 496.23H2061.37C2061.37 496.411 2061.37 496.593 2061.37 496.776C2061.37 502.252 2059.2 507.504 2055.33 511.376C2051.46 515.248 2046.2 517.423 2040.73 517.423C2035.25 517.423 2030 515.248 2026.13 511.376C2022.26 507.504 2020.08 502.252 2020.08 496.776C2020.08 496.609 2020.08 496.442 2020.09 496.276H2020.07C2020.07 496.442 2020.08 496.609 2020.08 496.776C2020.08 502.252 2017.91 507.504 2014.03 511.376C2010.16 515.248 2004.91 517.423 1999.43 517.423C1993.96 517.423 1988.71 515.248 1984.83 511.376C1980.96 507.504 1978.79 502.252 1978.79 496.776C1978.79 496.624 1978.79 496.476 1978.79 496.321H1978.78C1978.78 496.472 1978.78 496.621 1978.78 496.776C1978.78 508.176 1969.29 517.423 1957.59 517.423C1945.89 517.423 1936.4 508.179 1936.4 496.776C1936.4 496.643 1936.4 496.507 1936.4 496.368H1936.39C1936.39 496.501 1936.39 496.637 1936.39 496.776C1936.39 499.487 1935.86 502.172 1934.82 504.677C1933.78 507.182 1932.26 509.458 1930.35 511.376C1928.43 513.293 1926.15 514.814 1923.65 515.851C1921.14 516.889 1918.46 517.423 1915.75 517.423C1913.04 517.423 1910.35 516.889 1907.85 515.851C1905.34 514.814 1903.06 513.293 1901.15 511.376C1899.23 509.458 1897.71 507.182 1896.67 504.677C1895.63 502.172 1895.1 499.487 1895.1 496.776C1895.1 496.655 1895.1 496.533 1895.1 496.413H1895.09C1895.09 496.534 1895.09 496.655 1895.09 496.776C1895.09 502.252 1892.92 507.504 1889.05 511.376C1885.17 515.248 1879.92 517.423 1874.45 517.423C1868.97 517.423 1863.72 515.248 1859.85 511.376C1855.98 507.504 1853.8 502.252 1853.8 496.776C1853.8 496.67 1853.8 496.564 1853.8 496.458C1853.8 496.563 1853.8 496.67 1853.8 496.776C1853.8 508.176 1844.8 517.423 1833.7 517.423C1822.6 517.423 1813.6 508.179 1813.6 496.776C1813.6 496.685 1813.6 496.593 1813.6 496.502C1813.6 496.593 1813.6 496.684 1813.6 496.776C1813.6 508.176 1804.11 517.423 1792.41 517.423C1780.71 517.423 1771.22 508.179 1771.22 496.776C1771.22 496.7 1771.22 496.624 1771.22 496.549C1771.22 496.625 1771.22 496.701 1771.22 496.776C1771.22 508.176 1762.22 517.423 1751.12 517.423C1740.02 517.423 1731.02 508.179 1731.02 496.776C1731.02 496.715 1731.02 496.654 1731.02 496.593C1731.02 496.654 1731.02 496.715 1731.02 496.776C1731.02 508.176 1721.53 517.423 1709.83 517.423C1698.13 517.423 1688.64 508.179 1688.64 496.776C1688.64 496.731 1688.64 496.685 1688.64 496.64C1688.64 496.685 1688.64 496.731 1688.64 496.776C1688.64 502.252 1686.46 507.504 1682.59 511.376C1678.72 515.248 1673.47 517.423 1667.99 517.423C1662.52 517.423 1657.27 515.248 1653.39 511.376C1649.52 507.504 1647.35 502.252 1647.35 496.776C1647.35 496.745 1647.35 496.715 1647.35 496.685C1647.35 496.716 1647.35 496.746 1647.35 496.776C1647.35 502.252 1645.17 507.504 1641.3 511.376C1637.43 515.248 1632.17 517.423 1626.7 517.423C1621.22 517.423 1615.97 515.248 1612.1 511.376C1608.23 507.504 1606.05 502.252 1606.05 496.776C1606.05 496.761 1606.05 496.746 1606.05 496.73C1606.05 496.745 1606.05 496.76 1606.05 496.776C1606.05 502.252 1603.88 507.504 1600 511.376C1596.13 515.248 1590.88 517.423 1585.4 517.423C1579.93 517.423 1574.68 515.248 1570.81 511.376C1566.93 507.504 1564.76 502.252 1564.76 496.776H1564.35V468.922H2266.75V496.005H2266.74C2266.75 496.261 2266.75 496.518 2266.75 496.776C2266.75 502.252 2264.58 507.504 2260.71 511.376C2256.83 515.248 2251.58 517.423 2246.11 517.423C2240.63 517.423 2235.38 515.248 2231.51 511.376C2227.63 507.504 2225.46 502.252 2225.46 496.776H2225.46Z" fill="#32009A"/>
<path d="M597.484 718.928C594.522 719.167 591.545 719.13 588.59 718.818C557.809 715.569 535.973 683.395 539.818 646.954C543.05 616.33 563.392 592.438 588.073 587.52C595.839 556.875 621.231 535.6 648.796 538.509C652.472 538.897 656.092 539.708 659.582 540.928C674.889 518.101 699.262 504.414 725.112 507.142C745.51 509.294 762.866 521.245 774.297 538.723C783.412 535.303 793.197 534.048 802.88 535.058C826.712 537.573 846.404 553.471 857.328 575.934C864.692 571.611 873.08 569.342 881.62 569.363C899.424 542.026 928.248 525.543 958.847 528.772C986.867 531.729 1009.98 550.548 1022.67 577.08C1028.06 576.22 1033.54 576.075 1038.97 576.65C1049.53 577.783 1059.63 581.566 1068.34 587.648C1083.92 564.507 1108.67 550.648 1134.92 553.418C1159.1 555.969 1179.09 572.064 1190.23 594.814C1197.93 592.765 1206.02 592.664 1213.77 594.522C1225.3 571.819 1245.65 555.968 1269.98 553.851C1296.27 551.561 1320.76 565.874 1335.92 589.292C1344.74 583.369 1354.91 579.771 1365.49 578.831C1370.93 578.357 1376.4 578.603 1381.78 579.562C1394.94 553.266 1418.4 534.873 1446.47 532.429C1478.27 529.66 1507.78 548.071 1524.84 577.578C1533.79 572.126 1544.24 569.655 1554.68 570.521C1559.83 570.972 1564.87 572.252 1569.61 574.31C1584.9 553.953 1607.7 541.879 1632.02 544.016C1658.31 546.328 1679.95 564.677 1690.81 590.371C1700.52 586.071 1711.16 584.294 1721.75 585.205C1727.18 585.682 1732.53 586.874 1737.66 588.751C1755.19 565.142 1781.49 551.101 1809.56 553.568C1856.16 557.665 1890 605.707 1885.16 660.876C1880.31 716.045 1838.6 757.444 1792 753.347C1778.91 752.165 1766.38 747.512 1755.69 739.868C1741.89 751.669 1724.72 758.029 1706.69 756.443C1681.36 754.216 1660.43 736.847 1649.57 712.38C1639.32 717.197 1627.99 719.224 1616.71 718.259C1599.55 716.75 1584.38 708.408 1572.89 695.66C1563.94 701.102 1553.5 703.568 1543.07 702.703C1535.71 702.048 1528.6 699.719 1522.28 695.894C1508.57 716.331 1487.91 730.124 1463.87 732.216C1450.78 733.325 1437.63 730.919 1425.78 725.248C1414.24 739.266 1398.43 748.51 1380.4 750.08C1355.07 752.285 1331.44 738.814 1316.49 716.605C1307.24 723.129 1296.43 727.095 1285.15 728.102C1267.99 729.596 1251.6 724.02 1238.07 713.456C1230.2 720.371 1220.35 724.613 1209.92 725.573C1208.32 725.713 1206.74 725.772 1205.16 725.751C1197.41 727.112 1189.45 726.548 1181.97 724.109C1198.6 736.793 1207.23 749.853 1205.9 762.514C1200.92 809.719 1059.19 833.454 889.343 815.53C744.781 800.279 626.443 759.76 597.484 718.928Z" fill="url(#paint1_linear)"/>
<path d="M751.319 681.126L789.835 693.156L756.667 708.176L751.319 681.126ZM890.037 706.93L922.82 683.407L914.855 718.941L890.037 706.93ZM1050.68 682.976L1080.64 703.67L1060.21 722.187L1050.68 682.976ZM1096.88 705.357L1135.33 693.119L1116.78 724.444L1096.88 705.357ZM710.4 658.525L737.567 663.226L712.536 694.873L710.4 658.525ZM644.549 680.18L677.452 664.585L683.271 691.535L644.549 680.18ZM1013.78 679.081L1030.83 700.758L991.058 707.524L1013.78 679.081ZM805.506 686.426L834.698 658.57L831.756 694.858L805.506 686.426ZM944.208 663.082L978.71 674.717L964.175 698.144L944.208 663.082ZM857.668 659.198L896.184 671.228L863.016 686.245L857.668 659.198ZM753.835 654.977L793.546 647.662L793.38 672.306L753.835 654.977ZM1066.45 665.107L1100.75 650.337L1100.42 678.977L1066.45 665.107ZM680.181 620.799L712.079 640.218L676.508 649.204L680.181 620.799ZM923.898 624.94L934.132 650.543L898.127 655.987L923.898 624.94ZM813.582 642.077L827.293 618.155L848.472 652.501L813.582 642.077ZM1136.05 624.164L1158.65 633.188L1135.79 667.308L1136.05 624.164ZM635.39 593.968L659.032 588.191L653.258 630.945L635.39 593.968ZM990.489 640.148L1006.5 618.325L1023.94 655.597L990.489 640.148ZM764.528 601.331L777.331 625.177L742.045 635.794L764.528 601.331ZM854.834 625.26L882.529 595.913L881.488 632.309L854.834 625.26ZM952.184 620.799L977.853 589.63L973.812 632.615L952.184 620.799ZM1047.25 608.419L1083.1 601.482L1058.22 633.556L1047.25 608.419ZM789.754 568.477L810.809 602.926L787.741 611.603L789.754 568.477ZM701.735 566.758L736.265 578.641L721.878 601.994L701.735 566.758ZM903.682 594.022L931.38 564.673L930.341 601.068L903.682 594.022ZM1091.4 576.506L1129.45 590.025L1116.98 611.286L1091.4 576.506ZM944.057 566.328L976.965 550.73L982.784 577.679L944.057 566.328Z" fill="#0A6F46"/>
<path d="M1334.12 705.404L1372.64 717.434L1339.47 732.454L1334.12 705.404ZM1472.84 731.208L1505.62 707.685L1497.66 743.219L1472.84 731.208ZM1633.48 707.254L1663.44 727.949L1643.01 746.466L1633.48 707.254ZM1679.69 729.634L1718.14 717.396L1699.58 748.725L1679.69 729.634ZM1293.2 682.803L1320.37 687.504L1295.34 719.152L1293.2 682.803ZM1227.35 704.458L1260.26 688.864L1266.07 715.814L1227.35 704.458ZM1596.59 703.36L1613.63 725.03L1573.86 731.801L1596.59 703.36ZM1388.31 710.705L1417.5 682.848L1414.56 719.136L1388.31 710.705ZM1527.01 687.361L1561.51 698.997L1546.98 722.422L1527.01 687.361ZM1440.47 683.478L1478.99 695.508L1445.82 710.523L1440.47 683.478ZM1336.64 679.258L1376.35 671.943L1376.18 696.587L1336.64 679.258ZM1649.26 689.386L1683.56 674.615L1683.23 703.255L1649.26 689.386ZM1262.99 645.077L1294.88 664.498L1259.31 673.482L1262.99 645.077ZM1506.7 649.218L1516.94 674.82L1480.93 680.265L1506.7 649.218ZM1396.39 666.354L1410.1 642.433L1431.28 676.779L1396.39 666.354ZM1170.19 619.954L1193.83 614.175L1188.06 656.931L1170.19 619.954ZM1718.86 648.442L1741.46 657.466L1718.6 691.583L1718.86 648.442ZM1573.29 664.426L1589.3 642.603L1606.75 679.871L1573.29 664.426ZM1347.33 625.609L1360.14 649.455L1324.85 660.072L1347.33 625.609ZM1217.22 630.055L1256.85 612.986L1234.35 647.346L1217.22 630.055ZM1437.64 649.537L1465.33 620.191L1464.29 656.586L1437.64 649.537ZM1534.99 645.076L1560.66 613.907L1556.62 656.891L1534.99 645.076ZM1630.05 632.696L1665.9 625.76L1641.03 657.834L1630.05 632.696ZM1372.56 592.754L1393.61 627.204L1370.55 635.881L1372.56 592.754ZM1284.54 591.036L1319.07 602.919L1304.68 626.272L1284.54 591.036ZM1143.24 588.532L1166.91 574.66L1168.16 615.227L1143.24 588.532ZM1413.31 587.185L1444.64 605.74L1425.55 625.637L1413.31 587.185ZM1247.81 578.437L1270.11 594.418L1233.56 612.052L1247.81 578.437ZM1486.49 618.301L1514.19 588.951L1513.15 625.346L1486.49 618.301ZM1719.92 616.489L1754.98 596.522L1743.35 631.023L1719.92 616.489ZM1648.73 587.533L1686.78 601.052L1674.31 622.313L1648.73 587.533ZM1823.25 614.098L1860.21 597.905L1845.03 631.003L1823.25 614.098ZM1541.74 597.493L1574.64 581.895L1580.46 608.845L1541.74 597.493ZM1612.04 563.294L1633.11 592.986L1607.58 603.398L1612.04 563.294ZM1441.31 580.674L1456.65 557.767L1475.38 593.506L1441.31 580.674ZM1781.79 572.326L1814.88 587.505L1797.98 609.283L1781.79 572.326Z" fill="#0A6F46"/>
<path d="M709.796 565.405H33.402V641H709.796V565.405Z" fill="#8A6550"/>
<path d="M743.152 544.284L709.797 439.784H33.403L0.052002 544.284H743.152Z" fill="#3F00C1"/>
<path d="M699.47 573.747C699.47 573.49 699.474 573.234 699.483 572.979H699.452C699.461 573.234 699.465 573.49 699.465 573.747C699.465 579.54 697.164 585.096 693.067 589.192C688.971 593.289 683.415 595.59 677.622 595.59C671.829 595.59 666.273 593.289 662.177 589.192C658.08 585.096 655.779 579.54 655.779 573.747C655.779 573.506 655.783 573.266 655.791 573.027H655.768C655.775 573.266 655.779 573.506 655.779 573.747C655.779 585.811 646.257 595.591 634.51 595.591C622.763 595.591 613.242 585.811 613.242 573.747C613.242 573.522 613.245 573.297 613.252 573.074H613.232C613.239 573.298 613.243 573.522 613.242 573.747C613.242 585.811 603.205 595.591 590.824 595.591C578.443 595.591 568.406 585.811 568.406 573.747C568.406 573.539 568.406 573.33 568.415 573.123H568.397C568.403 573.33 568.406 573.539 568.406 573.747C568.406 585.811 558.884 595.591 547.137 595.591C535.39 595.591 525.869 585.811 525.869 573.747C525.869 573.554 525.871 573.362 525.876 573.17H525.861C525.866 573.362 525.869 573.554 525.869 573.747C525.83 579.515 523.511 585.033 519.419 589.097C515.327 593.162 509.793 595.443 504.026 595.443C498.258 595.443 492.724 593.162 488.632 589.097C484.54 585.033 482.221 579.515 482.182 573.747C482.182 573.57 482.182 573.393 482.188 573.218H482.175C482.175 573.394 482.181 573.571 482.181 573.747C482.181 579.54 479.88 585.096 475.783 589.193C471.687 593.289 466.131 595.591 460.337 595.591C454.544 595.591 448.988 593.289 444.892 589.193C440.795 585.096 438.494 579.54 438.494 573.747C438.494 573.586 438.494 573.425 438.499 573.266H438.488C438.488 573.426 438.493 573.587 438.493 573.747C438.493 585.811 428.456 595.591 416.075 595.591C403.694 595.591 393.657 585.811 393.657 573.747C393.657 573.603 393.657 573.459 393.657 573.315H393.649C393.649 573.458 393.649 573.602 393.649 573.747C393.649 579.54 391.348 585.096 387.251 589.192C383.155 593.289 377.599 595.59 371.806 595.59C366.013 595.59 360.457 593.289 356.361 589.192C352.264 585.096 349.963 579.54 349.963 573.747C349.963 573.619 349.963 573.49 349.963 573.363H349.956C349.956 573.491 349.956 573.619 349.956 573.747C349.956 579.54 347.655 585.096 343.558 589.193C339.462 593.289 333.906 595.591 328.112 595.591C322.319 595.591 316.763 593.289 312.667 589.193C308.57 585.096 306.269 579.54 306.269 573.747C306.269 573.635 306.269 573.522 306.269 573.411H306.264C306.264 573.523 306.264 573.635 306.264 573.747C306.264 585.811 296.742 595.591 284.996 595.591C273.25 595.591 263.752 585.811 263.752 573.747C263.752 573.647 263.752 573.554 263.752 573.457C263.752 573.557 263.752 573.65 263.752 573.747C263.752 585.811 253.715 595.591 241.334 595.591C228.953 595.591 218.916 585.811 218.916 573.747C218.916 573.667 218.916 573.587 218.916 573.507C218.916 573.587 218.916 573.667 218.916 573.747C218.916 585.811 209.394 595.591 197.648 595.591C185.902 595.591 176.379 585.811 176.379 573.747C176.379 573.682 176.379 573.618 176.379 573.553C176.379 573.618 176.379 573.682 176.379 573.747C176.379 585.811 166.342 595.591 153.961 595.591C141.58 595.591 131.543 585.811 131.543 573.747C131.543 573.699 131.543 573.647 131.543 573.603C131.543 573.651 131.543 573.703 131.543 573.747C131.543 579.54 129.242 585.096 125.145 589.192C121.049 593.289 115.493 595.59 109.7 595.59C103.907 595.59 98.351 593.289 94.2547 589.192C90.1583 585.096 87.857 579.54 87.857 573.747C87.857 573.715 87.857 573.683 87.857 573.647C87.857 573.679 87.857 573.711 87.857 573.747C87.857 579.54 85.5556 585.096 81.4592 589.193C77.3627 593.289 71.8068 595.591 66.0135 595.591C60.2202 595.591 54.6643 593.289 50.5678 589.193C46.4714 585.096 44.17 579.54 44.17 573.747C44.17 573.731 44.17 573.715 44.17 573.699C44.17 573.715 44.17 573.731 44.17 573.747C44.17 576.616 43.605 579.456 42.5073 582.106C41.4096 584.756 39.8006 587.164 37.7723 589.192C35.744 591.221 33.3361 592.83 30.686 593.927C28.0358 595.025 25.1955 595.59 22.327 595.59C19.4585 595.59 16.6182 595.025 13.968 593.927C11.3179 592.83 8.90998 591.221 6.88167 589.192C4.85336 587.164 3.24441 584.756 2.1467 582.106C1.04899 579.456 0.484002 576.616 0.484002 573.747H0.052002V544.279H743.152V572.931H743.137C743.147 573.202 743.152 573.474 743.152 573.747C743.113 579.515 740.794 585.033 736.702 589.097C732.61 593.162 727.076 595.443 721.308 595.443C715.541 595.443 710.007 593.162 705.915 589.097C701.823 585.033 699.504 579.515 699.465 573.747H699.47Z" fill="#32009A"/>
<path d="M300.807 519.844C351.713 519.844 392.98 507.429 392.98 492.115C392.98 476.801 351.713 464.386 300.807 464.386C249.901 464.386 208.634 476.801 208.634 492.115C208.634 507.429 249.901 519.844 300.807 519.844Z" fill="#300091"/>
<path d="M189.71 380.814C189.327 380.71 189.001 380.46 188.803 380.116C188.605 379.773 188.55 379.365 188.652 378.982L190.717 371.275C190.821 370.892 191.072 370.566 191.415 370.368C191.758 370.17 192.166 370.116 192.549 370.217C192.932 370.321 193.258 370.571 193.456 370.915C193.654 371.258 193.708 371.666 193.607 372.049L191.542 379.757C191.456 380.075 191.269 380.355 191.008 380.556C190.747 380.756 190.427 380.865 190.098 380.866C189.967 380.866 189.836 380.848 189.71 380.814V380.814ZM339.21 346.249C339.049 345.886 339.039 345.475 339.182 345.104C339.324 344.734 339.607 344.435 339.969 344.273L347.258 341.028C347.621 340.867 348.032 340.857 348.402 340.999C348.773 341.141 349.072 341.424 349.234 341.786C349.395 342.149 349.405 342.56 349.263 342.931C349.121 343.301 348.838 343.6 348.476 343.762L341.187 347.007C340.996 347.093 340.789 347.137 340.579 347.137C340.29 347.136 340.008 347.052 339.766 346.894C339.523 346.737 339.332 346.513 339.214 346.249H339.21ZM192.757 315.709C192.454 315.453 192.264 315.088 192.23 314.693C192.196 314.298 192.319 313.905 192.573 313.601L197.701 307.489C197.957 307.186 198.322 306.996 198.717 306.962C199.112 306.927 199.505 307.051 199.809 307.305C200.112 307.561 200.302 307.926 200.336 308.321C200.371 308.716 200.248 309.109 199.994 309.413L194.865 315.525C194.725 315.692 194.549 315.827 194.351 315.919C194.153 316.012 193.937 316.059 193.719 316.059C193.368 316.059 193.029 315.935 192.761 315.709H192.757ZM292.273 313.997C292.094 313.643 292.062 313.233 292.185 312.856C292.307 312.479 292.574 312.166 292.927 311.985L300.036 308.362C300.39 308.183 300.8 308.151 301.177 308.273C301.555 308.396 301.868 308.663 302.049 309.016C302.228 309.37 302.26 309.78 302.137 310.157C302.015 310.534 301.748 310.847 301.395 311.028L294.286 314.651C294.076 314.758 293.844 314.814 293.608 314.814C293.332 314.813 293.063 314.737 292.828 314.592C292.593 314.448 292.402 314.242 292.277 313.997H292.273ZM334.921 311.097C334.562 310.929 334.284 310.625 334.149 310.252C334.013 309.88 334.031 309.469 334.197 309.109L337.569 301.878C337.738 301.52 338.041 301.242 338.413 301.107C338.786 300.971 339.196 300.989 339.556 301.155C339.915 301.323 340.192 301.627 340.328 301.999C340.463 302.372 340.446 302.782 340.28 303.142L336.908 310.373C336.787 310.631 336.596 310.85 336.355 311.003C336.115 311.156 335.836 311.238 335.551 311.238C335.335 311.238 335.121 311.192 334.925 311.101L334.921 311.097ZM227.739 273.675L223.664 265.675C223.485 265.321 223.453 264.911 223.576 264.534C223.698 264.157 223.965 263.844 224.318 263.663C224.671 263.484 225.082 263.452 225.459 263.574C225.836 263.697 226.149 263.963 226.33 264.316L230.405 272.316C230.584 272.67 230.616 273.08 230.493 273.457C230.371 273.834 230.104 274.147 229.751 274.328C229.541 274.435 229.309 274.491 229.073 274.491C228.797 274.491 228.527 274.415 228.291 274.271C228.056 274.127 227.865 273.921 227.739 273.675V273.675ZM258.199 260.854C257.872 260.631 257.646 260.287 257.571 259.898C257.496 259.51 257.578 259.107 257.799 258.778L263.934 249.678C264.157 249.351 264.501 249.125 264.89 249.05C265.278 248.975 265.681 249.057 266.01 249.278C266.338 249.501 266.563 249.845 266.638 250.234C266.713 250.623 266.631 251.026 266.41 251.355L260.275 260.455C260.138 260.658 259.953 260.824 259.736 260.939C259.52 261.054 259.279 261.114 259.034 261.114C258.736 261.114 258.445 261.024 258.199 260.857V260.854Z" fill="#1B684F"/>
<path d="M217.607 334.712C217.607 334.712 211.107 292.99 225.073 276.625C239.039 260.26 255.808 257.865 255.808 257.865C255.808 257.865 282.95 252.277 288.938 271.835C294.926 291.393 295.724 324.922 295.724 324.922V335.3C295.724 335.3 303.467 336.9 307.932 335.991C312.397 335.082 313.555 332.518 313.555 332.518C313.555 332.518 313.886 314.077 313.555 311.927C313.224 309.777 314.055 303.827 325.628 303.492C337.201 303.157 345.392 329.21 345.475 332.518C345.419 336.141 344.645 339.717 343.197 343.039C341.749 346.361 339.656 349.362 337.04 351.869C329.598 359.063 310.413 357.575 310.413 357.575V365.822L219.121 375.311C219.121 375.311 218.757 368.952 210.4 371.859C202.043 374.766 191.505 373.859 191.505 373.859C191.505 373.859 175.335 369.023 172.974 359.87C170.613 350.717 165.888 335.994 165.888 335.994C165.888 335.994 161.888 316.812 177.697 310.994C193.506 305.176 201.679 324.921 201.679 324.921C201.679 324.921 204.458 340.174 208.637 343.807C212.816 347.44 217.607 334.712 217.607 334.712Z" fill="#0DD24F"/>
<path d="M225.073 276.626C239.044 260.261 255.808 257.866 255.808 257.866C255.808 257.866 276.014 253.707 285.408 265.127C275.887 264.309 255.088 263.894 241.418 273.727C227.07 284.043 218.918 303.905 216.104 311.869C216.216 299.376 218.077 284.821 225.073 276.626Z" fill="#9EFF87"/>
<path d="M232.121 337.544C232.121 337.544 236.952 344.18 257.34 346.973C277.728 349.766 296.791 338.683 296.791 338.683L292.806 354.238L262.364 359.265L238.621 355.631L232.121 337.544Z" fill="#1B684E"/>
<path d="M221.632 423.367C221.632 423.367 225.5 437.001 226.789 457.625C227.541 471.221 227.541 484.848 226.789 498.444C226.789 498.444 227.219 504.889 260.948 503.815C294.677 502.741 288.875 489.422 288.875 489.422C288.875 489.422 288.268 483.674 281.498 479.797C274.728 475.92 273.192 476.14 273.192 476.14V451.61C276.514 452.387 279.97 452.387 283.292 451.61C286.941 450.725 290.5 449.505 293.925 447.967C293.925 447.967 295.325 461.277 295.538 470.515C295.71 477.896 296.938 490.715 296.938 490.715C296.938 490.715 312.633 494.51 326.006 492.415C339.379 490.32 352.366 486.905 351.506 476.135C350.646 465.365 340.189 462.235 331.672 460.587L325.858 396.779L221.632 423.367Z" fill="#A45441"/>
<path d="M301.743 362.055C301.295 361.383 301.566 343.276 301.691 336.14C303.769 336.366 305.868 336.316 307.933 335.991C309.374 335.732 310.74 335.157 311.933 334.307C312.831 339.172 314.787 343.78 317.661 347.807C319.862 350.994 322.265 354.037 324.855 356.916C320.078 357.647 315.236 357.867 310.412 357.571V361.171C307.752 361.645 305.068 361.974 302.372 362.157C302.011 362.159 301.791 362.123 301.743 362.055Z" fill="#1B684E"/>
<path d="M226.788 457.626C225.5 437.002 221.631 423.368 221.631 423.368L325.697 396.824L325.945 397.619L326.985 407.028C320.029 409.242 293.312 418.055 270.895 429.669C250.461 440.256 233.348 454.72 226.949 460.436C226.9 459.5 226.846 458.563 226.788 457.626Z" fill="#8B2B44"/>
<path d="M204.407 409.379C202.754 399.298 191.847 384.425 264.562 373.022C337.277 361.619 332.153 366.742 333.971 374.84C335.789 382.938 338.321 392.734 333.054 395.314C327.787 397.894 313.903 406.766 285.385 415.329C256.867 423.892 216.141 425.906 212.01 424.749C207.879 423.592 206.06 419.46 204.407 409.379Z" fill="#A45441"/>
<path d="M202.91 401.533C202.271 392.458 209.04 381.733 264.561 373.022C326.779 363.265 332.009 365.607 333.361 371.56C329.053 376.945 315.654 384.68 278.442 393.349C250.555 399.849 227.578 403.017 214.125 403.017C208.797 403.016 204.962 402.519 202.91 401.533Z" fill="#8B2B44"/>
<path d="M206.908 349.305C206.908 349.305 208.308 345.06 210.57 344.905C212.832 344.75 214.002 341.819 214.002 341.819C214.002 341.819 221.262 344.366 225.041 350.743C228.82 357.12 229.191 362.543 227.36 368.032C225.529 373.521 218.999 374.697 218.999 374.697C218.283 377.712 218.11 380.83 218.49 383.905C219.198 388.392 220.554 389.949 220.554 389.949L276.748 384.968L314.634 371.468C314.634 371.468 316.052 364.329 315.461 360.411C314.87 356.493 308.887 348.768 308.887 348.768L307.48 339.352C307.48 339.352 305.004 327.366 302.007 326.573C299.908 326.151 297.734 326.307 295.717 327.025V331.125C295.717 331.125 293.645 344.87 290.864 347.65C286.811 351.703 282.597 353.81 272.277 354.778C261.957 355.746 255.399 355.413 250.282 353.628C245.165 351.843 243.554 349.96 239.361 344.907C235.168 339.854 229.735 332.137 217.752 334.158C205.769 336.179 206.908 349.305 206.908 349.305Z" fill="#26509D"/>
<path d="M238.615 350.886L244.067 350.138C245.864 351.734 247.983 352.925 250.281 353.63C255.398 355.414 261.955 355.748 272.276 354.78C282.597 353.812 286.811 351.706 290.864 347.653C291.489 346.926 291.978 346.091 292.305 345.189L291.879 353.809C291.879 353.809 285.904 356.225 274.079 359.784C266.473 362.119 259.004 364.878 251.706 368.048L238.615 350.886Z" fill="#44A1D9"/>
<path d="M218.489 384.732C218.472 384.625 218.456 384.517 218.441 384.41C220.063 381.426 223.747 379.343 228.031 379.343C230.827 379.298 233.546 380.256 235.696 382.043C237.445 380.999 239.432 380.416 241.468 380.35C242.218 379.281 243.183 378.38 244.302 377.705C245.42 377.03 246.667 376.596 247.962 376.43C249.972 376.083 252.04 376.358 253.89 377.219C256.211 375.972 258.808 375.33 261.443 375.353C263.408 375.298 265.363 375.647 267.188 376.376C269.013 377.106 270.669 378.201 272.055 379.595C274.503 376.195 279.406 373.13 285.467 371.619C286.588 371.339 287.723 371.12 288.867 370.963C291 367.286 292.717 365.373 298.234 363.997C300.729 363.485 303.312 363.616 305.742 364.379C307.103 363.643 308.552 363.082 310.054 362.711C311.852 362.257 313.71 362.082 315.561 362.193C315.604 365.583 315.292 368.968 314.631 372.293L276.746 385.793L220.546 390.78C220.546 390.78 219.197 389.22 218.489 384.732Z" fill="#19197E"/>
<path d="M228.433 361.241L228.418 361.23C228.209 357.504 227.046 353.894 225.04 350.746C221.261 344.369 214 341.822 214 341.822C214 341.822 212.826 344.758 210.568 344.909C210.031 345.027 209.527 345.264 209.094 345.604C208.661 345.943 208.31 346.376 208.068 346.87L207.015 346.127C207.499 342.107 209.954 334.978 218.143 333.597C230.127 331.576 238.901 343.513 238.901 343.513L244.445 349.361C244.445 349.361 261.619 365.633 245.729 372.752C229.839 379.871 228.433 361.241 228.433 361.241Z" fill="#26509D"/>
<path d="M228.563 362.262C232.448 363.121 236.454 363.284 240.395 362.743C244.197 362.024 247.886 360.798 251.363 359.099C253.363 363.899 253.297 369.359 245.731 372.749C243.675 373.746 241.432 374.299 239.148 374.37C231.091 374.372 229.029 365.351 228.563 362.262Z" fill="#19197E"/>
<path d="M298.921 361.555C285.204 360.729 290.315 347.338 291.003 345.455C293.585 341.871 295.717 331.124 295.717 331.124V327.024C297.734 326.306 299.908 326.15 302.007 326.572C305.007 327.365 307.895 338.424 307.895 338.424L309.678 347.437C309.678 347.437 312.638 362.381 298.921 361.555Z" fill="#26509D"/>
<path d="M219.121 375.312C219.121 375.312 218.757 368.953 210.4 371.86C202.043 374.767 191.505 373.86 191.505 373.86C191.505 373.86 175.335 369.024 172.974 359.871C170.613 350.718 165.888 335.995 165.888 335.995C165.888 335.995 161.888 316.813 177.697 310.995C193.506 305.177 201.679 324.922 201.679 324.922C201.679 324.922 204.458 340.175 208.637 343.808C210.037 345.029 213.532 342.296 213.951 341.752L219.121 375.312Z" fill="#0DD24F"/>
<path d="M219.022 374.696C218.808 373.621 218.209 372.661 217.336 371.998C216.463 371.335 215.378 371.014 214.285 371.096C212.957 371.134 211.645 371.391 210.401 371.857C210.163 371.94 209.912 372.024 209.634 372.112L209.457 371.856C210.907 370.863 212.181 369.634 213.227 368.222C215.78 364.807 217.194 360.676 217.269 356.413C217.596 346.623 210.639 344.425 209.241 344.084C209.298 344.092 209.356 344.095 209.414 344.095C209.448 344.095 209.483 344.095 209.514 344.095C211.746 343.946 213.857 341.563 213.878 341.539H213.884C215.334 342.147 216.726 342.888 218.04 343.751C220.87 345.529 223.262 347.921 225.04 350.751C226.749 353.479 227.861 356.539 228.303 359.728C228.616 362.535 228.293 365.376 227.359 368.041C226.546 370.341 224.873 372.236 222.691 373.326C221.54 373.957 220.305 374.42 219.023 374.701L219.022 374.696Z" fill="#1B684E"/>
<path d="M331.583 315.304C324.659 311.774 316.139 316.887 313.703 318.529C313.703 315.343 313.67 312.671 313.556 311.929C313.225 309.779 314.056 303.829 325.629 303.494C337.202 303.159 343.822 318.71 343.822 318.71C343.822 318.71 345.393 329.21 345.475 332.52C345.489 333.309 345.454 334.098 345.369 334.883C344.01 331.574 338.783 318.973 331.583 315.304Z" fill="#9EFF87"/>
<path d="M172.989 359.919L172.975 359.866C170.613 350.713 165.89 335.99 165.89 335.99C165.89 335.99 161.89 316.808 177.699 310.99C193.508 305.172 201.68 324.917 201.68 324.917C201.68 324.917 202.121 327.338 202.916 330.48L202.873 330.931C202.873 330.931 195.885 317.231 184.425 320.731C172.965 324.231 173.664 361.26 173.664 361.26L172.989 359.919Z" fill="#9EFF87"/>
<path d="M189.559 360.313C189.213 360.12 188.957 359.797 188.848 359.416C188.738 359.035 188.784 358.626 188.976 358.279L193.812 349.556C194.005 349.21 194.327 348.954 194.709 348.845C195.09 348.736 195.499 348.782 195.846 348.973C196.192 349.166 196.448 349.489 196.557 349.87C196.666 350.251 196.619 350.66 196.428 351.007L191.592 359.73C191.462 359.964 191.272 360.158 191.042 360.294C190.811 360.429 190.549 360.501 190.282 360.501C190.029 360.501 189.78 360.436 189.559 360.313V360.313ZM165.624 358.12C165.544 357.941 165.5 357.747 165.494 357.551C165.489 357.354 165.523 357.159 165.593 356.975C165.663 356.792 165.769 356.624 165.905 356.482C166.04 356.339 166.202 356.225 166.382 356.145L174.582 352.494C174.761 352.414 174.955 352.37 175.151 352.365C175.348 352.359 175.543 352.393 175.727 352.463C175.91 352.534 176.078 352.64 176.22 352.775C176.363 352.91 176.477 353.072 176.557 353.252C176.718 353.615 176.728 354.026 176.586 354.396C176.444 354.767 176.162 355.066 175.8 355.228L167.6 358.879C167.409 358.964 167.202 359.009 166.993 359.009C166.703 359.009 166.42 358.925 166.177 358.767C165.934 358.609 165.742 358.385 165.624 358.12V358.12ZM284.744 339.203C284.412 338.986 284.18 338.647 284.097 338.259C284.015 337.872 284.089 337.467 284.304 337.134L288.854 330.128C289.071 329.796 289.41 329.564 289.798 329.481C290.185 329.399 290.59 329.473 290.923 329.688C291.255 329.905 291.487 330.244 291.57 330.632C291.652 331.019 291.578 331.424 291.363 331.757L286.814 338.763C286.678 338.972 286.491 339.144 286.272 339.263C286.052 339.382 285.807 339.444 285.557 339.444C285.268 339.444 284.986 339.36 284.744 339.203V339.203ZM329.369 337.346C329.202 336.986 329.185 336.575 329.321 336.203C329.456 335.83 329.734 335.526 330.093 335.358L337.146 332.069C337.506 331.902 337.917 331.885 338.29 332.02C338.663 332.156 338.966 332.434 339.135 332.793C339.301 333.153 339.319 333.564 339.183 333.936C339.047 334.309 338.77 334.613 338.411 334.781L331.357 338.07C331.159 338.162 330.944 338.21 330.726 338.21C330.441 338.21 330.162 338.129 329.921 337.976C329.681 337.823 329.489 337.604 329.368 337.346H329.369ZM166.937 335.395L159.859 329.874C159.547 329.629 159.345 329.271 159.297 328.877C159.249 328.484 159.358 328.087 159.602 327.774C159.847 327.462 160.205 327.26 160.599 327.212C160.992 327.163 161.389 327.273 161.702 327.516L168.775 333.043C169.087 333.288 169.289 333.646 169.338 334.04C169.386 334.433 169.277 334.83 169.034 335.143C168.894 335.322 168.714 335.467 168.51 335.566C168.306 335.666 168.081 335.718 167.854 335.718C167.521 335.716 167.197 335.603 166.936 335.396L166.937 335.395ZM189.697 333.659L189.571 326.467C189.565 326.071 189.716 325.688 189.992 325.403C190.267 325.117 190.644 324.953 191.041 324.945C191.437 324.939 191.819 325.091 192.104 325.366C192.389 325.641 192.554 326.018 192.562 326.414L192.688 333.607C192.694 334.003 192.542 334.385 192.267 334.67C191.992 334.955 191.615 335.12 191.219 335.128H191.192C190.8 335.127 190.425 334.973 190.145 334.699C189.865 334.424 189.704 334.052 189.696 333.66L189.697 333.659ZM238.053 332.349L234 328.825C233.702 328.564 233.518 328.196 233.491 327.801C233.463 327.405 233.593 327.015 233.852 326.715C234.113 326.416 234.481 326.233 234.877 326.206C235.273 326.178 235.663 326.309 235.963 326.568L240.016 330.091C240.315 330.352 240.498 330.72 240.526 331.116C240.553 331.512 240.423 331.902 240.164 332.202C240.023 332.363 239.849 332.493 239.655 332.581C239.46 332.67 239.248 332.716 239.034 332.716C238.673 332.717 238.324 332.587 238.052 332.35L238.053 332.349ZM340.574 323.363C340.353 323.034 340.271 322.631 340.345 322.242C340.42 321.853 340.646 321.509 340.974 321.286L347.426 316.934C347.755 316.713 348.158 316.631 348.547 316.706C348.936 316.781 349.28 317.006 349.503 317.334C349.724 317.663 349.806 318.066 349.731 318.455C349.656 318.844 349.43 319.188 349.103 319.411L342.651 323.763C342.405 323.93 342.114 324.019 341.817 324.019C341.572 324.02 341.33 323.961 341.113 323.847C340.896 323.733 340.711 323.567 340.573 323.364L340.574 323.363ZM313.774 323.311L309.213 319.748C308.901 319.503 308.699 319.145 308.651 318.751C308.602 318.358 308.712 317.961 308.955 317.648C309.2 317.336 309.558 317.134 309.952 317.086C310.345 317.037 310.742 317.147 311.055 317.39L315.616 320.954C315.928 321.199 316.13 321.557 316.178 321.951C316.227 322.344 316.117 322.741 315.874 323.054C315.734 323.233 315.555 323.378 315.35 323.477C315.146 323.577 314.921 323.629 314.694 323.629C314.361 323.629 314.038 323.517 313.776 323.312L313.774 323.311ZM222.21 322.011L212.851 321.848C212.455 321.84 212.078 321.675 211.803 321.39C211.528 321.105 211.376 320.723 211.382 320.327C211.39 319.931 211.554 319.554 211.839 319.278C212.124 319.003 212.507 318.851 212.903 318.857L222.263 319.02C222.659 319.028 223.036 319.193 223.311 319.478C223.587 319.763 223.738 320.146 223.732 320.542C223.724 320.935 223.562 321.308 223.282 321.583C223.002 321.858 222.625 322.012 222.232 322.012L222.21 322.011ZM326.891 319.496C326.495 319.467 326.126 319.283 325.866 318.983C325.606 318.683 325.475 318.292 325.503 317.896L326.045 310.132C326.074 309.736 326.258 309.368 326.558 309.107C326.858 308.847 327.249 308.717 327.645 308.744C328.041 308.772 328.41 308.957 328.67 309.257C328.931 309.557 329.061 309.948 329.034 310.344L328.491 318.108C328.463 318.485 328.294 318.838 328.018 319.096C327.741 319.354 327.377 319.498 326.999 319.499C326.964 319.502 326.929 319.501 326.894 319.498L326.891 319.496ZM175.881 314.271L170.921 306.333C170.712 305.996 170.644 305.59 170.734 305.204C170.823 304.817 171.062 304.482 171.398 304.271C171.735 304.062 172.14 303.995 172.527 304.084C172.913 304.173 173.248 304.411 173.459 304.747L178.419 312.686C178.628 313.023 178.695 313.429 178.606 313.815C178.517 314.201 178.278 314.536 177.943 314.747C177.706 314.896 177.431 314.975 177.151 314.975C176.897 314.975 176.648 314.911 176.426 314.789C176.204 314.666 176.017 314.489 175.883 314.274L175.881 314.271ZM315.236 310.085L312.719 305.351C312.534 305.001 312.495 304.591 312.611 304.212C312.726 303.833 312.988 303.515 313.337 303.328C313.687 303.143 314.097 303.104 314.476 303.22C314.855 303.336 315.173 303.597 315.36 303.946L317.877 308.68C318.062 309.03 318.101 309.44 317.985 309.819C317.869 310.198 317.608 310.516 317.259 310.703C317.043 310.818 316.803 310.878 316.559 310.878C316.288 310.878 316.022 310.804 315.79 310.665C315.558 310.526 315.367 310.327 315.239 310.088L315.236 310.085ZM217.4 298.12L208.661 294.766C208.291 294.623 207.993 294.339 207.832 293.977C207.67 293.615 207.659 293.204 207.8 292.833C207.943 292.463 208.227 292.165 208.589 292.004C208.951 291.843 209.362 291.832 209.733 291.973L218.471 295.327C218.841 295.47 219.139 295.754 219.3 296.116C219.462 296.478 219.473 296.889 219.332 297.26C219.223 297.543 219.031 297.786 218.781 297.957C218.531 298.128 218.235 298.22 217.932 298.22C217.751 298.22 217.572 298.187 217.403 298.123L217.4 298.12ZM290.727 294.642C290.529 294.298 290.476 293.89 290.579 293.507C290.681 293.124 290.931 292.797 291.274 292.598L299.374 287.922C299.718 287.725 300.126 287.672 300.508 287.775C300.891 287.877 301.218 288.127 301.417 288.47C301.614 288.814 301.668 289.222 301.565 289.605C301.462 289.988 301.212 290.315 300.869 290.514L292.769 295.19C292.542 295.321 292.284 295.39 292.022 295.39C291.76 295.389 291.503 295.32 291.277 295.189C291.05 295.059 290.862 294.871 290.73 294.645L290.727 294.642ZM244.017 278.557C243.625 278.494 243.275 278.278 243.042 277.957C242.809 277.637 242.713 277.237 242.774 276.845L244.388 266.656C244.451 266.265 244.667 265.914 244.987 265.681C245.308 265.448 245.708 265.352 246.1 265.413C246.491 265.476 246.842 265.692 247.075 266.013C247.308 266.333 247.404 266.733 247.343 267.125L245.729 277.314C245.672 277.664 245.493 277.982 245.224 278.213C244.955 278.444 244.613 278.572 244.259 278.574C244.179 278.576 244.099 278.571 244.02 278.56L244.017 278.557ZM272.902 274.443L270.739 266.374C270.637 265.991 270.692 265.583 270.89 265.24C271.088 264.896 271.414 264.646 271.797 264.542C272.18 264.44 272.588 264.495 272.931 264.693C273.274 264.891 273.525 265.217 273.629 265.599L275.791 273.668C275.892 274.051 275.838 274.459 275.64 274.802C275.442 275.146 275.116 275.396 274.733 275.5C274.606 275.534 274.475 275.552 274.344 275.552C274.016 275.55 273.698 275.441 273.438 275.241C273.178 275.042 272.991 274.762 272.905 274.446L272.902 274.443ZM286.891 271.931C286.637 271.627 286.513 271.234 286.548 270.839C286.582 270.444 286.772 270.079 287.075 269.823L292.686 265.115C292.99 264.861 293.383 264.738 293.778 264.773C294.172 264.808 294.537 264.997 294.793 265.3C295.047 265.604 295.17 265.997 295.136 266.392C295.101 266.787 294.911 267.152 294.608 267.408L288.998 272.116C288.729 272.342 288.389 272.466 288.038 272.466C287.82 272.466 287.605 272.418 287.407 272.327C287.21 272.235 287.035 272.101 286.894 271.935L286.891 271.931Z" fill="#1B684F"/>
<path d="M218.489 383.909C218.11 380.834 218.283 377.716 218.999 374.701C220.747 374.323 222.403 373.604 223.872 372.585C223.933 374.217 224.645 376.824 228.192 378.472C233.668 381.014 242.303 380.505 242.303 380.505L219.183 386.986C218.88 385.978 218.648 384.95 218.489 383.909V383.909ZM309.962 361.185C314.312 356.998 311.528 352.848 311.528 352.848L311.76 352.828C313.385 355.303 315.154 358.373 315.46 360.413C315.671 362.488 315.638 364.581 315.36 366.648L297.284 367.703C297.284 367.703 305.612 365.372 309.962 361.185Z" fill="#19197E"/>
<path d="M298.921 361.555C290.294 361.036 289.114 355.547 289.598 351.077C292.804 352.576 296.24 353.526 299.761 353.887C303.172 354.024 306.582 353.585 309.847 352.587C309.417 356.632 307.382 361.587 299.993 361.587C299.647 361.588 299.291 361.577 298.921 361.555Z" fill="#19197E"/>
<path d="M243.227 320.355C243.487 323.161 248.553 329.397 256.16 330.547C263.768 331.698 270.998 331.579 278.407 328.513C281 327.43 283.22 325.614 284.795 323.287C286.37 320.96 287.232 318.224 287.274 315.414C287.135 312.759 287.172 307.229 280.646 305.726C274.119 304.222 273.688 309.328 266.092 310.268C258.497 311.208 255.555 306.815 248.833 308.993C242.111 311.171 242.968 317.55 243.227 320.355Z" fill="#130037"/>
<path d="M228.031 382.819C233.815 382.819 238.503 386.619 238.503 391.297C238.503 395.975 233.814 399.775 228.031 399.775C222.248 399.775 217.559 395.979 217.559 391.297C217.559 386.615 222.248 382.819 228.031 382.819Z" fill="#B48451"/>
<path d="M223.044 389.8C228.828 389.8 233.516 393.6 233.516 398.278C233.516 402.956 228.827 406.756 223.044 406.756C217.261 406.756 212.572 402.96 212.572 398.278C212.572 393.596 217.261 389.8 223.044 389.8Z" fill="#B48451"/>
<path d="M241.994 383.816C247.778 383.816 252.466 387.616 252.466 392.294C252.466 396.972 247.777 400.772 241.994 400.772C236.211 400.772 231.522 396.976 231.522 392.294C231.522 387.612 236.211 383.816 241.994 383.816Z" fill="#DABA5F"/>
<path d="M261.444 378.829C268.605 378.829 274.41 383.294 274.41 388.803C274.41 394.312 268.61 398.777 261.444 398.777C254.278 398.777 248.478 394.311 248.478 388.803C248.478 383.295 254.278 378.829 261.444 378.829Z" fill="#DABA5F"/>
<path d="M285.469 375.096C295.051 372.706 303.901 375.102 305.234 380.447C306.566 385.793 299.878 392.062 290.295 394.451C280.711 396.841 271.862 394.444 270.53 389.1C269.197 383.755 275.885 377.485 285.469 375.096Z" fill="#DABA5F"/>
<path d="M310.057 366.188C317.385 364.361 324.406 367.212 325.739 372.557C327.071 377.903 322.21 383.716 314.883 385.543C307.555 387.37 300.533 384.518 299.201 379.174C297.868 373.829 302.729 368.015 310.057 366.188Z" fill="#DABA5F"/>
<path d="M247.963 379.907C252.587 379.174 256.79 381.445 257.35 384.984C257.911 388.523 254.611 391.981 249.991 392.713C245.371 393.445 241.163 391.172 240.603 387.636C240.043 384.1 243.342 380.639 247.963 379.907Z" fill="#B48451"/>
<path d="M298.238 367.473C305.148 365.75 313.811 371.489 313.811 371.489C313.811 371.489 323.88 381.952 316.97 383.675C312.001 384.913 288.061 393.07 285.151 390.745C284.337 390.105 283.835 383.399 287.107 377.581C290.378 371.763 291.327 369.196 298.238 367.473Z" fill="#B48451"/>
<path d="M240.997 356.887C242.279 356.887 243.533 357.267 244.599 357.98C245.665 358.692 246.496 359.704 246.987 360.889C247.477 362.074 247.606 363.377 247.355 364.635C247.105 365.892 246.488 367.048 245.581 367.954C244.675 368.861 243.519 369.478 242.262 369.728C241.004 369.979 239.701 369.85 238.516 369.36C237.331 368.869 236.319 368.038 235.607 366.972C234.894 365.906 234.514 364.652 234.514 363.37C234.514 361.651 235.197 360.002 236.413 358.786C237.629 357.57 239.278 356.887 240.997 356.887V356.887Z" fill="#DABA5F"/>
<path d="M299.343 345.916C300.527 345.916 301.683 346.267 302.668 346.925C303.652 347.582 304.419 348.517 304.872 349.61C305.324 350.703 305.443 351.907 305.212 353.067C304.981 354.228 304.411 355.294 303.574 356.131C302.737 356.968 301.671 357.538 300.51 357.769C299.35 358 298.146 357.881 297.053 357.429C295.96 356.976 295.025 356.209 294.367 355.225C293.71 354.24 293.359 353.084 293.359 351.9C293.359 350.313 293.989 348.791 295.112 347.669C296.234 346.546 297.756 345.916 299.343 345.916V345.916Z" fill="#DABA5F"/>
<path d="M226.789 498.445C226.789 498.445 227.065 494.125 227.234 487.445C229.112 490.19 231.455 492.586 234.157 494.525C238.619 497.5 243.897 498.19 255.238 498.769C265.65 499.3 279.849 497.229 289.011 493.434C287.911 497.45 282.495 503.134 260.948 503.819C258.354 503.902 255.959 503.94 253.748 503.94C227.157 503.937 226.789 498.445 226.789 498.445Z" fill="#8B2B44"/>
<path d="M244.065 480.639C244.065 480.639 256.436 470.495 273.193 471.054C273.209 471.092 273.193 476.172 273.193 476.172C273.193 476.172 265.374 475.188 259.048 477.297C249.831 480.37 245.103 484.588 245.103 484.588L244.065 480.639Z" fill="#8E2F43"/>
<path d="M296.936 490.719C296.936 490.719 296.508 486.242 296.123 481.055C298.291 482.93 307.823 490.155 323.577 487.712C333.2 486.272 342.556 483.416 351.343 479.238C349.686 487.599 338.001 490.538 326.003 492.42C323.084 492.856 320.136 493.067 317.184 493.05C310.372 492.984 303.585 492.203 296.936 490.719V490.719Z" fill="#8B2B44"/>
<path d="M307.187 464.299C311.384 461.483 315.837 459.069 320.487 457.089C323.909 455.783 327.601 455.344 331.234 455.812L331.67 460.593H331.688C327.411 460.114 323.08 460.579 319.002 461.954C314.908 463.605 310.958 465.592 307.192 467.896L307.187 464.299Z" fill="#8B2B44"/>
<path d="M293.923 447.995H293.914V447.972L302.594 443.935C302.594 443.935 300.364 445.772 298.468 452.026C297.168 456.802 296.139 461.647 295.387 466.539C294.963 457.895 293.923 447.995 293.923 447.995Z" fill="#8B2B44"/>
<path d="M317.835 436.157C317.835 436.157 320.426 443.121 320.597 443.806C320.768 444.491 321.419 444.765 322.24 444.285C323.642 443.019 324.954 441.656 326.166 440.207L324.257 435.867L317.835 436.157Z" fill="#8B2B44"/>
<path d="M241.332 456.752C244.307 457.33 246.121 460.867 245.385 464.652C244.649 468.438 241.642 471.037 238.668 470.459C235.693 469.881 233.879 466.343 234.615 462.559C235.35 458.775 238.358 456.174 241.332 456.752Z" fill="#DABA5F"/>
<path d="M238.673 470.459C238.307 470.388 237.951 470.27 237.614 470.109C237.161 468.855 237.058 467.501 237.316 466.193C237.594 464.428 238.561 462.846 240.005 461.793C241.448 460.74 243.25 460.303 245.016 460.577C245.083 460.59 245.146 460.603 245.206 460.617C245.596 461.926 245.658 463.311 245.388 464.65C244.721 468.08 242.188 470.537 239.506 470.537C239.227 470.538 238.948 470.512 238.673 470.459Z" fill="#B48451"/>
<path d="M325.267 433.104C325.267 433.104 326.867 433.67 326.495 434.468C326.533 437.201 326.241 440.223 326.241 440.223C326.123 440.603 325.863 440.923 325.514 441.114C325.165 441.305 324.755 441.352 324.372 441.247C322.955 440.869 322.133 438.834 321.338 437.976C320.543 437.119 322.021 438.212 321.194 437.816C320.366 437.42 318.028 436.392 318.028 436.392C317.392 435.823 318.564 434.659 318.564 434.659L325.267 433.104Z" fill="#DABA5F"/>
<path d="M244.418 473.07H244.403C244.247 473.07 240.555 473.058 238.703 472.037C237.179 471.198 235.903 468.947 235.422 468.017C235.756 468.634 236.22 469.171 236.78 469.593C237.341 470.014 237.987 470.31 238.672 470.459C238.947 470.512 239.227 470.54 239.507 470.54C242.207 470.54 244.737 468.008 245.389 464.652C245.444 464.37 245.489 464.082 245.513 463.798L244.413 473.071L244.418 473.07Z" fill="#8E2F43"/>
<path d="M236.322 301.908C235.757 303.74 237.948 304.733 239.146 303.193C240.344 301.653 242.346 295.874 247.163 294.893C251.98 293.912 253.32 296.478 255.288 298.098C257.256 299.718 258.297 297.404 257.776 296.536C257.255 295.668 254.9 290.826 250.086 290.75C245.272 290.674 242.499 292.139 239.791 295.15C238.024 297.033 236.822 299.375 236.322 301.908Z" fill="#130037"/>
<path d="M290.57 295.977C291.445 297.683 289.46 299.042 288.012 297.734C286.564 296.425 283.586 291.081 278.671 290.953C273.755 290.825 272.882 293.589 271.226 295.527C269.569 297.465 268.142 295.366 268.503 294.42C268.864 293.475 270.342 288.295 275.071 287.381C279.799 286.466 282.786 287.431 285.977 289.923C288.045 291.471 289.637 293.568 290.57 295.977V295.977Z" fill="#130037"/>
<path d="M482.936 409.54C485.534 411.498 487.249 414.408 487.702 417.63C488.155 420.853 487.309 424.123 485.351 426.721L477.005 437.797C475.047 440.396 472.137 442.11 468.915 442.563C465.693 443.016 462.423 442.171 459.824 440.213C454.413 436.135 454.485 429.401 456.778 422.838C459.071 416.275 468.155 402.423 468.155 402.423C468.155 402.423 481.248 408.268 482.936 409.54Z" fill="#AA4F62"/>
<path d="M608.395 432.365C608.395 432.365 596.348 437.54 587.58 439.786C578.812 442.032 566.597 440.521 566.597 440.521C567.669 438.046 568.44 435.451 568.895 432.792C569.455 429.213 569.799 425.605 569.928 421.985C569.975 421.637 576.703 416.989 582.152 411.112C585.571 407.387 588.718 403.42 591.567 399.242C591.567 399.242 590.798 412.715 594.656 418.86C598.514 425.006 608.395 432.365 608.395 432.365Z" fill="#AA4F62"/>
<path d="M431.86 413.586L433.228 415.488C433.228 415.488 442.874 419.712 444.626 420.356C445.039 420.561 445.493 420.672 445.954 420.68C446.416 420.688 446.873 420.593 447.293 420.401L463.591 409.821L455.817 395.412L431.86 413.586Z" fill="#AA4F62"/>
<path d="M524.458 303.625L535.085 304.553C543.738 305.309 552.157 307.762 559.863 311.771C567.568 315.781 574.407 321.269 579.992 327.922C585.576 334.575 589.795 342.263 592.408 350.546C595.021 358.83 595.977 367.547 595.221 376.2L594.386 385.762C593.63 394.415 591.177 402.834 587.167 410.539C583.158 418.244 577.67 425.084 571.017 430.668C564.364 436.252 556.676 440.471 548.392 443.084C540.109 445.697 531.392 446.653 522.739 445.898L512.111 444.969C494.636 443.443 478.484 435.037 467.206 421.601C455.928 408.166 450.45 390.8 451.975 373.325L452.811 363.764C453.566 355.11 456.019 346.691 460.028 338.985C464.038 331.28 469.526 324.44 476.179 318.855C482.832 313.271 490.52 309.051 498.803 306.438C507.087 303.825 515.805 302.869 524.458 303.625V303.625Z" fill="#F27187"/>
<path d="M595.234 376.202L594.399 385.764C593.65 394.42 591.202 402.843 587.195 410.552C583.188 418.261 577.7 425.104 571.045 430.689C564.39 436.275 556.7 440.494 548.413 443.104C540.126 445.714 531.406 446.665 522.751 445.902L512.124 444.973C498.267 443.758 485.145 438.208 474.62 429.112C464.096 420.017 456.704 407.837 453.494 394.302C459.419 409.12 470.167 421.509 484.002 429.465C497.836 437.422 513.949 440.482 529.737 438.152C545.525 435.821 560.067 428.236 571.012 416.622C581.958 405.007 588.668 390.042 590.059 374.144L590.152 373.081C591.799 354.683 586.167 336.373 574.466 322.082C581.679 328.819 587.3 337.08 590.92 346.263C592.754 350.925 594.05 355.782 594.782 360.738C595.534 365.857 595.686 371.047 595.234 376.202V376.202Z" fill="#C45C6F"/>
<path d="M451.976 373.327L452.375 368.753L482.328 386.207C482.656 386.398 482.927 386.673 483.113 387.003C483.299 387.334 483.394 387.708 483.388 388.088C483.381 388.467 483.274 388.838 483.076 389.162C482.879 389.486 482.599 389.751 482.264 389.931L456.499 403.785C452.607 394.132 451.057 383.694 451.976 373.327V373.327Z" fill="#BB586A"/>
<path d="M433.927 415.626C433.373 415.614 432.845 415.39 432.451 415.001C432.247 414.799 432.087 414.557 431.979 414.291C431.872 414.025 431.82 413.739 431.827 413.452L432.725 360.975C432.735 360.409 432.97 359.869 433.377 359.475C433.785 359.081 434.332 358.865 434.899 358.875C435.263 358.881 435.62 358.982 435.934 359.167L452.385 368.752L451.987 373.326C451.052 383.694 452.602 394.136 456.51 403.785L434.973 415.368C434.652 415.543 434.292 415.632 433.927 415.626V415.626Z" fill="#F27187"/>
<path d="M567.84 450.132C556.956 452.054 552.448 445.334 551.044 436.181C549.641 427.028 546.358 416.498 560.421 414.014C574.483 411.53 577.66 424.593 578.485 430.242C579.31 435.89 578.723 448.209 567.84 450.132Z" fill="#F27187"/>
<path d="M491.187 391.271C498.158 392.308 505.185 392.922 512.23 393.11C519.318 393.17 526.404 392.806 533.448 392.021C533.448 392.021 534.908 414.847 511.243 414.145C487.578 413.443 491.187 391.271 491.187 391.271Z" fill="#4A0920"/>
<path d="M485.466 339.492L486.529 339.585C488.343 339.743 490.109 340.257 491.724 341.098C493.34 341.939 494.774 343.089 495.945 344.484C497.116 345.879 498.001 347.491 498.549 349.228C499.097 350.965 499.297 352.793 499.139 354.607L498.767 358.858C498.609 360.672 498.095 362.438 497.254 364.054C496.413 365.669 495.263 367.104 493.867 368.275C492.472 369.446 490.86 370.33 489.123 370.878C487.386 371.426 485.558 371.626 483.744 371.468L482.681 371.375C480.867 371.216 479.102 370.702 477.486 369.861C475.87 369.02 474.436 367.87 473.265 366.475C472.095 365.08 471.21 363.468 470.662 361.731C470.114 359.994 469.914 358.166 470.073 356.352L470.444 352.101C470.764 348.437 472.526 345.05 475.344 342.685C478.161 340.32 481.802 339.172 485.466 339.492V339.492Z" fill="#4A0920"/>
<path d="M537.429 348.74L538.491 348.832C540.306 348.991 542.071 349.505 543.687 350.346C545.302 351.186 546.737 352.337 547.908 353.732C549.079 355.127 549.963 356.739 550.511 358.476C551.059 360.213 551.26 362.04 551.101 363.855L550.73 368.106C550.571 369.92 550.057 371.686 549.217 373.301C548.376 374.917 547.225 376.351 545.83 377.522C544.435 378.693 542.823 379.578 541.086 380.126C539.349 380.674 537.521 380.874 535.706 380.715L534.644 380.623C532.829 380.464 531.064 379.95 529.448 379.109C527.833 378.268 526.399 377.117 525.228 375.722C524.057 374.327 523.172 372.715 522.625 370.978C522.077 369.241 521.876 367.414 522.035 365.599L522.406 361.348C522.726 357.684 524.489 354.297 527.306 351.933C530.123 349.568 533.765 348.42 537.429 348.74V348.74Z" fill="#4A0920"/>
<path d="M564.294 450.455C561.521 450.547 558.804 449.662 556.616 447.956C554.61 446.222 553.123 443.968 552.318 441.442C554.455 443.916 557.662 445.17 561.851 445.17C566.243 445.17 569.622 443 571.893 438.719C573.513 435.429 574.408 431.83 574.519 428.164C574.733 424.408 574.126 420.65 572.739 417.152C576.416 420.683 577.885 426.222 578.472 430.246C579.016 434.048 578.696 437.923 577.537 441.585C576.867 443.63 575.721 445.488 574.195 447.005C572.435 448.665 570.215 449.753 567.825 450.127C566.66 450.338 565.478 450.448 564.294 450.455V450.455Z" fill="#C45C6F"/>
<path d="M541.462 503.936C566.738 503.936 587.229 497.767 587.229 490.157C587.229 482.547 566.738 476.378 541.462 476.378C516.186 476.378 495.695 482.547 495.695 490.157C495.695 497.767 516.186 503.936 541.462 503.936Z" fill="#300091"/>
<path d="M363.377 238.83L398.929 227.43L399.638 247.73L363.377 238.83ZM374.516 197.915L389.607 211.503L358.021 231.409L374.516 197.915Z" fill="#FF905E"/>
</g>
<defs>
<linearGradient id="paint0_linear" x1="291.984" y1="138.762" x2="291.984" y2="237.406" gradientUnits="userSpaceOnUse">
<stop stop-color="#BEBEBE"/>
<stop offset="1" stop-color="#5F5F5F"/>
</linearGradient>
<linearGradient id="paint1_linear" x1="1229.55" y1="492.35" x2="1192.07" y2="847.477" gradientUnits="userSpaceOnUse">
<stop stop-color="#22AE76"/>
<stop offset="1" stop-color="#005432"/>
</linearGradient>
<clipPath id="clip0">
<rect width="2267" height="634" fill="white"/>
</clipPath>
</defs>
</svg>
