<svg xmlns="http://www.w3.org/2000/svg" xmlns:xlink="http://www.w3.org/1999/xlink" width="612.139" height="384.211" viewBox="0 0 612.139 384.211">
  <defs>
    <filter id="Path_1574" x="117.997" y="17.933" width="91.194" height="92.092" filterUnits="userSpaceOnUse">
      <feOffset dx="-9" dy="-3" input="SourceAlpha"/>
      <feGaussianBlur result="blur"/>
      <feFlood flood-opacity="0.302"/>
      <feComposite operator="in" in2="blur"/>
      <feComposite in="SourceGraphic"/>
    </filter>
    <filter id="Path_1574-2" x="80.171" y="45.01" width="80.682" height="84.174" filterUnits="userSpaceOnUse">
      <feOffset dx="7" dy="-2" input="SourceAlpha"/>
      <feGaussianBlur result="blur-2"/>
      <feFlood flood-opacity="0.302"/>
      <feComposite operator="in" in2="blur-2"/>
      <feComposite in="SourceGraphic"/>
    </filter>
    <filter id="Path_1586" x="459.727" y="79.198" width="47.151" height="46.243" filterUnits="userSpaceOnUse">
      <feOffset dx="7" dy="-4" input="SourceAlpha"/>
      <feGaussianBlur stdDeviation="0.5" result="blur-3"/>
      <feFlood flood-opacity="0.302"/>
      <feComposite operator="in" in2="blur-3"/>
      <feComposite in="SourceGraphic"/>
    </filter>
  </defs>
  <g id="role-pickers" transform="translate(-5573.126 4888.211)">
    <g id="CRBT" transform="translate(5544.524 -4680.393) rotate(-30)">
      <path id="Tail" d="M49.02,47.832s5.434-22.445-3.561-37.717a101.073,101.073,0,0,0-20.378-24.6L20.219,3.352c-.3.246-9.692,19.726-9.692,19.726s13.362,3.064,21.5,7.823S49.02,47.832,49.02,47.832Z" transform="matrix(-0.259, 0.966, -0.966, -0.259, 77.014, 127.594)" fill="#aa4f62"/>
      <path id="Arm" d="M65.517,36.3c-7.771-13.46-21.6-10.788-35.868-2.208S-2.658,50.816,7.384,68.21c3.325,5.758,9.754,8.574,16.417,5.875,5.305-2.144,10.7-9.4,16.9-12.966,13-7.467,19.981-4.71,23.2-6.669C72.67,49.111,73.288,49.763,65.517,36.3Z" transform="translate(229.943 69.637) rotate(159)" fill="#aa4f62"/>
      <path id="Path_1573" data-name="Path 1573" d="M8.154-4.707s.726,18.429.784,19.575a3.386,3.386,0,0,0,1.806,2.656c1.087.743,16.946,10.371,16.946,10.371L37.738,10.651Z" transform="translate(11.433 140.72) rotate(-60)" fill="#aa4f62"/>
      <path id="Body" d="M72.642,0H84.359A72.642,72.642,0,0,1,157,72.642V83.187a72.642,72.642,0,0,1-72.642,72.642H72.642A72.642,72.642,0,0,1,0,83.187V72.642A72.642,72.642,0,0,1,72.642,0Z" transform="translate(32.263 1.322)" fill="#f27187"/>
      <path id="Inside_triangle" data-name="Inside triangle" d="M.18,5.028.532,0,33.737,18.6a2.344,2.344,0,0,1,0,4.089L5.717,38.375A72.33,72.33,0,0,1,.18,5.028Z" transform="matrix(0.998, -0.07, 0.07, 0.998, 21.183, 78.034)" fill="#bb586a"/>
      <path id="Mouth" d="M0,0H46.657s.576,25.541-22.469,25.541S0,0,0,0Z" transform="translate(94.43 81.879)" fill="#4a0920"/>
      <path id="Path_1602" data-name="Path 1602" d="M7.675,73.257a3.025,3.025,0,0,1-2.015-.772,2.971,2.971,0,0,1-.986-2.023L-.051,2.891A2.958,2.958,0,0,1,.739.643a3.024,3.024,0,0,1,2.2-.966,2.982,2.982,0,0,1,1.289.295L27.606,11.085c-.146,1.882-.22,3.8-.22,5.7V27.328a72.113,72.113,0,0,0,6.2,29.412L9.319,72.757A2.98,2.98,0,0,1,7.675,73.257Z" transform="translate(4.796 58.288)" fill="#f27187"/>
      <path id="Path_1603" data-name="Path 1603" d="M0,16.216V5.671Q0,2.81.218,0l39.9,18.664a3,3,0,0,1,.366,5.232L6.4,46.084A72.369,72.369,0,0,1,0,16.216Z" transform="translate(32.182 69.4)" fill="#aa4f62"/>
      <path id="Path_1604" data-name="Path 1604" d="M14.026,0A14.026,14.026,0,1,1,0,14.026,14.026,14.026,0,0,1,14.026,0Z" transform="translate(76.618 36.088)" fill="#4a0920"/>
      <path id="Path_1601" data-name="Path 1601" d="M14.026,0A14.026,14.026,0,1,1,0,14.026,14.026,14.026,0,0,1,14.026,0Z" transform="translate(130.341 38.743)" fill="#4a0920"/>
    </g>
    <g id="Group_1171" data-name="Group 1171" transform="translate(0.031 -59.585)">
      <g id="Group_1167" data-name="Group 1167" transform="translate(5758 -4789)">
        <g id="Path_1581" data-name="Path 1581" transform="translate(427.233 275.352) rotate(180)" fill="#2f3136">
          <path d="M 421.7700805664062 274.3525085449219 L 5.463330745697021 274.3525085449219 C 3.002225637435913 274.3525085449219 1.000015020370483 272.3502502441406 1.000015020370483 269.8891296386719 L 1.000015020370483 1.000028491020203 L 426.2333984375 1.000028491020203 L 426.2333984375 269.8891296386719 C 426.2333984375 272.3502502441406 424.2311706542969 274.3525085449219 421.7700805664062 274.3525085449219 Z" stroke="none"/>
          <path d="M 1.999969482421875 2.000030517578125 L 1.999969482421875 269.8891296386719 C 1.999969482421875 271.7987976074219 3.55364990234375 273.3524475097656 5.46337890625 273.3524475097656 L 421.77001953125 273.3524475097656 C 423.6796875 273.3524475097656 425.2333679199219 271.7987976074219 425.2333679199219 269.8891296386719 L 425.2333679199219 2.000030517578125 L 1.999969482421875 2.000030517578125 M -3.0517578125e-05 3.0517578125e-05 L 427.2333679199219 3.0517578125e-05 L 427.2333679199219 269.8891296386719 C 427.2333679199219 272.9064636230469 424.787353515625 275.3524475097656 421.77001953125 275.3524475097656 L 5.46337890625 275.3524475097656 C 2.446044921875 275.3524475097656 -3.0517578125e-05 272.9064636230469 -3.0517578125e-05 269.8891296386719 L -3.0517578125e-05 3.0517578125e-05 Z" stroke="none" fill="#202225"/>
        </g>
        <g id="Group_1165" data-name="Group 1165" transform="translate(0 5415.265)">
          <g id="Group_1166" data-name="Group 1166" transform="translate(0 181.383)">
            <path id="Path_1599" data-name="Path 1599" d="M0,0H427V92H0Z" transform="translate(0 -5413.458)" fill="rgba(255,255,255,0)"/>
            <path id="Path_1600" data-name="Path 1600" d="M16.5,0A16.5,16.5,0,1,1,0,16.5,16.5,16.5,0,0,1,16.5,0Z" transform="translate(14 -5382.458)" fill="#6c95ff"/>
            <path id="Path_1593" data-name="Path 1593" d="M12.208-4.627a4.044,4.044,0,0,1-1.561,3.465A7.276,7.276,0,0,1,6.233,0H1.685V-15.869H6.3a6.1,6.1,0,0,1,3.936,1.089,3.689,3.689,0,0,1,1.331,3.021,3.333,3.333,0,0,1-.612,2.033,3.907,3.907,0,0,1-1.69,1.28A3.715,3.715,0,0,1,12.208-4.627ZM8.737-11.5q0-2.044-2.594-2.044H4.6v4.211h1.4A3.154,3.154,0,0,0,8.041-9.9,1.947,1.947,0,0,0,8.737-11.5Zm.55,6.783A2.2,2.2,0,0,0,8.5-6.547a3.646,3.646,0,0,0-2.308-.629H4.6v4.852H6.233A3.66,3.66,0,0,0,8.5-2.931,2.11,2.11,0,0,0,9.288-4.717ZM17.362,0H14.6V-16.172l2.763-.438ZM29.716,0H27.369L27.11-1.561A5.446,5.446,0,0,1,23.4.225a3.041,3.041,0,0,1-2.358-.882,3.53,3.53,0,0,1-.809-2.476v-7.974H23v7.266q0,1.606,1.4,1.606a3.752,3.752,0,0,0,2.549-1.381v-7.491h2.763ZM41.8-1.123A7.562,7.562,0,0,1,37.364.225a6.386,6.386,0,0,1-2.156-.348,4.892,4.892,0,0,1-1.713-1.033,4.55,4.55,0,0,1-1.146-1.808,7.511,7.511,0,0,1-.41-2.583,6.071,6.071,0,0,1,1.415-4.228,4.681,4.681,0,0,1,3.639-1.567,5.065,5.065,0,0,1,2.156.438,3.871,3.871,0,0,1,1.516,1.213,5.578,5.578,0,0,1,.865,1.786,7.992,7.992,0,0,1,.292,2.224q0,.124-.011.365t-.011.309H34.646a3.426,3.426,0,0,0,.893,2.342,2.949,2.949,0,0,0,2.128.758,6.7,6.7,0,0,0,3.818-1.381ZM36.926-9.434a1.9,1.9,0,0,0-1.477.7,3.563,3.563,0,0,0-.758,2h4.447Q38.857-9.434,36.926-9.434Z" transform="translate(59 -5377.458)" fill="#fff"/>
            <path id="Path_1592" data-name="Path 1592" d="M14.353-1.247A10.072,10.072,0,0,1,11.876-.124,9.739,9.739,0,0,1,9,.3,8.167,8.167,0,0,1,4.767-.736,6.509,6.509,0,0,1,2.139-3.611a9.96,9.96,0,0,1-.87-4.307,9.918,9.918,0,0,1,.887-4.318,6.666,6.666,0,0,1,2.6-2.9A7.656,7.656,0,0,1,8.8-16.172a8.519,8.519,0,0,1,4.829,1.359L13.3-12.6A7.109,7.109,0,0,0,8.782-14.2a4.78,4.78,0,0,0-3.925,1.668A7.042,7.042,0,0,0,3.493-7.94,6.842,6.842,0,0,0,4.9-3.364,5.076,5.076,0,0,0,9-1.707a6.576,6.576,0,0,0,3.212-.775V-6.693H8.558l-.3-1.977h6.1Zm12.14,0A6.878,6.878,0,0,1,22.1.225a5.631,5.631,0,0,1-2-.343A4.65,4.65,0,0,1,18.491-1.14a4.5,4.5,0,0,1-1.089-1.8,7.9,7.9,0,0,1-.387-2.589,6.018,6.018,0,0,1,1.359-4.133,4.423,4.423,0,0,1,3.47-1.539,4.451,4.451,0,0,1,2.622.752,4.328,4.328,0,0,1,1.561,1.965,7.378,7.378,0,0,1,.489,2.774v.438H19.058a4.261,4.261,0,0,0,.887,2.808,2.943,2.943,0,0,0,2.313.943,5.126,5.126,0,0,0,2.033-.393,8.407,8.407,0,0,0,1.9-1.168ZM21.821-9.591a2.341,2.341,0,0,0-1.707.713,3.735,3.735,0,0,0-.955,2.072h5.29Q24.044-9.591,21.821-9.591ZM34.365.045A8.117,8.117,0,0,1,32.827.18a3.716,3.716,0,0,1-2.375-.663,2.708,2.708,0,0,1-.825-2.235V-9.243H27.975v-1.729h1.651v-3.661l2.01-.292v3.953h2.37l.27,1.729H31.636v6.166a1.514,1.514,0,0,0,.348,1.084,1.565,1.565,0,0,0,1.168.365,5.467,5.467,0,0,0,.943-.079Zm12.8,0A8.117,8.117,0,0,1,45.629.18a3.716,3.716,0,0,1-2.375-.663,2.708,2.708,0,0,1-.825-2.235V-9.243H40.778v-1.729h1.651v-3.661l2.01-.292v3.953h2.37l.27,1.729H44.439v6.166a1.514,1.514,0,0,0,.348,1.084,1.565,1.565,0,0,0,1.168.365,5.467,5.467,0,0,0,.943-.079ZM58.6,0H56.557V-7.479a2.127,2.127,0,0,0-.41-1.387,1.553,1.553,0,0,0-1.275-.5,4.584,4.584,0,0,0-3.167,1.774V0H49.65V-16.284l2.055-.326v7.086A5.615,5.615,0,0,1,55.422-11.2a3.122,3.122,0,0,1,2.353.854A3.25,3.25,0,0,1,58.6-7.985ZM70.628-1.247A6.878,6.878,0,0,1,66.237.225a5.631,5.631,0,0,1-2-.343A4.65,4.65,0,0,1,62.627-1.14a4.5,4.5,0,0,1-1.089-1.8,7.9,7.9,0,0,1-.387-2.589,6.018,6.018,0,0,1,1.359-4.133,4.423,4.423,0,0,1,3.47-1.539,4.451,4.451,0,0,1,2.622.752,4.328,4.328,0,0,1,1.561,1.965,7.378,7.378,0,0,1,.489,2.774v.438H63.194a4.261,4.261,0,0,0,.887,2.808,2.943,2.943,0,0,0,2.313.943,5.126,5.126,0,0,0,2.033-.393,8.407,8.407,0,0,0,1.9-1.168ZM65.957-9.591a2.341,2.341,0,0,0-1.707.713,3.735,3.735,0,0,0-.955,2.072h5.29Q68.18-9.591,65.957-9.591ZM88.249-4.649a4.1,4.1,0,0,1-1.527,3.493A7.061,7.061,0,0,1,82.387,0h-3.8V-15.869h3.841a5.773,5.773,0,0,1,3.835,1.106,3.743,3.743,0,0,1,1.3,3,3.343,3.343,0,0,1-2.28,3.291A3.7,3.7,0,0,1,88.249-4.649Zm-2.808-7.03q0-2.347-3.055-2.347H80.7V-9.2h1.527a3.787,3.787,0,0,0,2.381-.651A2.193,2.193,0,0,0,85.441-11.68Zm.7,7.075a2.493,2.493,0,0,0-.943-2.106,4.393,4.393,0,0,0-2.718-.724H80.7v5.593h1.842a4.384,4.384,0,0,0,2.662-.7A2.416,2.416,0,0,0,86.138-4.6Zm6.9,4.6H90.989V-16.284l2.044-.326Zm12.275,0H103.68l-.258-1.583A5.738,5.738,0,0,1,99.536.225a3.118,3.118,0,0,1-2.358-.854,3.264,3.264,0,0,1-.82-2.358v-7.985h2.055v7.479a2.127,2.127,0,0,0,.41,1.387,1.539,1.539,0,0,0,1.263.5,4.59,4.59,0,0,0,3.178-1.774v-7.592h2.044Zm12.073-1.247A6.878,6.878,0,0,1,112.99.225a5.631,5.631,0,0,1-2-.343,4.65,4.65,0,0,1-1.612-1.022,4.5,4.5,0,0,1-1.089-1.8,7.9,7.9,0,0,1-.387-2.589,6.018,6.018,0,0,1,1.359-4.133,4.423,4.423,0,0,1,3.47-1.539,4.451,4.451,0,0,1,2.622.752,4.328,4.328,0,0,1,1.561,1.965,7.378,7.378,0,0,1,.489,2.774v.438h-7.457a4.261,4.261,0,0,0,.887,2.808,2.943,2.943,0,0,0,2.313.943,5.126,5.126,0,0,0,2.033-.393,8.407,8.407,0,0,0,1.9-1.168Zm-4.672-8.344A2.341,2.341,0,0,0,111-8.878a3.735,3.735,0,0,0-.955,2.072h5.29Q114.933-9.591,112.709-9.591Zm18.474.348a4.492,4.492,0,0,0-2.409.842A5.281,5.281,0,0,0,127.1-6.491V0H125.04V-10.972h1.64l.337,2.235a5.793,5.793,0,0,1,1.623-1.718,4.227,4.227,0,0,1,2.229-.741ZM142.8-5.469A5.873,5.873,0,0,1,141.375-1.3,4.8,4.8,0,0,1,137.7.225a4.728,4.728,0,0,1-3.644-1.516,5.927,5.927,0,0,1-1.4-4.178,5.975,5.975,0,0,1,1.4-4.195A4.707,4.707,0,0,1,137.7-11.2a4.786,4.786,0,0,1,3.678,1.533A5.931,5.931,0,0,1,142.8-5.469Zm-2.066,0a4.923,4.923,0,0,0-.8-2.9A2.576,2.576,0,0,0,137.7-9.5a2.517,2.517,0,0,0-2.207,1.117,5.039,5.039,0,0,0-.769,2.914,4.9,4.9,0,0,0,.786,2.875,2.524,2.524,0,0,0,2.19,1.123,2.591,2.591,0,0,0,2.252-1.1A4.905,4.905,0,0,0,140.729-5.469ZM147.6,0h-2.044V-16.284l2.044-.326Zm12.23-1.247A6.878,6.878,0,0,1,155.441.225a5.631,5.631,0,0,1-2-.343A4.65,4.65,0,0,1,151.83-1.14a4.5,4.5,0,0,1-1.089-1.8,7.9,7.9,0,0,1-.387-2.589,6.018,6.018,0,0,1,1.359-4.133,4.423,4.423,0,0,1,3.47-1.539,4.451,4.451,0,0,1,2.622.752,4.328,4.328,0,0,1,1.561,1.965,7.378,7.378,0,0,1,.489,2.774v.438H152.4a4.261,4.261,0,0,0,.887,2.808,2.943,2.943,0,0,0,2.313.943,5.126,5.126,0,0,0,2.033-.393,8.407,8.407,0,0,0,1.9-1.168ZM155.16-9.591a2.341,2.341,0,0,0-1.707.713,3.735,3.735,0,0,0-.955,2.072h5.29Q157.384-9.591,155.16-9.591ZM164.583,0H162.3V-2.74h2.28Z" transform="translate(59 -5340.458)" fill="#b9bbbe"/>
          </g>
          <g id="Group_1165-2" data-name="Group 1165" transform="translate(0 89.599)">
            <path id="Path_1595" data-name="Path 1595" d="M0,0H427V91H0Z" transform="translate(0 -5412.673)" fill="rgba(255,255,255,0)"/>
            <path id="Path_1596" data-name="Path 1596" d="M16.5,0A16.5,16.5,0,1,1,0,16.5,16.5,16.5,0,0,1,16.5,0Z" transform="translate(14 -5382.673)" fill="#36a549"/>
            <path id="Path_1591" data-name="Path 1591" d="M13.793-1.257A9.616,9.616,0,0,1,8.465.29a7.077,7.077,0,0,1-5.5-2.138A8.155,8.155,0,0,1,1.01-7.573,8.128,8.128,0,0,1,3-13.3a7,7,0,0,1,5.419-2.165,8.79,8.79,0,0,1,4.619,1.214l-.408,2.707a7.1,7.1,0,0,0-4.189-1.429,3.976,3.976,0,0,0-3.314,1.445A6.177,6.177,0,0,0,3.985-7.595,6.121,6.121,0,0,0,5.162-3.636,4.141,4.141,0,0,0,8.583-2.181a5.37,5.37,0,0,0,2.546-.612V-6.155H8.057L7.7-8.5h6.091ZM22.9-8.229a4.791,4.791,0,0,0-2.186.661,4.8,4.8,0,0,0-1.574,1.477V0H16.5V-10.624h2.245L19.078-8.5a4.107,4.107,0,0,1,3.405-2.353ZM33.451-1.074A7.233,7.233,0,0,1,29.208.215a6.108,6.108,0,0,1-2.062-.333,4.68,4.68,0,0,1-1.638-.988,4.353,4.353,0,0,1-1.1-1.729,7.184,7.184,0,0,1-.392-2.471,5.807,5.807,0,0,1,1.354-4.044,4.477,4.477,0,0,1,3.48-1.5,4.845,4.845,0,0,1,2.063.419,3.7,3.7,0,0,1,1.45,1.16,5.336,5.336,0,0,1,.827,1.708,7.645,7.645,0,0,1,.279,2.127q0,.118-.011.349t-.011.3H26.608a3.277,3.277,0,0,0,.854,2.24,2.821,2.821,0,0,0,2.036.725A6.41,6.41,0,0,0,33.15-3.147ZM28.789-9.023a1.816,1.816,0,0,0-1.413.666,3.408,3.408,0,0,0-.725,1.912h4.254Q30.637-9.023,28.789-9.023ZM44.494-1.074A7.233,7.233,0,0,1,40.251.215a6.108,6.108,0,0,1-2.062-.333,4.68,4.68,0,0,1-1.638-.988,4.353,4.353,0,0,1-1.1-1.729,7.184,7.184,0,0,1-.392-2.471,5.807,5.807,0,0,1,1.354-4.044,4.477,4.477,0,0,1,3.48-1.5,4.845,4.845,0,0,1,2.063.419,3.7,3.7,0,0,1,1.45,1.16,5.336,5.336,0,0,1,.827,1.708,7.645,7.645,0,0,1,.279,2.127q0,.118-.011.349t-.011.3H37.651a3.277,3.277,0,0,0,.854,2.24,2.821,2.821,0,0,0,2.036.725,6.41,6.41,0,0,0,3.652-1.321ZM39.832-9.023a1.816,1.816,0,0,0-1.413.666,3.408,3.408,0,0,0-.725,1.912h4.254Q41.68-9.023,39.832-9.023ZM55.72,0H53.077V-6.95A1.8,1.8,0,0,0,52.744-8.1a1.237,1.237,0,0,0-1.031-.419A3.5,3.5,0,0,0,49.3-7.176V0H46.653V-10.624H48.9l.236,1.493A5.223,5.223,0,0,1,52.68-10.85a2.933,2.933,0,0,1,2.25.843,3.3,3.3,0,0,1,.79,2.347Z" transform="translate(59 -5377.673)" fill="#fff"/>
            <path id="Path_1590" data-name="Path 1590" d="M14.353-1.247A10.072,10.072,0,0,1,11.876-.124,9.739,9.739,0,0,1,9,.3,8.167,8.167,0,0,1,4.767-.736,6.509,6.509,0,0,1,2.139-3.611a9.96,9.96,0,0,1-.87-4.307,9.918,9.918,0,0,1,.887-4.318,6.666,6.666,0,0,1,2.6-2.9A7.656,7.656,0,0,1,8.8-16.172a8.519,8.519,0,0,1,4.829,1.359L13.3-12.6A7.109,7.109,0,0,0,8.782-14.2a4.78,4.78,0,0,0-3.925,1.668A7.042,7.042,0,0,0,3.493-7.94,6.842,6.842,0,0,0,4.9-3.364,5.076,5.076,0,0,0,9-1.707a6.576,6.576,0,0,0,3.212-.775V-6.693H8.558l-.3-1.977h6.1Zm12.14,0A6.878,6.878,0,0,1,22.1.225a5.631,5.631,0,0,1-2-.343A4.65,4.65,0,0,1,18.491-1.14a4.5,4.5,0,0,1-1.089-1.8,7.9,7.9,0,0,1-.387-2.589,6.018,6.018,0,0,1,1.359-4.133,4.423,4.423,0,0,1,3.47-1.539,4.451,4.451,0,0,1,2.622.752,4.328,4.328,0,0,1,1.561,1.965,7.378,7.378,0,0,1,.489,2.774v.438H19.058a4.261,4.261,0,0,0,.887,2.808,2.943,2.943,0,0,0,2.313.943,5.126,5.126,0,0,0,2.033-.393,8.407,8.407,0,0,0,1.9-1.168ZM21.821-9.591a2.341,2.341,0,0,0-1.707.713,3.735,3.735,0,0,0-.955,2.072h5.29Q24.044-9.591,21.821-9.591ZM34.365.045A8.117,8.117,0,0,1,32.827.18a3.716,3.716,0,0,1-2.375-.663,2.708,2.708,0,0,1-.825-2.235V-9.243H27.975v-1.729h1.651v-3.661l2.01-.292v3.953h2.37l.27,1.729H31.636v6.166a1.514,1.514,0,0,0,.348,1.084,1.565,1.565,0,0,0,1.168.365,5.467,5.467,0,0,0,.943-.079Zm12.8,0A8.117,8.117,0,0,1,45.629.18a3.716,3.716,0,0,1-2.375-.663,2.708,2.708,0,0,1-.825-2.235V-9.243H40.778v-1.729h1.651v-3.661l2.01-.292v3.953h2.37l.27,1.729H44.439v6.166a1.514,1.514,0,0,0,.348,1.084,1.565,1.565,0,0,0,1.168.365,5.467,5.467,0,0,0,.943-.079ZM58.6,0H56.557V-7.479a2.127,2.127,0,0,0-.41-1.387,1.553,1.553,0,0,0-1.275-.5,4.584,4.584,0,0,0-3.167,1.774V0H49.65V-16.284l2.055-.326v7.086A5.615,5.615,0,0,1,55.422-11.2a3.122,3.122,0,0,1,2.353.854A3.25,3.25,0,0,1,58.6-7.985ZM70.628-1.247A6.878,6.878,0,0,1,66.237.225a5.631,5.631,0,0,1-2-.343A4.65,4.65,0,0,1,62.627-1.14a4.5,4.5,0,0,1-1.089-1.8,7.9,7.9,0,0,1-.387-2.589,6.018,6.018,0,0,1,1.359-4.133,4.423,4.423,0,0,1,3.47-1.539,4.451,4.451,0,0,1,2.622.752,4.328,4.328,0,0,1,1.561,1.965,7.378,7.378,0,0,1,.489,2.774v.438H63.194a4.261,4.261,0,0,0,.887,2.808,2.943,2.943,0,0,0,2.313.943,5.126,5.126,0,0,0,2.033-.393,8.407,8.407,0,0,0,1.9-1.168ZM65.957-9.591a2.341,2.341,0,0,0-1.707.713,3.735,3.735,0,0,0-.955,2.072h5.29Q68.18-9.591,65.957-9.591ZM91.034-1.247A10.072,10.072,0,0,1,88.558-.124,9.739,9.739,0,0,1,85.677.3,8.167,8.167,0,0,1,81.449-.736a6.509,6.509,0,0,1-2.628-2.875,9.96,9.96,0,0,1-.87-4.307,9.918,9.918,0,0,1,.887-4.318,6.666,6.666,0,0,1,2.6-2.9,7.656,7.656,0,0,1,4.049-1.039,8.519,8.519,0,0,1,4.829,1.359L89.979-12.6A7.109,7.109,0,0,0,85.464-14.2a4.78,4.78,0,0,0-3.925,1.668A7.042,7.042,0,0,0,80.174-7.94a6.842,6.842,0,0,0,1.409,4.576,5.076,5.076,0,0,0,4.094,1.656,6.576,6.576,0,0,0,3.212-.775V-6.693h-3.65l-.3-1.977h6.1Zm9.422-8a4.492,4.492,0,0,0-2.409.842,5.281,5.281,0,0,0-1.679,1.909V0H94.313V-10.972h1.64l.337,2.235a5.793,5.793,0,0,1,1.623-1.718,4.227,4.227,0,0,1,2.229-.741Zm10.95,8A6.878,6.878,0,0,1,107.015.225a5.631,5.631,0,0,1-2-.343A4.65,4.65,0,0,1,103.4-1.14a4.5,4.5,0,0,1-1.089-1.8,7.9,7.9,0,0,1-.387-2.589,6.018,6.018,0,0,1,1.359-4.133,4.423,4.423,0,0,1,3.47-1.539,4.451,4.451,0,0,1,2.622.752,4.328,4.328,0,0,1,1.561,1.965,7.378,7.378,0,0,1,.489,2.774v.438h-7.457a4.261,4.261,0,0,0,.887,2.808,2.943,2.943,0,0,0,2.313.943,5.126,5.126,0,0,0,2.033-.393,8.407,8.407,0,0,0,1.9-1.168Zm-4.672-8.344a2.341,2.341,0,0,0-1.707.713,3.735,3.735,0,0,0-.955,2.072h5.29Q108.958-9.591,106.734-9.591Zm16.138,8.344A6.878,6.878,0,0,1,118.481.225a5.631,5.631,0,0,1-2-.343,4.65,4.65,0,0,1-1.612-1.022,4.5,4.5,0,0,1-1.089-1.8,7.9,7.9,0,0,1-.387-2.589,6.018,6.018,0,0,1,1.359-4.133,4.423,4.423,0,0,1,3.47-1.539,4.451,4.451,0,0,1,2.622.752,4.328,4.328,0,0,1,1.561,1.965,7.378,7.378,0,0,1,.489,2.774v.438h-7.457a4.261,4.261,0,0,0,.887,2.808,2.943,2.943,0,0,0,2.313.943,5.126,5.126,0,0,0,2.033-.393,8.407,8.407,0,0,0,1.9-1.168ZM118.2-9.591a2.341,2.341,0,0,0-1.707.713,3.735,3.735,0,0,0-.955,2.072h5.29Q120.424-9.591,118.2-9.591ZM134.429,0h-2.044V-7.479a2.127,2.127,0,0,0-.41-1.387,1.553,1.553,0,0,0-1.275-.5,4.584,4.584,0,0,0-3.167,1.774V0h-2.055V-10.972h1.64l.247,1.583A5.854,5.854,0,0,1,131.25-11.2a3.122,3.122,0,0,1,2.353.854,3.25,3.25,0,0,1,.825,2.358Zm14.364-9.243a4.492,4.492,0,0,0-2.409.842A5.281,5.281,0,0,0,144.7-6.491V0h-2.055V-10.972h1.64l.337,2.235a5.793,5.793,0,0,1,1.623-1.718,4.227,4.227,0,0,1,2.229-.741ZM160.4-5.469A5.873,5.873,0,0,1,158.984-1.3,4.8,4.8,0,0,1,155.306.225a4.728,4.728,0,0,1-3.644-1.516,5.927,5.927,0,0,1-1.4-4.178,5.975,5.975,0,0,1,1.4-4.195,4.707,4.707,0,0,1,3.639-1.533,4.786,4.786,0,0,1,3.678,1.533A5.931,5.931,0,0,1,160.4-5.469Zm-2.066,0a4.923,4.923,0,0,0-.8-2.9A2.576,2.576,0,0,0,155.306-9.5,2.517,2.517,0,0,0,153.1-8.384a5.039,5.039,0,0,0-.769,2.914,4.9,4.9,0,0,0,.786,2.875,2.524,2.524,0,0,0,2.19,1.123,2.591,2.591,0,0,0,2.252-1.1A4.905,4.905,0,0,0,158.338-5.469ZM165.211,0h-2.044V-16.284l2.044-.326Zm12.23-1.247A6.878,6.878,0,0,1,173.05.225a5.631,5.631,0,0,1-2-.343A4.65,4.65,0,0,1,169.44-1.14a4.5,4.5,0,0,1-1.089-1.8,7.9,7.9,0,0,1-.387-2.589,6.018,6.018,0,0,1,1.359-4.133,4.423,4.423,0,0,1,3.47-1.539,4.451,4.451,0,0,1,2.622.752,4.328,4.328,0,0,1,1.561,1.965,7.378,7.378,0,0,1,.489,2.774v.438h-7.457a4.261,4.261,0,0,0,.887,2.808,2.943,2.943,0,0,0,2.313.943,5.126,5.126,0,0,0,2.033-.393,8.407,8.407,0,0,0,1.9-1.168ZM172.77-9.591a2.341,2.341,0,0,0-1.707.713,3.735,3.735,0,0,0-.955,2.072h5.29Q174.993-9.591,172.77-9.591ZM182.192,0h-2.28V-2.74h2.28Z" transform="translate(59 -5340.673)" fill="#b9bbbe"/>
          </g>
          <g id="Group_1161" data-name="Group 1161" transform="translate(0 -2.185)">
            <path id="Path_1598" data-name="Path 1598" d="M3,0H420a3,3,0,0,1,3,3V90H0V3A3,3,0,0,1,3,0Z" transform="translate(2 -5410.889)" fill="#42464d"/>
            <path id="Path_1597" data-name="Path 1597" d="M16.5,0A16.5,16.5,0,1,1,0,16.5,16.5,16.5,0,0,1,16.5,0Z" transform="translate(14 -5382.889)" fill="#ff2a29"/>
            <path id="Path_1589" data-name="Path 1589" d="M12.783-.4,9.7.15,5.747-5.812H4.512V0h-2.9V-15.179H6.316a6.126,6.126,0,0,1,4,1.182,4.116,4.116,0,0,1,1.439,3.373,4.345,4.345,0,0,1-.806,2.691A4.645,4.645,0,0,1,8.669-6.359Zm-3.9-10.076a2.2,2.2,0,0,0-.714-1.756,3.092,3.092,0,0,0-2.079-.618H4.49v4.813H5.962A3.3,3.3,0,0,0,8.11-8.669,2.2,2.2,0,0,0,8.884-10.474Zm14.384,9.4A7.233,7.233,0,0,1,19.024.215a6.108,6.108,0,0,1-2.062-.333,4.68,4.68,0,0,1-1.638-.988,4.353,4.353,0,0,1-1.1-1.729,7.184,7.184,0,0,1-.392-2.471,5.807,5.807,0,0,1,1.354-4.044,4.477,4.477,0,0,1,3.48-1.5,4.845,4.845,0,0,1,2.063.419,3.7,3.7,0,0,1,1.45,1.16,5.336,5.336,0,0,1,.827,1.708,7.645,7.645,0,0,1,.279,2.127q0,.118-.011.349t-.011.3H16.425a3.277,3.277,0,0,0,.854,2.24,2.821,2.821,0,0,0,2.036.725,6.41,6.41,0,0,0,3.652-1.321ZM18.605-9.023a1.816,1.816,0,0,0-1.413.666,3.408,3.408,0,0,0-.725,1.912h4.254Q20.453-9.023,18.605-9.023ZM34.644,0H32.377l-.215-1.472A4.155,4.155,0,0,1,28.907.215a3.6,3.6,0,0,1-2.89-1.332,5.93,5.93,0,0,1-1.117-3.9,8,8,0,0,1,.376-2.557A4.719,4.719,0,0,1,26.3-9.367a4.361,4.361,0,0,1,1.472-1.021,4.533,4.533,0,0,1,1.767-.344,7.6,7.6,0,0,1,2.46.387v-5.124l2.643-.419ZM32-3.588V-8.164a4.724,4.724,0,0,0-2.062-.462,2.06,2.06,0,0,0-1.74.886,4.283,4.283,0,0,0-.655,2.573A3.823,3.823,0,0,0,28.1-2.906a1.746,1.746,0,0,0,1.482.768A3.218,3.218,0,0,0,32-3.588Z" transform="translate(59 -5377.889)" fill="#fff"/>
            <path id="Path_1588" data-name="Path 1588" d="M14.353-1.247A10.072,10.072,0,0,1,11.876-.124,9.739,9.739,0,0,1,9,.3,8.167,8.167,0,0,1,4.767-.736,6.509,6.509,0,0,1,2.139-3.611a9.96,9.96,0,0,1-.87-4.307,9.918,9.918,0,0,1,.887-4.318,6.666,6.666,0,0,1,2.6-2.9A7.656,7.656,0,0,1,8.8-16.172a8.519,8.519,0,0,1,4.829,1.359L13.3-12.6A7.109,7.109,0,0,0,8.782-14.2a4.78,4.78,0,0,0-3.925,1.668A7.042,7.042,0,0,0,3.493-7.94,6.842,6.842,0,0,0,4.9-3.364,5.076,5.076,0,0,0,9-1.707a6.576,6.576,0,0,0,3.212-.775V-6.693H8.558l-.3-1.977h6.1Zm12.14,0A6.878,6.878,0,0,1,22.1.225a5.631,5.631,0,0,1-2-.343A4.65,4.65,0,0,1,18.491-1.14a4.5,4.5,0,0,1-1.089-1.8,7.9,7.9,0,0,1-.387-2.589,6.018,6.018,0,0,1,1.359-4.133,4.423,4.423,0,0,1,3.47-1.539,4.451,4.451,0,0,1,2.622.752,4.328,4.328,0,0,1,1.561,1.965,7.378,7.378,0,0,1,.489,2.774v.438H19.058a4.261,4.261,0,0,0,.887,2.808,2.943,2.943,0,0,0,2.313.943,5.126,5.126,0,0,0,2.033-.393,8.407,8.407,0,0,0,1.9-1.168ZM21.821-9.591a2.341,2.341,0,0,0-1.707.713,3.735,3.735,0,0,0-.955,2.072h5.29Q24.044-9.591,21.821-9.591ZM34.365.045A8.117,8.117,0,0,1,32.827.18a3.716,3.716,0,0,1-2.375-.663,2.708,2.708,0,0,1-.825-2.235V-9.243H27.975v-1.729h1.651v-3.661l2.01-.292v3.953h2.37l.27,1.729H31.636v6.166a1.514,1.514,0,0,0,.348,1.084,1.565,1.565,0,0,0,1.168.365,5.467,5.467,0,0,0,.943-.079Zm12.8,0A8.117,8.117,0,0,1,45.629.18a3.716,3.716,0,0,1-2.375-.663,2.708,2.708,0,0,1-.825-2.235V-9.243H40.778v-1.729h1.651v-3.661l2.01-.292v3.953h2.37l.27,1.729H44.439v6.166a1.514,1.514,0,0,0,.348,1.084,1.565,1.565,0,0,0,1.168.365,5.467,5.467,0,0,0,.943-.079ZM58.6,0H56.557V-7.479a2.127,2.127,0,0,0-.41-1.387,1.553,1.553,0,0,0-1.275-.5,4.584,4.584,0,0,0-3.167,1.774V0H49.65V-16.284l2.055-.326v7.086A5.615,5.615,0,0,1,55.422-11.2a3.122,3.122,0,0,1,2.353.854A3.25,3.25,0,0,1,58.6-7.985ZM70.628-1.247A6.878,6.878,0,0,1,66.237.225a5.631,5.631,0,0,1-2-.343A4.65,4.65,0,0,1,62.627-1.14a4.5,4.5,0,0,1-1.089-1.8,7.9,7.9,0,0,1-.387-2.589,6.018,6.018,0,0,1,1.359-4.133,4.423,4.423,0,0,1,3.47-1.539,4.451,4.451,0,0,1,2.622.752,4.328,4.328,0,0,1,1.561,1.965,7.378,7.378,0,0,1,.489,2.774v.438H63.194a4.261,4.261,0,0,0,.887,2.808,2.943,2.943,0,0,0,2.313.943,5.126,5.126,0,0,0,2.033-.393,8.407,8.407,0,0,0,1.9-1.168ZM65.957-9.591a2.341,2.341,0,0,0-1.707.713,3.735,3.735,0,0,0-.955,2.072h5.29Q68.18-9.591,65.957-9.591ZM89.428-.326l-2.28.483L82.364-6.693H80.747V0H78.591V-15.869h4.324A5.843,5.843,0,0,1,86.778-14.7a4.1,4.1,0,0,1,1.4,3.33,4.3,4.3,0,0,1-.927,2.858,4.809,4.809,0,0,1-2.544,1.533ZM86.014-11.242a2.525,2.525,0,0,0-.809-2.016,3.538,3.538,0,0,0-2.381-.7H80.747v5.447h1.842a4.032,4.032,0,0,0,2.51-.7A2.4,2.4,0,0,0,86.014-11.242Zm14.24,10A6.878,6.878,0,0,1,95.863.225a5.631,5.631,0,0,1-2-.343A4.65,4.65,0,0,1,92.253-1.14a4.5,4.5,0,0,1-1.089-1.8,7.9,7.9,0,0,1-.387-2.589,6.018,6.018,0,0,1,1.359-4.133A4.423,4.423,0,0,1,95.6-11.2a4.451,4.451,0,0,1,2.622.752,4.328,4.328,0,0,1,1.561,1.965,7.378,7.378,0,0,1,.489,2.774v.438H92.82a4.261,4.261,0,0,0,.887,2.808,2.943,2.943,0,0,0,2.313.943,5.126,5.126,0,0,0,2.033-.393,8.407,8.407,0,0,0,1.9-1.168ZM95.583-9.591a2.341,2.341,0,0,0-1.707.713,3.735,3.735,0,0,0-.955,2.072h5.29Q97.806-9.591,95.583-9.591ZM112.013,0h-1.628l-.247-1.583A4.54,4.54,0,0,1,106.566.225a4.2,4.2,0,0,1-1.679-.331,4.011,4.011,0,0,1-1.37-.983,4.5,4.5,0,0,1-.938-1.7,7.788,7.788,0,0,1-.337-2.392,7.953,7.953,0,0,1,.4-2.611,5.015,5.015,0,0,1,1.084-1.864,4.645,4.645,0,0,1,1.572-1.084,4.9,4.9,0,0,1,1.909-.371,7.258,7.258,0,0,1,2.763.483v-5.66l2.044-.326Zm-2.044-3.515V-8.76a5.934,5.934,0,0,0-1.252-.483,6.043,6.043,0,0,0-1.432-.146,2.585,2.585,0,0,0-2.156,1.073,4.934,4.934,0,0,0-.82,3.049,4.527,4.527,0,0,0,.708,2.723,2.2,2.2,0,0,0,1.853.96,2.919,2.919,0,0,0,1.645-.494A6.037,6.037,0,0,0,109.969-3.515Zm16.453-5.728a4.492,4.492,0,0,0-2.409.842,5.281,5.281,0,0,0-1.679,1.909V0h-2.055V-10.972h1.64l.337,2.235a5.793,5.793,0,0,1,1.623-1.718,4.227,4.227,0,0,1,2.229-.741Zm11.612,3.773A5.873,5.873,0,0,1,136.613-1.3,4.8,4.8,0,0,1,132.935.225a4.728,4.728,0,0,1-3.644-1.516,5.927,5.927,0,0,1-1.4-4.178,5.975,5.975,0,0,1,1.4-4.195,4.707,4.707,0,0,1,3.639-1.533,4.786,4.786,0,0,1,3.678,1.533A5.931,5.931,0,0,1,138.034-5.469Zm-2.066,0a4.923,4.923,0,0,0-.8-2.9A2.576,2.576,0,0,0,132.935-9.5a2.517,2.517,0,0,0-2.207,1.117,5.039,5.039,0,0,0-.769,2.914,4.9,4.9,0,0,0,.786,2.875,2.524,2.524,0,0,0,2.19,1.123,2.591,2.591,0,0,0,2.252-1.1A4.905,4.905,0,0,0,135.967-5.469ZM142.84,0H140.8V-16.284l2.044-.326Zm12.23-1.247A6.878,6.878,0,0,1,150.679.225a5.631,5.631,0,0,1-2-.343,4.65,4.65,0,0,1-1.612-1.022,4.5,4.5,0,0,1-1.089-1.8,7.9,7.9,0,0,1-.387-2.589,6.018,6.018,0,0,1,1.359-4.133,4.423,4.423,0,0,1,3.47-1.539,4.451,4.451,0,0,1,2.622.752A4.328,4.328,0,0,1,154.6-8.479a7.378,7.378,0,0,1,.489,2.774v.438h-7.457a4.261,4.261,0,0,0,.887,2.808,2.943,2.943,0,0,0,2.313.943,5.126,5.126,0,0,0,2.033-.393,8.407,8.407,0,0,0,1.9-1.168ZM150.4-9.591a2.341,2.341,0,0,0-1.707.713,3.735,3.735,0,0,0-.955,2.072h5.29Q152.622-9.591,150.4-9.591ZM159.821,0h-2.28V-2.74h2.28Z" transform="translate(59 -5340.889)" fill="#b9bbbe"/>
            <g id="Group_1170" data-name="Group 1170" transform="translate(382.434 -5381.393)">
              <path id="Path_1613" data-name="Path 1613" d="M14.5,0A14.5,14.5,0,1,1,0,14.5,14.5,14.5,0,0,1,14.5,0Z" transform="translate(-0.434 -0.496)" fill="#5865f2"/>
              <path id="Icon_ionic-md-checkmark" data-name="Icon ionic-md-checkmark" d="M10.511,18.94,6.073,14.5,4.5,16l6.011,6L22.28,10.234l-1.573-1.5Z" transform="translate(0.815 -1.159)" fill="#fff"/>
            </g>
          </g>
        </g>
      </g>
      <g id="Group_1168" data-name="Group 1168" transform="translate(5758 -4513.647)">
        <g id="Path_1582" data-name="Path 1582" fill="#202225">
          <path d="M 421.7700805664062 67.83811187744141 L 5.463330745697021 67.83811187744141 C 3.002225637435913 67.83811187744141 1.000015020370483 65.83589935302734 1.000015020370483 63.37479782104492 L 1.000015020370483 1.000007152557373 L 426.2333984375 1.000007152557373 L 426.2333984375 63.37479782104492 C 426.2333984375 65.83589935302734 424.2311706542969 67.83811187744141 421.7700805664062 67.83811187744141 Z" stroke="none"/>
          <path d="M 1.999969482421875 2.000007629394531 L 1.999969482421875 63.37478256225586 C 1.999969482421875 65.28444671630859 3.55364990234375 66.83811187744141 5.46337890625 66.83811187744141 L 421.77001953125 66.83811187744141 C 423.6796875 66.83811187744141 425.2333679199219 65.28444671630859 425.2333679199219 63.37478256225586 L 425.2333679199219 2.000007629394531 L 1.999969482421875 2.000007629394531 M -3.0517578125e-05 7.62939453125e-06 L 427.2333679199219 7.62939453125e-06 L 427.2333679199219 63.37478256225586 C 427.2333679199219 66.39211273193359 424.787353515625 68.83811187744141 421.77001953125 68.83811187744141 L 5.46337890625 68.83811187744141 C 2.446044921875 68.83811187744141 -3.0517578125e-05 66.39211273193359 -3.0517578125e-05 63.37478256225586 L -3.0517578125e-05 7.62939453125e-06 Z" stroke="none" fill="#000"/>
        </g>
        <path id="Path_1594" data-name="Path 1594" d="M13.409-1.247A8.155,8.155,0,0,1,11.186-.124,8.053,8.053,0,0,1,8.6.3,6.769,6.769,0,0,1,3.274-1.96a8.653,8.653,0,0,1-2-5.958,9.765,9.765,0,0,1,.91-4.312,6.822,6.822,0,0,1,2.589-2.909,7.252,7.252,0,0,1,3.88-1.033,7.813,7.813,0,0,1,4.5,1.314l-.314,2.212A6.835,6.835,0,0,0,8.625-14.2a4.583,4.583,0,0,0-3.768,1.685A7.055,7.055,0,0,0,3.493-7.94a6.993,6.993,0,0,0,1.37,4.554A4.593,4.593,0,0,0,8.625-1.707a7.511,7.511,0,0,0,4.458-1.583ZM25.089,0H23.045V-7.479a2.127,2.127,0,0,0-.41-1.387,1.553,1.553,0,0,0-1.275-.5,4.584,4.584,0,0,0-3.167,1.774V0H16.138V-16.284l2.055-.326v7.086A5.615,5.615,0,0,1,21.911-11.2a3.122,3.122,0,0,1,2.353.854,3.25,3.25,0,0,1,.825,2.358Zm12.69-5.469A5.873,5.873,0,0,1,36.359-1.3,4.8,4.8,0,0,1,32.681.225a4.728,4.728,0,0,1-3.644-1.516,5.927,5.927,0,0,1-1.4-4.178,5.975,5.975,0,0,1,1.4-4.195A4.707,4.707,0,0,1,32.681-11.2a4.786,4.786,0,0,1,3.678,1.533A5.931,5.931,0,0,1,37.779-5.469Zm-2.066,0a4.923,4.923,0,0,0-.8-2.9A2.576,2.576,0,0,0,32.681-9.5a2.517,2.517,0,0,0-2.207,1.117A5.04,5.04,0,0,0,29.7-5.469a4.9,4.9,0,0,0,.786,2.875,2.524,2.524,0,0,0,2.19,1.123,2.591,2.591,0,0,0,2.252-1.1A4.905,4.905,0,0,0,35.713-5.469Zm14.184,0A5.873,5.873,0,0,1,48.476-1.3,4.8,4.8,0,0,1,44.8.225a4.728,4.728,0,0,1-3.644-1.516,5.927,5.927,0,0,1-1.4-4.178,5.975,5.975,0,0,1,1.4-4.195A4.707,4.707,0,0,1,44.8-11.2a4.786,4.786,0,0,1,3.678,1.533A5.931,5.931,0,0,1,49.9-5.469Zm-2.066,0a4.923,4.923,0,0,0-.8-2.9A2.576,2.576,0,0,0,44.8-9.5a2.517,2.517,0,0,0-2.207,1.117,5.039,5.039,0,0,0-.769,2.914,4.9,4.9,0,0,0,.786,2.875A2.524,2.524,0,0,0,44.8-1.471a2.591,2.591,0,0,0,2.252-1.1A4.905,4.905,0,0,0,47.831-5.469ZM60.15-3.055a2.887,2.887,0,0,1-1.117,2.4,5.1,5.1,0,0,1-3.206.876,8.02,8.02,0,0,1-2.134-.3,8.417,8.417,0,0,1-1.864-.73l.3-1.932A6.74,6.74,0,0,0,56-1.471a2.984,2.984,0,0,0,1.64-.382,1.207,1.207,0,0,0,.584-1.067,1.274,1.274,0,0,0-.539-1.117,6.789,6.789,0,0,0-2.055-.747,6.73,6.73,0,0,1-2.8-1.224,2.747,2.747,0,0,1-.814-2.156,2.681,2.681,0,0,1,1.05-2.184,4.347,4.347,0,0,1,2.813-.848,8.792,8.792,0,0,1,3.616.73l-.326,1.932a6.66,6.66,0,0,0-3.335-.943,2.445,2.445,0,0,0-1.4.337,1.075,1.075,0,0,0-.483.932,1.066,1.066,0,0,0,.494.91,5.836,5.836,0,0,0,1.786.674,7.741,7.741,0,0,1,3.032,1.3A2.812,2.812,0,0,1,60.15-3.055ZM71.516-1.247A6.878,6.878,0,0,1,67.125.225a5.631,5.631,0,0,1-2-.343A4.65,4.65,0,0,1,63.514-1.14a4.5,4.5,0,0,1-1.089-1.8,7.9,7.9,0,0,1-.387-2.589A6.018,6.018,0,0,1,63.4-9.658a4.423,4.423,0,0,1,3.47-1.539,4.451,4.451,0,0,1,2.622.752A4.328,4.328,0,0,1,71.05-8.479a7.378,7.378,0,0,1,.489,2.774v.438H64.081a4.261,4.261,0,0,0,.887,2.808,2.943,2.943,0,0,0,2.313.943,5.126,5.126,0,0,0,2.033-.393,8.407,8.407,0,0,0,1.9-1.168ZM66.844-9.591a2.341,2.341,0,0,0-1.707.713,3.735,3.735,0,0,0-.955,2.072h5.29Q69.067-9.591,66.844-9.591ZM87.485,0H85.823L85.6-1.471a5.225,5.225,0,0,1-3.863,1.7A3.279,3.279,0,0,1,79.383-.6a2.926,2.926,0,0,1-.87-2.229A3.187,3.187,0,0,1,80.18-5.784a13.889,13.889,0,0,1,5.25-1.348v-.46q0-1.864-2.089-1.864a9.511,9.511,0,0,0-3.8.943l-.27-1.763a14.7,14.7,0,0,1,2.1-.691,9.26,9.26,0,0,1,2.145-.23,4.464,4.464,0,0,1,2.993.848,3.36,3.36,0,0,1,.971,2.667ZM85.43-3.01V-5.57a15.481,15.481,0,0,0-2.061.32,7.941,7.941,0,0,0-1.415.449,2.946,2.946,0,0,0-.859.562,1.821,1.821,0,0,0-.444.629,1.858,1.858,0,0,0-.118.668,1.379,1.379,0,0,0,.438,1.073,1.718,1.718,0,0,0,1.2.4A4.507,4.507,0,0,0,85.43-3.01Zm16.408-6.233a4.492,4.492,0,0,0-2.409.842A5.281,5.281,0,0,0,97.75-6.491V0H95.695V-10.972h1.64l.337,2.235a5.793,5.793,0,0,1,1.623-1.718,4.227,4.227,0,0,1,2.229-.741ZM113.45-5.469A5.873,5.873,0,0,1,112.03-1.3,4.8,4.8,0,0,1,108.352.225a4.728,4.728,0,0,1-3.644-1.516,5.927,5.927,0,0,1-1.4-4.178,5.975,5.975,0,0,1,1.4-4.195,4.707,4.707,0,0,1,3.639-1.533,4.786,4.786,0,0,1,3.678,1.533A5.931,5.931,0,0,1,113.45-5.469Zm-2.066,0a4.923,4.923,0,0,0-.8-2.9A2.576,2.576,0,0,0,108.352-9.5a2.517,2.517,0,0,0-2.207,1.117,5.04,5.04,0,0,0-.769,2.914,4.9,4.9,0,0,0,.786,2.875,2.524,2.524,0,0,0,2.19,1.123,2.591,2.591,0,0,0,2.252-1.1A4.905,4.905,0,0,0,111.384-5.469ZM118.257,0h-2.044V-16.284l2.044-.326Zm12.23-1.247A6.878,6.878,0,0,1,126.1.225a5.631,5.631,0,0,1-2-.343,4.65,4.65,0,0,1-1.612-1.022,4.5,4.5,0,0,1-1.089-1.8,7.9,7.9,0,0,1-.387-2.589,6.018,6.018,0,0,1,1.359-4.133,4.423,4.423,0,0,1,3.47-1.539,4.451,4.451,0,0,1,2.622.752,4.328,4.328,0,0,1,1.561,1.965,7.378,7.378,0,0,1,.489,2.774v.438h-7.457a4.261,4.261,0,0,0,.887,2.808,2.943,2.943,0,0,0,2.313.943,5.126,5.126,0,0,0,2.033-.393,8.407,8.407,0,0,0,1.9-1.168Zm-4.672-8.344a2.341,2.341,0,0,0-1.707.713,3.735,3.735,0,0,0-.955,2.072h5.29Q128.039-9.591,125.815-9.591Z" transform="translate(22 42.838)" fill="#a3a6aa"/>
        <path id="Icon_material-chevron-left" data-name="Icon material-chevron-left" d="M12.145,2.311,9.834,0,0,9.834l9.834,9.834,2.311-2.311L4.638,9.834Z" transform="translate(405.38 28.346) rotate(90)" fill="#dcddde"/>
      </g>
    </g>
    <path id="Path_1612" data-name="Path 1612" d="M84,184.04,91,172h60L84,287.241Z" transform="translate(5674 -4848)" opacity="0.3"/>
    <path id="Path_1585" data-name="Path 1585" d="M100,0h60L60,172H0Z" transform="translate(5640 -4676)" fill="#fff"/>
    <path id="Path_1611" data-name="Path 1611" d="M2459.354,1311.452q1.662.078,3.273.206l5.517-1.478c-1.345-5.022-4.541-8.164-8.79-8.965V1279.93h21.427c1.558,8.28,3.4,22.995.071,35.336a37.915,37.915,0,0,1,5.314,2.361c4.188,2.29,7.168,5.184,8.525,8.636,1.385,3.522.95,7.288-1.064,11.092-2.05,3.872-5.732,7.769-10.775,11.461a88.865,88.865,0,0,1-19.137,10.293q-2.129.858-4.362,1.661Z" transform="translate(3298.646 -6127.929)" opacity="0.3"/>
    <g id="Group_1179" data-name="Group 1179" transform="matrix(0.998, -0.07, 0.07, 0.998, 356.092, 396.683)">
      <path id="Path_1610" data-name="Path 1610" d="M62.613,15.332a142.5,142.5,0,0,1,23.233-.994,101.383,101.383,0,0,1,20.027,2.712,49.823,49.823,0,0,1,15.045,6.108c3.979,2.6,6.706,5.718,7.773,9.283,1.088,3.637.347,7.391-1.97,11.069-2.359,3.744-6.343,7.4-11.665,10.748a89.487,89.487,0,0,1-19.89,8.981,140.05,140.05,0,0,1-25.978,5.642,140.05,140.05,0,0,1-26.571.811,89.486,89.486,0,0,1-21.472-3.9c-5.974-1.964-10.724-4.545-13.918-7.607-3.139-3.008-4.766-6.472-4.59-10.264.173-3.718,2.064-7.4,5.3-10.888a49.823,49.823,0,0,1,13.12-9.566A101.383,101.383,0,0,1,39.83,19.988,142.5,142.5,0,0,1,62.613,15.332Z" transform="translate(5647.535 -4833.558)" fill="#9a9a9a"/>
      <path id="Path_1609" data-name="Path 1609" d="M41.31,101q-3.392-.23-6.582-.637L11.536,80.2,35.8,52.292q1.039-.326,2.1-.637A147.361,147.361,0,0,1,83.912,46,102.9,102.9,0,0,1,104,48.679a50.767,50.767,0,0,1,15.144,6.052c4.018,2.576,6.789,5.67,7.9,9.209,1.136,3.61.441,7.338-1.834,10.992-2.316,3.72-6.26,7.349-11.548,10.681a88.853,88.853,0,0,1-19.808,8.933,140.36,140.36,0,0,1-25.947,5.624,147.293,147.293,0,0,1-17.892,1.117C47.034,101.287,44.126,101.189,41.31,101Z" transform="translate(5649.176 -4865.056)" fill="#444" opacity="0.47"/>
      <path id="Path_1608" data-name="Path 1608" d="M51.337,12.649a124.842,124.842,0,0,1,19.131-.912,86.524,86.524,0,0,1,16.344,1.971,39.863,39.863,0,0,1,12.047,4.587c3.125,1.952,5.2,4.3,5.916,6.985.723,2.725-.03,5.537-2.037,8.291a31.093,31.093,0,0,1-9.707,8.018A78.484,78.484,0,0,1,76.965,48.3a123.18,123.18,0,0,1-20.721,4.312,123.18,123.18,0,0,1-21.149.829,78.484,78.484,0,0,1-17.213-2.627A31.093,31.093,0,0,1,6.524,45.384C3.91,43.2,2.5,40.651,2.542,37.832c.042-2.777,1.491-5.558,4.051-8.208a39.863,39.863,0,0,1,10.579-7.365,86.524,86.524,0,0,1,15.382-5.867A124.842,124.842,0,0,1,51.337,12.649Z" transform="translate(5659.354 -4826.453)" fill="#404040"/>
      <g id="Group_1176" data-name="Group 1176" transform="translate(5675.217 -4887.618) rotate(9)">
        <path id="Path_1607" data-name="Path 1607" d="M0,0H26V36H0Z" transform="translate(14.651 6.54)"/>
        <path id="Path_1574-3" data-name="Path 1574" d="M63.379,16.672,34.107.41a3.254,3.254,0,0,0-3.161,0L1.673,16.672A3.248,3.248,0,0,0,0,19.512C0,21.769.372,74.8,32.526,74.8S65.051,21.769,65.051,19.512A3.248,3.248,0,0,0,63.379,16.672ZM32.526,19.512a8.131,8.131,0,1,1-8.131,8.131A8.13,8.13,0,0,1,32.526,19.512ZM20.329,52.04c0-7.484,4.713-12.2,12.2-12.2s12.2,4.713,12.2,12.2Z" transform="translate(-4.001 -13)" fill="#77aae3" fill-rule="evenodd"/>
      </g>
      <g id="Group_1175" data-name="Group 1175" transform="translate(5697.035 -4861.563) rotate(-11)">
        <path id="Path_1606" data-name="Path 1606" d="M0,0H26V36H0Z" transform="translate(19.417 17.456)"/>
        <g transform="matrix(0.97, 0.26, -0.26, 0.97, -112.89, -69.35)" filter="url(#Path_1574)">
          <path id="Path_1574-4" data-name="Path 1574" d="M63.379,16.672,34.107.41a3.254,3.254,0,0,0-3.161,0L1.673,16.672A3.248,3.248,0,0,0,0,19.512C0,21.769.372,74.8,32.526,74.8S65.051,21.769,65.051,19.512A3.248,3.248,0,0,0,63.379,16.672ZM32.526,19.512a8.131,8.131,0,1,1-8.131,8.131A8.13,8.13,0,0,1,32.526,19.512ZM20.329,52.04c0-7.484,4.713-12.2,12.2-12.2s12.2,4.713,12.2,12.2Z" transform="translate(127 37.77) rotate(-15)" fill="#36a549" fill-rule="evenodd"/>
        </g>
      </g>
      <g id="Group_1174" data-name="Group 1174" transform="translate(5658.772 -4854.975) rotate(11)">
        <path id="Path_1605" data-name="Path 1605" d="M0,0H26V36H0Z" transform="translate(19.417 17.456)"/>
        <g transform="matrix(0.99, -0.12, 0.12, 0.99, -94.35, -35.78)" filter="url(#Path_1574-2)">
          <path id="Path_1574-5" data-name="Path 1574" d="M63.379,16.672,34.107.41a3.254,3.254,0,0,0-3.161,0L1.673,16.672A3.248,3.248,0,0,0,0,19.512C0,21.769.372,74.8,32.526,74.8S65.051,21.769,65.051,19.512A3.248,3.248,0,0,0,63.379,16.672ZM32.526,19.512a8.131,8.131,0,1,1-8.131,8.131A8.13,8.13,0,0,1,32.526,19.512ZM20.329,52.04c0-7.484,4.713-12.2,12.2-12.2s12.2,4.713,12.2,12.2Z" transform="matrix(0.99, 0.12, -0.12, 0.99, 89.29, 47.01)" fill="#ff2a29" fill-rule="evenodd"/>
        </g>
      </g>
    </g>
    <g id="pointinghand" transform="translate(6023.791 -4812.537)">
      <g transform="matrix(1, 0, 0, 1, -450.66, -75.67)" filter="url(#Path_1586)">
        <path id="Path_1586-2" data-name="Path 1586" d="M16.091,40.47c-.8-1.069-1.6-2.939-3.206-5.344-.8-1.336-3.206-4.008-4.008-5.077a3.162,3.162,0,0,1-.267-2.672,3.769,3.769,0,0,1,3.741-2.939c1.336,0,2.672,1.069,3.741,1.87.534.534,1.336,1.6,1.87,2.138s.534.8,1.069,1.336c.534.8.8,1.336.534.267-.267-1.336-.534-3.474-1.069-5.611a21.675,21.675,0,0,0-.8-2.939c-.267-1.336-.534-2.138-.8-3.474-.267-.8-.534-2.939-.8-4.008-.267-1.336-.267-3.741.8-4.809a3.28,3.28,0,0,1,3.474-.534,6.86,6.86,0,0,1,2.4,3.474,22.173,22.173,0,0,1,1.336,5.344c.534,2.672,1.336,6.68,1.336,7.481a20.09,20.09,0,0,1,0-4.008,2.992,2.992,0,0,1,1.87-2.138,7.4,7.4,0,0,1,2.4-.267A5.818,5.818,0,0,1,31.856,19.9c1.069,1.6,1.069,5.077,1.069,4.809.267-1.069.267-3.206.8-4.275a4.793,4.793,0,0,1,1.87-1.336,4.553,4.553,0,0,1,2.672,0,3.092,3.092,0,0,1,1.87,1.336c.534.8.8,3.474,1.069,4.542a15.889,15.889,0,0,1,.8-1.87c1.069-1.6,4.809-2.138,5.077,1.6v6.145a26.325,26.325,0,0,1-.534,4.542,16.213,16.213,0,0,1-1.87,3.741s-2.939,3.206-3.206,4.809a11.068,11.068,0,0,0-.267,2.672,14.769,14.769,0,0,0,.267,2.4,12.08,12.08,0,0,1-3.206,0c-1.069-.267-2.4-2.138-2.672-2.939a1.028,1.028,0,0,0-1.87,0c-.534,1.069-1.87,2.939-2.939,2.939-1.87.267-5.611,0-8.283,0,0,0,.534-2.672-.534-3.741L19.03,42.34Z" transform="translate(451.29 76.3)" fill="#fff"/>
      </g>
      <path id="Line_101" data-name="Line 101" d="M.627,10.714a1,1,0,0,1-1-1V.627a1,1,0,0,1,2,0V9.712A1,1,0,0,1,.627,10.714Z" transform="translate(27.582 32.186)"/>
      <path id="Line_101-2" data-name="Line 101" d="M.627,10.714a1,1,0,0,1-1-1V.627a1,1,0,0,1,2,0V9.712A1,1,0,0,1,.627,10.714Z" transform="translate(32.467 32.186)"/>
      <path id="Path_1587" data-name="Path 1587" d="M40.2,50.768a6.519,6.519,0,0,1-1.549-.149c-1.482-.37-2.91-2.443-3.318-3.43a.605.605,0,0,0-.047-.051.681.681,0,0,0-.074.086c-.26.5-1.827,3.342-3.718,3.422a19.045,19.045,0,0,1-2.467.12c-.955,0-2.015-.031-3.041-.061s-1.991-.058-2.857-.058a1,1,0,0,1-.983-1.2c.17-.867.206-2.37-.26-2.836l-2.861-2.861-2.846-1.811a1,1,0,0,1-.264-.244,19.348,19.348,0,0,1-1.283-2.117c-.528-.951-1.126-2.028-1.955-3.272l-.025-.04a36.547,36.547,0,0,0-2.62-3.36C9.479,32.246,9,31.674,8.7,31.278a1,1,0,0,1-.095-.153A4.1,4.1,0,0,1,8.257,27.8a4.8,4.8,0,0,1,4.722-3.735c1.594,0,3.014,1.07,4.155,1.93l.187.141a1,1,0,0,1,.107.093c.3.3.654.725,1,1.136l.22.263c-.137-.747-.3-1.539-.492-2.318q-.01-.039-.016-.078a9.316,9.316,0,0,0-.459-1.8c-.106-.3-.215-.619-.326-1.063q-.006-.023-.01-.047c-.129-.645-.256-1.153-.39-1.69-.131-.522-.265-1.061-.4-1.727a20.71,20.71,0,0,1-.462-2.243c-.114-.657-.231-1.336-.341-1.775q-.006-.023-.01-.047c-.267-1.337-.387-4.252,1.076-5.714a4.162,4.162,0,0,1,2.9-1.106,3.876,3.876,0,0,1,1.726.384q.034.017.067.037a7.788,7.788,0,0,1,2.83,3.988,23.3,23.3,0,0,1,1.384,5.528c.109.545.215,1.077.317,1.591a3.148,3.148,0,0,1,1.617-1.056,8.42,8.42,0,0,1,2.687-.307,1,1,0,0,1,.317.051,6.807,6.807,0,0,1,2.529,1.578,1,1,0,0,1,.125.153,4.368,4.368,0,0,1,.257.442,5.775,5.775,0,0,1,2.2-1.584,1,1,0,0,1,.131-.054,5.3,5.3,0,0,1,1.653-.252,5.385,5.385,0,0,1,1.53.213,4.154,4.154,0,0,1,2.541,1.817A6.46,6.46,0,0,1,42.3,22.6,4.274,4.274,0,0,1,45.132,21.5c1.528,0,3.383.984,3.581,3.757q0,.036,0,.071v6.145a26.994,26.994,0,0,1-.564,4.785q-.009.037-.021.074a17.154,17.154,0,0,1-2.019,4.025c-.02.026-.041.052-.063.076-1.137,1.242-2.806,3.4-2.957,4.3a10.414,10.414,0,0,0-.254,2.507,13.828,13.828,0,0,0,.248,2.209,1,1,0,0,1-.858,1.19A18.476,18.476,0,0,1,40.2,50.768ZM35.289,45.1a2.13,2.13,0,0,1,1.769,1.047,1,1,0,0,1,.117.239,5.071,5.071,0,0,0,1.964,2.284,4.6,4.6,0,0,0,1.063.089c.253,0,.507-.009.741-.022a12.2,12.2,0,0,1-.11-1.5,12,12,0,0,1,.281-2.837c.295-1.767,2.824-4.628,3.421-5.283a15.407,15.407,0,0,0,1.681-3.383,25.98,25.98,0,0,0,.5-4.262V25.37c-.068-.858-.4-1.862-1.579-1.862a2.129,2.129,0,0,0-1.662.777,6.19,6.19,0,0,0-.579,1.393,1.132,1.132,0,0,1-1.05.959,1.009,1.009,0,0,1-1-.866c-.087-.368-.168-.846-.261-1.395a12.724,12.724,0,0,0-.652-2.763,1,1,0,0,1-.062-.108,2.6,2.6,0,0,0-1.018-.783,1,1,0,0,1-.274-.05,3.693,3.693,0,0,0-1.976-.02,4.265,4.265,0,0,0-1.358.863,9.219,9.219,0,0,0-.469,2.4,14.652,14.652,0,0,1-.238,1.6.994.994,0,0,1-.986.831,1.013,1.013,0,0,1-1-.992,10.389,10.389,0,0,0-.849-4.2,4.946,4.946,0,0,0-1.529-.971,6.059,6.059,0,0,0-1.914.216q-.037.012-.074.021c-.59.147-.949.857-1.15,1.444a10.831,10.831,0,0,0-.017,2.492c.028.45.055.875.055,1.238a1,1,0,1,1-2,0c0-.7-.889-5.148-1.317-7.285q-.007-.036-.012-.072a21.019,21.019,0,0,0-1.272-5.1q-.011-.027-.02-.055a6.025,6.025,0,0,0-1.935-2.91,1.906,1.906,0,0,0-.8-.156,2.228,2.228,0,0,0-1.487.519c-.649.649-.8,2.526-.532,3.883.126.509.247,1.213.365,1.894a19.66,19.66,0,0,0,.409,2.015,1.007,1.007,0,0,1,.032.12c.129.645.256,1.153.39,1.69s.27,1.079.406,1.759c.087.346.176.6.269.868a11.1,11.1,0,0,1,.536,2.087c.361,1.451.6,2.906.8,4.077.1.586.182,1.094.267,1.519a1.522,1.522,0,0,1-.094,1.428,1.013,1.013,0,0,1-.8.392c-.6,0-.86-.407-1.226-.97-.053-.082-.111-.171-.172-.264a4.891,4.891,0,0,1-.586-.745,2.872,2.872,0,0,0-.409-.515c-.3-.3-.654-.725-1-1.136-.294-.353-.6-.717-.827-.954l-.13-.1c-.9-.68-2.026-1.527-2.949-1.527a2.785,2.785,0,0,0-2.752,2.1q-.007.039-.016.078a2.173,2.173,0,0,0,.151,1.9c.274.357.729.9,1.209,1.476a36.958,36.958,0,0,1,2.789,3.593c.868,1.3,1.511,2.462,2.027,3.392.4.724.727,1.31,1.032,1.745L20.2,42.122a1,1,0,0,1,.171.137L23.306,45.2a4.593,4.593,0,0,1,.956,3.46c.584.011,1.191.029,1.786.046,1.011.029,2.057.06,2.983.06a16.984,16.984,0,0,0,2.243-.109,1,1,0,0,1,.142-.01,5.307,5.307,0,0,0,2.043-2.385,1,1,0,0,1,.063-.108A2.13,2.13,0,0,1,35.289,45.1Z" transform="translate(0 0)"/>
      <path id="Line_99" data-name="Line 99" d="M.627,10.714a1,1,0,0,1-1-1V.627a1,1,0,0,1,2,0V9.712A1,1,0,0,1,.627,10.714Z" transform="translate(37.351 32.186)"/>
    </g>
    <path id="Arm-2" data-name="Arm" d="M65.517,36.3c-7.771-13.46-21.6-10.788-35.868-2.208S-2.658,50.816,7.384,68.21c3.325,5.758,9.754,8.574,16.417,5.875,5.305-2.144,10.7-9.4,16.9-12.966,13-7.467,19.981-4.71,23.2-6.669C72.67,49.111,73.288,49.763,65.517,36.3Z" transform="matrix(-0.788, -0.616, 0.616, -0.788, 5690.571, -4535.405)" fill="#f27187"/>
  </g>
</svg>
