<svg xmlns="http://www.w3.org/2000/svg" xmlns:xlink="http://www.w3.org/1999/xlink" width="612.139" height="384.211" viewBox="0 0 612.139 384.211">
  <defs>
    <filter id="Path_1574" x="117.997" y="17.933" width="91.194" height="92.092" filterUnits="userSpaceOnUse">
      <feOffset dx="-9" dy="-3" input="SourceAlpha"/>
      <feGaussianBlur result="blur"/>
      <feFlood flood-opacity="0.302"/>
      <feComposite operator="in" in2="blur"/>
      <feComposite in="SourceGraphic"/>
    </filter>
    <filter id="Path_1574-2" x="80.171" y="45.01" width="80.682" height="84.174" filterUnits="userSpaceOnUse">
      <feOffset dx="7" dy="-2" input="SourceAlpha"/>
      <feGaussianBlur result="blur-2"/>
      <feFlood flood-opacity="0.302"/>
      <feComposite operator="in" in2="blur-2"/>
      <feComposite in="SourceGraphic"/>
    </filter>
    <filter id="Path_1586" x="459.727" y="79.198" width="47.151" height="46.243" filterUnits="userSpaceOnUse">
      <feOffset dx="7" dy="-4" input="SourceAlpha"/>
      <feGaussianBlur stdDeviation="0.5" result="blur-3"/>
      <feFlood flood-opacity="0.302"/>
      <feComposite operator="in" in2="blur-3"/>
      <feComposite in="SourceGraphic"/>
    </filter>
  </defs>
  <g id="role-pickers" transform="translate(-5573.126 4888.211)">
    <g id="CRBT" transform="translate(5544.524 -4680.393) rotate(-30)">
      <path id="Tail" d="M49.02,47.832s5.434-22.445-3.561-37.717a101.073,101.073,0,0,0-20.378-24.6L20.219,3.352c-.3.246-9.692,19.726-9.692,19.726s13.362,3.064,21.5,7.823S49.02,47.832,49.02,47.832Z" transform="matrix(-0.259, 0.966, -0.966, -0.259, 77.014, 127.594)" fill="#aa4f62"/>
      <path id="Arm" d="M65.517,36.3c-7.771-13.46-21.6-10.788-35.868-2.208S-2.658,50.816,7.384,68.21c3.325,5.758,9.754,8.574,16.417,5.875,5.305-2.144,10.7-9.4,16.9-12.966,13-7.467,19.981-4.71,23.2-6.669C72.67,49.111,73.288,49.763,65.517,36.3Z" transform="translate(229.943 69.637) rotate(159)" fill="#aa4f62"/>
      <path id="Path_1573" data-name="Path 1573" d="M8.154-4.707s.726,18.429.784,19.575a3.386,3.386,0,0,0,1.806,2.656c1.087.743,16.946,10.371,16.946,10.371L37.738,10.651Z" transform="translate(11.433 140.72) rotate(-60)" fill="#aa4f62"/>
      <path id="Body" d="M72.642,0H84.359A72.642,72.642,0,0,1,157,72.642V83.187a72.642,72.642,0,0,1-72.642,72.642H72.642A72.642,72.642,0,0,1,0,83.187V72.642A72.642,72.642,0,0,1,72.642,0Z" transform="translate(32.263 1.322)" fill="#f27187"/>
      <path id="Inside_triangle" data-name="Inside triangle" d="M.18,5.028.532,0,33.737,18.6a2.344,2.344,0,0,1,0,4.089L5.717,38.375A72.33,72.33,0,0,1,.18,5.028Z" transform="matrix(0.998, -0.07, 0.07, 0.998, 21.183, 78.034)" fill="#bb586a"/>
      <path id="Mouth" d="M0,0H46.657s.576,25.541-22.469,25.541S0,0,0,0Z" transform="translate(94.43 81.879)" fill="#4a0920"/>
      <path id="Path_1602" data-name="Path 1602" d="M7.675,73.257a3.025,3.025,0,0,1-2.015-.772,2.971,2.971,0,0,1-.986-2.023L-.051,2.891A2.958,2.958,0,0,1,.739.643a3.024,3.024,0,0,1,2.2-.966,2.982,2.982,0,0,1,1.289.295L27.606,11.085c-.146,1.882-.22,3.8-.22,5.7V27.328a72.113,72.113,0,0,0,6.2,29.412L9.319,72.757A2.98,2.98,0,0,1,7.675,73.257Z" transform="translate(4.796 58.288)" fill="#f27187"/>
      <path id="Path_1603" data-name="Path 1603" d="M0,16.216V5.671Q0,2.81.218,0l39.9,18.664a3,3,0,0,1,.366,5.232L6.4,46.084A72.369,72.369,0,0,1,0,16.216Z" transform="translate(32.182 69.4)" fill="#aa4f62"/>
      <path id="Path_1604" data-name="Path 1604" d="M14.026,0A14.026,14.026,0,1,1,0,14.026,14.026,14.026,0,0,1,14.026,0Z" transform="translate(76.618 36.088)" fill="#4a0920"/>
      <path id="Path_1601" data-name="Path 1601" d="M14.026,0A14.026,14.026,0,1,1,0,14.026,14.026,14.026,0,0,1,14.026,0Z" transform="translate(130.341 38.743)" fill="#4a0920"/>
    </g>
    <g id="Group_1171" data-name="Group 1171" transform="translate(0.031 -55)">
      <g id="Group_1167" data-name="Group 1167" transform="translate(5758 -4789)">
        <g id="Path_1581" data-name="Path 1581" transform="translate(427.233 280) rotate(180)" fill="#2f3136">
          <path d="M 421.7700805664062 279.0004272460938 L 5.463330745697021 279.0004272460938 C 3.002225637435913 279.0004272460938 1.000015020370483 276.956787109375 1.000015020370483 274.4448547363281 L 1.000015020370483 1.000003099441528 L 426.2333984375 1.000003099441528 L 426.2333984375 274.4448547363281 C 426.2333984375 276.956787109375 424.2311706542969 279.0004272460938 421.7700805664062 279.0004272460938 Z" stroke="none"/>
          <path d="M 1.999969482421875 2 L 1.999969482421875 274.44482421875 C 1.999969482421875 276.4053955078125 3.55364990234375 278.0004272460938 5.46337890625 278.0004272460938 L 421.77001953125 278.0004272460938 C 423.6796875 278.0004272460938 425.2333679199219 276.4053955078125 425.2333679199219 274.44482421875 L 425.2333679199219 2 L 1.999969482421875 2 M -3.0517578125e-05 0 L 427.2333679199219 0 L 427.2333679199219 274.44482421875 C 427.2333679199219 277.5130920410156 424.787353515625 280.0004272460938 421.77001953125 280.0004272460938 L 5.46337890625 280.0004272460938 C 2.446044921875 280.0004272460938 -3.0517578125e-05 277.5130920410156 -3.0517578125e-05 274.44482421875 L -3.0517578125e-05 0 Z" stroke="none" fill="#202225"/>
        </g>
        <g id="Group_1165" data-name="Group 1165" transform="translate(-2 5351.945)">
          <g id="Group_1203" data-name="Group 1203" transform="translate(2 268.009)">
            <path id="Path_1598" data-name="Path 1598" d="M3.03,0H424.2c1.673,0,3.03.836,3.03,1.867V56H0V1.867C0,.836,1.357,0,3.03,0Z" transform="translate(0 -5395.954)" fill="#42464d" opacity="0"/>
            <path id="Path_1597" data-name="Path 1597" d="M15,0A15,15,0,1,1,0,15,15,15,0,0,1,15,0Z" transform="translate(11 -5382.954)" fill="#6c95ff"/>
            <path id="Path_1691" data-name="Path 1691" d="M11.146-4.225A3.693,3.693,0,0,1,9.721-1.061,6.643,6.643,0,0,1,5.691,0H1.538V-14.489H5.752a5.57,5.57,0,0,1,3.594.995,3.368,3.368,0,0,1,1.215,2.758A3.043,3.043,0,0,1,10-8.88,3.567,3.567,0,0,1,8.459-7.711,3.392,3.392,0,0,1,11.146-4.225ZM7.978-10.5q0-1.866-2.369-1.866H4.2v3.845H5.486a2.88,2.88,0,0,0,1.856-.518A1.778,1.778,0,0,0,7.978-10.5Zm.5,6.193a2.008,2.008,0,0,0-.723-1.671A3.329,3.329,0,0,0,5.65-6.552H4.2v4.43H5.691a3.341,3.341,0,0,0,2.066-.554A1.927,1.927,0,0,0,8.48-4.307ZM15.853,0H13.33V-14.766l2.522-.4ZM27.132,0H24.989l-.236-1.425A4.973,4.973,0,0,1,21.369.205a2.776,2.776,0,0,1-2.153-.8,3.223,3.223,0,0,1-.738-2.261v-7.28H21v6.634q0,1.466,1.282,1.466A3.426,3.426,0,0,0,24.609-3.3v-6.839h2.522ZM38.165-1.025a6.9,6.9,0,0,1-4.05,1.23,5.83,5.83,0,0,1-1.969-.318,4.467,4.467,0,0,1-1.564-.943,4.155,4.155,0,0,1-1.046-1.651,6.858,6.858,0,0,1-.374-2.358,5.543,5.543,0,0,1,1.292-3.861,4.274,4.274,0,0,1,3.322-1.43,4.625,4.625,0,0,1,1.969.4,3.535,3.535,0,0,1,1.384,1.107,5.093,5.093,0,0,1,.79,1.63,7.3,7.3,0,0,1,.267,2.03q0,.113-.01.333t-.01.282H31.633a3.128,3.128,0,0,0,.815,2.138,2.692,2.692,0,0,0,1.943.692A6.119,6.119,0,0,0,37.878-3Zm-4.45-7.588a1.734,1.734,0,0,0-1.348.636,3.253,3.253,0,0,0-.692,1.825h4.061Q35.479-8.613,33.715-8.613Z" transform="translate(51.985 -5360.446)" fill="#fff"/>
          </g>
          <g id="Group_1202" data-name="Group 1202" transform="translate(2 212.009)">
            <path id="Path_1598-2" data-name="Path 1598" d="M3.03,0H424.2c1.673,0,3.03.836,3.03,1.867V56H0V1.867C0,.836,1.357,0,3.03,0Z" transform="translate(0 -5395.954)" fill="#42464d" opacity="0"/>
            <path id="Path_1597-2" data-name="Path 1597" d="M15,0A15,15,0,1,1,0,15,15,15,0,0,1,15,0Z" transform="translate(11 -5382.954)" fill="#36a549"/>
            <path id="Path_1690" data-name="Path 1690" d="M13.166-1.2A9.179,9.179,0,0,1,8.08.277,6.756,6.756,0,0,1,2.83-1.764,7.785,7.785,0,0,1,.964-7.229a7.759,7.759,0,0,1,1.9-5.47,6.685,6.685,0,0,1,5.173-2.066,8.391,8.391,0,0,1,4.409,1.159l-.39,2.584a6.773,6.773,0,0,0-4-1.364A3.8,3.8,0,0,0,4.9-11.008,5.9,5.9,0,0,0,3.8-7.25,5.843,5.843,0,0,0,4.927-3.471,3.953,3.953,0,0,0,8.193-2.082a5.126,5.126,0,0,0,2.43-.584V-5.875H7.69L7.352-8.111h5.814Zm8.7-6.655a4.573,4.573,0,0,0-2.087.631,4.58,4.58,0,0,0-1.5,1.41V0H15.75V-10.141h2.143l.318,2.03a3.921,3.921,0,0,1,3.25-2.246ZM31.931-1.025A6.9,6.9,0,0,1,27.88.205a5.83,5.83,0,0,1-1.969-.318,4.467,4.467,0,0,1-1.564-.943A4.155,4.155,0,0,1,23.3-2.707a6.858,6.858,0,0,1-.374-2.358A5.543,5.543,0,0,1,24.22-8.926a4.274,4.274,0,0,1,3.322-1.43,4.625,4.625,0,0,1,1.969.4A3.535,3.535,0,0,1,30.9-8.849a5.093,5.093,0,0,1,.79,1.63,7.3,7.3,0,0,1,.267,2.03q0,.113-.01.333t-.01.282H25.4a3.128,3.128,0,0,0,.815,2.138,2.692,2.692,0,0,0,1.943.692A6.119,6.119,0,0,0,31.644-3ZM27.48-8.613a1.734,1.734,0,0,0-1.348.636,3.253,3.253,0,0,0-.692,1.825H29.5Q29.244-8.613,27.48-8.613ZM42.472-1.025a6.9,6.9,0,0,1-4.05,1.23,5.83,5.83,0,0,1-1.969-.318,4.467,4.467,0,0,1-1.564-.943,4.155,4.155,0,0,1-1.046-1.651,6.858,6.858,0,0,1-.374-2.358,5.543,5.543,0,0,1,1.292-3.861,4.274,4.274,0,0,1,3.322-1.43,4.625,4.625,0,0,1,1.969.4,3.535,3.535,0,0,1,1.384,1.107,5.093,5.093,0,0,1,.79,1.63,7.3,7.3,0,0,1,.267,2.03q0,.113-.01.333t-.01.282H35.94a3.128,3.128,0,0,0,.815,2.138,2.692,2.692,0,0,0,1.943.692A6.119,6.119,0,0,0,42.185-3Zm-4.45-7.588a1.734,1.734,0,0,0-1.348.636,3.253,3.253,0,0,0-.692,1.825h4.061Q39.785-8.613,38.021-8.613ZM53.187,0H50.665V-6.634a1.718,1.718,0,0,0-.318-1.1,1.181,1.181,0,0,0-.984-.4A3.345,3.345,0,0,0,47.055-6.85V0H44.533V-10.141h2.143L46.9-8.716a4.986,4.986,0,0,1,3.384-1.641,2.8,2.8,0,0,1,2.148.8,3.15,3.15,0,0,1,.754,2.24Z" transform="translate(51.985 -5360.446)" fill="#fff"/>
          </g>
          <g id="Group_1201" data-name="Group 1201" transform="translate(2 156.009)">
            <path id="Path_1598-3" data-name="Path 1598" d="M3.03,0H424.2c1.673,0,3.03.836,3.03,1.867V56H0V1.867C0,.836,1.357,0,3.03,0Z" transform="translate(0 -5395.954)" fill="#42464d" opacity="0"/>
            <path id="Path_1597-3" data-name="Path 1597" d="M15,0A15,15,0,1,1,0,15,15,15,0,0,1,15,0Z" transform="translate(11 -5382.954)" fill="#f3d63a"/>
            <path id="Path_1692" data-name="Path 1692" d="M13.463-14.489,8.234-5.547V0h-2.8V-5.527L.379-14.171l2.892-.461,3.64,6.521,3.527-6.378ZM23.471-1.025a6.9,6.9,0,0,1-4.05,1.23,5.83,5.83,0,0,1-1.969-.318,4.467,4.467,0,0,1-1.564-.943,4.155,4.155,0,0,1-1.046-1.651,6.858,6.858,0,0,1-.374-2.358A5.543,5.543,0,0,1,15.76-8.926a4.274,4.274,0,0,1,3.322-1.43,4.625,4.625,0,0,1,1.969.4,3.535,3.535,0,0,1,1.384,1.107,5.093,5.093,0,0,1,.79,1.63,7.3,7.3,0,0,1,.267,2.03q0,.113-.01.333t-.01.282H16.939a3.128,3.128,0,0,0,.815,2.138,2.692,2.692,0,0,0,1.943.692A6.119,6.119,0,0,0,23.184-3Zm-4.45-7.588a1.734,1.734,0,0,0-1.348.636,3.253,3.253,0,0,0-.692,1.825h4.061Q20.785-8.613,19.021-8.613ZM28.157,0H25.635V-14.766l2.522-.4Zm5.291,0H30.926V-14.766l2.522-.4ZM43.81-8.926a5.424,5.424,0,0,1,1.338,3.861A5.375,5.375,0,0,1,43.8-1.215,4.557,4.557,0,0,1,40.339.205a4.467,4.467,0,0,1-3.425-1.42,5.425,5.425,0,0,1-1.323-3.85,5.437,5.437,0,0,1,1.333-3.861,4.484,4.484,0,0,1,3.435-1.43A4.512,4.512,0,0,1,43.81-8.926ZM42.687-5.065a4.019,4.019,0,0,0-.62-2.333,1.984,1.984,0,0,0-1.728-.9,1.934,1.934,0,0,0-1.692.887,4.086,4.086,0,0,0-.6,2.343,4.05,4.05,0,0,0,.61,2.323,1.931,1.931,0,0,0,1.687.9,1.988,1.988,0,0,0,1.743-.877A4.056,4.056,0,0,0,42.687-5.065Zm18-5.076L57.658.021H55.351l-1.876-6.7L51.649.021H49.342L46.317-9.957l2.563-.338,1.784,6.87,1.825-6.716h2.225l1.825,6.7,1.743-6.7Z" transform="translate(51.985 -5360.446)" fill="#fff"/>
          </g>
          <g id="Group_1200" data-name="Group 1200" transform="translate(2 100.009)">
            <path id="Path_1598-4" data-name="Path 1598" d="M3.03,0H424.2c1.673,0,3.03.836,3.03,1.867V56H0V1.867C0,.836,1.357,0,3.03,0Z" transform="translate(0 -5395.954)" fill="#42464d" opacity="0"/>
            <path id="Path_1597-4" data-name="Path 1597" d="M15,0A15,15,0,1,1,0,15,15,15,0,0,1,15,0Z" transform="translate(11 -5382.954)" fill="#ff7e31"/>
            <path id="Path_1693" data-name="Path 1693" d="M12.73-12.7A7.853,7.853,0,0,1,14.571-7.27,7.9,7.9,0,0,1,12.71-1.81,6.317,6.317,0,0,1,7.752.277,6.713,6.713,0,0,1,4.178-.667,6.252,6.252,0,0,1,1.8-3.312,8.779,8.779,0,0,1,.964-7.229,8.824,8.824,0,0,1,1.8-11.167,6.251,6.251,0,0,1,4.2-13.822a6.786,6.786,0,0,1,3.594-.943A6.291,6.291,0,0,1,12.73-12.7ZM11.761-7.25a6.128,6.128,0,0,0-1.066-3.794,3.469,3.469,0,0,0-2.922-1.4,3.445,3.445,0,0,0-2.907,1.4A6.149,6.149,0,0,0,3.8-7.25a6.172,6.172,0,0,0,1.061,3.8,3.441,3.441,0,0,0,2.907,1.41,3.466,3.466,0,0,0,2.927-1.4A6.168,6.168,0,0,0,11.761-7.25Zm11.167-.6a4.573,4.573,0,0,0-2.087.631,4.58,4.58,0,0,0-1.5,1.41V0H16.816V-10.141h2.143l.318,2.03a3.921,3.921,0,0,1,3.25-2.246ZM32.577,0H30.413l-.205-1.323A4.54,4.54,0,0,1,26.824.205a2.9,2.9,0,0,1-2.087-.749A2.713,2.713,0,0,1,23.953-2.6a2.976,2.976,0,0,1,1.482-2.712,11.284,11.284,0,0,1,4.63-1.215v-.3a1.4,1.4,0,0,0-.441-1.148,2.026,2.026,0,0,0-1.3-.359,8.413,8.413,0,0,0-3.384.82l-.318-2.02a11.018,11.018,0,0,1,4.03-.82,4.556,4.556,0,0,1,2.969.8,3.213,3.213,0,0,1,.959,2.6ZM30.064-2.789V-5.065a6.6,6.6,0,0,0-2.825.8,1.645,1.645,0,0,0-.795,1.379,1.14,1.14,0,0,0,.328.866,1.269,1.269,0,0,0,.913.313A3.312,3.312,0,0,0,30.064-2.789ZM43.733,0H41.21V-6.634a1.718,1.718,0,0,0-.318-1.1,1.181,1.181,0,0,0-.984-.4A3.345,3.345,0,0,0,37.6-6.85V0H35.079V-10.141h2.143l.226,1.425a4.986,4.986,0,0,1,3.384-1.641,2.8,2.8,0,0,1,2.148.8,3.15,3.15,0,0,1,.754,2.24ZM55.34.42a2.628,2.628,0,0,1-.723,1.841,4.4,4.4,0,0,1-1.923,1.174,8.671,8.671,0,0,1-2.687.39,10.127,10.127,0,0,1-2.476-.272A4,4,0,0,1,45.814,2.7a1.814,1.814,0,0,1-.646-1.4A1.91,1.91,0,0,1,45.64.036a5.2,5.2,0,0,1,1.446-1.1A1.382,1.382,0,0,1,46.5-2.184q0-.872,1.271-1.6a3.363,3.363,0,0,1-1.4-1.2,3.17,3.17,0,0,1-.5-1.774,3.257,3.257,0,0,1,1.164-2.61,4.332,4.332,0,0,1,2.907-.99,4.389,4.389,0,0,1,2.881.943l2.481-.882.328,2.02-1.846.123a3.48,3.48,0,0,1,.277,1.323A3.183,3.183,0,0,1,53.5-4.968a3.5,3.5,0,0,1-1.471,1.215,4.872,4.872,0,0,1-2.02.41,6,6,0,0,1-.841-.041q-.4.256-.4.523,0,.246.338.359a12.244,12.244,0,0,0,1.548.3l1.3.123a6.088,6.088,0,0,1,2.528.815A1.909,1.909,0,0,1,55.34.42Zm-5.4-.677a15.213,15.213,0,0,1-1.507-.226q-1.077.728-1.077,1.507a1.067,1.067,0,0,0,.718.948,4.907,4.907,0,0,0,2.1.354,4.581,4.581,0,0,0,2.071-.39Q53,1.548,53,.964A.755.755,0,0,0,52.613.3,3.561,3.561,0,0,0,51.3-.082Zm1.815-6.573a1.932,1.932,0,0,0-.5-1.364,1.68,1.68,0,0,0-1.292-.543,1.6,1.6,0,0,0-1.292.559,2.126,2.126,0,0,0-.472,1.42,1.876,1.876,0,0,0,.482,1.323,1.659,1.659,0,0,0,1.282.523,1.669,1.669,0,0,0,1.307-.543A1.982,1.982,0,0,0,51.751-6.829Zm13.863,5.8a6.9,6.9,0,0,1-4.05,1.23A5.83,5.83,0,0,1,59.6-.113a4.467,4.467,0,0,1-1.564-.943,4.155,4.155,0,0,1-1.046-1.651,6.858,6.858,0,0,1-.374-2.358A5.543,5.543,0,0,1,57.9-8.926a4.274,4.274,0,0,1,3.322-1.43,4.625,4.625,0,0,1,1.969.4,3.535,3.535,0,0,1,1.384,1.107,5.093,5.093,0,0,1,.79,1.63,7.3,7.3,0,0,1,.267,2.03q0,.113-.01.333t-.01.282H59.083A3.128,3.128,0,0,0,59.9-2.435a2.692,2.692,0,0,0,1.943.692A6.119,6.119,0,0,0,65.328-3Zm-4.45-7.588a1.734,1.734,0,0,0-1.348.636,3.253,3.253,0,0,0-.692,1.825h4.061Q62.928-8.613,61.165-8.613Z" transform="translate(51.985 -5360.446)" fill="#fff"/>
          </g>
          <g id="Group_1161" data-name="Group 1161" transform="translate(2 44.009)">
            <path id="Path_1598-5" data-name="Path 1598" d="M3.03,0H424.2c1.673,0,3.03.836,3.03,1.867V56H0V1.867C0,.836,1.357,0,3.03,0Z" transform="translate(0 -5395.954)" fill="#42464d"/>
            <path id="Path_1597-5" data-name="Path 1597" d="M15,0A15,15,0,1,1,0,15,15,15,0,0,1,15,0Z" transform="translate(11 -5382.954)" fill="#ff2a29"/>
            <g id="Group_1170" data-name="Group 1170" transform="translate(380.233 -5380.454)">
              <path id="Path_1613" data-name="Path 1613" d="M12.5,0A12.5,12.5,0,1,1,0,12.5,12.5,12.5,0,0,1,12.5,0Z" fill="#5865f2"/>
              <path id="Icon_ionic-md-checkmark" data-name="Icon ionic-md-checkmark" d="M8.814,17.894,4.549,13.519,2.8,15.269l6.016,5.984L19.939,10.113,18.205,8.394Z" transform="translate(1.249 -2.713)" fill="#fff"/>
            </g>
            <path id="Path_1694" data-name="Path 1694" d="M12.2-.379,9.259.144,5.486-5.547H4.307V0H1.538V-14.489H6.029a5.847,5.847,0,0,1,3.814,1.128,3.928,3.928,0,0,1,1.374,3.22,4.147,4.147,0,0,1-.769,2.569,4.434,4.434,0,0,1-2.174,1.5ZM8.48-10A2.1,2.1,0,0,0,7.8-11.674a2.952,2.952,0,0,0-1.984-.59H4.286V-7.67h1.4a3.148,3.148,0,0,0,2.051-.6A2.1,2.1,0,0,0,8.48-10ZM22.21-1.025A6.9,6.9,0,0,1,18.16.205a5.83,5.83,0,0,1-1.969-.318,4.467,4.467,0,0,1-1.564-.943,4.155,4.155,0,0,1-1.046-1.651,6.858,6.858,0,0,1-.374-2.358A5.543,5.543,0,0,1,14.5-8.926a4.274,4.274,0,0,1,3.322-1.43,4.625,4.625,0,0,1,1.969.4,3.535,3.535,0,0,1,1.384,1.107,5.093,5.093,0,0,1,.79,1.63,7.3,7.3,0,0,1,.267,2.03q0,.113-.01.333t-.01.282H15.678a3.128,3.128,0,0,0,.815,2.138,2.692,2.692,0,0,0,1.943.692A6.119,6.119,0,0,0,21.923-3ZM17.76-8.613a1.734,1.734,0,0,0-1.348.636,3.253,3.253,0,0,0-.692,1.825H19.78Q19.523-8.613,17.76-8.613ZM33.069,0H30.905L30.7-1.4A3.966,3.966,0,0,1,27.593.205a3.433,3.433,0,0,1-2.758-1.271,5.66,5.66,0,0,1-1.066-3.722,7.639,7.639,0,0,1,.359-2.44,4.5,4.5,0,0,1,.979-1.712,4.163,4.163,0,0,1,1.4-.974,4.327,4.327,0,0,1,1.687-.328,7.256,7.256,0,0,1,2.348.369v-4.891l2.522-.4ZM30.546-3.425V-7.793a4.509,4.509,0,0,0-1.969-.441,1.966,1.966,0,0,0-1.661.846,4.089,4.089,0,0,0-.625,2.456,3.649,3.649,0,0,0,.533,2.158,1.667,1.667,0,0,0,1.415.733A3.071,3.071,0,0,0,30.546-3.425Z" transform="translate(51.985 -5360.446)" fill="#fff"/>
          </g>
        </g>
      </g>
      <g id="Group_1168" data-name="Group 1168" transform="translate(5758 -4509)">
        <path id="Path_1582" data-name="Path 1582" d="M0,0H427.233V55.238c0,2.63-2.446,4.762-5.463,4.762H5.463C2.446,60,0,57.868,0,55.238Z" fill="#202225"/>
        <path id="Path_1594" data-name="Path 1594" d="M12.29-2.663a7.4,7.4,0,0,1-2.019,1.019,7.311,7.311,0,0,1-2.345.387A6.145,6.145,0,0,1,3.089-3.311a7.855,7.855,0,0,1-1.82-5.408,8.864,8.864,0,0,1,.826-3.915,6.192,6.192,0,0,1,2.35-2.64,6.583,6.583,0,0,1,3.522-.938,7.092,7.092,0,0,1,4.088,1.193l-.285,2.008a6.2,6.2,0,0,0-3.823-1.407,4.16,4.16,0,0,0-3.42,1.529A6.4,6.4,0,0,0,3.288-8.74,6.348,6.348,0,0,0,4.531-4.606,4.169,4.169,0,0,0,7.947-3.081a6.818,6.818,0,0,0,4.047-1.437Zm10.6,1.132H21.037v-6.79a1.931,1.931,0,0,0-.372-1.259,1.41,1.41,0,0,0-1.157-.454,4.161,4.161,0,0,0-2.875,1.611v6.892H14.767V-16.314l1.866-.3v6.433A5.1,5.1,0,0,1,20.007-11.7a2.834,2.834,0,0,1,2.136.775,2.951,2.951,0,0,1,.749,2.141ZM34.412-6.5a5.331,5.331,0,0,1-1.29,3.787,4.36,4.36,0,0,1-3.339,1.381A4.292,4.292,0,0,1,26.476-2.7,5.38,5.38,0,0,1,25.206-6.5,5.424,5.424,0,0,1,26.481-10.3a4.273,4.273,0,0,1,3.3-1.392A4.344,4.344,0,0,1,33.122-10.3,5.384,5.384,0,0,1,34.412-6.5Zm-1.876,0a4.469,4.469,0,0,0-.724-2.63,2.338,2.338,0,0,0-2.029-1.03,2.285,2.285,0,0,0-2,1.014,4.575,4.575,0,0,0-.7,2.646,4.449,4.449,0,0,0,.714,2.61,2.291,2.291,0,0,0,1.988,1.019,2.352,2.352,0,0,0,2.044-1A4.453,4.453,0,0,0,32.536-6.5Zm12.876,0a5.331,5.331,0,0,1-1.29,3.787,4.36,4.36,0,0,1-3.339,1.381A4.292,4.292,0,0,1,37.476-2.7,5.38,5.38,0,0,1,36.206-6.5,5.424,5.424,0,0,1,37.481-10.3a4.273,4.273,0,0,1,3.3-1.392A4.344,4.344,0,0,1,44.123-10.3,5.384,5.384,0,0,1,45.412-6.5Zm-1.876,0a4.469,4.469,0,0,0-.724-2.63,2.338,2.338,0,0,0-2.029-1.03,2.285,2.285,0,0,0-2,1.014,4.575,4.575,0,0,0-.7,2.646,4.449,4.449,0,0,0,.714,2.61,2.291,2.291,0,0,0,1.988,1.019,2.352,2.352,0,0,0,2.044-1A4.453,4.453,0,0,0,43.536-6.5ZM54.72-4.3a2.621,2.621,0,0,1-1.014,2.182,4.631,4.631,0,0,1-2.911.8A7.28,7.28,0,0,1,48.858-1.6a7.641,7.641,0,0,1-1.692-.663l.275-1.753a6.119,6.119,0,0,0,3.507,1.152,2.709,2.709,0,0,0,1.488-.347,1.1,1.1,0,0,0,.53-.968A1.156,1.156,0,0,0,52.477-5.2a6.163,6.163,0,0,0-1.866-.678,6.109,6.109,0,0,1-2.544-1.111,2.494,2.494,0,0,1-.739-1.957,2.434,2.434,0,0,1,.953-1.983,3.946,3.946,0,0,1,2.554-.77,7.981,7.981,0,0,1,3.283.663l-.3,1.753a6.046,6.046,0,0,0-3.028-.856,2.219,2.219,0,0,0-1.274.306.976.976,0,0,0-.438.846.968.968,0,0,0,.449.826,5.3,5.3,0,0,0,1.621.612A7.027,7.027,0,0,1,53.9-6.364,2.552,2.552,0,0,1,54.72-4.3ZM65.037-2.663a6.244,6.244,0,0,1-3.986,1.336,5.111,5.111,0,0,1-1.815-.311,4.221,4.221,0,0,1-1.463-.928A4.087,4.087,0,0,1,56.784-4.2a7.167,7.167,0,0,1-.352-2.35A5.463,5.463,0,0,1,57.666-10.3a4.015,4.015,0,0,1,3.15-1.4,4.041,4.041,0,0,1,2.38.683,3.929,3.929,0,0,1,1.417,1.784,6.7,6.7,0,0,1,.443,2.518v.4H58.288a3.868,3.868,0,0,0,.805,2.549,2.671,2.671,0,0,0,2.1.856,4.653,4.653,0,0,0,1.845-.357,7.632,7.632,0,0,0,1.723-1.06ZM60.8-10.238a2.125,2.125,0,0,0-1.55.647A3.391,3.391,0,0,0,58.38-7.71h4.8Q62.815-10.238,60.8-10.238ZM79.534-1.532H78.025l-.2-1.336a4.743,4.743,0,0,1-3.507,1.539,2.976,2.976,0,0,1-2.136-.749,2.657,2.657,0,0,1-.79-2.024A2.893,2.893,0,0,1,72.9-6.782a12.608,12.608,0,0,1,4.766-1.223v-.418q0-1.692-1.9-1.692a8.634,8.634,0,0,0-3.446.856l-.245-1.6a13.34,13.34,0,0,1,1.906-.627,8.406,8.406,0,0,1,1.947-.209,4.052,4.052,0,0,1,2.717.77,3.051,3.051,0,0,1,.882,2.421ZM77.668-4.264V-6.588A14.053,14.053,0,0,0,75.8-6.3a7.209,7.209,0,0,0-1.285.408,2.674,2.674,0,0,0-.78.51,1.653,1.653,0,0,0-.4.571,1.686,1.686,0,0,0-.107.607,1.252,1.252,0,0,0,.4.974,1.56,1.56,0,0,0,1.091.362A4.091,4.091,0,0,0,77.668-4.264ZM92.563-9.922a4.078,4.078,0,0,0-2.187.765,4.794,4.794,0,0,0-1.524,1.733v5.893H86.986v-9.96h1.488l.306,2.029a5.259,5.259,0,0,1,1.473-1.56,3.837,3.837,0,0,1,2.024-.673ZM103.1-6.5a5.331,5.331,0,0,1-1.29,3.787,4.36,4.36,0,0,1-3.339,1.381A4.292,4.292,0,0,1,95.168-2.7,5.38,5.38,0,0,1,93.9-6.5,5.424,5.424,0,0,1,95.173-10.3a4.273,4.273,0,0,1,3.3-1.392,4.344,4.344,0,0,1,3.339,1.392A5.384,5.384,0,0,1,103.1-6.5Zm-1.876,0a4.469,4.469,0,0,0-.724-2.63,2.338,2.338,0,0,0-2.029-1.03,2.285,2.285,0,0,0-2,1.014,4.575,4.575,0,0,0-.7,2.646,4.449,4.449,0,0,0,.714,2.61,2.291,2.291,0,0,0,1.988,1.019,2.352,2.352,0,0,0,2.044-1A4.453,4.453,0,0,0,101.228-6.5Zm6.239,4.965h-1.855V-16.314l1.855-.3Zm11.1-1.132a6.244,6.244,0,0,1-3.986,1.336,5.111,5.111,0,0,1-1.815-.311,4.221,4.221,0,0,1-1.463-.928,4.087,4.087,0,0,1-.989-1.631,7.167,7.167,0,0,1-.352-2.35A5.463,5.463,0,0,1,111.2-10.3a4.015,4.015,0,0,1,3.15-1.4,4.041,4.041,0,0,1,2.38.683,3.929,3.929,0,0,1,1.417,1.784,6.7,6.7,0,0,1,.443,2.518v.4h-6.769a3.868,3.868,0,0,0,.805,2.549,2.671,2.671,0,0,0,2.1.856,4.653,4.653,0,0,0,1.845-.357,7.631,7.631,0,0,0,1.723-1.06Zm-4.241-7.575a2.125,2.125,0,0,0-1.55.647,3.391,3.391,0,0,0-.867,1.881h4.8Q116.347-10.238,114.329-10.238Z" transform="translate(13 38.933)" fill="#a3a6aa"/>
        <path id="Icon_material-chevron-left" data-name="Icon material-chevron-left" d="M12.145,2.311,9.834,0,0,9.834l9.834,9.834,2.311-2.311L4.638,9.834Z" transform="translate(405.38 23.927) rotate(90)" fill="#dcddde"/>
      </g>
    </g>
    <path id="Path_1612" data-name="Path 1612" d="M84,184.04,91,172h60L84,287.241Z" transform="translate(5674 -4848)" opacity="0.3"/>
    <path id="Path_1585" data-name="Path 1585" d="M100,0h60L60,172H0Z" transform="translate(5640 -4676)" fill="#fff"/>
    <path id="Path_1611" data-name="Path 1611" d="M2459.354,1311.452q1.662.078,3.273.206l5.517-1.478c-1.345-5.022-4.541-8.164-8.79-8.965V1279.93h21.427c1.558,8.28,3.4,22.995.071,35.336a37.915,37.915,0,0,1,5.314,2.361c4.188,2.29,7.168,5.184,8.525,8.636,1.385,3.522.95,7.288-1.064,11.092-2.05,3.872-5.732,7.769-10.775,11.461a88.865,88.865,0,0,1-19.137,10.293q-2.129.858-4.362,1.661Z" transform="translate(3298.646 -6127.929)" opacity="0.3"/>
    <g id="Group_1179" data-name="Group 1179" transform="matrix(0.998, -0.07, 0.07, 0.998, 356.092, 396.683)">
      <path id="Path_1610" data-name="Path 1610" d="M62.613,15.332a142.5,142.5,0,0,1,23.233-.994,101.383,101.383,0,0,1,20.027,2.712,49.823,49.823,0,0,1,15.045,6.108c3.979,2.6,6.706,5.718,7.773,9.283,1.088,3.637.347,7.391-1.97,11.069-2.359,3.744-6.343,7.4-11.665,10.748a89.487,89.487,0,0,1-19.89,8.981,140.05,140.05,0,0,1-25.978,5.642,140.05,140.05,0,0,1-26.571.811,89.486,89.486,0,0,1-21.472-3.9c-5.974-1.964-10.724-4.545-13.918-7.607-3.139-3.008-4.766-6.472-4.59-10.264.173-3.718,2.064-7.4,5.3-10.888a49.823,49.823,0,0,1,13.12-9.566A101.383,101.383,0,0,1,39.83,19.988,142.5,142.5,0,0,1,62.613,15.332Z" transform="translate(5647.535 -4833.558)" fill="#9a9a9a"/>
      <path id="Path_1609" data-name="Path 1609" d="M41.31,101q-3.392-.23-6.582-.637L11.536,80.2,35.8,52.292q1.039-.326,2.1-.637A147.361,147.361,0,0,1,83.912,46,102.9,102.9,0,0,1,104,48.679a50.767,50.767,0,0,1,15.144,6.052c4.018,2.576,6.789,5.67,7.9,9.209,1.136,3.61.441,7.338-1.834,10.992-2.316,3.72-6.26,7.349-11.548,10.681a88.853,88.853,0,0,1-19.808,8.933,140.36,140.36,0,0,1-25.947,5.624,147.293,147.293,0,0,1-17.892,1.117C47.034,101.287,44.126,101.189,41.31,101Z" transform="translate(5649.176 -4865.056)" fill="#444" opacity="0.47"/>
      <path id="Path_1608" data-name="Path 1608" d="M51.337,12.649a124.842,124.842,0,0,1,19.131-.912,86.524,86.524,0,0,1,16.344,1.971,39.863,39.863,0,0,1,12.047,4.587c3.125,1.952,5.2,4.3,5.916,6.985.723,2.725-.03,5.537-2.037,8.291a31.093,31.093,0,0,1-9.707,8.018A78.484,78.484,0,0,1,76.965,48.3a123.18,123.18,0,0,1-20.721,4.312,123.18,123.18,0,0,1-21.149.829,78.484,78.484,0,0,1-17.213-2.627A31.093,31.093,0,0,1,6.524,45.384C3.91,43.2,2.5,40.651,2.542,37.832c.042-2.777,1.491-5.558,4.051-8.208a39.863,39.863,0,0,1,10.579-7.365,86.524,86.524,0,0,1,15.382-5.867A124.842,124.842,0,0,1,51.337,12.649Z" transform="translate(5659.354 -4826.453)" fill="#404040"/>
      <g id="Group_1176" data-name="Group 1176" transform="translate(5675.217 -4887.618) rotate(9)">
        <path id="Path_1607" data-name="Path 1607" d="M0,0H26V36H0Z" transform="translate(14.651 6.54)"/>
        <path id="Path_1574-3" data-name="Path 1574" d="M63.379,16.672,34.107.41a3.254,3.254,0,0,0-3.161,0L1.673,16.672A3.248,3.248,0,0,0,0,19.512C0,21.769.372,74.8,32.526,74.8S65.051,21.769,65.051,19.512A3.248,3.248,0,0,0,63.379,16.672ZM32.526,19.512a8.131,8.131,0,1,1-8.131,8.131A8.13,8.13,0,0,1,32.526,19.512ZM20.329,52.04c0-7.484,4.713-12.2,12.2-12.2s12.2,4.713,12.2,12.2Z" transform="translate(-4.001 -13)" fill="#f3d63a" fill-rule="evenodd"/>
      </g>
      <g id="Group_1175" data-name="Group 1175" transform="translate(5697.035 -4861.563) rotate(-11)">
        <path id="Path_1606" data-name="Path 1606" d="M0,0H26V36H0Z" transform="translate(19.417 17.456)"/>
        <g transform="matrix(0.97, 0.26, -0.26, 0.97, -112.89, -69.35)" filter="url(#Path_1574)">
          <path id="Path_1574-4" data-name="Path 1574" d="M63.379,16.672,34.107.41a3.254,3.254,0,0,0-3.161,0L1.673,16.672A3.248,3.248,0,0,0,0,19.512C0,21.769.372,74.8,32.526,74.8S65.051,21.769,65.051,19.512A3.248,3.248,0,0,0,63.379,16.672ZM32.526,19.512a8.131,8.131,0,1,1-8.131,8.131A8.13,8.13,0,0,1,32.526,19.512ZM20.329,52.04c0-7.484,4.713-12.2,12.2-12.2s12.2,4.713,12.2,12.2Z" transform="translate(127 37.77) rotate(-15)" fill="#36a549" fill-rule="evenodd"/>
        </g>
      </g>
      <g id="Group_1174" data-name="Group 1174" transform="translate(5658.772 -4854.975) rotate(11)">
        <path id="Path_1605" data-name="Path 1605" d="M0,0H26V36H0Z" transform="translate(19.417 17.456)"/>
        <g transform="matrix(0.99, -0.12, 0.12, 0.99, -94.35, -35.78)" filter="url(#Path_1574-2)">
          <path id="Path_1574-5" data-name="Path 1574" d="M63.379,16.672,34.107.41a3.254,3.254,0,0,0-3.161,0L1.673,16.672A3.248,3.248,0,0,0,0,19.512C0,21.769.372,74.8,32.526,74.8S65.051,21.769,65.051,19.512A3.248,3.248,0,0,0,63.379,16.672ZM32.526,19.512a8.131,8.131,0,1,1-8.131,8.131A8.13,8.13,0,0,1,32.526,19.512ZM20.329,52.04c0-7.484,4.713-12.2,12.2-12.2s12.2,4.713,12.2,12.2Z" transform="matrix(0.99, 0.12, -0.12, 0.99, 89.29, 47.01)" fill="#ff2a29" fill-rule="evenodd"/>
        </g>
      </g>
    </g>
    <g id="pointinghand" transform="translate(6023.791 -4812.537)">
      <g transform="matrix(1, 0, 0, 1, -450.66, -75.67)" filter="url(#Path_1586)">
        <path id="Path_1586-2" data-name="Path 1586" d="M16.091,40.47c-.8-1.069-1.6-2.939-3.206-5.344-.8-1.336-3.206-4.008-4.008-5.077a3.162,3.162,0,0,1-.267-2.672,3.769,3.769,0,0,1,3.741-2.939c1.336,0,2.672,1.069,3.741,1.87.534.534,1.336,1.6,1.87,2.138s.534.8,1.069,1.336c.534.8.8,1.336.534.267-.267-1.336-.534-3.474-1.069-5.611a21.675,21.675,0,0,0-.8-2.939c-.267-1.336-.534-2.138-.8-3.474-.267-.8-.534-2.939-.8-4.008-.267-1.336-.267-3.741.8-4.809a3.28,3.28,0,0,1,3.474-.534,6.86,6.86,0,0,1,2.4,3.474,22.173,22.173,0,0,1,1.336,5.344c.534,2.672,1.336,6.68,1.336,7.481a20.09,20.09,0,0,1,0-4.008,2.992,2.992,0,0,1,1.87-2.138,7.4,7.4,0,0,1,2.4-.267A5.818,5.818,0,0,1,31.856,19.9c1.069,1.6,1.069,5.077,1.069,4.809.267-1.069.267-3.206.8-4.275a4.793,4.793,0,0,1,1.87-1.336,4.553,4.553,0,0,1,2.672,0,3.092,3.092,0,0,1,1.87,1.336c.534.8.8,3.474,1.069,4.542a15.889,15.889,0,0,1,.8-1.87c1.069-1.6,4.809-2.138,5.077,1.6v6.145a26.325,26.325,0,0,1-.534,4.542,16.213,16.213,0,0,1-1.87,3.741s-2.939,3.206-3.206,4.809a11.068,11.068,0,0,0-.267,2.672,14.769,14.769,0,0,0,.267,2.4,12.08,12.08,0,0,1-3.206,0c-1.069-.267-2.4-2.138-2.672-2.939a1.028,1.028,0,0,0-1.87,0c-.534,1.069-1.87,2.939-2.939,2.939-1.87.267-5.611,0-8.283,0,0,0,.534-2.672-.534-3.741L19.03,42.34Z" transform="translate(451.29 76.3)" fill="#fff"/>
      </g>
      <path id="Line_101" data-name="Line 101" d="M.627,10.714a1,1,0,0,1-1-1V.627a1,1,0,0,1,2,0V9.712A1,1,0,0,1,.627,10.714Z" transform="translate(27.582 32.186)"/>
      <path id="Line_101-2" data-name="Line 101" d="M.627,10.714a1,1,0,0,1-1-1V.627a1,1,0,0,1,2,0V9.712A1,1,0,0,1,.627,10.714Z" transform="translate(32.467 32.186)"/>
      <path id="Path_1587" data-name="Path 1587" d="M40.2,50.768a6.519,6.519,0,0,1-1.549-.149c-1.482-.37-2.91-2.443-3.318-3.43a.605.605,0,0,0-.047-.051.681.681,0,0,0-.074.086c-.26.5-1.827,3.342-3.718,3.422a19.045,19.045,0,0,1-2.467.12c-.955,0-2.015-.031-3.041-.061s-1.991-.058-2.857-.058a1,1,0,0,1-.983-1.2c.17-.867.206-2.37-.26-2.836l-2.861-2.861-2.846-1.811a1,1,0,0,1-.264-.244,19.348,19.348,0,0,1-1.283-2.117c-.528-.951-1.126-2.028-1.955-3.272l-.025-.04a36.547,36.547,0,0,0-2.62-3.36C9.479,32.246,9,31.674,8.7,31.278a1,1,0,0,1-.095-.153A4.1,4.1,0,0,1,8.257,27.8a4.8,4.8,0,0,1,4.722-3.735c1.594,0,3.014,1.07,4.155,1.93l.187.141a1,1,0,0,1,.107.093c.3.3.654.725,1,1.136l.22.263c-.137-.747-.3-1.539-.492-2.318q-.01-.039-.016-.078a9.316,9.316,0,0,0-.459-1.8c-.106-.3-.215-.619-.326-1.063q-.006-.023-.01-.047c-.129-.645-.256-1.153-.39-1.69-.131-.522-.265-1.061-.4-1.727a20.71,20.71,0,0,1-.462-2.243c-.114-.657-.231-1.336-.341-1.775q-.006-.023-.01-.047c-.267-1.337-.387-4.252,1.076-5.714a4.162,4.162,0,0,1,2.9-1.106,3.876,3.876,0,0,1,1.726.384q.034.017.067.037a7.788,7.788,0,0,1,2.83,3.988,23.3,23.3,0,0,1,1.384,5.528c.109.545.215,1.077.317,1.591a3.148,3.148,0,0,1,1.617-1.056,8.42,8.42,0,0,1,2.687-.307,1,1,0,0,1,.317.051,6.807,6.807,0,0,1,2.529,1.578,1,1,0,0,1,.125.153,4.368,4.368,0,0,1,.257.442,5.775,5.775,0,0,1,2.2-1.584,1,1,0,0,1,.131-.054,5.3,5.3,0,0,1,1.653-.252,5.385,5.385,0,0,1,1.53.213,4.154,4.154,0,0,1,2.541,1.817A6.46,6.46,0,0,1,42.3,22.6,4.274,4.274,0,0,1,45.132,21.5c1.528,0,3.383.984,3.581,3.757q0,.036,0,.071v6.145a26.994,26.994,0,0,1-.564,4.785q-.009.037-.021.074a17.154,17.154,0,0,1-2.019,4.025c-.02.026-.041.052-.063.076-1.137,1.242-2.806,3.4-2.957,4.3a10.414,10.414,0,0,0-.254,2.507,13.828,13.828,0,0,0,.248,2.209,1,1,0,0,1-.858,1.19A18.476,18.476,0,0,1,40.2,50.768ZM35.289,45.1a2.13,2.13,0,0,1,1.769,1.047,1,1,0,0,1,.117.239,5.071,5.071,0,0,0,1.964,2.284,4.6,4.6,0,0,0,1.063.089c.253,0,.507-.009.741-.022a12.2,12.2,0,0,1-.11-1.5,12,12,0,0,1,.281-2.837c.295-1.767,2.824-4.628,3.421-5.283a15.407,15.407,0,0,0,1.681-3.383,25.98,25.98,0,0,0,.5-4.262V25.37c-.068-.858-.4-1.862-1.579-1.862a2.129,2.129,0,0,0-1.662.777,6.19,6.19,0,0,0-.579,1.393,1.132,1.132,0,0,1-1.05.959,1.009,1.009,0,0,1-1-.866c-.087-.368-.168-.846-.261-1.395a12.724,12.724,0,0,0-.652-2.763,1,1,0,0,1-.062-.108,2.6,2.6,0,0,0-1.018-.783,1,1,0,0,1-.274-.05,3.693,3.693,0,0,0-1.976-.02,4.265,4.265,0,0,0-1.358.863,9.219,9.219,0,0,0-.469,2.4,14.652,14.652,0,0,1-.238,1.6.994.994,0,0,1-.986.831,1.013,1.013,0,0,1-1-.992,10.389,10.389,0,0,0-.849-4.2,4.946,4.946,0,0,0-1.529-.971,6.059,6.059,0,0,0-1.914.216q-.037.012-.074.021c-.59.147-.949.857-1.15,1.444a10.831,10.831,0,0,0-.017,2.492c.028.45.055.875.055,1.238a1,1,0,1,1-2,0c0-.7-.889-5.148-1.317-7.285q-.007-.036-.012-.072a21.019,21.019,0,0,0-1.272-5.1q-.011-.027-.02-.055a6.025,6.025,0,0,0-1.935-2.91,1.906,1.906,0,0,0-.8-.156,2.228,2.228,0,0,0-1.487.519c-.649.649-.8,2.526-.532,3.883.126.509.247,1.213.365,1.894a19.66,19.66,0,0,0,.409,2.015,1.007,1.007,0,0,1,.032.12c.129.645.256,1.153.39,1.69s.27,1.079.406,1.759c.087.346.176.6.269.868a11.1,11.1,0,0,1,.536,2.087c.361,1.451.6,2.906.8,4.077.1.586.182,1.094.267,1.519a1.522,1.522,0,0,1-.094,1.428,1.013,1.013,0,0,1-.8.392c-.6,0-.86-.407-1.226-.97-.053-.082-.111-.171-.172-.264a4.891,4.891,0,0,1-.586-.745,2.872,2.872,0,0,0-.409-.515c-.3-.3-.654-.725-1-1.136-.294-.353-.6-.717-.827-.954l-.13-.1c-.9-.68-2.026-1.527-2.949-1.527a2.785,2.785,0,0,0-2.752,2.1q-.007.039-.016.078a2.173,2.173,0,0,0,.151,1.9c.274.357.729.9,1.209,1.476a36.958,36.958,0,0,1,2.789,3.593c.868,1.3,1.511,2.462,2.027,3.392.4.724.727,1.31,1.032,1.745L20.2,42.122a1,1,0,0,1,.171.137L23.306,45.2a4.593,4.593,0,0,1,.956,3.46c.584.011,1.191.029,1.786.046,1.011.029,2.057.06,2.983.06a16.984,16.984,0,0,0,2.243-.109,1,1,0,0,1,.142-.01,5.307,5.307,0,0,0,2.043-2.385,1,1,0,0,1,.063-.108A2.13,2.13,0,0,1,35.289,45.1Z" transform="translate(0 0)"/>
      <path id="Line_99" data-name="Line 99" d="M.627,10.714a1,1,0,0,1-1-1V.627a1,1,0,0,1,2,0V9.712A1,1,0,0,1,.627,10.714Z" transform="translate(37.351 32.186)"/>
    </g>
    <path id="Arm-2" data-name="Arm" d="M65.517,36.3c-7.771-13.46-21.6-10.788-35.868-2.208S-2.658,50.816,7.384,68.21c3.325,5.758,9.754,8.574,16.417,5.875,5.305-2.144,10.7-9.4,16.9-12.966,13-7.467,19.981-4.71,23.2-6.669C72.67,49.111,73.288,49.763,65.517,36.3Z" transform="matrix(-0.788, -0.616, 0.616, -0.788, 5690.571, -4535.405)" fill="#f27187"/>
  </g>
</svg>
