<svg xmlns="http://www.w3.org/2000/svg" width="252.752" height="262.289" viewBox="0 0 252.752 262.289">
  <g id="tada_deluxe" transform="translate(14573 6045)">
    <path id="Path_1681" data-name="Path 1681" d="M41.247,181.268,123.012,17.056A19.192,19.192,0,0,1,154,12.279L239.2,100.5a19.193,19.193,0,0,1-5.855,30.8L66.374,207.29a19.376,19.376,0,0,1-8.059,1.8C45.073,209.086,34.52,194.777,41.247,181.268Z" transform="translate(-14605.422 -6001.459)" fill="#fb0"/>
    <path id="Path_1680" data-name="Path 1680" d="M39.874,164.894,137.619,24,162.251,63.43,46.394,184.874A19.017,19.017,0,0,1,39.874,164.894Z" transform="translate(-14605.422 -5981.55)" fill="#ffe291"/>
    <path id="Path_1679" data-name="Path 1679" d="M79.965,0c44.163,0,79.965,16.707,79.965,37.317s-35.8,37.317-79.965,37.317S0,57.926,0,37.317,35.8,0,79.965,0Z" transform="matrix(0.695, 0.719, -0.719, 0.695, -14450.352, -6016.504)" fill="#7e5c00"/>
    <path id="Path_1668" data-name="Path 1668" d="M3.971,74.334A7.464,7.464,0,0,1,.425,60.3c.552-.306,11.036-6.276,15.835-20.674,4.452-13.357-4.168-23.933-4.537-24.377A7.463,7.463,0,0,1,23.092,5.574c.6.695,14.5,17.261,7.33,38.771C23.639,64.693,8.118,73.115,7.46,73.463A7.432,7.432,0,0,1,3.971,74.334Z" transform="translate(-14457.652 -6035.103)" fill="#77aae3"/>
    <path id="Path_1669" data-name="Path 1669" d="M8.535,87.3A8.533,8.533,0,0,1,3.342,72c.155-.119,15.578-12.077,20.5-26.848,4.136-12.408,1.3-29.04-.145-34.4A8.53,8.53,0,0,1,40.172,6.315c.266.989,6.445,24.46-.145,44.229-6.61,19.829-25.537,34.407-26.34,35.018A8.481,8.481,0,0,1,8.535,87.3Z" transform="translate(-14409.679 -5869.179) rotate(-106)" fill="#f27187"/>
    <path id="Union_198" data-name="Union 198" d="M1,78.153l-.076-.134A7.463,7.463,0,0,1,3.865,67.881c3.679-2.026,3.757-3.678,3.46-9.1-.295-5.369-.907-16.54,13.106-19.655,12.3-2.734,19.582,7.132,24.4,13.66,1.728,2.342,4.621,6.261,5.949,6.645,3.786-4.353-4.6-26.274-19.164-47.785A7.463,7.463,0,1,1,43.978,3.281c4.428,6.543,26.334,40.087,22.673,57.933a15.444,15.444,0,0,1-6.748,10.2c-13.483,8.663-22.329-3.322-27.081-9.762C28.356,55.6,26.1,53.159,23.669,53.7c-1.631.8-1.516,2.884-1.44,4.266.313,5.714.9,16.35-11.164,22.992A7.46,7.46,0,0,1,1,78.153Z" transform="translate(-14433.638 -5864.595)" fill="#64e57e"/>
    <path id="Path_1670" data-name="Path 1670" d="M62.048,105.873a8.536,8.536,0,0,1-7.5-12.594c.145-.269,14.369-27.1,2.749-47.165A16.455,16.455,0,0,0,43.9,37.62c4.183,8.466,5.964,17.108,2.457,24.474C40.195,75.03,26.4,78.2,15.949,74.642,4.366,70.7-1.968,59.782.547,48.1,2.2,40.424,8.185,33.161,16.353,28.008A149.1,149.1,0,0,0,3.484,14.871a8.53,8.53,0,0,1,11.4-12.686,171.686,171.686,0,0,1,18.279,19.15q.861-.169,1.732-.306c15.824-2.5,29.716,3.684,37.159,16.535C88.524,65.99,70.312,100,69.529,101.438A8.511,8.511,0,0,1,62.048,105.873ZM26.64,41.74c-5.092,2.889-8.731,6.762-9.416,9.945-.937,4.353,2.244,6.134,4.223,6.808.681.232,6.729,2.1,9.5-3.733C32.051,52.452,30.3,47.651,26.64,41.74Z" transform="translate(-14422.688 -5926.324) rotate(-106)" fill="#ae87ff"/>
    <path id="Path_1678" data-name="Path 1678" d="M10.662,0A10.662,10.662,0,1,1,0,10.662,10.662,10.662,0,0,1,10.662,0Z" transform="translate(-14573 -5897.865)" fill="#fb0"/>
    <path id="Path_1677" data-name="Path 1677" d="M10.662,0A10.662,10.662,0,1,1,0,10.662,10.662,10.662,0,0,1,10.662,0Z" transform="translate(-14517.558 -6025.808)" fill="#f27187"/>
    <path id="Path_1676" data-name="Path 1676" d="M10.662,0A10.662,10.662,0,1,1,0,10.662,10.662,10.662,0,0,1,10.662,0Z" transform="translate(-14413.071 -6045)" fill="#64e57e"/>
    <path id="Path_1675" data-name="Path 1675" d="M10.662,0A10.662,10.662,0,1,1,0,10.662,10.662,10.662,0,0,1,10.662,0Z" transform="translate(-14357.629 -5857.35)" fill="#77aae3"/>
    <path id="Path_1674" data-name="Path 1674" d="M7.93,3.116a6.4,6.4,0,0,1,9.047,0L21.79,7.93a6.4,6.4,0,0,1,0,9.047L16.977,21.79a6.4,6.4,0,0,1-9.047,0L3.116,16.977a6.4,6.4,0,0,1,0-9.047Z" transform="translate(-14343.912 -5972.778)" fill="#fb0"/>
    <path id="Path_1673" data-name="Path 1673" d="M6.687,1.874a6.4,6.4,0,0,1,9.047,0l4.814,4.814a6.4,6.4,0,0,1,0,9.047l-4.814,4.814a6.4,6.4,0,0,1-9.047,0L1.874,15.734a6.4,6.4,0,0,1,0-9.047Z" transform="translate(-14524.319 -5959.548) rotate(45)" fill="#4a0920"/>
    <path id="Path_1672" data-name="Path 1672" d="M6.687,1.874a6.4,6.4,0,0,1,9.047,0l4.814,4.814a6.4,6.4,0,0,1,0,9.047l-4.814,4.814a6.4,6.4,0,0,1-9.047,0L1.874,15.734a6.4,6.4,0,0,1,0-9.047Z" transform="translate(-14477.421 -5819.123) rotate(-60)" fill="#58418a"/>
  </g>
</svg>
