<svg id="Group_1357" data-name="Group 1357" xmlns="http://www.w3.org/2000/svg" width="220" height="56.87" viewBox="0 0 220 56.87">
  <path id="Path_1706" data-name="Path 1706" d="M23.6-2.253A21.155,21.155,0,0,1,12.531-5.024a18.463,18.463,0,0,1-7.114-7.722A25.181,25.181,0,0,1,2.924-24.208,25.37,25.37,0,0,1,5.417-35.7a18.622,18.622,0,0,1,7.114-7.781,20.974,20.974,0,0,1,11.068-2.8q7.662,0,12.556,3.8a16.6,16.6,0,0,1,6.111,10.67H33.693a9.161,9.161,0,0,0-3.375-5.439,10.969,10.969,0,0,0-6.843-1.978,11.381,11.381,0,0,0-9.243,4.012Q10.887-31.2,10.89-24.208t3.344,10.976a11.408,11.408,0,0,0,9.24,3.98,11.487,11.487,0,0,0,6.841-1.855,8.556,8.556,0,0,0,3.375-5.139h8.576a16.031,16.031,0,0,1-6.111,10.28Q31.26-2.253,23.6-2.253Zm22.235-.73V-45.552H61.459a18.1,18.1,0,0,1,8.422,1.733,11.681,11.681,0,0,1,4.956,4.682A13.209,13.209,0,0,1,76.482-32.6a13.048,13.048,0,0,1-2.037,7.115A11.556,11.556,0,0,1,68.092-20.8L76.909-2.986H67.968L60.063-19.77H53.617V-2.986Zm7.783-22.5h7.358q3.892,0,5.719-1.885a6.866,6.866,0,0,0,1.824-4.986,6.637,6.637,0,0,0-1.793-4.865q-1.793-1.824-5.8-1.824h-7.3Zm26.792,22.5V-45.552H97.5q6.628,0,10.124,3.073a10.007,10.007,0,0,1,3.5,7.874,9.237,9.237,0,0,1-2.159,6.415,10.766,10.766,0,0,1-5.26,3.253,10.147,10.147,0,0,1,6.02,3.618,10.274,10.274,0,0,1,2.371,6.719,10.718,10.718,0,0,1-3.648,8.329Q104.8-2.986,98.107-2.986Zm7.783-24.688H96.34a7.512,7.512,0,0,0,5.047-1.52,5.391,5.391,0,0,0,1.764-4.317,5.384,5.384,0,0,0-1.733-4.226,7.587,7.587,0,0,0-5.2-1.551H88.2Zm0,18.364h8.7a8.122,8.122,0,0,0,5.378-1.612,5.594,5.594,0,0,0,1.915-4.53,5.814,5.814,0,0,0-2.007-4.682,8.091,8.091,0,0,0-5.412-1.7H88.2Zm35.989,6.323v-36.3h-12.4v-6.263h32.652v6.263H131.966v36.3Z" transform="translate(75.572 52.704)" fill="#544243"/>
  <path id="Path_1707" data-name="Path 1707" d="M62.376,56.87H33.945a28.348,28.348,0,0,1-20.106-8.329,28.838,28.838,0,0,1-2.39-2.714l10.414-6.012-16.284-9.4c-.045-.656-.067-1.322-.067-1.98A28.412,28.412,0,0,1,33.945,0h.007A28.412,28.412,0,0,1,62.387,28.435L62.375,56.87ZM42.29,35.721l-16.6,1.161.054.776A7.8,7.8,0,0,0,33.5,44.9c.189,0,.375-.007.55-.02l.3-.021a8.557,8.557,0,0,0,7.938-9.133ZM46.409,19.15a5.366,5.366,0,1,0,5.352,5.366,5.366,5.366,0,0,0-5.352-5.366Zm-24.265,0A5.366,5.366,0,1,0,27.5,24.515a5.366,5.366,0,0,0-5.351-5.366ZM0,52.435V27.195l5.578,3.221a28.339,28.339,0,0,0,5.868,15.412Z" transform="translate(0 0)" fill="#f27187"/>
</svg>
