<svg xmlns="http://www.w3.org/2000/svg" width="1679" height="625.31" viewBox="0 0 1679 625.31">
  <g id="_404_wordmark" data-name="404 wordmark" transform="translate(19.15 18.862)">
    <path id="Path_4" data-name="Path 4" d="M-19.15,144,303.378-200.343,422.549,65.884,539.883-135.054l191.652,28.79L821.3,95.176l288.4-296.519L1255.647,99.083,1539.211-117.14l120.64,302.779V423.967h-1679Z" transform="translate(0 182.481)"/>
    <path id="Path_524" data-name="Path 524" d="M16417.844-10488.966v-92.088H16197.51v-96.865l201.916-336.3h107.1v345.162h74.352v88h-74.352v92.088Zm-133.7-180.087h133.7v-229.88Zm-672.961,180.087v-92.088h-220.333v-96.865l201.912-336.3h107.1v345.162h74.351v88h-74.351v92.088Zm-133.7-180.087h133.7v-229.88Zm332.059-86.605c0-145.851,60.329-258.557,176.351-258.557s176.351,112.706,176.351,258.557c0,142.54-59.666,266.518-176.351,266.518S15809.539-10613.118,15809.539-10755.658Zm86.184,0c0,90.167,21.881,180.992,90.167,180.992s90.162-90.825,90.162-180.992c0-88.836-22.539-173.035-90.162-173.035S15895.723-10844.494,15895.723-10755.658Zm685.219,32.966,354.916-204.335v408.666Z" transform="translate(-15401.636 11000.498)" fill="#fff" stroke="#000" stroke-width="10"/>
  </g>
</svg>
