<svg xmlns="http://www.w3.org/2000/svg" width="1675.516" height="406.946" viewBox="0 0 1675.516 406.946">
  <g id="Clembs_wordmark" data-name="Clembs wordmark" transform="translate(193.264 -1638.174)">
    <path id="Path_523" data-name="Path 523" d="M15415.663-9111.606v-221.729q-.406-5.777-.407-11.584a164.116,164.116,0,0,1,3.313-32.854,161.863,161.863,0,0,1,9.5-30.563,162.672,162.672,0,0,1,15.029-27.649c.176-.259.351-.517.527-.774a163.946,163.946,0,0,1,10.408-13.813,110.953,110.953,0,0,1,9.5-10.34,118.017,118.017,0,0,1,10.095-9.357c.639-.54,1.4-1.179,1.7-1.449.617-.544,9.971-7.558,10.536-7.9.224-.146,1.209-.789,2.217-1.475.985-.665,1.993-1.333,2.216-1.479.223-.124,2.165-1.3,4.309-2.61s4.063-2.435,4.261-2.508c.2-.1,1.376-.741,2.585-1.406a150.434,150.434,0,0,1,16.739-7.806,15.763,15.763,0,0,0,1.65-.712,2.691,2.691,0,0,1,1.106-.343,1.808,1.808,0,0,0,.913-.373,1.95,1.95,0,0,1,.935-.368,4.092,4.092,0,0,0,1.229-.343,37.663,37.663,0,0,1,4.262-1.5c.81-.219,1.749-.54,2.092-.665a13.482,13.482,0,0,1,1.479-.467c.468-.1,1.646-.416,2.585-.712.956-.3,2.113-.617,2.585-.716.467-.124,1.428-.343,2.092-.519,2.8-.686,4.038-.956,5.787-1.3,3.442-.712,5.046-.986,6.4-1.158.737-.1,2.019-.295,2.829-.441,2.045-.368,7.163-.985,9.945-1.157,2.512-.171,3.056-.3,2.833-.639-.072-.124,4.381-.223,10.683-.223,9.011,0,10.858.047,10.957.343.1.249.861.395,2.684.493a144.643,144.643,0,0,1,14.476,1.895c.737.15,2.045.348,2.881.472a7.245,7.245,0,0,1,1.8.368,8.05,8.05,0,0,0,1.552.369,40.711,40.711,0,0,1,4.973,1.105c.69.2,1.946.52,2.834.764.888.223,2.045.54,2.585.716s1.65.493,2.46.737c.815.223,1.874.565,2.341.737,2.02.716,2.632.913,3.322,1.11.42.124,1.354.441,2.092.737s1.625.617,1.972.741a12.822,12.822,0,0,1,1.23.441c.343.12,1.106.441,1.724.665.617.244,1.475.591,1.895.788.789.317,1.7.712,3.322,1.428,2.66,1.131,7.511,3.455,10.17,4.9a163.087,163.087,0,0,1,16.588,9.8,163.287,163.287,0,0,1,24.13,19.865,163.414,163.414,0,0,1,19.912,24.087,162.326,162.326,0,0,1,15.028,27.649,161.806,161.806,0,0,1,9.5,30.563,163.948,163.948,0,0,1,3.106,24.675h43.524l24.34-124.662,68.562,110.186,8.114,14.477h141.282l41.092,55.731,18.034,25.626,19.093-81.357h254.43l35.808,69.071,33.26,65.69,7.725-134.762h23.92l24.34-124.662,68.563,110.186,8.113,14.477h46.164l44.891,54.646,87.072,23.23-68.645-79.888,124.607-8.261-.006,4.861V-9346l14.846-13.756,8.707,9.6.012-.733,39.52,44.055,1.037,1.269,19.848-2.641,133.854-101.029,67.545,89.97v207.657Z" transform="translate(-15603.521 11151.727)" stroke="#000" stroke-width="10"/>
    <path id="Path_522" data-name="Path 522" d="M16803.6-9295.437l-7.51-4.329,7.51-4.334,185.037-106.653,7.5-4.321v221.962l-5,0-2.5,4.329Zm-170.57,74.766,35.365-43.47c15.107,9.942,36.1,18.785,49.73,18.785,8.842,0,14.736-3.681,14.736-10.681,0-10.318-11.789-11.79-32.783-19.527-41.26-15.1-57.469-32.418-57.469-60.783,0-39.417,31.313-64.468,74.414-64.468,30.209,0,57.1,12.156,76.992,28.365l-37.207,37.574c-13.262-9.942-30.945-17.313-42.365-17.313-6.633,0-11.418,2.581-11.418,9.58,0,7.367,5.156,9.209,30.574,18.052,28.365,9.947,60.045,23.946,60.045,65.573,0,40.521-29.836,65.939-75.52,65.939C16684.973-9193.045,16653.289-9206.306,16633.029-9220.672Zm-171.668,9.576-.734,14.365h-58.945v-298.391h62.627v109.776a88.778,88.778,0,0,1,51.939-16.209c55.631,0,100.205,46.417,100.205,104.257,0,58.2-44.207,104.252-100.205,104.252C16495.25-9193.045,16476.094-9199.678,16461.361-9211.1Zm1.1-86.2c0,26.522,20.262,47.15,45.684,47.15,25.785,0,45.68-20.628,45.68-47.15s-19.895-46.788-45.68-46.788S16462.465-9323.453,16462.465-9297.3Zm-635.469.366c0-58.939,45.679-103.885,105.361-103.885,58.94,0,102.043,42.735,102.776,102.043v.371l-.733,17.313h-144.412c5.528,21.365,21.737,34.627,43.474,34.627,15.838,0,29.47-6.629,38.313-18.785l55.993,14.366c-15.471,36.1-51.207,57.835-93.938,57.835C15872.675-9193.045,15827-9237.619,15827-9296.931Zm65.573-24.68h77.729c-6.629-17.313-19.523-26.526-37.575-26.526C15913.567-9348.137,15899.568-9338.557,15892.569-9321.61Zm-337.715,128.135c-1.894-.2-3.937-.371-4.556-.371-1.032,0-4.158-.393-8.245-1.032-.934-.149-2.115-.294-2.585-.371-1.578-.171-7.9-1.425-9.75-1.945a9.178,9.178,0,0,0-1.749-.345,7.1,7.1,0,0,1-1.574-.342c-.593-.175-1.8-.521-2.683-.764-.888-.222-2.095-.541-2.709-.717-.614-.2-1.774-.516-2.585-.759s-1.872-.567-2.337-.742-1.259-.439-1.724-.589c-.469-.175-1.182-.4-1.6-.521-.393-.119-1.353-.439-2.091-.737s-1.625-.614-1.971-.738a11.829,11.829,0,0,1-1.232-.443c-.341-.124-1.1-.443-1.723-.661-1.2-.47-2.044-.814-3.566-1.506-.546-.218-1.3-.563-1.728-.738a154.491,154.491,0,0,1-14.033-7.042c-.393-.243-.908-.517-1.1-.614-1.059-.49-6.991-4.185-10.242-6.377-3.126-2.09-9.528-6.743-9.946-7.213-.073-.072-.666-.589-1.353-1.13a168.313,168.313,0,0,1-23.883-23.883c-.541-.691-1.036-1.279-1.108-1.356-.49-.393-6.6-8.787-7.508-10.288-.148-.222-.763-1.207-1.4-2.142-.618-.96-1.919-3.054-2.879-4.679s-1.872-3.127-2-3.323c-.222-.371-.938-1.672-2.363-4.308-1.3-2.415-4.163-8.322-5.17-10.66-.593-1.4-1.058-2.486-1.4-3.322-.2-.423-.541-1.284-.789-1.9-.222-.614-.541-1.378-.665-1.723a11.764,11.764,0,0,1-.443-1.233c-.124-.341-.444-1.229-.738-1.966s-.614-1.7-.738-2.095c-.123-.418-.345-1.13-.516-1.6-.149-.469-.418-1.254-.593-1.723-.393-1.084-1.353-4.406-2.167-7.389-.2-.737-.542-1.966-.764-2.729a10.293,10.293,0,0,1-.393-1.821,9.291,9.291,0,0,0-.346-1.7,138.269,138.269,0,0,1-2.977-17.011c-.789-6.795-.913-10.267-.789-20.8.123-10.241.319-14.131.887-18.094a175.688,175.688,0,0,1,3.617-19.2c.789-3.178,2.363-8.693,2.931-10.22.717-2.018.912-2.632,1.108-3.323.124-.418.444-1.353.738-2.095s.614-1.62.738-1.966a11.764,11.764,0,0,1,.443-1.233c.124-.345.443-1.108.665-1.723.248-.614.589-1.476.789-1.894.32-.789.713-1.7,1.425-3.323.175-.443.666-1.527,1.063-2.414s.811-1.774.883-1.971a5.44,5.44,0,0,1,.371-.738c.124-.2.64-1.207,1.135-2.218s1.45-2.854,2.115-4.061c.666-1.229,1.28-2.389,1.378-2.585.393-.836,3.916-6.671,5.221-8.616.738-1.156,1.477-2.291,1.625-2.513a162.456,162.456,0,0,1,10.438-13.858,110.039,110.039,0,0,1,9.5-10.344,118.382,118.382,0,0,1,10.092-9.354c.641-.541,1.4-1.182,1.7-1.45.618-.541,9.973-7.559,10.54-7.9.222-.149,1.207-.789,2.214-1.477.985-.665,2-1.33,2.218-1.479.222-.12,2.167-1.306,4.308-2.606s4.062-2.439,4.258-2.513c.2-.1,1.382-.737,2.584-1.4a150.41,150.41,0,0,1,16.742-7.806,15.877,15.877,0,0,0,1.651-.712,2.722,2.722,0,0,1,1.108-.346,1.8,1.8,0,0,0,.909-.371,1.97,1.97,0,0,1,.938-.367,4.152,4.152,0,0,0,1.228-.345,37.242,37.242,0,0,1,4.262-1.5c.811-.222,1.749-.542,2.09-.665a13.006,13.006,0,0,1,1.48-.47c.465-.1,1.646-.418,2.585-.712.959-.295,2.115-.614,2.585-.713.465-.123,1.429-.345,2.09-.52,2.807-.687,4.039-.956,5.788-1.306,3.446-.712,5.046-.981,6.4-1.156.742-.1,2.021-.294,2.832-.443,2.043-.367,7.166-.985,9.947-1.156,2.512-.17,3.054-.294,2.832-.64-.077-.124,4.381-.222,10.686-.222,9.008,0,10.855.051,10.953.346.1.247.861.393,2.684.49a144.5,144.5,0,0,1,14.477,1.9c.738.145,2.043.346,2.879.465a7.415,7.415,0,0,1,1.8.371,7.913,7.913,0,0,0,1.549.371,40.285,40.285,0,0,1,4.974,1.1c.69.2,1.945.521,2.832.764.888.222,2.043.542,2.585.717s1.65.49,2.461.737c.815.223,1.873.567,2.338.738,2.021.713,2.636.908,3.327,1.109.418.119,1.352.443,2.09.737s1.625.614,1.971.738a11.749,11.749,0,0,1,1.232.443c.346.124,1.105.444,1.724.666.614.247,1.476.588,1.894.784.789.32,1.7.717,3.323,1.43,2.832,1.207,8.151,3.766,10.659,5.169.814.444,2.048,1.109,2.709,1.455.69.366,1.578.861,1.971,1.13.418.248,1.011.619,1.355.789.342.2,1.425.836,2.41,1.455.985.589,2,1.2,2.219,1.326.366.222,2.78,1.847,6.815,4.556,1.651,1.109,6.847,5.021,8.348,6.253,2.043,1.724,4.9,4.159,5.934,5.1.542.49,1.7,1.527,2.585,2.312a159.8,159.8,0,0,1,11.2,11.547c.814.938,12.63,16.324,13.739,17.877-.888.959-55.272,31.513-55.516,31.363-.1-.072-4.138-5.122-4.875-6.006-2.981-3.57-13.714-13.223-13.786-13.295-.593-.64-10.144-7.115-10.344-7.238-.2-.1-4.824-2.585-6.646-3.5-3.276-1.6-9.551-4.257-10.464-4.53-.392-.119-14.008-3.839-14.895-4.061a92.489,92.489,0,0,0-20.039-1.774,95.017,95.017,0,0,0-23.29,3.25,100.446,100.446,0,0,0-14.993,5.294c-.222.1-1.825.887-3.6,1.749-1.748.861-3.962,1.991-4.922,2.559-.938.567-1.9,1.084-2.095,1.182a34.364,34.364,0,0,0-4.039,2.61A98.135,98.135,0,0,0,15487-9413.8a80.748,80.748,0,0,0-5.639,8.344c-.146.272-.465.814-.713,1.232-.836,1.306-3.275,6.031-4.457,8.616-1.254,2.781-1.378,3.105-2.606,6.33-.222.589-.546,1.425-.742,1.868a4.008,4.008,0,0,0-.346,1.16,3.978,3.978,0,0,1-.341,1.156,49.265,49.265,0,0,0-1.5,5c-.2.661-.52,1.843-.716,2.606a9.993,9.993,0,0,0-.393,1.847,15.711,15.711,0,0,1-.346,2.068,43.175,43.175,0,0,0-1.13,6.77c0,.542-.176,2.192-.371,3.694-.888,6.7-.171,19.6,1.476,26.958a13.212,13.212,0,0,1,.371,2.068,9.993,9.993,0,0,0,.393,1.847c.2.764.541,1.971.737,2.657a45.107,45.107,0,0,0,1.48,4.948,3.962,3.962,0,0,1,.341,1.16,4.025,4.025,0,0,0,.346,1.156c.2.443.521,1.254.717,1.8a131.061,131.061,0,0,0,6.646,14.208,93.463,93.463,0,0,0,7.46,11.2c.517.64,1.353,1.672,1.821,2.286a106.1,106.1,0,0,0,14.034,14.033c.614.47,1.625,1.284,2.239,1.8,2.239,1.895,4.875,3.617,12.284,8.05.5.294,6.82,3.4,7.806,3.843.444.2,1.233.542,1.724.764.516.222,1.229.542,1.6.738a3.26,3.26,0,0,0,1.108.319,1.243,1.243,0,0,1,.738.269,3.247,3.247,0,0,0,1.084.47c.469.123,1.625.465,2.559.811a95.367,95.367,0,0,0,16.5,3.967,97.876,97.876,0,0,0,27.452.1c1.011-.149,2.461-.346,3.2-.443s1.847-.3,2.461-.418c.619-.149,2-.47,3.08-.691,1.083-.247,2.461-.567,3.075-.737.618-.2,1.774-.517,2.585-.764.814-.222,1.847-.567,2.29-.738a4.034,4.034,0,0,1,1.156-.346,4.03,4.03,0,0,0,1.16-.345c.764-.32,1.353-.542,3.963-1.527.567-.222,1.378-.542,1.774-.713,3.689-1.625,6.795-3.126,9.106-4.432.815-.465,1.7-.959,1.971-1.108a28.162,28.162,0,0,0,2.538-1.549,9.546,9.546,0,0,1,1.156-.665c.2,0,3.519-2.338,6.4-4.5a80.494,80.494,0,0,0,10.663-9.405,78.71,78.71,0,0,0,7.879-8.962c1.94-2.559,3.22-3.037,3.22-3.037l53.954,32.06s-1.391,2.27-1.809,2.909c-1.032,1.553-6.4,8.74-7.656,10.241-.567.64-1.425,1.7-1.971,2.338-1.94,2.316-7.162,8.027-9.747,10.612-.789.811-3.719,3.519-6.525,6.083-4.309,3.911-13.069,10.731-16.077,12.506-.222.119-.811.542-1.3.908a4.775,4.775,0,0,1-1.036.691,13.421,13.421,0,0,0-1.7,1.058c-.861.589-1.723,1.135-1.919,1.232s-.691.393-1.109.661c-.4.273-.96.594-1.232.742s-.811.466-1.229.738c-.4.269-.96.589-1.232.738-.27.123-1.156.614-1.971,1.083s-2.363,1.306-3.447,1.873-2.141,1.1-2.337,1.229c-1.109.64-7.017,3.348-9.969,4.555-1.207.5-2.538,1.032-2.956,1.208-1.454.64-2.218.934-2.832,1.155-.346.1-1.724.589-3.075,1.084s-2.785.985-3.2,1.108c-.393.124-1.28.393-1.967.589-.665.2-1.553.47-1.971.614-1.083.371-5.071,1.454-7.755,2.12-.887.222-2.167.567-2.857.764a9.1,9.1,0,0,1-1.873.346,6.752,6.752,0,0,0-1.672.366,6.949,6.949,0,0,1-1.774.371,12.852,12.852,0,0,0-2.239.346,62.937,62.937,0,0,1-6.944,1.13c-.934.1-2.657.295-3.813.444a156.443,156.443,0,0,1-18.669,1.054C15560.707-9193.087,15557.341-9193.213,15554.854-9193.476Zm739.624-3.255v-121.2c0-14.733-9.942-25.418-23.575-25.418-14.366,0-24.68,11.418-24.68,27.627v118.989H16183.6v-121.2c0-15.1-9.947-25.418-24.317-25.418-14,0-23.942,11.418-23.942,27.627v118.989h-62.625v-200.4h62.625v8.842a63.082,63.082,0,0,1,37.575-12.527c19.894,0,38.679,8.842,53.049,24.68,13.629-15.838,33.151-24.68,55.255-24.68,43.1,0,75.892,34.26,75.892,79.205v124.88Zm-568.054,0v-298.391h62.259v298.391Z" transform="translate(-15591.194 11160.027)" fill="#fff" stroke="#000" stroke-width="10"/>
  </g>
</svg>
