<svg xmlns="http://www.w3.org/2000/svg" width="1670" height="495.09" viewBox="0 0 1670 495.09">
  <g id="CRBT_wordmark" data-name="CRBT wordmark" transform="translate(-3079.695 -913.844)">
    <path id="Path_74" data-name="Path 74" d="M1389.768,1127.689h1670V873.839l-96.616-157.661-123.584,91.594L2725.833,646.488H2427.527V752.051l-64.1-68.933-99.513-32.455H2122.789V752.051l-52.1-59.466-116.111-42.751H1806.781l-2.215,113.29-11.717-17.059-206.729-76.052-96.063,5.847-100.29,173.671Z" transform="translate(1689.928 281.245)"/>
    <path id="Path_527" data-name="Path 527" d="M19632.959-10390.462V-10716.5H19532.09v-86.6h287.826v86.6h-100.359v326.034Zm-406.146,0v-412.677h144.182c68.777,0,124.822,56.038,124.822,124.821,0,24.965-7.131,46.869-21.91,65.721,31.078,21.4,49.932,57.061,49.932,97.309,0,68.783-56.045,124.826-124.822,124.826Zm86.613-86.613h85.59c21.4,0,38.209-17.83,38.209-39.738s-16.809-38.723-38.209-38.723h-85.59Zm0-161h57.568c21.4,0,38.213-16.812,38.213-38.722s-16.812-39.739-38.213-39.739h-57.568Zm-196.248,247.6-80.49-145.185h-42.277v145.185H18907.8V-10803.1h156.4c75.9,0,133.471,57.056,133.471,133.472,0,54.508-28.529,98.829-72.342,120.225l92.207,158.94Zm-122.768-231.787h69.791c28.523,0,46.863-18.339,46.863-47.378,0-28.525-18.34-46.869-46.863-46.869h-69.791Zm-332.076,222.532a209.418,209.418,0,0,1-39.4-12.23,209.982,209.982,0,0,1-35.664-19.361,211.063,211.063,0,0,1-31.074-25.64,211.472,211.472,0,0,1-25.645-31.079,209.937,209.937,0,0,1-19.355-35.66,209.122,209.122,0,0,1-12.232-39.406,211.249,211.249,0,0,1-4.264-42.317,211.213,211.213,0,0,1,4.264-42.317,208.9,208.9,0,0,1,12.232-39.406,209.937,209.937,0,0,1,19.355-35.66,211.562,211.562,0,0,1,25.645-31.084,211.339,211.339,0,0,1,31.074-25.635,209.567,209.567,0,0,1,35.664-19.36,209.155,209.155,0,0,1,39.4-12.231,211.844,211.844,0,0,1,42.322-4.265,210.3,210.3,0,0,1,60.021,8.7,208.975,208.975,0,0,1,53.238,24.432,211.082,211.082,0,0,1,43.953,37.659,210.13,210.13,0,0,1,30.092,44.2l-157.062,90.763-7.492,4.33,7.492,4.33,156.961,90.707a210.12,210.12,0,0,1-30.1,44.125,211.256,211.256,0,0,1-43.939,37.594,208.96,208.96,0,0,1-53.2,24.387,210.118,210.118,0,0,1-59.965,8.69A211.584,211.584,0,0,1,18662.334-10399.722Zm-37.227-99.182-1.295,4.829,4.83,1.3,82.252,22.04,4.828,1.294,1.295-4.829a45.6,45.6,0,0,0-4.582-34.845,45.625,45.625,0,0,0-27.881-21.395l-3.207-.861a46.058,46.058,0,0,0-11.908-1.571A45.978,45.978,0,0,0,18625.107-10498.9Zm-81.951-146.609a74.256,74.256,0,0,0,74.162,74.181,74.257,74.257,0,0,0,74.166-74.181,74.258,74.258,0,0,0-74.166-74.186A74.257,74.257,0,0,0,18543.156-10645.513Zm102.672-138.779-.676.091-.629.271-6.092,2.608-.152.061-.15.076c-.412.211-42.01,21.43-57.68,32.045a51.791,51.791,0,0,0-8.107,6.4,12.3,12.3,0,0,0-2.045,2.709,6.354,6.354,0,0,0-.594,4.945v.01l.006.016a6.106,6.106,0,0,0,4.143,4.008,9.485,9.485,0,0,0,2.83.393h.016c.418,0,.791-.025,1.063-.045h.8l.951-.413,84.414-36.526,4.2-1.818-1.439-4.345a16.592,16.592,0,0,0-4.336-5.8l0-.006a19.538,19.538,0,0,0-13.238-4.909A25,25,0,0,0,18645.828-10784.292Zm1144.021,205.921,273.959-158.473v316.945Zm-1170.17-24.28a43.924,43.924,0,0,1-14.014-9.477,44.121,44.121,0,0,1-9.451-14.059,44.021,44.021,0,0,1-3.465-17.216,44.018,44.018,0,0,1,3.465-17.216,44.046,44.046,0,0,1,9.451-14.059,43.828,43.828,0,0,1,14.014-9.477,43.6,43.6,0,0,1,17.15-3.475,43.608,43.608,0,0,1,17.15,3.475,43.893,43.893,0,0,1,14.014,9.477,44.078,44.078,0,0,1,9.451,14.059,44.121,44.121,0,0,1,3.463,17.216,44.125,44.125,0,0,1-3.463,17.216,44.153,44.153,0,0,1-9.451,14.059,43.988,43.988,0,0,1-14.014,9.477,43.707,43.707,0,0,1-17.15,3.469A43.7,43.7,0,0,1,18619.68-10602.651Z" transform="translate(-15409.918 11734.219)" fill="#fff" stroke="#000" stroke-width="10"/>
  </g>
</svg>
