<svg xmlns="http://www.w3.org/2000/svg" width="274.198" height="250" viewBox="0 0 274.198 250">
  <path id="CRBT-logo-white" d="M274.149,250H149.209a126.028,126.028,0,0,1-25.189-2.54,124.325,124.325,0,0,1-44.693-18.807A125.685,125.685,0,0,1,49.051,199.79l52.668-30.428-77.5-44.772A125.921,125.921,0,0,1,26.76,99.8,124.3,124.3,0,0,1,45.566,55.107,125.351,125.351,0,0,1,100.558,9.823,124.335,124.335,0,0,1,124.02,2.54a126.187,126.187,0,0,1,50.379,0,124.3,124.3,0,0,1,44.693,18.806,125.366,125.366,0,0,1,45.285,54.992A124.374,124.374,0,0,1,271.661,99.8a125.919,125.919,0,0,1,2.539,25.189v.03L274.148,250h0Zm-85.491-92.927-72.962,5.1.239,3.411A34.291,34.291,0,0,0,150.014,197.4c.8,0,1.612-.028,2.421-.085l1.322-.092a37.617,37.617,0,0,0,34.9-40.15Zm15.316-72.892A23.589,23.589,0,1,0,227.5,107.77,23.582,23.582,0,0,0,203.974,84.181Zm-106.648,0a23.589,23.589,0,1,0,23.521,23.588A23.582,23.582,0,0,0,97.326,84.181ZM0,228.127V110.6l24.22,13.992q0,.2,0,.4v.02a125.925,125.925,0,0,0,2.54,25.19,124.32,124.32,0,0,0,18.806,44.693c1.115,1.65,2.287,3.3,3.485,4.9L0,228.127Z" transform="translate(-0.001)" fill="#fff"/>
</svg>
